<?xml version="1.0" encoding="UTF-8" standalone="no"?>
<!DOCTYPE svg PUBLIC "-//W3C//DTD SVG 1.1//EN"
 "http://www.w3.org/Graphics/SVG/1.1/DTD/svg11.dtd">
<!-- Generated by graphviz version 12.2.1 (0)
 -->
<!-- Title: Geometry.hpp Pages: 1 -->
<svg width="221pt" height="140pt"
 viewBox="0.00 0.00 221.25 140.00" xmlns="http://www.w3.org/2000/svg" xmlns:xlink="http://www.w3.org/1999/xlink">
<g id="graph0" class="graph" transform="scale(1 1) rotate(0) translate(4 136)">
<title>Geometry.hpp</title>
<!-- Node1 -->
<g id="Node000001" class="node">
<title>Node1</title>
<g id="a_Node000001"><a xlink:title="Définition des classes géométriques.">
<polygon fill="#999999" stroke="#666666" points="164.75,-132 88,-132 88,-112 164.75,-112 164.75,-132"/>
<text text-anchor="middle" x="126.38" y="-118.5" font-family="Helvetica,sans-Serif" font-size="10.00">Geometry.hpp</text>
</a>
</g>
</g>
<!-- Node2 -->
<g id="Node000002" class="node">
<title>Node2</title>
<g id="a_Node000002"><a xlink:href="_geometry_8cpp.html" target="_top" xlink:title="Implémentation des classes géométriques.">
<polygon fill="white" stroke="#666666" points="76.75,-76 0,-76 0,-56 76.75,-56 76.75,-76"/>
<text text-anchor="middle" x="38.38" y="-62.5" font-family="Helvetica,sans-Serif" font-size="10.00">Geometry.cpp</text>
</a>
</g>
</g>
<!-- Node1&#45;&gt;Node2 -->
<g id="edge1_Node000001_Node000002" class="edge">
<title>Node1&#45;&gt;Node2</title>
<g id="a_edge1_Node000001_Node000002"><a xlink:title=" ">
<path fill="none" stroke="#63b8ff" d="M101.62,-105.81C86.27,-96.39 67.03,-84.58 53.82,-76.48"/>
<polygon fill="#63b8ff" stroke="#63b8ff" points="99.4,-108.56 109.76,-110.8 103.06,-102.59 99.4,-108.56"/>
</a>
</g>
</g>
<!-- Node3 -->
<g id="Node000003" class="node">
<title>Node3</title>
<g id="a_Node000003"><a xlink:href="_scene_8hpp.html" target="_top" xlink:title="Gestion de la scène, caméra et rasterisation.">
<polygon fill="white" stroke="#666666" points="157.62,-76 95.12,-76 95.12,-56 157.62,-56 157.62,-76"/>
<text text-anchor="middle" x="126.38" y="-62.5" font-family="Helvetica,sans-Serif" font-size="10.00">Scene.hpp</text>
</a>
</g>
</g>
<!-- Node1&#45;&gt;Node3 -->
<g id="edge2_Node000001_Node000003" class="edge">
<title>Node1&#45;&gt;Node3</title>
<g id="a_edge2_Node000001_Node000003"><a xlink:title=" ">
<path fill="none" stroke="#63b8ff" d="M126.38,-100.13C126.38,-91.9 126.38,-82.85 126.38,-76.3"/>
<polygon fill="#63b8ff" stroke="#63b8ff" points="122.88,-100.08 126.38,-110.08 129.88,-100.08 122.88,-100.08"/>
</a>
</g>
</g>
<!-- Node5 -->
<g id="Node000005" class="node">
<title>Node5</title>
<g id="a_Node000005"><a xlink:href="main_8cpp.html" target="_top" xlink:title="Boucle principale et gestion des événements clavier.">
<polygon fill="white" stroke="#666666" points="213.25,-20 157.5,-20 157.5,0 213.25,0 213.25,-20"/>
<text text-anchor="middle" x="185.38" y="-6.5" font-family="Helvetica,sans-Serif" font-size="10.00">main.cpp</text>
</a>
</g>
</g>
<!-- Node1&#45;&gt;Node5 -->
<g id="edge5_Node000001_Node000005" class="edge">
<title>Node1&#45;&gt;Node5</title>
<g id="a_edge5_Node000001_Node000005"><a xlink:title=" ">
<path fill="none" stroke="#63b8ff" d="M145.04,-103.69C152.57,-95.86 160.78,-86.1 166.38,-76 176.51,-57.69 181.74,-33.42 183.98,-20.33"/>
<polygon fill="#63b8ff" stroke="#63b8ff" points="142.74,-101.05 138.08,-110.57 147.66,-106.03 142.74,-101.05"/>
</a>
</g>
</g>
<!-- Node4 -->
<g id="Node000004" class="node">
<title>Node4</title>
<g id="a_Node000004"><a xlink:href="_scene_8cpp.html" target="_top" xlink:title="Implémentation de la gestion de scène et rasterisation.">
<polygon fill="white" stroke="#666666" points="139.62,-20 77.12,-20 77.12,0 139.62,0 139.62,-20"/>
<text text-anchor="middle" x="108.38" y="-6.5" font-family="Helvetica,sans-Serif" font-size="10.00">Scene.cpp</text>
</a>
</g>
</g>
<!-- Node3&#45;&gt;Node4 -->
<g id="edge3_Node000003_Node000004" class="edge">
<title>Node3&#45;&gt;Node4</title>
<g id="a_edge3_Node000003_Node000004"><a xlink:title=" ">
<path fill="none" stroke="#63b8ff" d="M119.61,-44.71C116.82,-36.32 113.71,-27.01 111.47,-20.3"/>
<polygon fill="#63b8ff" stroke="#63b8ff" points="116.28,-45.78 122.76,-54.16 122.92,-43.56 116.28,-45.78"/>
</a>
</g>
</g>
<!-- Node3&#45;&gt;Node5 -->
<g id="edge4_Node000003_Node000005" class="edge">
<title>Node3&#45;&gt;Node5</title>
<g id="a_edge4_Node000003_Node000005"><a xlink:title=" ">
<path fill="none" stroke="#63b8ff" d="M145.12,-47.85C155.09,-38.72 166.96,-27.86 175.22,-20.3"/>
<polygon fill="#63b8ff" stroke="#63b8ff" points="142.78,-45.24 137.77,-54.57 147.51,-50.4 142.78,-45.24"/>
</a>
</g>
</g>
</g>
</svg>
