<?xml version="1.0" encoding="UTF-8" standalone="no"?>
<!DOCTYPE svg PUBLIC "-//W3C//DTD SVG 1.1//EN"
 "http://www.w3.org/Graphics/SVG/1.1/DTD/svg11.dtd">
<!-- Generated by graphviz version 12.2.1 (0)
 -->
<!-- Title: Scene.hpp Pages: 1 -->
<svg width="144pt" height="84pt"
 viewBox="0.00 0.00 144.12 84.00" xmlns="http://www.w3.org/2000/svg" xmlns:xlink="http://www.w3.org/1999/xlink">
<g id="graph0" class="graph" transform="scale(1 1) rotate(0) translate(4 80)">
<title>Scene.hpp</title>
<!-- Node1 -->
<g id="Node000001" class="node">
<title>Node1</title>
<g id="a_Node000001"><a xlink:title="Gestion de la scène, caméra et rasterisation.">
<polygon fill="#999999" stroke="#666666" points="100.5,-76 38,-76 38,-56 100.5,-56 100.5,-76"/>
<text text-anchor="middle" x="69.25" y="-62.5" font-family="Helvetica,sans-Serif" font-size="10.00">Scene.hpp</text>
</a>
</g>
</g>
<!-- Node2 -->
<g id="Node000002" class="node">
<title>Node2</title>
<g id="a_Node000002"><a xlink:href="_scene_8cpp.html" target="_top" xlink:title="Implémentation de la gestion de scène et rasterisation.">
<polygon fill="white" stroke="#666666" points="62.5,-20 0,-20 0,0 62.5,0 62.5,-20"/>
<text text-anchor="middle" x="31.25" y="-6.5" font-family="Helvetica,sans-Serif" font-size="10.00">Scene.cpp</text>
</a>
</g>
</g>
<!-- Node1&#45;&gt;Node2 -->
<g id="edge1_Node000001_Node000002" class="edge">
<title>Node1&#45;&gt;Node2</title>
<g id="a_edge1_Node000001_Node000002"><a xlink:title=" ">
<path fill="none" stroke="#63b8ff" d="M56.19,-46.44C49.98,-37.62 42.84,-27.47 37.79,-20.3"/>
<polygon fill="#63b8ff" stroke="#63b8ff" points="53.14,-48.19 61.76,-54.36 58.87,-44.16 53.14,-48.19"/>
</a>
</g>
</g>
<!-- Node3 -->
<g id="Node000003" class="node">
<title>Node3</title>
<g id="a_Node000003"><a xlink:href="main_8cpp.html" target="_top" xlink:title="Boucle principale et gestion des événements clavier.">
<polygon fill="white" stroke="#666666" points="136.12,-20 80.38,-20 80.38,0 136.12,0 136.12,-20"/>
<text text-anchor="middle" x="108.25" y="-6.5" font-family="Helvetica,sans-Serif" font-size="10.00">main.cpp</text>
</a>
</g>
</g>
<!-- Node1&#45;&gt;Node3 -->
<g id="edge2_Node000001_Node000003" class="edge">
<title>Node1&#45;&gt;Node3</title>
<g id="a_edge2_Node000001_Node000003"><a xlink:title=" ">
<path fill="none" stroke="#63b8ff" d="M82.66,-46.44C89.02,-37.62 96.36,-27.47 101.53,-20.3"/>
<polygon fill="#63b8ff" stroke="#63b8ff" points="79.95,-44.21 76.93,-54.37 85.62,-48.31 79.95,-44.21"/>
</a>
</g>
</g>
</g>
</svg>
