<?xml version="1.0" encoding="UTF-8" standalone="no"?>
<!DOCTYPE svg PUBLIC "-//W3C//DTD SVG 1.1//EN"
 "http://www.w3.org/Graphics/SVG/1.1/DTD/svg11.dtd">
<!-- Generated by graphviz version 12.2.1 (0)
 -->
<!-- Title: Scene.cpp Pages: 1 -->
<svg width="297pt" height="196pt"
 viewBox="0.00 0.00 297.12 196.00" xmlns="http://www.w3.org/2000/svg" xmlns:xlink="http://www.w3.org/1999/xlink">

<svg id="main" version="1.1" xmlns="http://www.w3.org/2000/svg" xmlns:xlink="http://www.w3.org/1999/xlink" xml:space="preserve">

<style type="text/css"><![CDATA[
.node, .edge {opacity: 0.7;}
.node.selected, .edge.selected {opacity: 1;}
.edge:hover path { stroke: red; }
.edge:hover polygon { stroke: red; fill: red; }
]]></style>
<script type="application/ecmascript" xlink:href="svg.min.js"/>
<svg id="graph" class="graph">
<g id="graph0" class="graph" transform="scale(1 1) rotate(0) translate(4 192)">
<title>Scene.cpp</title>
<!-- Node1 -->
<g id="Node000001" class="node">
<title>Node1</title>
<g id="a_Node000001"><a xlink:title="Implémentation de la gestion de scène et rasterisation.">
<polygon fill="#999999" stroke="#666666" points="181.75,-188 119.25,-188 119.25,-168 181.75,-168 181.75,-188"/>
<text text-anchor="middle" x="150.5" y="-174.5" font-family="Helvetica,sans-Serif" font-size="10.00">Scene.cpp</text>
</a>
</g>
</g>
<!-- Node2 -->
<g id="Node000002" class="node">
<title>Node2</title>
<g id="a_Node000002"><a xlink:href="_scene_8hpp.html" target="_top" xlink:title="Gestion de la scène, caméra et rasterisation.">
<polygon fill="white" stroke="#666666" points="119.75,-132 57.25,-132 57.25,-112 119.75,-112 119.75,-132"/>
<text text-anchor="middle" x="88.5" y="-118.5" font-family="Helvetica,sans-Serif" font-size="10.00">Scene.hpp</text>
</a>
</g>
</g>
<!-- Node1&#45;&gt;Node2 -->
<g id="edge1_Node000001_Node000002" class="edge">
<title>Node1&#45;&gt;Node2</title>
<g id="a_edge1_Node000001_Node000002"><a xlink:title=" ">
<path fill="none" stroke="#63b8ff" d="M139.7,-167.59C130.9,-159.93 118.25,-148.91 107.73,-139.75"/>
<polygon fill="#63b8ff" stroke="#63b8ff" points="110.16,-137.22 100.32,-133.29 105.56,-142.5 110.16,-137.22"/>
</a>
</g>
</g>
<!-- Node5 -->
<g id="Node000005" class="node">
<title>Node5</title>
<g id="a_Node000005"><a xlink:title=" ">
<polygon fill="#e0e0e0" stroke="#999999" points="106,-20 63,-20 63,0 106,0 106,-20"/>
<text text-anchor="middle" x="84.5" y="-6.5" font-family="Helvetica,sans-Serif" font-size="10.00">cmath</text>
</a>
</g>
</g>
<!-- Node1&#45;&gt;Node5 -->
<g id="edge11_Node000001_Node000005" class="edge">
<title>Node1&#45;&gt;Node5</title>
<g id="a_edge11_Node000001_Node000005"><a xlink:title=" ">
<path fill="none" stroke="#63b8ff" d="M151,-167.57C151.71,-146.34 151.19,-93.69 131.5,-56 125.75,-45 116.29,-35.16 107.35,-27.5"/>
<polygon fill="#63b8ff" stroke="#63b8ff" points="109.58,-24.81 99.59,-21.3 105.22,-30.28 109.58,-24.81"/>
</a>
</g>
</g>
<!-- Node10 -->
<g id="Node000010" class="node">
<title>Node10</title>
<g id="a_Node000010"><a xlink:title=" ">
<polygon fill="#e0e0e0" stroke="#999999" points="234.38,-132 178.62,-132 178.62,-112 234.38,-112 234.38,-132"/>
<text text-anchor="middle" x="206.5" y="-118.5" font-family="Helvetica,sans-Serif" font-size="10.00">algorithm</text>
</a>
</g>
</g>
<!-- Node1&#45;&gt;Node10 -->
<g id="edge10_Node000001_Node000010" class="edge">
<title>Node1&#45;&gt;Node10</title>
<g id="a_edge10_Node000001_Node000010"><a xlink:title=" ">
<path fill="none" stroke="#63b8ff" d="M160.25,-167.59C168.12,-160.01 179.4,-149.13 188.85,-140.02"/>
<polygon fill="#63b8ff" stroke="#63b8ff" points="191,-142.81 195.77,-133.35 186.14,-137.77 191,-142.81"/>
</a>
</g>
</g>
<!-- Node3 -->
<g id="Node000003" class="node">
<title>Node3</title>
<g id="a_Node000003"><a xlink:href="_geometry_8hpp.html" target="_top" xlink:title="Définition des classes géométriques.">
<polygon fill="white" stroke="#666666" points="122.88,-76 46.12,-76 46.12,-56 122.88,-56 122.88,-76"/>
<text text-anchor="middle" x="84.5" y="-62.5" font-family="Helvetica,sans-Serif" font-size="10.00">Geometry.hpp</text>
</a>
</g>
</g>
<!-- Node2&#45;&gt;Node3 -->
<g id="edge2_Node000002_Node000003" class="edge">
<title>Node2&#45;&gt;Node3</title>
<g id="a_edge2_Node000002_Node000003"><a xlink:title=" ">
<path fill="none" stroke="#63b8ff" d="M87.8,-111.59C87.32,-105.01 86.65,-95.96 86.04,-87.73"/>
<polygon fill="#63b8ff" stroke="#63b8ff" points="89.53,-87.52 85.3,-77.81 82.55,-88.04 89.53,-87.52"/>
</a>
</g>
</g>
<!-- Node4 -->
<g id="Node000004" class="node">
<title>Node4</title>
<g id="a_Node000004"><a xlink:title=" ">
<polygon fill="#e0e0e0" stroke="#999999" points="43,-20 0,-20 0,0 43,0 43,-20"/>
<text text-anchor="middle" x="21.5" y="-6.5" font-family="Helvetica,sans-Serif" font-size="10.00">vector</text>
</a>
</g>
</g>
<!-- Node2&#45;&gt;Node4 -->
<g id="edge9_Node000002_Node000004" class="edge">
<title>Node2&#45;&gt;Node4</title>
<g id="a_edge9_Node000002_Node000004"><a xlink:title=" ">
<path fill="none" stroke="#63b8ff" d="M73.76,-111.71C62.18,-103.65 46.55,-90.95 37.5,-76 29.38,-62.59 25.37,-45.27 23.4,-31.88"/>
<polygon fill="#63b8ff" stroke="#63b8ff" points="26.88,-31.52 22.24,-22 19.93,-32.34 26.88,-31.52"/>
</a>
</g>
</g>
<!-- Node6 -->
<g id="Node000006" class="node">
<title>Node6</title>
<g id="a_Node000006"><a xlink:href="_sdl_8hpp.html" target="_top" xlink:title="Encapsulation de la bibliothèque SDL2.">
<polygon fill="white" stroke="#666666" points="229,-76 180,-76 180,-56 229,-56 229,-76"/>
<text text-anchor="middle" x="204.5" y="-62.5" font-family="Helvetica,sans-Serif" font-size="10.00">Sdl.hpp</text>
</a>
</g>
</g>
<!-- Node2&#45;&gt;Node6 -->
<g id="edge5_Node000002_Node000006" class="edge">
<title>Node2&#45;&gt;Node6</title>
<g id="a_edge5_Node000002_Node000006"><a xlink:title=" ">
<path fill="none" stroke="#63b8ff" d="M108.71,-111.59C126.73,-103.21 153.37,-90.8 173.98,-81.21"/>
<polygon fill="#63b8ff" stroke="#63b8ff" points="175.18,-84.51 182.76,-77.12 172.22,-78.17 175.18,-84.51"/>
</a>
</g>
</g>
<!-- Node3&#45;&gt;Node4 -->
<g id="edge3_Node000003_Node000004" class="edge">
<title>Node3&#45;&gt;Node4</title>
<g id="a_edge3_Node000003_Node000004"><a xlink:title=" ">
<path fill="none" stroke="#63b8ff" d="M73.53,-55.59C64.58,-47.93 51.73,-36.91 41.04,-27.75"/>
<polygon fill="#63b8ff" stroke="#63b8ff" points="43.37,-25.13 33.5,-21.28 38.81,-30.45 43.37,-25.13"/>
</a>
</g>
</g>
<!-- Node3&#45;&gt;Node5 -->
<g id="edge4_Node000003_Node000005" class="edge">
<title>Node3&#45;&gt;Node5</title>
<g id="a_edge4_Node000003_Node000005"><a xlink:title=" ">
<path fill="none" stroke="#63b8ff" d="M84.5,-55.59C84.5,-49.01 84.5,-39.96 84.5,-31.73"/>
<polygon fill="#63b8ff" stroke="#63b8ff" points="88,-31.81 84.5,-21.81 81,-31.81 88,-31.81"/>
</a>
</g>
</g>
<!-- Node7 -->
<g id="Node000007" class="node">
<title>Node7</title>
<g id="a_Node000007"><a xlink:title=" ">
<polygon fill="#e0e0e0" stroke="#999999" points="167.38,-20 123.62,-20 123.62,0 167.38,0 167.38,-20"/>
<text text-anchor="middle" x="145.5" y="-6.5" font-family="Helvetica,sans-Serif" font-size="10.00">SDL.h</text>
</a>
</g>
</g>
<!-- Node6&#45;&gt;Node7 -->
<g id="edge6_Node000006_Node000007" class="edge">
<title>Node6&#45;&gt;Node7</title>
<g id="a_edge6_Node000006_Node000007"><a xlink:title=" ">
<path fill="none" stroke="#63b8ff" d="M194.22,-55.59C185.93,-48.01 174.05,-37.13 164.1,-28.02"/>
<polygon fill="#63b8ff" stroke="#63b8ff" points="166.52,-25.49 156.78,-21.32 161.79,-30.65 166.52,-25.49"/>
</a>
</g>
</g>
<!-- Node8 -->
<g id="Node000008" class="node">
<title>Node8</title>
<g id="a_Node000008"><a xlink:title=" ">
<polygon fill="#e0e0e0" stroke="#999999" points="225.5,-20 185.5,-20 185.5,0 225.5,0 225.5,-20"/>
<text text-anchor="middle" x="205.5" y="-6.5" font-family="Helvetica,sans-Serif" font-size="10.00">string</text>
</a>
</g>
</g>
<!-- Node6&#45;&gt;Node8 -->
<g id="edge7_Node000006_Node000008" class="edge">
<title>Node6&#45;&gt;Node8</title>
<g id="a_edge7_Node000006_Node000008"><a xlink:title=" ">
<path fill="none" stroke="#63b8ff" d="M204.67,-55.59C204.8,-49.01 204.96,-39.96 205.12,-31.73"/>
<polygon fill="#63b8ff" stroke="#63b8ff" points="208.61,-31.87 205.3,-21.81 201.62,-31.75 208.61,-31.87"/>
</a>
</g>
</g>
<!-- Node9 -->
<g id="Node000009" class="node">
<title>Node9</title>
<g id="a_Node000009"><a xlink:title=" ">
<polygon fill="#e0e0e0" stroke="#999999" points="289.12,-20 243.88,-20 243.88,0 289.12,0 289.12,-20"/>
<text text-anchor="middle" x="266.5" y="-6.5" font-family="Helvetica,sans-Serif" font-size="10.00">cstdint</text>
</a>
</g>
</g>
<!-- Node6&#45;&gt;Node9 -->
<g id="edge8_Node000006_Node000009" class="edge">
<title>Node6&#45;&gt;Node9</title>
<g id="a_edge8_Node000006_Node000009"><a xlink:title=" ">
<path fill="none" stroke="#63b8ff" d="M215.3,-55.59C224.1,-47.93 236.75,-36.91 247.27,-27.75"/>
<polygon fill="#63b8ff" stroke="#63b8ff" points="249.44,-30.5 254.68,-21.29 244.84,-25.22 249.44,-30.5"/>
</a>
</g>
</g>
</g>
</svg>
</svg>

<style type='text/css'>
<![CDATA[
[data-mouse-over-selected='false'] { opacity: 0.7; }
[data-mouse-over-selected='true']  { opacity: 1.0; }
]]>
</style>
<script type="application/ecmascript"><![CDATA[
document.addEventListener('DOMContentLoaded', (event) => {
  highlightEdges();
  highlightAdjacentNodes();
});
]]></script>
</svg>
