<?xml version="1.0" encoding="UTF-8" standalone="no"?>
<!DOCTYPE svg PUBLIC "-//W3C//DTD SVG 1.1//EN"
 "http://www.w3.org/Graphics/SVG/1.1/DTD/svg11.dtd">
<!-- Generated by graphviz version 12.2.1 (0)
 -->
<!-- Title: Sdl.hpp Pages: 1 -->
<svg width="194pt" height="140pt"
 viewBox="0.00 0.00 193.75 140.00" xmlns="http://www.w3.org/2000/svg" xmlns:xlink="http://www.w3.org/1999/xlink">

<svg id="main" version="1.1" xmlns="http://www.w3.org/2000/svg" xmlns:xlink="http://www.w3.org/1999/xlink" xml:space="preserve">

<style type="text/css"><![CDATA[
.node, .edge {opacity: 0.7;}
.node.selected, .edge.selected {opacity: 1;}
.edge:hover path { stroke: red; }
.edge:hover polygon { stroke: red; fill: red; }
]]></style>
<script type="application/ecmascript" xlink:href="svg.min.js"/>
<svg id="graph" class="graph">
<g id="graph0" class="graph" transform="scale(1 1) rotate(0) translate(4 136)">
<title>Sdl.hpp</title>
<!-- Node1 -->
<g id="Node000001" class="node">
<title>Node1</title>
<g id="a_Node000001"><a xlink:title="Encapsulation de la bibliothèque SDL2.">
<polygon fill="#999999" stroke="#666666" points="132.75,-132 83.75,-132 83.75,-112 132.75,-112 132.75,-132"/>
<text text-anchor="middle" x="108.25" y="-118.5" font-family="Helvetica,sans-Serif" font-size="10.00">Sdl.hpp</text>
</a>
</g>
</g>
<!-- Node2 -->
<g id="Node000002" class="node">
<title>Node2</title>
<g id="a_Node000002"><a xlink:href="_scene_8hpp.html" target="_top" xlink:title="Gestion de la scène, caméra et rasterisation.">
<polygon fill="white" stroke="#666666" points="80.5,-76 18,-76 18,-56 80.5,-56 80.5,-76"/>
<text text-anchor="middle" x="49.25" y="-62.5" font-family="Helvetica,sans-Serif" font-size="10.00">Scene.hpp</text>
</a>
</g>
</g>
<!-- Node1&#45;&gt;Node2 -->
<g id="edge1_Node000001_Node000002" class="edge">
<title>Node1&#45;&gt;Node2</title>
<g id="a_edge1_Node000001_Node000002"><a xlink:title=" ">
<path fill="none" stroke="#63b8ff" d="M89.51,-103.85C79.54,-94.72 67.67,-83.86 59.41,-76.3"/>
<polygon fill="#63b8ff" stroke="#63b8ff" points="87.12,-106.4 96.86,-110.57 91.84,-101.24 87.12,-106.4"/>
</a>
</g>
</g>
<!-- Node4 -->
<g id="Node000004" class="node">
<title>Node4</title>
<g id="a_Node000004"><a xlink:href="main_8cpp.html" target="_top" xlink:title="Boucle principale et gestion des événements clavier.">
<polygon fill="white" stroke="#666666" points="136.12,-20 80.38,-20 80.38,0 136.12,0 136.12,-20"/>
<text text-anchor="middle" x="108.25" y="-6.5" font-family="Helvetica,sans-Serif" font-size="10.00">main.cpp</text>
</a>
</g>
</g>
<!-- Node1&#45;&gt;Node4 -->
<g id="edge5_Node000001_Node000004" class="edge">
<title>Node1&#45;&gt;Node4</title>
<g id="a_edge5_Node000001_Node000004"><a xlink:title=" ">
<path fill="none" stroke="#63b8ff" d="M108.25,-100.31C108.25,-76.36 108.25,-37.95 108.25,-20.35"/>
<polygon fill="#63b8ff" stroke="#63b8ff" points="104.75,-100.11 108.25,-110.11 111.75,-100.11 104.75,-100.11"/>
</a>
</g>
</g>
<!-- Node5 -->
<g id="Node000005" class="node">
<title>Node5</title>
<g id="a_Node000005"><a xlink:href="_sdl_8cpp.html" target="_top" xlink:title="Implémentation de la classe Sdl.">
<polygon fill="white" stroke="#666666" points="185.75,-76 136.75,-76 136.75,-56 185.75,-56 185.75,-76"/>
<text text-anchor="middle" x="161.25" y="-62.5" font-family="Helvetica,sans-Serif" font-size="10.00">Sdl.cpp</text>
</a>
</g>
</g>
<!-- Node1&#45;&gt;Node5 -->
<g id="edge4_Node000001_Node000005" class="edge">
<title>Node1&#45;&gt;Node5</title>
<g id="a_edge4_Node000001_Node000005"><a xlink:title=" ">
<path fill="none" stroke="#63b8ff" d="M125.36,-103.57C134.26,-94.5 144.78,-83.78 152.12,-76.3"/>
<polygon fill="#63b8ff" stroke="#63b8ff" points="123.05,-100.93 118.54,-110.51 128.04,-105.83 123.05,-100.93"/>
</a>
</g>
</g>
<!-- Node3 -->
<g id="Node000003" class="node">
<title>Node3</title>
<g id="a_Node000003"><a xlink:href="_scene_8cpp.html" target="_top" xlink:title="Implémentation de la gestion de scène et rasterisation.">
<polygon fill="white" stroke="#666666" points="62.5,-20 0,-20 0,0 62.5,0 62.5,-20"/>
<text text-anchor="middle" x="31.25" y="-6.5" font-family="Helvetica,sans-Serif" font-size="10.00">Scene.cpp</text>
</a>
</g>
</g>
<!-- Node2&#45;&gt;Node3 -->
<g id="edge2_Node000002_Node000003" class="edge">
<title>Node2&#45;&gt;Node3</title>
<g id="a_edge2_Node000002_Node000003"><a xlink:title=" ">
<path fill="none" stroke="#63b8ff" d="M42.49,-44.71C39.69,-36.32 36.59,-27.01 34.35,-20.3"/>
<polygon fill="#63b8ff" stroke="#63b8ff" points="39.15,-45.78 45.64,-54.16 45.79,-43.56 39.15,-45.78"/>
</a>
</g>
</g>
<!-- Node2&#45;&gt;Node4 -->
<g id="edge3_Node000002_Node000004" class="edge">
<title>Node2&#45;&gt;Node4</title>
<g id="a_edge3_Node000002_Node000004"><a xlink:title=" ">
<path fill="none" stroke="#63b8ff" d="M67.99,-47.85C77.96,-38.72 89.83,-27.86 98.09,-20.3"/>
<polygon fill="#63b8ff" stroke="#63b8ff" points="65.66,-45.24 60.64,-54.57 70.38,-50.4 65.66,-45.24"/>
</a>
</g>
</g>
</g>
</svg>
</svg>

<style type='text/css'>
<![CDATA[
[data-mouse-over-selected='false'] { opacity: 0.7; }
[data-mouse-over-selected='true']  { opacity: 1.0; }
]]>
</style>
<script type="application/ecmascript"><![CDATA[
document.addEventListener('DOMContentLoaded', (event) => {
  highlightEdges();
  highlightAdjacentNodes();
});
]]></script>
</svg>
