<?xml version="1.0" encoding="UTF-8" standalone="no"?>
<!DOCTYPE svg PUBLIC "-//W3C//DTD SVG 1.1//EN"
 "http://www.w3.org/Graphics/SVG/1.1/DTD/svg11.dtd">
<!-- Generated by graphviz version 12.2.1 (0)
 -->
<!-- Title: Sdl.cpp Pages: 1 -->
<svg width="235pt" height="140pt"
 viewBox="0.00 0.00 234.50 140.00" xmlns="http://www.w3.org/2000/svg" xmlns:xlink="http://www.w3.org/1999/xlink">

<svg id="main" version="1.1" xmlns="http://www.w3.org/2000/svg" xmlns:xlink="http://www.w3.org/1999/xlink" xml:space="preserve">

<style type="text/css"><![CDATA[
.node, .edge {opacity: 0.7;}
.node.selected, .edge.selected {opacity: 1;}
.edge:hover path { stroke: red; }
.edge:hover polygon { stroke: red; fill: red; }
]]></style>
<script type="application/ecmascript" xlink:href="svg.min.js"/>
<svg id="graph" class="graph">
<g id="graph0" class="graph" transform="scale(1 1) rotate(0) translate(4 136)">
<title>Sdl.cpp</title>
<!-- Node1 -->
<g id="Node000001" class="node">
<title>Node1</title>
<g id="a_Node000001"><a xlink:title="Implémentation de la classe Sdl.">
<polygon fill="#999999" stroke="#666666" points="168.38,-132 119.38,-132 119.38,-112 168.38,-112 168.38,-132"/>
<text text-anchor="middle" x="143.88" y="-118.5" font-family="Helvetica,sans-Serif" font-size="10.00">Sdl.cpp</text>
</a>
</g>
</g>
<!-- Node2 -->
<g id="Node000002" class="node">
<title>Node2</title>
<g id="a_Node000002"><a xlink:href="_sdl_8hpp.html" target="_top" xlink:title="Encapsulation de la bibliothèque SDL2.">
<polygon fill="white" stroke="#666666" points="106.38,-76 57.38,-76 57.38,-56 106.38,-56 106.38,-76"/>
<text text-anchor="middle" x="81.88" y="-62.5" font-family="Helvetica,sans-Serif" font-size="10.00">Sdl.hpp</text>
</a>
</g>
</g>
<!-- Node1&#45;&gt;Node2 -->
<g id="edge1_Node000001_Node000002" class="edge">
<title>Node1&#45;&gt;Node2</title>
<g id="a_edge1_Node000001_Node000002"><a xlink:title=" ">
<path fill="none" stroke="#63b8ff" d="M133.08,-111.59C124.27,-103.93 111.62,-92.91 101.1,-83.75"/>
<polygon fill="#63b8ff" stroke="#63b8ff" points="103.53,-81.22 93.69,-77.29 98.93,-86.5 103.53,-81.22"/>
</a>
</g>
</g>
<!-- Node6 -->
<g id="Node000006" class="node">
<title>Node6</title>
<g id="a_Node000006"><a xlink:title=" ">
<polygon fill="#e0e0e0" stroke="#999999" points="163.5,-76 124.25,-76 124.25,-56 163.5,-56 163.5,-76"/>
<text text-anchor="middle" x="143.88" y="-62.5" font-family="Helvetica,sans-Serif" font-size="10.00">limits</text>
</a>
</g>
</g>
<!-- Node1&#45;&gt;Node6 -->
<g id="edge5_Node000001_Node000006" class="edge">
<title>Node1&#45;&gt;Node6</title>
<g id="a_edge5_Node000001_Node000006"><a xlink:title=" ">
<path fill="none" stroke="#63b8ff" d="M143.88,-111.59C143.88,-105.01 143.88,-95.96 143.88,-87.73"/>
<polygon fill="#63b8ff" stroke="#63b8ff" points="147.38,-87.81 143.88,-77.81 140.38,-87.81 147.38,-87.81"/>
</a>
</g>
</g>
<!-- Node7 -->
<g id="Node000007" class="node">
<title>Node7</title>
<g id="a_Node000007"><a xlink:title=" ">
<polygon fill="#e0e0e0" stroke="#999999" points="226.5,-76 181.25,-76 181.25,-56 226.5,-56 226.5,-76"/>
<text text-anchor="middle" x="203.88" y="-62.5" font-family="Helvetica,sans-Serif" font-size="10.00">cstring</text>
</a>
</g>
</g>
<!-- Node1&#45;&gt;Node7 -->
<g id="edge6_Node000001_Node000007" class="edge">
<title>Node1&#45;&gt;Node7</title>
<g id="a_edge6_Node000001_Node000007"><a xlink:title=" ">
<path fill="none" stroke="#63b8ff" d="M154.33,-111.59C162.84,-103.93 175.09,-92.91 185.27,-83.75"/>
<polygon fill="#63b8ff" stroke="#63b8ff" points="187.33,-86.6 192.42,-77.31 182.64,-81.4 187.33,-86.6"/>
</a>
</g>
</g>
<!-- Node3 -->
<g id="Node000003" class="node">
<title>Node3</title>
<g id="a_Node000003"><a xlink:title=" ">
<polygon fill="#e0e0e0" stroke="#999999" points="43.75,-20 0,-20 0,0 43.75,0 43.75,-20"/>
<text text-anchor="middle" x="21.88" y="-6.5" font-family="Helvetica,sans-Serif" font-size="10.00">SDL.h</text>
</a>
</g>
</g>
<!-- Node2&#45;&gt;Node3 -->
<g id="edge2_Node000002_Node000003" class="edge">
<title>Node2&#45;&gt;Node3</title>
<g id="a_edge2_Node000002_Node000003"><a xlink:title=" ">
<path fill="none" stroke="#63b8ff" d="M71.42,-55.59C62.91,-47.93 50.66,-36.91 40.48,-27.75"/>
<polygon fill="#63b8ff" stroke="#63b8ff" points="43.11,-25.4 33.33,-21.31 38.42,-30.6 43.11,-25.4"/>
</a>
</g>
</g>
<!-- Node4 -->
<g id="Node000004" class="node">
<title>Node4</title>
<g id="a_Node000004"><a xlink:title=" ">
<polygon fill="#e0e0e0" stroke="#999999" points="101.88,-20 61.88,-20 61.88,0 101.88,0 101.88,-20"/>
<text text-anchor="middle" x="81.88" y="-6.5" font-family="Helvetica,sans-Serif" font-size="10.00">string</text>
</a>
</g>
</g>
<!-- Node2&#45;&gt;Node4 -->
<g id="edge3_Node000002_Node000004" class="edge">
<title>Node2&#45;&gt;Node4</title>
<g id="a_edge3_Node000002_Node000004"><a xlink:title=" ">
<path fill="none" stroke="#63b8ff" d="M81.88,-55.59C81.88,-49.01 81.88,-39.96 81.88,-31.73"/>
<polygon fill="#63b8ff" stroke="#63b8ff" points="85.38,-31.81 81.88,-21.81 78.38,-31.81 85.38,-31.81"/>
</a>
</g>
</g>
<!-- Node5 -->
<g id="Node000005" class="node">
<title>Node5</title>
<g id="a_Node000005"><a xlink:title=" ">
<polygon fill="#e0e0e0" stroke="#999999" points="165.5,-20 120.25,-20 120.25,0 165.5,0 165.5,-20"/>
<text text-anchor="middle" x="142.88" y="-6.5" font-family="Helvetica,sans-Serif" font-size="10.00">cstdint</text>
</a>
</g>
</g>
<!-- Node2&#45;&gt;Node5 -->
<g id="edge4_Node000002_Node000005" class="edge">
<title>Node2&#45;&gt;Node5</title>
<g id="a_edge4_Node000002_Node000005"><a xlink:title=" ">
<path fill="none" stroke="#63b8ff" d="M92.5,-55.59C101.16,-47.93 113.61,-36.91 123.96,-27.75"/>
<polygon fill="#63b8ff" stroke="#63b8ff" points="126.07,-30.55 131.24,-21.3 121.43,-25.31 126.07,-30.55"/>
</a>
</g>
</g>
</g>
</svg>
</svg>

<style type='text/css'>
<![CDATA[
[data-mouse-over-selected='false'] { opacity: 0.7; }
[data-mouse-over-selected='true']  { opacity: 1.0; }
]]>
</style>
<script type="application/ecmascript"><![CDATA[
document.addEventListener('DOMContentLoaded', (event) => {
  highlightEdges();
  highlightAdjacentNodes();
});
]]></script>
</svg>
