<?xml version="1.0" encoding="UTF-8" standalone="no"?>
<!DOCTYPE svg PUBLIC "-//W3C//DTD SVG 1.1//EN"
 "http://www.w3.org/Graphics/SVG/1.1/DTD/svg11.dtd">
<!-- Generated by graphviz version 12.2.1 (0)
 -->
<!-- Title: Engine3D::Scene::addTriangles Pages: 1 -->
<svg width="428pt" height="66pt"
 viewBox="0.00 0.00 427.50 66.00" xmlns="http://www.w3.org/2000/svg" xmlns:xlink="http://www.w3.org/1999/xlink">
<g id="graph0" class="graph" transform="scale(1 1) rotate(0) translate(4 62)">
<title>Engine3D::Scene::addTriangles</title>
<!-- Node1 -->
<g id="Node000001" class="node">
<title>Node1</title>
<g id="a_Node000001"><a xlink:title="Ajoute des triangles à la scène.">
<polygon fill="#999999" stroke="#666666" points="419.5,-39 265.5,-39 265.5,-19 419.5,-19 419.5,-39"/>
<text text-anchor="middle" x="342.5" y="-25.5" font-family="Helvetica,sans-Serif" font-size="10.00">Engine3D::Scene::addTriangles</text>
</a>
</g>
</g>
<!-- Node2 -->
<g id="Node000002" class="node">
<title>Node2</title>
<g id="a_Node000002"><a xlink:href="main_8cpp.html#a3f8bbedc9cc7a81915ae12b5d66c00cd" target="_top" xlink:title="Crée et ajoute le cube à la scène.">
<polygon fill="white" stroke="#666666" points="225.75,-58 170.75,-58 170.75,-38 225.75,-38 225.75,-58"/>
<text text-anchor="middle" x="198.25" y="-44.5" font-family="Helvetica,sans-Serif" font-size="10.00">addCube</text>
</a>
</g>
</g>
<!-- Node1&#45;&gt;Node2 -->
<g id="edge1_Node000001_Node000002" class="edge">
<title>Node1&#45;&gt;Node2</title>
<g id="a_edge1_Node000001_Node000002"><a xlink:title=" ">
<path fill="none" stroke="#63b8ff" d="M254.21,-40.66C244.05,-42.02 234.35,-43.31 226.01,-44.43"/>
<polygon fill="#63b8ff" stroke="#63b8ff" points="254.43,-44.16 263.88,-39.37 253.5,-37.22 254.43,-44.16"/>
</a>
</g>
</g>
<!-- Node5 -->
<g id="Node000005" class="node">
<title>Node5</title>
<g id="a_Node000005"><a xlink:href="main_8cpp.html#a413ed82437706932602a46bf716063ca" target="_top" xlink:title="Crée et ajoute la sphère à la scène.">
<polygon fill="white" stroke="#666666" points="229.5,-20 167,-20 167,0 229.5,0 229.5,-20"/>
<text text-anchor="middle" x="198.25" y="-6.5" font-family="Helvetica,sans-Serif" font-size="10.00">addSphere</text>
</a>
</g>
</g>
<!-- Node1&#45;&gt;Node5 -->
<g id="edge4_Node000001_Node000005" class="edge">
<title>Node1&#45;&gt;Node5</title>
<g id="a_edge4_Node000001_Node000005"><a xlink:title=" ">
<path fill="none" stroke="#63b8ff" d="M254.01,-17.31C245.47,-16.17 237.27,-15.08 229.92,-14.1"/>
<polygon fill="#63b8ff" stroke="#63b8ff" points="253.5,-20.78 263.88,-18.63 254.43,-13.84 253.5,-20.78"/>
</a>
</g>
</g>
<!-- Node3 -->
<g id="Node000003" class="node">
<title>Node3</title>
<g id="a_Node000003"><a xlink:href="main_8cpp.html#a43c63981d2c39c1e3e08614ee3f83b4f" target="_top" xlink:title="Boucle principale du programme.">
<polygon fill="white" stroke="#666666" points="131,-39 73,-39 73,-19 131,-19 131,-39"/>
<text text-anchor="middle" x="102" y="-25.5" font-family="Helvetica,sans-Serif" font-size="10.00">mainLoop</text>
</a>
</g>
</g>
<!-- Node2&#45;&gt;Node3 -->
<g id="edge2_Node000002_Node000003" class="edge">
<title>Node2&#45;&gt;Node3</title>
<g id="a_edge2_Node000002_Node000003"><a xlink:title=" ">
<path fill="none" stroke="#63b8ff" d="M159.46,-40.38C150.12,-38.5 140.28,-36.52 131.47,-34.74"/>
<polygon fill="#63b8ff" stroke="#63b8ff" points="158.52,-43.76 169.01,-42.31 159.9,-36.9 158.52,-43.76"/>
</a>
</g>
</g>
<!-- Node4 -->
<g id="Node000004" class="node">
<title>Node4</title>
<g id="a_Node000004"><a xlink:href="main_8cpp.html#a0ddf1224851353fc92bfbff6f499fa97" target="_top" xlink:title="main">
<polygon fill="white" stroke="#666666" points="37,-39 0,-39 0,-19 37,-19 37,-39"/>
<text text-anchor="middle" x="18.5" y="-25.5" font-family="Helvetica,sans-Serif" font-size="10.00">main</text>
</a>
</g>
</g>
<!-- Node3&#45;&gt;Node4 -->
<g id="edge3_Node000003_Node000004" class="edge">
<title>Node3&#45;&gt;Node4</title>
<g id="a_edge3_Node000003_Node000004"><a xlink:title=" ">
<path fill="none" stroke="#63b8ff" d="M61.58,-29C53.1,-29 44.55,-29 37.39,-29"/>
<polygon fill="#63b8ff" stroke="#63b8ff" points="61.44,-32.5 71.44,-29 61.44,-25.5 61.44,-32.5"/>
</a>
</g>
</g>
<!-- Node5&#45;&gt;Node3 -->
<g id="edge5_Node000005_Node000003" class="edge">
<title>Node5&#45;&gt;Node3</title>
<g id="a_edge5_Node000005_Node000003"><a xlink:title=" ">
<path fill="none" stroke="#63b8ff" d="M155.63,-18.39C147.38,-20.05 138.89,-21.76 131.21,-23.31"/>
<polygon fill="#63b8ff" stroke="#63b8ff" points="156.05,-21.88 165.17,-16.47 154.67,-15.01 156.05,-21.88"/>
</a>
</g>
</g>
</g>
</svg>
