<?xml version="1.0" encoding="UTF-8" standalone="no"?>
<!DOCTYPE svg PUBLIC "-//W3C//DTD SVG 1.1//EN"
 "http://www.w3.org/Graphics/SVG/1.1/DTD/svg11.dtd">
<!-- Generated by graphviz version 12.2.1 (0)
 -->
<!-- Title: Engine3D::Scene::isTriangleVisible Pages: 1 -->
<!--zoomable 178 -->

<svg id="main" version="1.1" xmlns="http://www.w3.org/2000/svg" xmlns:xlink="http://www.w3.org/1999/xlink" xml:space="preserve" onload="init(evt)">

<style type="text/css"><![CDATA[
.node, .edge {opacity: 0.7;}
.node.selected, .edge.selected {opacity: 1;}
.edge:hover path { stroke: red; }
.edge:hover polygon { stroke: red; fill: red; }
]]></style>

<defs>
  <circle id="rim" cx="0" cy="0" r="7"/>
  <circle id="rim2" cx="0" cy="0" r="3.5"/>
  <g id="zoomPlus">
    <use xlink:href="#rim" fill="#404040"><set attributeName="fill" to="#808080" begin="zoomplus.mouseover" end="zoomplus.mouseout"/></use>
    <path d="M-4,0h8M0,-4v8" fill="none" stroke="white" stroke-width="1.5" pointer-events="none"/>
  </g>
  <g id="zoomMin">
    <use xlink:href="#rim" fill="#404040"><set attributeName="fill" to="#808080" begin="zoomminus.mouseover" end="zoomminus.mouseout"/></use>
    <path d="M-4,0h8" fill="none" stroke="white" stroke-width="1.5" pointer-events="none"/>
  </g>
  <g id="arrowUp" transform="translate(30 24)">
    <use xlink:href="#rim"/>
    <path pointer-events="none" fill="none" stroke="white" stroke-width="1.5" d="M0,-3.0v7 M-2.5,-0.5L0,-3.0L2.5,-0.5"/>
  </g>
  <g id="arrowRight" transform="rotate(90) translate(36 -43)">
    <use xlink:href="#rim"/>
    <path pointer-events="none" fill="none" stroke="white" stroke-width="1.5" d="M0,-3.0v7 M-2.5,-0.5L0,-3.0L2.5,-0.5"/>
  </g>
  <g id="arrowDown" transform="rotate(180) translate(-30 -48)">
    <use xlink:href="#rim"/>
    <path pointer-events="none" fill="none" stroke="white" stroke-width="1.5" d="M0,-3.0v7 M-2.5,-0.5L0,-3.0L2.5,-0.5"/>
  </g>
  <g id="arrowLeft" transform="rotate(270) translate(-36 17)">
    <use xlink:href="#rim"/>
    <path pointer-events="none" fill="none" stroke="white" stroke-width="1.5" d="M0,-3.0v7 M-2.5,-0.5L0,-3.0L2.5,-0.5"/>
  </g>
  <g id="resetDef">
    <use xlink:href="#rim2" fill="#404040"><set attributeName="fill" to="#808080" begin="reset.mouseover" end="reset.mouseout"/></use>
  </g>
</defs>
<script type="application/ecmascript">
var viewWidth = 587;
var viewHeight = 178;
var sectionId = 'dynsection-9';
</script>
<script type="application/ecmascript" xlink:href="svg.min.js"/>
<svg id="graph" class="graph">
<g id="viewport">
<title>Engine3D::Scene::isTriangleVisible</title>
<!-- Node1 -->
<g id="Node000001" class="node">
<title>Node1</title>
<g id="a_Node000001"><a xlink:title="Vérifie si un triangle est visible.">
<polygon fill="#999999" stroke="#666666" points="140.5,-126 0,-126 0,-94 140.5,-94 140.5,-126"/>
<text text-anchor="start" x="8" y="-112.5" font-family="Helvetica,sans-Serif" font-size="10.00">Engine3D::Scene::isTriangle</text>
<text text-anchor="middle" x="70.25" y="-100.5" font-family="Helvetica,sans-Serif" font-size="10.00">Visible</text>
</a>
</g>
</g>
<!-- Node2 -->
<g id="Node000002" class="node">
<title>Node2</title>
<g id="a_Node000002"><a xlink:href="class_engine3_d_1_1_triangle3d.html#ac8467f3fbeb5ebd572c5b86dc8e5efba" target="_top" xlink:title="Calcule le centre du triangle.">
<polygon fill="white" stroke="#666666" points="286.25,-170 176.5,-170 176.5,-138 286.25,-138 286.25,-170"/>
<text text-anchor="start" x="184.5" y="-156.5" font-family="Helvetica,sans-Serif" font-size="10.00">Engine3D::Triangle3d</text>
<text text-anchor="middle" x="231.38" y="-144.5" font-family="Helvetica,sans-Serif" font-size="10.00">::center</text>
</a>
</g>
</g>
<!-- Node1&#45;&gt;Node2 -->
<g id="edge1_Node000001_Node000002" class="edge">
<title>Node1&#45;&gt;Node2</title>
<g id="a_edge1_Node000001_Node000002"><a xlink:title=" ">
<path fill="none" stroke="#63b8ff" d="M130.5,-126.38C141.82,-129.51 153.72,-132.8 165.21,-135.98"/>
<polygon fill="#63b8ff" stroke="#63b8ff" points="164.04,-139.29 174.61,-138.58 165.9,-132.54 164.04,-139.29"/>
</a>
</g>
</g>
<!-- Node3 -->
<g id="Node000003" class="node">
<title>Node3</title>
<g id="a_Node000003"><a xlink:href="class_engine3_d_1_1_point3d.html#ae2fe7656b9388965fb9e890a89b28dcb" target="_top" xlink:title="Produit scalaire.">
<polygon fill="white" stroke="#666666" points="439.5,-120 322.25,-120 322.25,-100 439.5,-100 439.5,-120"/>
<text text-anchor="middle" x="380.88" y="-106.5" font-family="Helvetica,sans-Serif" font-size="10.00">Engine3D::Point3d::dot</text>
</a>
</g>
</g>
<!-- Node1&#45;&gt;Node3 -->
<g id="edge2_Node000001_Node000003" class="edge">
<title>Node1&#45;&gt;Node3</title>
<g id="a_edge2_Node000001_Node000003"><a xlink:title=" ">
<path fill="none" stroke="#63b8ff" d="M140.9,-110C191.53,-110 259.78,-110 310.38,-110"/>
<polygon fill="#63b8ff" stroke="#63b8ff" points="310.36,-113.5 320.36,-110 310.36,-106.5 310.36,-113.5"/>
</a>
</g>
</g>
<!-- Node5 -->
<g id="Node000005" class="node">
<title>Node5</title>
<g id="a_Node000005"><a xlink:href="class_engine3_d_1_1_triangle3d.html#a36a10c8fdb5ead425abf77d7bd3ec6d4" target="_top" xlink:title="Calcule la normale du triangle.">
<polygon fill="white" stroke="#666666" points="286.25,-82 176.5,-82 176.5,-50 286.25,-50 286.25,-82"/>
<text text-anchor="start" x="184.5" y="-68.5" font-family="Helvetica,sans-Serif" font-size="10.00">Engine3D::Triangle3d</text>
<text text-anchor="middle" x="231.38" y="-56.5" font-family="Helvetica,sans-Serif" font-size="10.00">::normal</text>
</a>
</g>
</g>
<!-- Node1&#45;&gt;Node5 -->
<g id="edge4_Node000001_Node000005" class="edge">
<title>Node1&#45;&gt;Node5</title>
<g id="a_edge4_Node000001_Node000005"><a xlink:title=" ">
<path fill="none" stroke="#63b8ff" d="M130.5,-93.62C141.82,-90.49 153.72,-87.2 165.21,-84.02"/>
<polygon fill="#63b8ff" stroke="#63b8ff" points="165.9,-87.46 174.61,-81.42 164.04,-80.71 165.9,-87.46"/>
</a>
</g>
</g>
<!-- Node4 -->
<g id="Node000004" class="node">
<title>Node4</title>
<g id="a_Node000004"><a xlink:href="class_engine3_d_1_1_point3d.html#a0fe8b9187cff415e2e11cc0043bbedb6" target="_top" xlink:title="Constructeur par défaut.">
<polygon fill="white" stroke="#666666" points="579.25,-82 475.5,-82 475.5,-50 579.25,-50 579.25,-82"/>
<text text-anchor="start" x="483.5" y="-68.5" font-family="Helvetica,sans-Serif" font-size="10.00">Engine3D::Point3d::</text>
<text text-anchor="middle" x="527.38" y="-56.5" font-family="Helvetica,sans-Serif" font-size="10.00">Point3d</text>
</a>
</g>
</g>
<!-- Node3&#45;&gt;Node4 -->
<g id="edge3_Node000003_Node000004" class="edge">
<title>Node3&#45;&gt;Node4</title>
<g id="a_edge3_Node000003_Node000004"><a xlink:title=" ">
<path fill="none" stroke="#63b8ff" d="M416.12,-99.57C430.56,-95.17 447.84,-89.91 464.39,-84.87"/>
<polygon fill="#63b8ff" stroke="#63b8ff" points="465.13,-88.31 473.67,-82.05 463.09,-81.61 465.13,-88.31"/>
</a>
</g>
</g>
<!-- Node6 -->
<g id="Node000006" class="node">
<title>Node6</title>
<g id="a_Node000006"><a xlink:href="class_engine3_d_1_1_point3d.html#a5bda2a757a3d5c95fa931087c7b21ae6" target="_top" xlink:title="Produit vectoriel.">
<polygon fill="white" stroke="#666666" points="432.75,-82 329,-82 329,-50 432.75,-50 432.75,-82"/>
<text text-anchor="start" x="337" y="-68.5" font-family="Helvetica,sans-Serif" font-size="10.00">Engine3D::Point3d::</text>
<text text-anchor="middle" x="380.88" y="-56.5" font-family="Helvetica,sans-Serif" font-size="10.00">cross</text>
</a>
</g>
</g>
<!-- Node5&#45;&gt;Node6 -->
<g id="edge5_Node000005_Node000006" class="edge">
<title>Node5&#45;&gt;Node6</title>
<g id="a_edge5_Node000005_Node000006"><a xlink:title=" ">
<path fill="none" stroke="#63b8ff" d="M286.46,-66C296.5,-66 307.06,-66 317.32,-66"/>
<polygon fill="#63b8ff" stroke="#63b8ff" points="317.23,-69.5 327.23,-66 317.23,-62.5 317.23,-69.5"/>
</a>
</g>
</g>
<!-- Node7 -->
<g id="Node000007" class="node">
<title>Node7</title>
<g id="a_Node000007"><a xlink:href="class_engine3_d_1_1_point3d.html#a47b11f8208e5c25f2d5f04c49cd10bd4" target="_top" xlink:title="Normalise le vecteur.">
<polygon fill="white" stroke="#666666" points="432.75,-32 329,-32 329,0 432.75,0 432.75,-32"/>
<text text-anchor="start" x="337" y="-18.5" font-family="Helvetica,sans-Serif" font-size="10.00">Engine3D::Point3d::</text>
<text text-anchor="middle" x="380.88" y="-6.5" font-family="Helvetica,sans-Serif" font-size="10.00">normalize</text>
</a>
</g>
</g>
<!-- Node5&#45;&gt;Node7 -->
<g id="edge7_Node000005_Node000007" class="edge">
<title>Node5&#45;&gt;Node7</title>
<g id="a_edge7_Node000005_Node000007"><a xlink:title=" ">
<path fill="none" stroke="#63b8ff" d="M280.67,-49.63C293.34,-45.33 307.15,-40.65 320.33,-36.18"/>
<polygon fill="#63b8ff" stroke="#63b8ff" points="321.44,-39.51 329.78,-32.98 319.19,-32.88 321.44,-39.51"/>
</a>
</g>
</g>
<!-- Node6&#45;&gt;Node4 -->
<g id="edge6_Node000006_Node000004" class="edge">
<title>Node6&#45;&gt;Node4</title>
<g id="a_edge6_Node000006_Node000004"><a xlink:title=" ">
<path fill="none" stroke="#63b8ff" d="M433.23,-66C443.13,-66 453.6,-66 463.82,-66"/>
<polygon fill="#63b8ff" stroke="#63b8ff" points="463.67,-69.5 473.67,-66 463.67,-62.5 463.67,-69.5"/>
</a>
</g>
</g>
<!-- Node7&#45;&gt;Node4 -->
<g id="edge8_Node000007_Node000004" class="edge">
<title>Node7&#45;&gt;Node4</title>
<g id="a_edge8_Node000007_Node000004"><a xlink:title=" ">
<path fill="none" stroke="#63b8ff" d="M429.19,-32.37C441.66,-36.69 455.27,-41.4 468.24,-45.89"/>
<polygon fill="#63b8ff" stroke="#63b8ff" points="466.93,-49.13 477.52,-49.1 469.22,-42.52 466.93,-49.13"/>
</a>
</g>
</g>
</g>
</svg>

<g id="navigator" transform="translate(0 0)" fill="#404254">
  <rect fill="#f2f5e9" fill-opacity="0.5" stroke="#606060" stroke-width=".5" x="0" y="0" width="60" height="60"/>
  <use id="zoomplus" xlink:href="#zoomPlus" x="17" y="9" onmousedown="handleZoom(evt,'in')"/>
  <use id="zoomminus" xlink:href="#zoomMin" x="42" y="9" onmousedown="handleZoom(evt,'out')"/>
  <use id="reset" xlink:href="#resetDef" x="30" y="36" onmousedown="handleReset()"/>
   <use id="arrowup" xlink:href="#arrowUp" x="0" y="0" onmousedown="handlePan(0,-1)"/>
  <use id="arrowright" xlink:href="#arrowRight" x="0" y="0" onmousedown="handlePan(1,0)"/>
  <use id="arrowdown" xlink:href="#arrowDown" x="0" y="0" onmousedown="handlePan(0,1)"/>
  <use id="arrowleft" xlink:href="#arrowLeft" x="0" y="0" onmousedown="handlePan(-1,0)"/>
</g>
<svg viewBox="0 0 15 15" width="100%" height="30px" preserveAspectRatio="xMaxYMin meet">
 <g id="arrow_out" transform="scale(0.3 0.3)">
  <a xlink:href="class_engine3_d_1_1_scene_a572a13e5c6c08eced30fc482cc9fdeee_cgraph_org.svg" target="_base">
   <rect id="button" ry="5" rx="5" y="6" x="6" height="38" width="38"
        fill="#f2f5e9" fill-opacity="0.5" stroke="#606060" stroke-width="1.0"/>
   <path id="arrow"
     d="M 11.500037,31.436501 C 11.940474,20.09759 22.043105,11.32322 32.158766,21.979434 L 37.068811,17.246167 C 37.068811,17.246167 37.088388,32 37.088388,32 L 22.160133,31.978069 C 22.160133,31.978069 26.997745,27.140456 26.997745,27.140456 C 18.528582,18.264221 13.291696,25.230495 11.500037,31.436501 z"
     style="fill:#404040;"/>
  </a>
 </g>
</svg>

<style type='text/css'>
<![CDATA[
[data-mouse-over-selected='false'] { opacity: 0.7; }
[data-mouse-over-selected='true']  { opacity: 1.0; }
]]>
</style>
<script type="application/ecmascript"><![CDATA[
document.addEventListener('DOMContentLoaded', (event) => {
  highlightEdges();
  highlightAdjacentNodes();
});
]]></script>
</svg>
