<?xml version="1.0" encoding="UTF-8" standalone="no"?>
<!DOCTYPE svg PUBLIC "-//W3C//DTD SVG 1.1//EN"
 "http://www.w3.org/Graphics/SVG/1.1/DTD/svg11.dtd">
<!-- Generated by graphviz version 12.2.1 (0)
 -->
<!-- Title: Engine3D::Point2d Pages: 1 -->
<svg width="98pt" height="198pt"
 viewBox="0.00 0.00 97.75 198.00" xmlns="http://www.w3.org/2000/svg" xmlns:xlink="http://www.w3.org/1999/xlink">

<svg id="main" version="1.1" xmlns="http://www.w3.org/2000/svg" xmlns:xlink="http://www.w3.org/1999/xlink" xml:space="preserve">

<style type="text/css"><![CDATA[
.node, .edge {opacity: 0.7;}
.node.selected, .edge.selected {opacity: 1;}
.edge:hover path { stroke: red; }
.edge:hover polygon { stroke: red; fill: red; }
]]></style>
<script type="application/ecmascript" xlink:href="svg.min.js"/>
<svg id="graph" class="graph">
<g id="graph0" class="graph" transform="scale(1 1) rotate(0) translate(4 194)">
<title>Engine3D::Point2d</title>
<!-- Node1 -->
<g id="Node000001" class="node">
<title>Node1</title>
<g id="a_Node000001"><a xlink:title="Représente un point sur l&#39;écran 2D.">
<polygon fill="#999999" stroke="none" points="89.75,-68 0,-68 0,0 89.75,0 89.75,-68"/>
<text text-anchor="start" x="4" y="-54.5" font-family="Helvetica,sans-Serif" font-size="10.00">Engine3D::Point2d</text>
<text text-anchor="start" x="43.38" y="-38.5" font-family="Helvetica,sans-Serif" font-size="10.00"> </text>
<text text-anchor="start" x="12.19" y="-22.5" font-family="Helvetica,sans-Serif" font-size="10.00">+</text>
<text text-anchor="start" x="30.38" y="-22.5" font-family="Helvetica,sans-Serif" font-size="10.00">Point2d()</text>
<text text-anchor="start" x="12.19" y="-6.5" font-family="Helvetica,sans-Serif" font-size="10.00">+</text>
<text text-anchor="start" x="30.38" y="-6.5" font-family="Helvetica,sans-Serif" font-size="10.00">Point2d()</text>
<polygon fill="#666666" stroke="#666666" points="0,-50 0,-50 89.75,-50 89.75,-50 0,-50"/>
<polygon fill="#666666" stroke="#666666" points="0,-34 0,-34 89.75,-34 89.75,-34 0,-34"/>
<polygon fill="none" stroke="#666666" points="0,0 0,-68 89.75,-68 89.75,0 0,0"/>
</a>
</g>
</g>
<!-- Node2 -->
<g id="Node000002" class="node">
<title>Node2</title>
<g id="a_Node000002"><a xlink:title=" ">
<polygon fill="white" stroke="none" points="34.12,-190 15.62,-190 15.62,-138 34.12,-138 34.12,-190"/>
<text text-anchor="start" x="19.62" y="-176.5" font-family="Helvetica,sans-Serif" font-size="10.00">int</text>
<text text-anchor="start" x="23.38" y="-160.5" font-family="Helvetica,sans-Serif" font-size="10.00"> </text>
<text text-anchor="start" x="23.38" y="-144.5" font-family="Helvetica,sans-Serif" font-size="10.00"> </text>
<polygon fill="#666666" stroke="#666666" points="15.62,-172 15.62,-172 34.12,-172 34.12,-172 15.62,-172"/>
<polygon fill="#666666" stroke="#666666" points="15.62,-156 15.62,-156 34.12,-156 34.12,-156 15.62,-156"/>
<polygon fill="none" stroke="#666666" points="15.62,-138 15.62,-190 34.12,-190 34.12,-138 15.62,-138"/>
</a>
</g>
</g>
<!-- Node2&#45;&gt;Node1 -->
<g id="edge1_Node000001_Node000002" class="edge">
<title>Node2&#45;&gt;Node1</title>
<g id="a_edge1_Node000001_Node000002"><a xlink:title=" ">
<path fill="none" stroke="#63b8ff" d="M23.44,-138.17C23.05,-122.98 23.43,-103.22 26.62,-86 26.97,-84.12 27.38,-82.22 27.84,-80.31"/>
<polygon fill="none" stroke="#63b8ff" points="27.88,-80.17 25.68,-73.31 31.17,-68.64 33.37,-75.5 27.88,-80.17"/>
</a>
</g>
<text text-anchor="start" x="29.62" y="-107.5" font-family="Helvetica,sans-Serif" font-size="10.00" fill="grey">+x</text>
<text text-anchor="start" x="29.62" y="-91.5" font-family="Helvetica,sans-Serif" font-size="10.00" fill="grey">+y</text>
</g>
<!-- Node3 -->
<g id="Node000003" class="node">
<title>Node3</title>
<g id="a_Node000003"><a xlink:title=" ">
<polygon fill="white" stroke="none" points="79.25,-190 52.5,-190 52.5,-138 79.25,-138 79.25,-190"/>
<text text-anchor="start" x="56.5" y="-176.5" font-family="Helvetica,sans-Serif" font-size="10.00">float</text>
<text text-anchor="start" x="64.38" y="-160.5" font-family="Helvetica,sans-Serif" font-size="10.00"> </text>
<text text-anchor="start" x="64.38" y="-144.5" font-family="Helvetica,sans-Serif" font-size="10.00"> </text>
<polygon fill="#666666" stroke="#666666" points="52.5,-172 52.5,-172 79.25,-172 79.25,-172 52.5,-172"/>
<polygon fill="#666666" stroke="#666666" points="52.5,-156 52.5,-156 79.25,-156 79.25,-156 52.5,-156"/>
<polygon fill="none" stroke="#666666" points="52.5,-138 52.5,-190 79.25,-190 79.25,-138 52.5,-138"/>
</a>
</g>
</g>
<!-- Node3&#45;&gt;Node1 -->
<g id="edge2_Node000001_Node000003" class="edge">
<title>Node3&#45;&gt;Node1</title>
<g id="a_edge2_Node000001_Node000003"><a xlink:title=" ">
<path fill="none" stroke="#63b8ff" d="M61.78,-138.02C59.09,-121.62 55.49,-99.71 52.31,-80.3"/>
<polygon fill="none" stroke="#63b8ff" points="52.33,-80.42 47.41,-75.14 50.38,-68.57 55.3,-73.85 52.33,-80.42"/>
</a>
</g>
<text text-anchor="start" x="61.48" y="-99.5" font-family="Helvetica,sans-Serif" font-size="10.00" fill="grey">+z</text>
</g>
</g>
</svg>
</svg>

<style type='text/css'>
<![CDATA[
[data-mouse-over-selected='false'] { opacity: 0.7; }
[data-mouse-over-selected='true']  { opacity: 1.0; }
]]>
</style>
<script type="application/ecmascript"><![CDATA[
document.addEventListener('DOMContentLoaded', (event) => {
  highlightEdges();
  highlightAdjacentNodes();
});
]]></script>
</svg>
