<?xml version="1.0" encoding="UTF-8" standalone="no"?>
<!DOCTYPE svg PUBLIC "-//W3C//DTD SVG 1.1//EN"
 "http://www.w3.org/Graphics/SVG/1.1/DTD/svg11.dtd">
<!-- Generated by graphviz version 12.2.1 (0)
 -->
<!-- Title: Engine3D::Scene::isTriangleVisible Pages: 1 -->
<svg width="587pt" height="178pt"
 viewBox="0.00 0.00 587.25 178.00" xmlns="http://www.w3.org/2000/svg" xmlns:xlink="http://www.w3.org/1999/xlink">
<g id="graph0" class="graph" transform="scale(1 1) rotate(0) translate(4 174)">
<title>Engine3D::Scene::isTriangleVisible</title>
<!-- Node1 -->
<g id="Node000001" class="node">
<title>Node1</title>
<g id="a_Node000001"><a xlink:title="Vérifie si un triangle est visible.">
<polygon fill="#999999" stroke="#666666" points="140.5,-126 0,-126 0,-94 140.5,-94 140.5,-126"/>
<text text-anchor="start" x="8" y="-112.5" font-family="Helvetica,sans-Serif" font-size="10.00">Engine3D::Scene::isTriangle</text>
<text text-anchor="middle" x="70.25" y="-100.5" font-family="Helvetica,sans-Serif" font-size="10.00">Visible</text>
</a>
</g>
</g>
<!-- Node2 -->
<g id="Node000002" class="node">
<title>Node2</title>
<g id="a_Node000002"><a xlink:href="class_engine3_d_1_1_triangle3d.html#ac8467f3fbeb5ebd572c5b86dc8e5efba" target="_top" xlink:title="Calcule le centre du triangle.">
<polygon fill="white" stroke="#666666" points="286.25,-170 176.5,-170 176.5,-138 286.25,-138 286.25,-170"/>
<text text-anchor="start" x="184.5" y="-156.5" font-family="Helvetica,sans-Serif" font-size="10.00">Engine3D::Triangle3d</text>
<text text-anchor="middle" x="231.38" y="-144.5" font-family="Helvetica,sans-Serif" font-size="10.00">::center</text>
</a>
</g>
</g>
<!-- Node1&#45;&gt;Node2 -->
<g id="edge1_Node000001_Node000002" class="edge">
<title>Node1&#45;&gt;Node2</title>
<g id="a_edge1_Node000001_Node000002"><a xlink:title=" ">
<path fill="none" stroke="#63b8ff" d="M130.5,-126.38C141.82,-129.51 153.72,-132.8 165.21,-135.98"/>
<polygon fill="#63b8ff" stroke="#63b8ff" points="164.04,-139.29 174.61,-138.58 165.9,-132.54 164.04,-139.29"/>
</a>
</g>
</g>
<!-- Node3 -->
<g id="Node000003" class="node">
<title>Node3</title>
<g id="a_Node000003"><a xlink:href="class_engine3_d_1_1_point3d.html#ae2fe7656b9388965fb9e890a89b28dcb" target="_top" xlink:title="Produit scalaire.">
<polygon fill="white" stroke="#666666" points="439.5,-120 322.25,-120 322.25,-100 439.5,-100 439.5,-120"/>
<text text-anchor="middle" x="380.88" y="-106.5" font-family="Helvetica,sans-Serif" font-size="10.00">Engine3D::Point3d::dot</text>
</a>
</g>
</g>
<!-- Node1&#45;&gt;Node3 -->
<g id="edge2_Node000001_Node000003" class="edge">
<title>Node1&#45;&gt;Node3</title>
<g id="a_edge2_Node000001_Node000003"><a xlink:title=" ">
<path fill="none" stroke="#63b8ff" d="M140.9,-110C191.53,-110 259.78,-110 310.38,-110"/>
<polygon fill="#63b8ff" stroke="#63b8ff" points="310.36,-113.5 320.36,-110 310.36,-106.5 310.36,-113.5"/>
</a>
</g>
</g>
<!-- Node5 -->
<g id="Node000005" class="node">
<title>Node5</title>
<g id="a_Node000005"><a xlink:href="class_engine3_d_1_1_triangle3d.html#a36a10c8fdb5ead425abf77d7bd3ec6d4" target="_top" xlink:title="Calcule la normale du triangle.">
<polygon fill="white" stroke="#666666" points="286.25,-82 176.5,-82 176.5,-50 286.25,-50 286.25,-82"/>
<text text-anchor="start" x="184.5" y="-68.5" font-family="Helvetica,sans-Serif" font-size="10.00">Engine3D::Triangle3d</text>
<text text-anchor="middle" x="231.38" y="-56.5" font-family="Helvetica,sans-Serif" font-size="10.00">::normal</text>
</a>
</g>
</g>
<!-- Node1&#45;&gt;Node5 -->
<g id="edge4_Node000001_Node000005" class="edge">
<title>Node1&#45;&gt;Node5</title>
<g id="a_edge4_Node000001_Node000005"><a xlink:title=" ">
<path fill="none" stroke="#63b8ff" d="M130.5,-93.62C141.82,-90.49 153.72,-87.2 165.21,-84.02"/>
<polygon fill="#63b8ff" stroke="#63b8ff" points="165.9,-87.46 174.61,-81.42 164.04,-80.71 165.9,-87.46"/>
</a>
</g>
</g>
<!-- Node4 -->
<g id="Node000004" class="node">
<title>Node4</title>
<g id="a_Node000004"><a xlink:href="class_engine3_d_1_1_point3d.html#a0fe8b9187cff415e2e11cc0043bbedb6" target="_top" xlink:title="Constructeur par défaut.">
<polygon fill="white" stroke="#666666" points="579.25,-82 475.5,-82 475.5,-50 579.25,-50 579.25,-82"/>
<text text-anchor="start" x="483.5" y="-68.5" font-family="Helvetica,sans-Serif" font-size="10.00">Engine3D::Point3d::</text>
<text text-anchor="middle" x="527.38" y="-56.5" font-family="Helvetica,sans-Serif" font-size="10.00">Point3d</text>
</a>
</g>
</g>
<!-- Node3&#45;&gt;Node4 -->
<g id="edge3_Node000003_Node000004" class="edge">
<title>Node3&#45;&gt;Node4</title>
<g id="a_edge3_Node000003_Node000004"><a xlink:title=" ">
<path fill="none" stroke="#63b8ff" d="M416.12,-99.57C430.56,-95.17 447.84,-89.91 464.39,-84.87"/>
<polygon fill="#63b8ff" stroke="#63b8ff" points="465.13,-88.31 473.67,-82.05 463.09,-81.61 465.13,-88.31"/>
</a>
</g>
</g>
<!-- Node6 -->
<g id="Node000006" class="node">
<title>Node6</title>
<g id="a_Node000006"><a xlink:href="class_engine3_d_1_1_point3d.html#a5bda2a757a3d5c95fa931087c7b21ae6" target="_top" xlink:title="Produit vectoriel.">
<polygon fill="white" stroke="#666666" points="432.75,-82 329,-82 329,-50 432.75,-50 432.75,-82"/>
<text text-anchor="start" x="337" y="-68.5" font-family="Helvetica,sans-Serif" font-size="10.00">Engine3D::Point3d::</text>
<text text-anchor="middle" x="380.88" y="-56.5" font-family="Helvetica,sans-Serif" font-size="10.00">cross</text>
</a>
</g>
</g>
<!-- Node5&#45;&gt;Node6 -->
<g id="edge5_Node000005_Node000006" class="edge">
<title>Node5&#45;&gt;Node6</title>
<g id="a_edge5_Node000005_Node000006"><a xlink:title=" ">
<path fill="none" stroke="#63b8ff" d="M286.46,-66C296.5,-66 307.06,-66 317.32,-66"/>
<polygon fill="#63b8ff" stroke="#63b8ff" points="317.23,-69.5 327.23,-66 317.23,-62.5 317.23,-69.5"/>
</a>
</g>
</g>
<!-- Node7 -->
<g id="Node000007" class="node">
<title>Node7</title>
<g id="a_Node000007"><a xlink:href="class_engine3_d_1_1_point3d.html#a47b11f8208e5c25f2d5f04c49cd10bd4" target="_top" xlink:title="Normalise le vecteur.">
<polygon fill="white" stroke="#666666" points="432.75,-32 329,-32 329,0 432.75,0 432.75,-32"/>
<text text-anchor="start" x="337" y="-18.5" font-family="Helvetica,sans-Serif" font-size="10.00">Engine3D::Point3d::</text>
<text text-anchor="middle" x="380.88" y="-6.5" font-family="Helvetica,sans-Serif" font-size="10.00">normalize</text>
</a>
</g>
</g>
<!-- Node5&#45;&gt;Node7 -->
<g id="edge7_Node000005_Node000007" class="edge">
<title>Node5&#45;&gt;Node7</title>
<g id="a_edge7_Node000005_Node000007"><a xlink:title=" ">
<path fill="none" stroke="#63b8ff" d="M280.67,-49.63C293.34,-45.33 307.15,-40.65 320.33,-36.18"/>
<polygon fill="#63b8ff" stroke="#63b8ff" points="321.44,-39.51 329.78,-32.98 319.19,-32.88 321.44,-39.51"/>
</a>
</g>
</g>
<!-- Node6&#45;&gt;Node4 -->
<g id="edge6_Node000006_Node000004" class="edge">
<title>Node6&#45;&gt;Node4</title>
<g id="a_edge6_Node000006_Node000004"><a xlink:title=" ">
<path fill="none" stroke="#63b8ff" d="M433.23,-66C443.13,-66 453.6,-66 463.82,-66"/>
<polygon fill="#63b8ff" stroke="#63b8ff" points="463.67,-69.5 473.67,-66 463.67,-62.5 463.67,-69.5"/>
</a>
</g>
</g>
<!-- Node7&#45;&gt;Node4 -->
<g id="edge8_Node000007_Node000004" class="edge">
<title>Node7&#45;&gt;Node4</title>
<g id="a_edge8_Node000007_Node000004"><a xlink:title=" ">
<path fill="none" stroke="#63b8ff" d="M429.19,-32.37C441.66,-36.69 455.27,-41.4 468.24,-45.89"/>
<polygon fill="#63b8ff" stroke="#63b8ff" points="466.93,-49.13 477.52,-49.1 469.22,-42.52 466.93,-49.13"/>
</a>
</g>
</g>
</g>
</svg>
