<?xml version="1.0" encoding="UTF-8" standalone="no"?>
<!DOCTYPE svg PUBLIC "-//W3C//DTD SVG 1.1//EN"
 "http://www.w3.org/Graphics/SVG/1.1/DTD/svg11.dtd">
<!-- Generated by graphviz version 12.2.1 (0)
 -->
<!-- Title: Engine3D::Pave3d::rotatePoint Pages: 1 -->
<svg width="588pt" height="40pt"
 viewBox="0.00 0.00 587.50 40.00" xmlns="http://www.w3.org/2000/svg" xmlns:xlink="http://www.w3.org/1999/xlink">
<g id="graph0" class="graph" transform="scale(1 1) rotate(0) translate(4 36)">
<title>Engine3D::Pave3d::rotatePoint</title>
<!-- Node1 -->
<g id="Node000001" class="node">
<title>Node1</title>
<g id="a_Node000001"><a xlink:title="Applique la rotation à un point.">
<polygon fill="#999999" stroke="#666666" points="579.5,-32 451,-32 451,0 579.5,0 579.5,-32"/>
<text text-anchor="start" x="459" y="-18.5" font-family="Helvetica,sans-Serif" font-size="10.00">Engine3D::Pave3d::rotate</text>
<text text-anchor="middle" x="515.25" y="-6.5" font-family="Helvetica,sans-Serif" font-size="10.00">Point</text>
</a>
</g>
</g>
<!-- Node2 -->
<g id="Node000002" class="node">
<title>Node2</title>
<g id="a_Node000002"><a xlink:href="class_engine3_d_1_1_pave3d.html#a4119fbf8bcb7a8e53bf791e07dad4a36" target="_top" xlink:title="Retourne tous les triangles du pavé">
<polygon fill="white" stroke="#666666" points="415,-26 258,-26 258,-6 415,-6 415,-26"/>
<text text-anchor="middle" x="336.5" y="-12.5" font-family="Helvetica,sans-Serif" font-size="10.00">Engine3D::Pave3d::getTriangles</text>
</a>
</g>
</g>
<!-- Node1&#45;&gt;Node2 -->
<g id="edge1_Node000001_Node000002" class="edge">
<title>Node1&#45;&gt;Node2</title>
<g id="a_edge1_Node000001_Node000002"><a xlink:title=" ">
<path fill="none" stroke="#63b8ff" d="M439.46,-16C431.53,-16 423.45,-16 415.49,-16"/>
<polygon fill="#63b8ff" stroke="#63b8ff" points="439.42,-19.5 449.42,-16 439.42,-12.5 439.42,-19.5"/>
</a>
</g>
</g>
<!-- Node3 -->
<g id="Node000003" class="node">
<title>Node3</title>
<g id="a_Node000003"><a xlink:href="main_8cpp.html#a3f8bbedc9cc7a81915ae12b5d66c00cd" target="_top" xlink:title="Crée et ajoute le cube à la scène.">
<polygon fill="white" stroke="#666666" points="222,-26 167,-26 167,-6 222,-6 222,-26"/>
<text text-anchor="middle" x="194.5" y="-12.5" font-family="Helvetica,sans-Serif" font-size="10.00">addCube</text>
</a>
</g>
</g>
<!-- Node2&#45;&gt;Node3 -->
<g id="edge2_Node000002_Node000003" class="edge">
<title>Node2&#45;&gt;Node3</title>
<g id="a_edge2_Node000002_Node000003"><a xlink:title=" ">
<path fill="none" stroke="#63b8ff" d="M246.25,-16C237.66,-16 229.5,-16 222.33,-16"/>
<polygon fill="#63b8ff" stroke="#63b8ff" points="246.21,-19.5 256.21,-16 246.21,-12.5 246.21,-19.5"/>
</a>
</g>
</g>
<!-- Node4 -->
<g id="Node000004" class="node">
<title>Node4</title>
<g id="a_Node000004"><a xlink:href="main_8cpp.html#a43c63981d2c39c1e3e08614ee3f83b4f" target="_top" xlink:title="Boucle principale du programme.">
<polygon fill="white" stroke="#666666" points="131,-26 73,-26 73,-6 131,-6 131,-26"/>
<text text-anchor="middle" x="102" y="-12.5" font-family="Helvetica,sans-Serif" font-size="10.00">mainLoop</text>
</a>
</g>
</g>
<!-- Node3&#45;&gt;Node4 -->
<g id="edge3_Node000003_Node000004" class="edge">
<title>Node3&#45;&gt;Node4</title>
<g id="a_edge3_Node000003_Node000004"><a xlink:title=" ">
<path fill="none" stroke="#63b8ff" d="M155.39,-16C147.34,-16 138.98,-16 131.36,-16"/>
<polygon fill="#63b8ff" stroke="#63b8ff" points="155.32,-19.5 165.32,-16 155.32,-12.5 155.32,-19.5"/>
</a>
</g>
</g>
<!-- Node5 -->
<g id="Node000005" class="node">
<title>Node5</title>
<g id="a_Node000005"><a xlink:href="main_8cpp.html#a0ddf1224851353fc92bfbff6f499fa97" target="_top" xlink:title="main">
<polygon fill="white" stroke="#666666" points="37,-26 0,-26 0,-6 37,-6 37,-26"/>
<text text-anchor="middle" x="18.5" y="-12.5" font-family="Helvetica,sans-Serif" font-size="10.00">main</text>
</a>
</g>
</g>
<!-- Node4&#45;&gt;Node5 -->
<g id="edge4_Node000004_Node000005" class="edge">
<title>Node4&#45;&gt;Node5</title>
<g id="a_edge4_Node000004_Node000005"><a xlink:title=" ">
<path fill="none" stroke="#63b8ff" d="M61.58,-16C53.1,-16 44.55,-16 37.39,-16"/>
<polygon fill="#63b8ff" stroke="#63b8ff" points="61.44,-19.5 71.44,-16 61.44,-12.5 61.44,-19.5"/>
</a>
</g>
</g>
</g>
</svg>
