<?xml version="1.0" encoding="UTF-8" standalone="no"?>
<!DOCTYPE svg PUBLIC "-//W3C//DTD SVG 1.1//EN"
 "http://www.w3.org/Graphics/SVG/1.1/DTD/svg11.dtd">
<!-- Generated by graphviz version 12.2.1 (0)
 -->
<!-- Title: Engine3D::Quad3d Pages: 1 -->
<svg width="110pt" height="650pt"
 viewBox="0.00 0.00 109.75 650.00" xmlns="http://www.w3.org/2000/svg" xmlns:xlink="http://www.w3.org/1999/xlink">
<g id="graph0" class="graph" transform="scale(1 1) rotate(0) translate(4 646)">
<title>Engine3D::Quad3d</title>
<!-- Node1 -->
<g id="Node000001" class="node">
<title>Node1</title>
<g id="a_Node000001"><a xlink:title="Quadrilatère composé de deux triangles.">
<polygon fill="#999999" stroke="none" points="96.12,-84 5.62,-84 5.62,0 96.12,0 96.12,-84"/>
<text text-anchor="start" x="9.62" y="-70.5" font-family="Helvetica,sans-Serif" font-size="10.00">Engine3D::Quad3d</text>
<text text-anchor="start" x="49.38" y="-54.5" font-family="Helvetica,sans-Serif" font-size="10.00"> </text>
<text text-anchor="start" x="12.94" y="-38.5" font-family="Helvetica,sans-Serif" font-size="10.00">+</text>
<text text-anchor="start" x="26.25" y="-38.5" font-family="Helvetica,sans-Serif" font-size="10.00">Quad3d()</text>
<text text-anchor="start" x="12.94" y="-22.5" font-family="Helvetica,sans-Serif" font-size="10.00">+</text>
<text text-anchor="start" x="26.25" y="-22.5" font-family="Helvetica,sans-Serif" font-size="10.00">Quad3d()</text>
<text text-anchor="start" x="12.94" y="-6.5" font-family="Helvetica,sans-Serif" font-size="10.00">+</text>
<text text-anchor="start" x="26.25" y="-6.5" font-family="Helvetica,sans-Serif" font-size="10.00">getTriangles()</text>
<polygon fill="#666666" stroke="#666666" points="5.62,-66 5.62,-66 96.12,-66 96.12,-66 5.62,-66"/>
<polygon fill="#666666" stroke="#666666" points="5.62,-50 5.62,-50 96.12,-50 96.12,-50 5.62,-50"/>
<polygon fill="none" stroke="#666666" points="5.62,0 5.62,-84 96.12,-84 96.12,0 5.62,0"/>
</a>
</g>
</g>
<!-- Node2 -->
<g id="Node000002" class="node">
<title>Node2</title>
<g id="a_Node000002"><a xlink:href="class_engine3_d_1_1_triangle3d.html" target="_top" xlink:title="Triangle dans l&#39;espace 3D.">
<polygon fill="white" stroke="none" points="101.75,-254 0,-254 0,-154 101.75,-154 101.75,-254"/>
<text text-anchor="start" x="4" y="-240.5" font-family="Helvetica,sans-Serif" font-size="10.00">Engine3D::Triangle3d</text>
<text text-anchor="start" x="49.38" y="-224.5" font-family="Helvetica,sans-Serif" font-size="10.00"> </text>
<text text-anchor="start" x="12.19" y="-208.5" font-family="Helvetica,sans-Serif" font-size="10.00">+</text>
<text text-anchor="start" x="30.38" y="-208.5" font-family="Helvetica,sans-Serif" font-size="10.00">Triangle3d()</text>
<text text-anchor="start" x="12.19" y="-192.5" font-family="Helvetica,sans-Serif" font-size="10.00">+</text>
<text text-anchor="start" x="30.38" y="-192.5" font-family="Helvetica,sans-Serif" font-size="10.00">Triangle3d()</text>
<text text-anchor="start" x="12.19" y="-176.5" font-family="Helvetica,sans-Serif" font-size="10.00">+</text>
<text text-anchor="start" x="30.38" y="-176.5" font-family="Helvetica,sans-Serif" font-size="10.00">normal()</text>
<text text-anchor="start" x="12.19" y="-160.5" font-family="Helvetica,sans-Serif" font-size="10.00">+</text>
<text text-anchor="start" x="30.38" y="-160.5" font-family="Helvetica,sans-Serif" font-size="10.00">center()</text>
<polygon fill="#666666" stroke="#666666" points="0,-236 0,-236 101.75,-236 101.75,-236 0,-236"/>
<polygon fill="#666666" stroke="#666666" points="0,-220 0,-220 101.75,-220 101.75,-220 0,-220"/>
<polygon fill="none" stroke="#666666" points="0,-154 0,-254 101.75,-254 101.75,-154 0,-154"/>
</a>
</g>
</g>
<!-- Node2&#45;&gt;Node1 -->
<g id="edge1_Node000001_Node000002" class="edge">
<title>Node2&#45;&gt;Node1</title>
<g id="a_edge1_Node000001_Node000002"><a xlink:title=" ">
<path fill="none" stroke="#63b8ff" d="M50.88,-154.13C50.88,-135.92 50.88,-115.17 50.88,-96.56"/>
<polygon fill="none" stroke="#63b8ff" points="50.88,-96.67 46.88,-90.67 50.88,-84.67 54.88,-90.67 50.88,-96.67"/>
</a>
</g>
<text text-anchor="start" x="53.88" y="-123.5" font-family="Helvetica,sans-Serif" font-size="10.00" fill="grey">+t1</text>
<text text-anchor="start" x="53.88" y="-107.5" font-family="Helvetica,sans-Serif" font-size="10.00" fill="grey">+t2</text>
</g>
<!-- Node3 -->
<g id="Node000003" class="node">
<title>Node3</title>
<g id="a_Node000003"><a xlink:href="class_engine3_d_1_1_point3d.html" target="_top" xlink:title="Représente un point dans l&#39;espace 3D.">
<polygon fill="white" stroke="none" points="95.75,-504 6,-504 6,-340 95.75,-340 95.75,-504"/>
<text text-anchor="start" x="10" y="-490.5" font-family="Helvetica,sans-Serif" font-size="10.00">Engine3D::Point3d</text>
<text text-anchor="start" x="49.38" y="-474.5" font-family="Helvetica,sans-Serif" font-size="10.00"> </text>
<text text-anchor="start" x="15.94" y="-458.5" font-family="Helvetica,sans-Serif" font-size="10.00">+</text>
<text text-anchor="start" x="31.88" y="-458.5" font-family="Helvetica,sans-Serif" font-size="10.00">Point3d()</text>
<text text-anchor="start" x="15.94" y="-442.5" font-family="Helvetica,sans-Serif" font-size="10.00">+</text>
<text text-anchor="start" x="31.88" y="-442.5" font-family="Helvetica,sans-Serif" font-size="10.00">Point3d()</text>
<text text-anchor="start" x="15.94" y="-426.5" font-family="Helvetica,sans-Serif" font-size="10.00">+</text>
<text text-anchor="start" x="31.88" y="-426.5" font-family="Helvetica,sans-Serif" font-size="10.00">operator&#45;()</text>
<text text-anchor="start" x="15.94" y="-410.5" font-family="Helvetica,sans-Serif" font-size="10.00">+</text>
<text text-anchor="start" x="31.88" y="-410.5" font-family="Helvetica,sans-Serif" font-size="10.00">operator+()</text>
<text text-anchor="start" x="15.94" y="-394.5" font-family="Helvetica,sans-Serif" font-size="10.00">+</text>
<text text-anchor="start" x="31.88" y="-394.5" font-family="Helvetica,sans-Serif" font-size="10.00">operator*()</text>
<text text-anchor="start" x="15.94" y="-378.5" font-family="Helvetica,sans-Serif" font-size="10.00">+</text>
<text text-anchor="start" x="31.88" y="-378.5" font-family="Helvetica,sans-Serif" font-size="10.00">cross()</text>
<text text-anchor="start" x="15.94" y="-362.5" font-family="Helvetica,sans-Serif" font-size="10.00">+</text>
<text text-anchor="start" x="31.88" y="-362.5" font-family="Helvetica,sans-Serif" font-size="10.00">dot()</text>
<text text-anchor="start" x="15.94" y="-346.5" font-family="Helvetica,sans-Serif" font-size="10.00">+</text>
<text text-anchor="start" x="31.88" y="-346.5" font-family="Helvetica,sans-Serif" font-size="10.00">normalize()</text>
<polygon fill="#666666" stroke="#666666" points="6,-486 6,-486 95.75,-486 95.75,-486 6,-486"/>
<polygon fill="#666666" stroke="#666666" points="6,-470 6,-470 95.75,-470 95.75,-470 6,-470"/>
<polygon fill="none" stroke="#666666" points="6,-340 6,-504 95.75,-504 95.75,-340 6,-340"/>
</a>
</g>
</g>
<!-- Node3&#45;&gt;Node2 -->
<g id="edge2_Node000002_Node000003" class="edge">
<title>Node3&#45;&gt;Node2</title>
<g id="a_edge2_Node000002_Node000003"><a xlink:title=" ">
<path fill="none" stroke="#63b8ff" d="M50.88,-340.26C50.88,-316.02 50.88,-289.82 50.88,-266.99"/>
<polygon fill="none" stroke="#63b8ff" points="50.88,-266.88 46.88,-260.88 50.88,-254.88 54.88,-260.88 50.88,-266.88"/>
</a>
</g>
<text text-anchor="start" x="53.88" y="-309.5" font-family="Helvetica,sans-Serif" font-size="10.00" fill="grey">+p1</text>
<text text-anchor="start" x="53.88" y="-293.5" font-family="Helvetica,sans-Serif" font-size="10.00" fill="grey">+p2</text>
<text text-anchor="start" x="53.88" y="-277.5" font-family="Helvetica,sans-Serif" font-size="10.00" fill="grey">+p3</text>
</g>
<!-- Node4 -->
<g id="Node000004" class="node">
<title>Node4</title>
<g id="a_Node000004"><a xlink:title=" ">
<polygon fill="white" stroke="none" points="64.25,-642 37.5,-642 37.5,-590 64.25,-590 64.25,-642"/>
<text text-anchor="start" x="41.5" y="-628.5" font-family="Helvetica,sans-Serif" font-size="10.00">float</text>
<text text-anchor="start" x="49.38" y="-612.5" font-family="Helvetica,sans-Serif" font-size="10.00"> </text>
<text text-anchor="start" x="49.38" y="-596.5" font-family="Helvetica,sans-Serif" font-size="10.00"> </text>
<polygon fill="#666666" stroke="#666666" points="37.5,-624 37.5,-624 64.25,-624 64.25,-624 37.5,-624"/>
<polygon fill="#666666" stroke="#666666" points="37.5,-608 37.5,-608 64.25,-608 64.25,-608 37.5,-608"/>
<polygon fill="none" stroke="#666666" points="37.5,-590 37.5,-642 64.25,-642 64.25,-590 37.5,-590"/>
</a>
</g>
</g>
<!-- Node4&#45;&gt;Node3 -->
<g id="edge3_Node000003_Node000004" class="edge">
<title>Node4&#45;&gt;Node3</title>
<g id="a_edge3_Node000003_Node000004"><a xlink:title=" ">
<path fill="none" stroke="#63b8ff" d="M50.88,-590.29C50.88,-571.32 50.88,-543.83 50.88,-516.61"/>
<polygon fill="none" stroke="#63b8ff" points="50.88,-516.63 46.88,-510.63 50.88,-504.63 54.88,-510.63 50.88,-516.63"/>
</a>
</g>
<text text-anchor="start" x="53.88" y="-559.5" font-family="Helvetica,sans-Serif" font-size="10.00" fill="grey">+x</text>
<text text-anchor="start" x="53.88" y="-543.5" font-family="Helvetica,sans-Serif" font-size="10.00" fill="grey">+y</text>
<text text-anchor="start" x="53.88" y="-527.5" font-family="Helvetica,sans-Serif" font-size="10.00" fill="grey">+z</text>
</g>
</g>
</svg>
