<?xml version="1.0" encoding="UTF-8" standalone="no"?>
<!DOCTYPE svg PUBLIC "-//W3C//DTD SVG 1.1//EN"
 "http://www.w3.org/Graphics/SVG/1.1/DTD/svg11.dtd">
<!-- Generated by graphviz version 12.2.1 (0)
 -->
<!-- Title: Engine3D::Scene::drawScanline Pages: 1 -->
<svg width="842pt" height="78pt"
 viewBox="0.00 0.00 842.00 78.00" xmlns="http://www.w3.org/2000/svg" xmlns:xlink="http://www.w3.org/1999/xlink">
<g id="graph0" class="graph" transform="scale(1 1) rotate(0) translate(4 74)">
<title>Engine3D::Scene::drawScanline</title>
<!-- Node1 -->
<g id="Node000001" class="node">
<title>Node1</title>
<g id="a_Node000001"><a xlink:title="Dessine une ligne horizontale du triangle via technique scanline.">
<polygon fill="#999999" stroke="#666666" points="834,-42 677,-42 677,-22 834,-22 834,-42"/>
<text text-anchor="middle" x="755.5" y="-28.5" font-family="Helvetica,sans-Serif" font-size="10.00">Engine3D::Scene::drawScanline</text>
</a>
</g>
</g>
<!-- Node2 -->
<g id="Node000002" class="node">
<title>Node2</title>
<g id="a_Node000002"><a xlink:href="class_engine3_d_1_1_scene.html#a8837c73c8733a95bc50118d1aded5155" target="_top" xlink:title="Rasterise la partie plate du triangle (haut ou bas).">
<polygon fill="white" stroke="#666666" points="633.12,-70 508.38,-70 508.38,-38 633.12,-38 633.12,-70"/>
<text text-anchor="start" x="516.38" y="-56.5" font-family="Helvetica,sans-Serif" font-size="10.00">Engine3D::Scene::fillFlat</text>
<text text-anchor="middle" x="570.75" y="-44.5" font-family="Helvetica,sans-Serif" font-size="10.00">Bottom</text>
</a>
</g>
</g>
<!-- Node1&#45;&gt;Node2 -->
<g id="edge1_Node000001_Node000002" class="edge">
<title>Node1&#45;&gt;Node2</title>
<g id="a_edge1_Node000001_Node000002"><a xlink:title=" ">
<path fill="none" stroke="#63b8ff" d="M665.47,-42.72C654.62,-44.02 643.73,-45.33 633.41,-46.58"/>
<polygon fill="#63b8ff" stroke="#63b8ff" points="665.72,-46.21 675.23,-41.54 664.88,-39.26 665.72,-46.21"/>
</a>
</g>
</g>
<!-- Node7 -->
<g id="Node000007" class="node">
<title>Node7</title>
<g id="a_Node000007"><a xlink:href="class_engine3_d_1_1_scene.html#a817b9c0fd5988cb4867e3c73773b2584" target="_top" xlink:title="Rasterise la partie plate supérieure du triangle.">
<polygon fill="white" stroke="#666666" points="641,-20 500.5,-20 500.5,0 641,0 641,-20"/>
<text text-anchor="middle" x="570.75" y="-6.5" font-family="Helvetica,sans-Serif" font-size="10.00">Engine3D::Scene::fillFlatTop</text>
</a>
</g>
</g>
<!-- Node1&#45;&gt;Node7 -->
<g id="edge6_Node000001_Node000007" class="edge">
<title>Node1&#45;&gt;Node7</title>
<g id="a_edge6_Node000001_Node000007"><a xlink:title=" ">
<path fill="none" stroke="#63b8ff" d="M665.37,-21.27C657.3,-20.3 649.21,-19.32 641.35,-18.38"/>
<polygon fill="#63b8ff" stroke="#63b8ff" points="664.88,-24.74 675.23,-22.46 665.72,-17.79 664.88,-24.74"/>
</a>
</g>
</g>
<!-- Node3 -->
<g id="Node000003" class="node">
<title>Node3</title>
<g id="a_Node000003"><a xlink:href="class_engine3_d_1_1_scene.html#ae4f80fe1878d214d93eddd483c7c9e9b" target="_top" xlink:title="Rasterise un triangle 2D.">
<polygon fill="white" stroke="#666666" points="464.5,-48 328.5,-48 328.5,-16 464.5,-16 464.5,-48"/>
<text text-anchor="start" x="336.5" y="-34.5" font-family="Helvetica,sans-Serif" font-size="10.00">Engine3D::Scene::rasterize</text>
<text text-anchor="middle" x="396.5" y="-22.5" font-family="Helvetica,sans-Serif" font-size="10.00">Triangle</text>
</a>
</g>
</g>
<!-- Node2&#45;&gt;Node3 -->
<g id="edge2_Node000002_Node000003" class="edge">
<title>Node2&#45;&gt;Node3</title>
<g id="a_edge2_Node000002_Node000003"><a xlink:title=" ">
<path fill="none" stroke="#63b8ff" d="M496.73,-44.67C486.17,-43.32 475.34,-41.94 464.9,-40.61"/>
<polygon fill="#63b8ff" stroke="#63b8ff" points="496.19,-48.13 506.55,-45.93 497.07,-41.19 496.19,-48.13"/>
</a>
</g>
</g>
<!-- Node4 -->
<g id="Node000004" class="node">
<title>Node4</title>
<g id="a_Node000004"><a xlink:href="class_engine3_d_1_1_scene.html#a31514c322149277ab158e3ebe4e4627b" target="_top" xlink:title="Effectue le rendu de la scène.">
<polygon fill="white" stroke="#666666" points="292.5,-42 167,-42 167,-22 292.5,-22 292.5,-42"/>
<text text-anchor="middle" x="229.75" y="-28.5" font-family="Helvetica,sans-Serif" font-size="10.00">Engine3D::Scene::render</text>
</a>
</g>
</g>
<!-- Node3&#45;&gt;Node4 -->
<g id="edge3_Node000003_Node000004" class="edge">
<title>Node3&#45;&gt;Node4</title>
<g id="a_edge3_Node000003_Node000004"><a xlink:title=" ">
<path fill="none" stroke="#63b8ff" d="M316.73,-32C308.71,-32 300.64,-32 292.83,-32"/>
<polygon fill="#63b8ff" stroke="#63b8ff" points="316.5,-35.5 326.5,-32 316.5,-28.5 316.5,-35.5"/>
</a>
</g>
</g>
<!-- Node5 -->
<g id="Node000005" class="node">
<title>Node5</title>
<g id="a_Node000005"><a xlink:href="main_8cpp.html#a43c63981d2c39c1e3e08614ee3f83b4f" target="_top" xlink:title="Boucle principale du programme.">
<polygon fill="white" stroke="#666666" points="131,-42 73,-42 73,-22 131,-22 131,-42"/>
<text text-anchor="middle" x="102" y="-28.5" font-family="Helvetica,sans-Serif" font-size="10.00">mainLoop</text>
</a>
</g>
</g>
<!-- Node4&#45;&gt;Node5 -->
<g id="edge4_Node000004_Node000005" class="edge">
<title>Node4&#45;&gt;Node5</title>
<g id="a_edge4_Node000004_Node000005"><a xlink:title=" ">
<path fill="none" stroke="#63b8ff" d="M155.34,-32C146.85,-32 138.61,-32 131.29,-32"/>
<polygon fill="#63b8ff" stroke="#63b8ff" points="155.1,-35.5 165.1,-32 155.1,-28.5 155.1,-35.5"/>
</a>
</g>
</g>
<!-- Node6 -->
<g id="Node000006" class="node">
<title>Node6</title>
<g id="a_Node000006"><a xlink:href="main_8cpp.html#a0ddf1224851353fc92bfbff6f499fa97" target="_top" xlink:title="main">
<polygon fill="white" stroke="#666666" points="37,-42 0,-42 0,-22 37,-22 37,-42"/>
<text text-anchor="middle" x="18.5" y="-28.5" font-family="Helvetica,sans-Serif" font-size="10.00">main</text>
</a>
</g>
</g>
<!-- Node5&#45;&gt;Node6 -->
<g id="edge5_Node000005_Node000006" class="edge">
<title>Node5&#45;&gt;Node6</title>
<g id="a_edge5_Node000005_Node000006"><a xlink:title=" ">
<path fill="none" stroke="#63b8ff" d="M61.58,-32C53.1,-32 44.55,-32 37.39,-32"/>
<polygon fill="#63b8ff" stroke="#63b8ff" points="61.44,-35.5 71.44,-32 61.44,-28.5 61.44,-35.5"/>
</a>
</g>
</g>
<!-- Node7&#45;&gt;Node3 -->
<g id="edge7_Node000007_Node000003" class="edge">
<title>Node7&#45;&gt;Node3</title>
<g id="a_edge7_Node000007_Node000003"><a xlink:title=" ">
<path fill="none" stroke="#63b8ff" d="M488.87,-20.33C480.82,-21.36 472.7,-22.4 464.81,-23.4"/>
<polygon fill="#63b8ff" stroke="#63b8ff" points="489.21,-23.82 498.68,-19.08 488.32,-16.87 489.21,-23.82"/>
</a>
</g>
</g>
</g>
</svg>
