<?xml version="1.0" encoding="UTF-8" standalone="no"?>
<!DOCTYPE svg PUBLIC "-//W3C//DTD SVG 1.1//EN"
 "http://www.w3.org/Graphics/SVG/1.1/DTD/svg11.dtd">
<!-- Generated by graphviz version 12.2.1 (0)
 -->
<!-- Title: Engine3D::Sphere3d::getTriangles Pages: 1 -->
<svg width="308pt" height="78pt"
 viewBox="0.00 0.00 307.75 78.00" xmlns="http://www.w3.org/2000/svg" xmlns:xlink="http://www.w3.org/1999/xlink">
<g id="graph0" class="graph" transform="scale(1 1) rotate(0) translate(4 74)">
<title>Engine3D::Sphere3d::getTriangles</title>
<!-- Node1 -->
<g id="Node000001" class="node">
<title>Node1</title>
<g id="a_Node000001"><a xlink:title="Retourne tous les triangles de la sphère.">
<polygon fill="#999999" stroke="#666666" points="106,-54 0,-54 0,-22 106,-22 106,-54"/>
<text text-anchor="start" x="8" y="-40.5" font-family="Helvetica,sans-Serif" font-size="10.00">Engine3D::Sphere3d</text>
<text text-anchor="middle" x="53" y="-28.5" font-family="Helvetica,sans-Serif" font-size="10.00">::getTriangles</text>
</a>
</g>
</g>
<!-- Node2 -->
<g id="Node000002" class="node">
<title>Node2</title>
<g id="a_Node000002"><a xlink:href="class_engine3_d_1_1_quad3d.html#aaa0bdee0dc9d2376064665d7caf6b0f5" target="_top" xlink:title="Retourne les triangles du quad.">
<polygon fill="white" stroke="#666666" points="299.75,-70 142,-70 142,-50 299.75,-50 299.75,-70"/>
<text text-anchor="middle" x="220.88" y="-56.5" font-family="Helvetica,sans-Serif" font-size="10.00">Engine3D::Quad3d::getTriangles</text>
</a>
</g>
</g>
<!-- Node1&#45;&gt;Node2 -->
<g id="edge1_Node000001_Node000002" class="edge">
<title>Node1&#45;&gt;Node2</title>
<g id="a_edge1_Node000001_Node000002"><a xlink:title=" ">
<path fill="none" stroke="#63b8ff" d="M106.48,-44.96C114.18,-45.98 122.29,-47.06 130.48,-48.14"/>
<polygon fill="#63b8ff" stroke="#63b8ff" points="129.8,-51.58 140.17,-49.43 130.72,-44.64 129.8,-51.58"/>
</a>
</g>
</g>
<!-- Node3 -->
<g id="Node000003" class="node">
<title>Node3</title>
<g id="a_Node000003"><a xlink:href="class_engine3_d_1_1_sphere3d.html#aa65545be81f5e53f004d31e7a368879e" target="_top" xlink:title="Calcule un point sur la sphère.">
<polygon fill="white" stroke="#666666" points="273.88,-32 167.88,-32 167.88,0 273.88,0 273.88,-32"/>
<text text-anchor="start" x="175.88" y="-18.5" font-family="Helvetica,sans-Serif" font-size="10.00">Engine3D::Sphere3d</text>
<text text-anchor="middle" x="220.88" y="-6.5" font-family="Helvetica,sans-Serif" font-size="10.00">::spherePoint</text>
</a>
</g>
</g>
<!-- Node1&#45;&gt;Node3 -->
<g id="edge2_Node000001_Node000003" class="edge">
<title>Node1&#45;&gt;Node3</title>
<g id="a_edge2_Node000001_Node000003"><a xlink:title=" ">
<path fill="none" stroke="#63b8ff" d="M106.48,-31.04C122.29,-28.94 139.82,-26.62 156.27,-24.44"/>
<polygon fill="#63b8ff" stroke="#63b8ff" points="156.49,-27.94 165.95,-23.15 155.57,-21 156.49,-27.94"/>
</a>
</g>
</g>
</g>
</svg>
