<?xml version="1.0" encoding="UTF-8" standalone="no"?>
<!DOCTYPE svg PUBLIC "-//W3C//DTD SVG 1.1//EN"
 "http://www.w3.org/Graphics/SVG/1.1/DTD/svg11.dtd">
<!-- Generated by graphviz version 12.2.1 (0)
 -->
<!-- Title: Engine3D::Point3d::Point3d Pages: 1 -->
<svg width="910pt" height="278pt"
 viewBox="0.00 0.00 909.75 278.00" xmlns="http://www.w3.org/2000/svg" xmlns:xlink="http://www.w3.org/1999/xlink">
<g id="graph0" class="graph" transform="scale(1 1) rotate(0) translate(4 274)">
<title>Engine3D::Point3d::Point3d</title>
<!-- Node1 -->
<g id="Node000001" class="node">
<title>Node1</title>
<g id="a_Node000001"><a xlink:title="Constructeur par défaut.">
<polygon fill="#999999" stroke="#666666" points="901.75,-154 798,-154 798,-122 901.75,-122 901.75,-154"/>
<text text-anchor="start" x="806" y="-140.5" font-family="Helvetica,sans-Serif" font-size="10.00">Engine3D::Point3d::</text>
<text text-anchor="middle" x="849.88" y="-128.5" font-family="Helvetica,sans-Serif" font-size="10.00">Point3d</text>
</a>
</g>
</g>
<!-- Node2 -->
<g id="Node000002" class="node">
<title>Node2</title>
<g id="a_Node000002"><a xlink:href="class_engine3_d_1_1_point3d.html#a5bda2a757a3d5c95fa931087c7b21ae6" target="_top" xlink:title="Produit vectoriel.">
<polygon fill="white" stroke="#666666" points="762,-270 658.25,-270 658.25,-238 762,-238 762,-270"/>
<text text-anchor="start" x="666.25" y="-256.5" font-family="Helvetica,sans-Serif" font-size="10.00">Engine3D::Point3d::</text>
<text text-anchor="middle" x="710.12" y="-244.5" font-family="Helvetica,sans-Serif" font-size="10.00">cross</text>
</a>
</g>
</g>
<!-- Node1&#45;&gt;Node2 -->
<g id="edge1_Node000001_Node000002" class="edge">
<title>Node1&#45;&gt;Node2</title>
<g id="a_edge1_Node000001_Node000002"><a xlink:title=" ">
<path fill="none" stroke="#63b8ff" d="M829.04,-163.22C812.61,-182.92 787.85,-210.05 762,-229 757.79,-232.08 753.15,-234.96 748.43,-237.59"/>
<polygon fill="#63b8ff" stroke="#63b8ff" points="831.61,-165.6 835.23,-155.65 826.19,-161.17 831.61,-165.6"/>
</a>
</g>
</g>
<!-- Node8 -->
<g id="Node000008" class="node">
<title>Node8</title>
<g id="a_Node000008"><a xlink:href="class_engine3_d_1_1_point3d.html#ae2fe7656b9388965fb9e890a89b28dcb" target="_top" xlink:title="Produit scalaire.">
<polygon fill="white" stroke="#666666" points="622.25,-170 505,-170 505,-150 622.25,-150 622.25,-170"/>
<text text-anchor="middle" x="563.62" y="-156.5" font-family="Helvetica,sans-Serif" font-size="10.00">Engine3D::Point3d::dot</text>
</a>
</g>
</g>
<!-- Node1&#45;&gt;Node8 -->
<g id="edge7_Node000001_Node000008" class="edge">
<title>Node1&#45;&gt;Node8</title>
<g id="a_edge7_Node000001_Node000008"><a xlink:title=" ">
<path fill="none" stroke="#63b8ff" d="M786.37,-142.84C737.59,-146.61 670.33,-151.82 622.71,-155.5"/>
<polygon fill="#63b8ff" stroke="#63b8ff" points="786.52,-146.34 796.22,-142.08 785.98,-139.36 786.52,-146.34"/>
</a>
</g>
</g>
<!-- Node9 -->
<g id="Node000009" class="node">
<title>Node9</title>
<g id="a_Node000009"><a xlink:href="class_engine3_d_1_1_point3d.html#a47b11f8208e5c25f2d5f04c49cd10bd4" target="_top" xlink:title="Normalise le vecteur.">
<polygon fill="white" stroke="#666666" points="762,-220 658.25,-220 658.25,-188 762,-188 762,-220"/>
<text text-anchor="start" x="666.25" y="-206.5" font-family="Helvetica,sans-Serif" font-size="10.00">Engine3D::Point3d::</text>
<text text-anchor="middle" x="710.12" y="-194.5" font-family="Helvetica,sans-Serif" font-size="10.00">normalize</text>
</a>
</g>
</g>
<!-- Node1&#45;&gt;Node9 -->
<g id="edge9_Node000001_Node000009" class="edge">
<title>Node1&#45;&gt;Node9</title>
<g id="a_edge9_Node000001_Node000009"><a xlink:title=" ">
<path fill="none" stroke="#63b8ff" d="M804.15,-159.43C784.96,-168.62 762.91,-179.19 745.09,-187.73"/>
<polygon fill="#63b8ff" stroke="#63b8ff" points="805.6,-162.62 813.11,-155.14 802.57,-156.3 805.6,-162.62"/>
</a>
</g>
</g>
<!-- Node10 -->
<g id="Node000010" class="node">
<title>Node10</title>
<g id="a_Node000010"><a xlink:href="class_engine3_d_1_1_point3d.html#a4da094e0fe416bdbdd807fbe610a6897" target="_top" xlink:title="Multiplication par un scalaire.">
<polygon fill="white" stroke="#666666" points="762,-132 658.25,-132 658.25,-100 762,-100 762,-132"/>
<text text-anchor="start" x="666.25" y="-118.5" font-family="Helvetica,sans-Serif" font-size="10.00">Engine3D::Point3d::</text>
<text text-anchor="middle" x="710.12" y="-106.5" font-family="Helvetica,sans-Serif" font-size="10.00">operator*</text>
</a>
</g>
</g>
<!-- Node1&#45;&gt;Node10 -->
<g id="edge11_Node000001_Node000010" class="edge">
<title>Node1&#45;&gt;Node10</title>
<g id="a_edge11_Node000001_Node000010"><a xlink:title=" ">
<path fill="none" stroke="#63b8ff" d="M786.39,-128.02C778.38,-126.74 770.26,-125.44 762.46,-124.2"/>
<polygon fill="#63b8ff" stroke="#63b8ff" points="785.66,-131.45 796.09,-129.57 786.76,-124.54 785.66,-131.45"/>
</a>
</g>
</g>
<!-- Node11 -->
<g id="Node000011" class="node">
<title>Node11</title>
<g id="a_Node000011"><a xlink:href="class_engine3_d_1_1_point3d.html#a10bb434bfbe5415fb46ba6d7e6897f2f" target="_top" xlink:title="Addition de deux points.">
<polygon fill="white" stroke="#666666" points="762,-82 658.25,-82 658.25,-50 762,-50 762,-82"/>
<text text-anchor="start" x="666.25" y="-68.5" font-family="Helvetica,sans-Serif" font-size="10.00">Engine3D::Point3d::</text>
<text text-anchor="middle" x="710.12" y="-56.5" font-family="Helvetica,sans-Serif" font-size="10.00">operator+</text>
</a>
</g>
</g>
<!-- Node1&#45;&gt;Node11 -->
<g id="edge12_Node000001_Node000011" class="edge">
<title>Node1&#45;&gt;Node11</title>
<g id="a_edge12_Node000001_Node000011"><a xlink:title=" ">
<path fill="none" stroke="#63b8ff" d="M809.42,-116.23C794.62,-108.18 777.6,-99.05 762,-91 756.58,-88.2 750.8,-85.29 745.15,-82.49"/>
<polygon fill="#63b8ff" stroke="#63b8ff" points="807.49,-119.17 817.95,-120.89 810.85,-113.02 807.49,-119.17"/>
</a>
</g>
</g>
<!-- Node12 -->
<g id="Node000012" class="node">
<title>Node12</title>
<g id="a_Node000012"><a xlink:href="class_engine3_d_1_1_point3d.html#a44680614401a82d16c2e60ae4522de52" target="_top" xlink:title="Soustraction de deux points (retourne un vecteur).">
<polygon fill="white" stroke="#666666" points="762,-32 658.25,-32 658.25,0 762,0 762,-32"/>
<text text-anchor="start" x="666.25" y="-18.5" font-family="Helvetica,sans-Serif" font-size="10.00">Engine3D::Point3d::</text>
<text text-anchor="middle" x="710.12" y="-6.5" font-family="Helvetica,sans-Serif" font-size="10.00">operator&#45;</text>
</a>
</g>
</g>
<!-- Node1&#45;&gt;Node12 -->
<g id="edge13_Node000001_Node000012" class="edge">
<title>Node1&#45;&gt;Node12</title>
<g id="a_edge13_Node000001_Node000012"><a xlink:title=" ">
<path fill="none" stroke="#63b8ff" d="M830.71,-112.79C814.51,-91.62 789.19,-61.61 762,-41 757.92,-37.91 753.4,-35.04 748.79,-32.44"/>
<polygon fill="#63b8ff" stroke="#63b8ff" points="827.79,-114.72 836.59,-120.62 833.39,-110.52 827.79,-114.72"/>
</a>
</g>
</g>
<!-- Node3 -->
<g id="Node000003" class="node">
<title>Node3</title>
<g id="a_Node000003"><a xlink:href="class_engine3_d_1_1_triangle3d.html#a36a10c8fdb5ead425abf77d7bd3ec6d4" target="_top" xlink:title="Calcule la normale du triangle.">
<polygon fill="white" stroke="#666666" points="618.5,-220 508.75,-220 508.75,-188 618.5,-188 618.5,-220"/>
<text text-anchor="start" x="516.75" y="-206.5" font-family="Helvetica,sans-Serif" font-size="10.00">Engine3D::Triangle3d</text>
<text text-anchor="middle" x="563.62" y="-194.5" font-family="Helvetica,sans-Serif" font-size="10.00">::normal</text>
</a>
</g>
</g>
<!-- Node2&#45;&gt;Node3 -->
<g id="edge2_Node000002_Node000003" class="edge">
<title>Node2&#45;&gt;Node3</title>
<g id="a_edge2_Node000002_Node000003"><a xlink:title=" ">
<path fill="none" stroke="#63b8ff" d="M651.1,-233.92C638.13,-229.44 624.53,-224.73 612.05,-220.41"/>
<polygon fill="#63b8ff" stroke="#63b8ff" points="649.79,-237.17 660.38,-237.13 652.07,-230.56 649.79,-237.17"/>
</a>
</g>
</g>
<!-- Node4 -->
<g id="Node000004" class="node">
<title>Node4</title>
<g id="a_Node000004"><a xlink:href="class_engine3_d_1_1_scene.html#a572a13e5c6c08eced30fc482cc9fdeee" target="_top" xlink:title="Vérifie si un triangle est visible.">
<polygon fill="white" stroke="#666666" points="469,-198 328.5,-198 328.5,-166 469,-166 469,-198"/>
<text text-anchor="start" x="336.5" y="-184.5" font-family="Helvetica,sans-Serif" font-size="10.00">Engine3D::Scene::isTriangle</text>
<text text-anchor="middle" x="398.75" y="-172.5" font-family="Helvetica,sans-Serif" font-size="10.00">Visible</text>
</a>
</g>
</g>
<!-- Node3&#45;&gt;Node4 -->
<g id="edge3_Node000003_Node000004" class="edge">
<title>Node3&#45;&gt;Node4</title>
<g id="a_edge3_Node000003_Node000004"><a xlink:title=" ">
<path fill="none" stroke="#63b8ff" d="M497.04,-195.14C487.94,-193.91 478.57,-192.65 469.39,-191.41"/>
<polygon fill="#63b8ff" stroke="#63b8ff" points="496.51,-198.6 506.89,-196.47 497.45,-191.66 496.51,-198.6"/>
</a>
</g>
</g>
<!-- Node5 -->
<g id="Node000005" class="node">
<title>Node5</title>
<g id="a_Node000005"><a xlink:href="class_engine3_d_1_1_scene.html#a31514c322149277ab158e3ebe4e4627b" target="_top" xlink:title="Effectue le rendu de la scène.">
<polygon fill="white" stroke="#666666" points="292.5,-192 167,-192 167,-172 292.5,-172 292.5,-192"/>
<text text-anchor="middle" x="229.75" y="-178.5" font-family="Helvetica,sans-Serif" font-size="10.00">Engine3D::Scene::render</text>
</a>
</g>
</g>
<!-- Node4&#45;&gt;Node5 -->
<g id="edge4_Node000004_Node000005" class="edge">
<title>Node4&#45;&gt;Node5</title>
<g id="a_edge4_Node000004_Node000005"><a xlink:title=" ">
<path fill="none" stroke="#63b8ff" d="M317.01,-182C308.93,-182 300.82,-182 292.97,-182"/>
<polygon fill="#63b8ff" stroke="#63b8ff" points="316.86,-185.5 326.86,-182 316.86,-178.5 316.86,-185.5"/>
</a>
</g>
</g>
<!-- Node6 -->
<g id="Node000006" class="node">
<title>Node6</title>
<g id="a_Node000006"><a xlink:href="main_8cpp.html#a43c63981d2c39c1e3e08614ee3f83b4f" target="_top" xlink:title="Boucle principale du programme.">
<polygon fill="white" stroke="#666666" points="131,-192 73,-192 73,-172 131,-172 131,-192"/>
<text text-anchor="middle" x="102" y="-178.5" font-family="Helvetica,sans-Serif" font-size="10.00">mainLoop</text>
</a>
</g>
</g>
<!-- Node5&#45;&gt;Node6 -->
<g id="edge5_Node000005_Node000006" class="edge">
<title>Node5&#45;&gt;Node6</title>
<g id="a_edge5_Node000005_Node000006"><a xlink:title=" ">
<path fill="none" stroke="#63b8ff" d="M155.34,-182C146.85,-182 138.61,-182 131.29,-182"/>
<polygon fill="#63b8ff" stroke="#63b8ff" points="155.1,-185.5 165.1,-182 155.1,-178.5 155.1,-185.5"/>
</a>
</g>
</g>
<!-- Node7 -->
<g id="Node000007" class="node">
<title>Node7</title>
<g id="a_Node000007"><a xlink:href="main_8cpp.html#a0ddf1224851353fc92bfbff6f499fa97" target="_top" xlink:title="main">
<polygon fill="white" stroke="#666666" points="37,-192 0,-192 0,-172 37,-172 37,-192"/>
<text text-anchor="middle" x="18.5" y="-178.5" font-family="Helvetica,sans-Serif" font-size="10.00">main</text>
</a>
</g>
</g>
<!-- Node6&#45;&gt;Node7 -->
<g id="edge6_Node000006_Node000007" class="edge">
<title>Node6&#45;&gt;Node7</title>
<g id="a_edge6_Node000006_Node000007"><a xlink:title=" ">
<path fill="none" stroke="#63b8ff" d="M61.58,-182C53.1,-182 44.55,-182 37.39,-182"/>
<polygon fill="#63b8ff" stroke="#63b8ff" points="61.44,-185.5 71.44,-182 61.44,-178.5 61.44,-185.5"/>
</a>
</g>
</g>
<!-- Node8&#45;&gt;Node4 -->
<g id="edge8_Node000008_Node000004" class="edge">
<title>Node8&#45;&gt;Node4</title>
<g id="a_edge8_Node000008_Node000004"><a xlink:title=" ">
<path fill="none" stroke="#63b8ff" d="M493.58,-169.33C485.59,-170.41 477.44,-171.51 469.43,-172.59"/>
<polygon fill="#63b8ff" stroke="#63b8ff" points="493.8,-172.83 503.24,-168.02 492.86,-165.89 493.8,-172.83"/>
</a>
</g>
</g>
<!-- Node9&#45;&gt;Node3 -->
<g id="edge10_Node000009_Node000003" class="edge">
<title>Node9&#45;&gt;Node3</title>
<g id="a_edge10_Node000009_Node000003"><a xlink:title=" ">
<path fill="none" stroke="#63b8ff" d="M646.3,-204C637.12,-204 627.73,-204 618.75,-204"/>
<polygon fill="#63b8ff" stroke="#63b8ff" points="646.26,-207.5 656.26,-204 646.26,-200.5 646.26,-207.5"/>
</a>
</g>
</g>
</g>
</svg>
