<?xml version="1.0" encoding="UTF-8" standalone="no"?>
<!DOCTYPE svg PUBLIC "-//W3C//DTD SVG 1.1//EN"
 "http://www.w3.org/Graphics/SVG/1.1/DTD/svg11.dtd">
<!-- Generated by graphviz version 12.2.1 (0)
 -->
<!-- Title: Engine3D::Pave3d::getTriangles Pages: 1 -->
<svg width="359pt" height="78pt"
 viewBox="0.00 0.00 358.75 78.00" xmlns="http://www.w3.org/2000/svg" xmlns:xlink="http://www.w3.org/1999/xlink">
<g id="graph0" class="graph" transform="scale(1 1) rotate(0) translate(4 74)">
<title>Engine3D::Pave3d::getTriangles</title>
<!-- Node1 -->
<g id="Node000001" class="node">
<title>Node1</title>
<g id="a_Node000001"><a xlink:title="Retourne tous les triangles du pavé">
<polygon fill="#999999" stroke="#666666" points="157,-48 0,-48 0,-28 157,-28 157,-48"/>
<text text-anchor="middle" x="78.5" y="-34.5" font-family="Helvetica,sans-Serif" font-size="10.00">Engine3D::Pave3d::getTriangles</text>
</a>
</g>
</g>
<!-- Node2 -->
<g id="Node000002" class="node">
<title>Node2</title>
<g id="a_Node000002"><a xlink:href="class_engine3_d_1_1_quad3d.html#aaa0bdee0dc9d2376064665d7caf6b0f5" target="_top" xlink:title="Retourne les triangles du quad.">
<polygon fill="white" stroke="#666666" points="350.75,-70 193,-70 193,-50 350.75,-50 350.75,-70"/>
<text text-anchor="middle" x="271.88" y="-56.5" font-family="Helvetica,sans-Serif" font-size="10.00">Engine3D::Quad3d::getTriangles</text>
</a>
</g>
</g>
<!-- Node1&#45;&gt;Node2 -->
<g id="edge1_Node000001_Node000002" class="edge">
<title>Node1&#45;&gt;Node2</title>
<g id="a_edge1_Node000001_Node000002"><a xlink:title=" ">
<path fill="none" stroke="#63b8ff" d="M157.34,-46.95C165.29,-47.86 173.41,-48.8 181.46,-49.72"/>
<polygon fill="#63b8ff" stroke="#63b8ff" points="180.96,-53.19 191.29,-50.85 181.76,-46.23 180.96,-53.19"/>
</a>
</g>
</g>
<!-- Node3 -->
<g id="Node000003" class="node">
<title>Node3</title>
<g id="a_Node000003"><a xlink:href="class_engine3_d_1_1_pave3d.html#a9ac0e8d9d88b16945a180d5e86b09879" target="_top" xlink:title="Applique la rotation à un point.">
<polygon fill="white" stroke="#666666" points="336.12,-32 207.62,-32 207.62,0 336.12,0 336.12,-32"/>
<text text-anchor="start" x="215.62" y="-18.5" font-family="Helvetica,sans-Serif" font-size="10.00">Engine3D::Pave3d::rotate</text>
<text text-anchor="middle" x="271.88" y="-6.5" font-family="Helvetica,sans-Serif" font-size="10.00">Point</text>
</a>
</g>
</g>
<!-- Node1&#45;&gt;Node3 -->
<g id="edge2_Node000001_Node000003" class="edge">
<title>Node1&#45;&gt;Node3</title>
<g id="a_edge2_Node000001_Node000003"><a xlink:title=" ">
<path fill="none" stroke="#63b8ff" d="M157.34,-29.05C170.02,-27.59 183.13,-26.09 195.74,-24.64"/>
<polygon fill="#63b8ff" stroke="#63b8ff" points="196.11,-28.12 205.65,-23.5 195.31,-21.16 196.11,-28.12"/>
</a>
</g>
</g>
</g>
</svg>
