<?xml version="1.0" encoding="UTF-8" standalone="no"?>
<!DOCTYPE svg PUBLIC "-//W3C//DTD SVG 1.1//EN"
 "http://www.w3.org/Graphics/SVG/1.1/DTD/svg11.dtd">
<!-- Generated by graphviz version 12.2.1 (0)
 -->
<!-- Title: Engine3D::Camera Pages: 1 -->
<!--zoomable 512 -->

<svg id="main" version="1.1" xmlns="http://www.w3.org/2000/svg" xmlns:xlink="http://www.w3.org/1999/xlink" xml:space="preserve" onload="init(evt)">

<style type="text/css"><![CDATA[
.node, .edge {opacity: 0.7;}
.node.selected, .edge.selected {opacity: 1;}
.edge:hover path { stroke: red; }
.edge:hover polygon { stroke: red; fill: red; }
]]></style>

<defs>
  <circle id="rim" cx="0" cy="0" r="7"/>
  <circle id="rim2" cx="0" cy="0" r="3.5"/>
  <g id="zoomPlus">
    <use xlink:href="#rim" fill="#404040"><set attributeName="fill" to="#808080" begin="zoomplus.mouseover" end="zoomplus.mouseout"/></use>
    <path d="M-4,0h8M0,-4v8" fill="none" stroke="white" stroke-width="1.5" pointer-events="none"/>
  </g>
  <g id="zoomMin">
    <use xlink:href="#rim" fill="#404040"><set attributeName="fill" to="#808080" begin="zoomminus.mouseover" end="zoomminus.mouseout"/></use>
    <path d="M-4,0h8" fill="none" stroke="white" stroke-width="1.5" pointer-events="none"/>
  </g>
  <g id="arrowUp" transform="translate(30 24)">
    <use xlink:href="#rim"/>
    <path pointer-events="none" fill="none" stroke="white" stroke-width="1.5" d="M0,-3.0v7 M-2.5,-0.5L0,-3.0L2.5,-0.5"/>
  </g>
  <g id="arrowRight" transform="rotate(90) translate(36 -43)">
    <use xlink:href="#rim"/>
    <path pointer-events="none" fill="none" stroke="white" stroke-width="1.5" d="M0,-3.0v7 M-2.5,-0.5L0,-3.0L2.5,-0.5"/>
  </g>
  <g id="arrowDown" transform="rotate(180) translate(-30 -48)">
    <use xlink:href="#rim"/>
    <path pointer-events="none" fill="none" stroke="white" stroke-width="1.5" d="M0,-3.0v7 M-2.5,-0.5L0,-3.0L2.5,-0.5"/>
  </g>
  <g id="arrowLeft" transform="rotate(270) translate(-36 17)">
    <use xlink:href="#rim"/>
    <path pointer-events="none" fill="none" stroke="white" stroke-width="1.5" d="M0,-3.0v7 M-2.5,-0.5L0,-3.0L2.5,-0.5"/>
  </g>
  <g id="resetDef">
    <use xlink:href="#rim2" fill="#404040"><set attributeName="fill" to="#808080" begin="reset.mouseover" end="reset.mouseout"/></use>
  </g>
</defs>
<script type="application/ecmascript">
var viewWidth = 180;
var viewHeight = 512;
var sectionId = 'dynsection-0';
</script>
<script type="application/ecmascript" xlink:href="svg.min.js"/>
<svg id="graph" class="graph">
<g id="viewport">
<title>Engine3D::Camera</title>
<!-- Node1 -->
<g id="Node000001" class="node">
<title>Node1</title>
<g id="a_Node000001"><a xlink:title="Représente la caméra (œil) dans la scène.">
<polygon fill="#999999" stroke="none" points="91.25,-116 0,-116 0,0 91.25,0 91.25,-116"/>
<text text-anchor="start" x="4" y="-102.5" font-family="Helvetica,sans-Serif" font-size="10.00">Engine3D::Camera</text>
<text text-anchor="start" x="44.12" y="-86.5" font-family="Helvetica,sans-Serif" font-size="10.00"> </text>
<text text-anchor="start" x="6" y="-70.5" font-family="Helvetica,sans-Serif" font-size="10.00">+</text>
<text text-anchor="start" x="18" y="-70.5" font-family="Helvetica,sans-Serif" font-size="10.00">Camera()</text>
<text text-anchor="start" x="6" y="-54.5" font-family="Helvetica,sans-Serif" font-size="10.00">+</text>
<text text-anchor="start" x="18" y="-54.5" font-family="Helvetica,sans-Serif" font-size="10.00">moveForward()</text>
<text text-anchor="start" x="6" y="-38.5" font-family="Helvetica,sans-Serif" font-size="10.00">+</text>
<text text-anchor="start" x="18" y="-38.5" font-family="Helvetica,sans-Serif" font-size="10.00">moveRight()</text>
<text text-anchor="start" x="6" y="-22.5" font-family="Helvetica,sans-Serif" font-size="10.00">+</text>
<text text-anchor="start" x="18" y="-22.5" font-family="Helvetica,sans-Serif" font-size="10.00">moveLeft()</text>
<text text-anchor="start" x="6" y="-6.5" font-family="Helvetica,sans-Serif" font-size="10.00">+</text>
<text text-anchor="start" x="18" y="-6.5" font-family="Helvetica,sans-Serif" font-size="10.00">moveUp()</text>
<polygon fill="#666666" stroke="#666666" points="0,-98 0,-98 91.25,-98 91.25,-98 0,-98"/>
<polygon fill="#666666" stroke="#666666" points="0,-82 0,-82 91.25,-82 91.25,-82 0,-82"/>
<polygon fill="none" stroke="#666666" points="0,0 0,-116 91.25,-116 91.25,0 0,0"/>
</a>
</g>
</g>
<!-- Node2 -->
<g id="Node000002" class="node">
<title>Node2</title>
<g id="a_Node000002"><a xlink:href="class_engine3_d_1_1_point3d.html" target="_top" xlink:title="Représente un point dans l&#39;espace 3D.">
<polygon fill="white" stroke="none" points="171.5,-366 81.75,-366 81.75,-202 171.5,-202 171.5,-366"/>
<text text-anchor="start" x="85.75" y="-352.5" font-family="Helvetica,sans-Serif" font-size="10.00">Engine3D::Point3d</text>
<text text-anchor="start" x="125.12" y="-336.5" font-family="Helvetica,sans-Serif" font-size="10.00"> </text>
<text text-anchor="start" x="91.69" y="-320.5" font-family="Helvetica,sans-Serif" font-size="10.00">+</text>
<text text-anchor="start" x="107.62" y="-320.5" font-family="Helvetica,sans-Serif" font-size="10.00">Point3d()</text>
<text text-anchor="start" x="91.69" y="-304.5" font-family="Helvetica,sans-Serif" font-size="10.00">+</text>
<text text-anchor="start" x="107.62" y="-304.5" font-family="Helvetica,sans-Serif" font-size="10.00">Point3d()</text>
<text text-anchor="start" x="91.69" y="-288.5" font-family="Helvetica,sans-Serif" font-size="10.00">+</text>
<text text-anchor="start" x="107.62" y="-288.5" font-family="Helvetica,sans-Serif" font-size="10.00">operator&#45;()</text>
<text text-anchor="start" x="91.69" y="-272.5" font-family="Helvetica,sans-Serif" font-size="10.00">+</text>
<text text-anchor="start" x="107.62" y="-272.5" font-family="Helvetica,sans-Serif" font-size="10.00">operator+()</text>
<text text-anchor="start" x="91.69" y="-256.5" font-family="Helvetica,sans-Serif" font-size="10.00">+</text>
<text text-anchor="start" x="107.62" y="-256.5" font-family="Helvetica,sans-Serif" font-size="10.00">operator*()</text>
<text text-anchor="start" x="91.69" y="-240.5" font-family="Helvetica,sans-Serif" font-size="10.00">+</text>
<text text-anchor="start" x="107.62" y="-240.5" font-family="Helvetica,sans-Serif" font-size="10.00">cross()</text>
<text text-anchor="start" x="91.69" y="-224.5" font-family="Helvetica,sans-Serif" font-size="10.00">+</text>
<text text-anchor="start" x="107.62" y="-224.5" font-family="Helvetica,sans-Serif" font-size="10.00">dot()</text>
<text text-anchor="start" x="91.69" y="-208.5" font-family="Helvetica,sans-Serif" font-size="10.00">+</text>
<text text-anchor="start" x="107.62" y="-208.5" font-family="Helvetica,sans-Serif" font-size="10.00">normalize()</text>
<polygon fill="#666666" stroke="#666666" points="81.75,-348 81.75,-348 171.5,-348 171.5,-348 81.75,-348"/>
<polygon fill="#666666" stroke="#666666" points="81.75,-332 81.75,-332 171.5,-332 171.5,-332 81.75,-332"/>
<polygon fill="none" stroke="#666666" points="81.75,-202 81.75,-366 171.5,-366 171.5,-202 81.75,-202"/>
</a>
</g>
</g>
<!-- Node2&#45;&gt;Node1 -->
<g id="edge1_Node000001_Node000002" class="edge">
<title>Node2&#45;&gt;Node1</title>
<g id="a_edge1_Node000001_Node000002"><a xlink:title=" ">
<path fill="none" stroke="#63b8ff" d="M97.38,-202.13C88.58,-177.8 79.02,-151.34 70.53,-127.86"/>
<polygon fill="none" stroke="#63b8ff" points="70.58,-128.02 64.78,-123.74 66.5,-116.73 72.3,-121.02 70.58,-128.02"/>
</a>
</g>
<text text-anchor="start" x="91.55" y="-171.5" font-family="Helvetica,sans-Serif" font-size="10.00" fill="grey">+direction</text>
<text text-anchor="start" x="91.55" y="-155.5" font-family="Helvetica,sans-Serif" font-size="10.00" fill="grey">+position</text>
<text text-anchor="start" x="91.55" y="-139.5" font-family="Helvetica,sans-Serif" font-size="10.00" fill="grey">+up</text>
</g>
<!-- Node3 -->
<g id="Node000003" class="node">
<title>Node3</title>
<g id="a_Node000003"><a xlink:title=" ">
<polygon fill="white" stroke="none" points="38,-504 11.25,-504 11.25,-452 38,-452 38,-504"/>
<text text-anchor="start" x="15.25" y="-490.5" font-family="Helvetica,sans-Serif" font-size="10.00">float</text>
<text text-anchor="start" x="23.12" y="-474.5" font-family="Helvetica,sans-Serif" font-size="10.00"> </text>
<text text-anchor="start" x="23.12" y="-458.5" font-family="Helvetica,sans-Serif" font-size="10.00"> </text>
<polygon fill="#666666" stroke="#666666" points="11.25,-486 11.25,-486 38,-486 38,-486 11.25,-486"/>
<polygon fill="#666666" stroke="#666666" points="11.25,-470 11.25,-470 38,-470 38,-470 11.25,-470"/>
<polygon fill="none" stroke="#666666" points="11.25,-452 11.25,-504 38,-504 38,-452 11.25,-452"/>
</a>
</g>
</g>
<!-- Node3&#45;&gt;Node1 -->
<g id="edge3_Node000001_Node000003" class="edge">
<title>Node3&#45;&gt;Node1</title>
<g id="a_edge3_Node000001_Node000003"><a xlink:title=" ">
<path fill="none" stroke="#63b8ff" d="M22.48,-452.34C20.64,-429.86 18.13,-395.73 17.12,-366 14.67,-293.15 9.97,-274.54 17.12,-202 19.52,-177.77 24.13,-151.56 28.97,-128.28"/>
<polygon fill="none" stroke="#63b8ff" points="28.96,-128.29 26.31,-121.59 31.47,-116.56 34.13,-123.26 28.96,-128.29"/>
</a>
</g>
<text text-anchor="start" x="20.12" y="-288.5" font-family="Helvetica,sans-Serif" font-size="10.00" fill="grey">+fov</text>
<text text-anchor="start" x="20.12" y="-272.5" font-family="Helvetica,sans-Serif" font-size="10.00" fill="grey">+nearPlane</text>
</g>
<!-- Node3&#45;&gt;Node2 -->
<g id="edge2_Node000002_Node000003" class="edge">
<title>Node3&#45;&gt;Node2</title>
<g id="a_edge2_Node000002_Node000003"><a xlink:title=" ">
<path fill="none" stroke="#63b8ff" d="M37.75,-452.29C48.01,-432.98 62.96,-404.84 77.68,-377.13"/>
<polygon fill="none" stroke="#63b8ff" points="77.69,-377.12 76.97,-369.94 83.32,-366.52 84.03,-373.7 77.69,-377.12"/>
</a>
</g>
<text text-anchor="start" x="75.57" y="-421.5" font-family="Helvetica,sans-Serif" font-size="10.00" fill="grey">+x</text>
<text text-anchor="start" x="75.57" y="-405.5" font-family="Helvetica,sans-Serif" font-size="10.00" fill="grey">+y</text>
<text text-anchor="start" x="75.57" y="-389.5" font-family="Helvetica,sans-Serif" font-size="10.00" fill="grey">+z</text>
</g>
</g>
</svg>

<g id="navigator" transform="translate(0 0)" fill="#404254">
  <rect fill="#f2f5e9" fill-opacity="0.5" stroke="#606060" stroke-width=".5" x="0" y="0" width="60" height="60"/>
  <use id="zoomplus" xlink:href="#zoomPlus" x="17" y="9" onmousedown="handleZoom(evt,'in')"/>
  <use id="zoomminus" xlink:href="#zoomMin" x="42" y="9" onmousedown="handleZoom(evt,'out')"/>
  <use id="reset" xlink:href="#resetDef" x="30" y="36" onmousedown="handleReset()"/>
   <use id="arrowup" xlink:href="#arrowUp" x="0" y="0" onmousedown="handlePan(0,-1)"/>
  <use id="arrowright" xlink:href="#arrowRight" x="0" y="0" onmousedown="handlePan(1,0)"/>
  <use id="arrowdown" xlink:href="#arrowDown" x="0" y="0" onmousedown="handlePan(0,1)"/>
  <use id="arrowleft" xlink:href="#arrowLeft" x="0" y="0" onmousedown="handlePan(-1,0)"/>
</g>
<svg viewBox="0 0 15 15" width="100%" height="30px" preserveAspectRatio="xMaxYMin meet">
 <g id="arrow_out" transform="scale(0.3 0.3)">
  <a xlink:href="class_engine3_d_1_1_camera__coll__graph_org.svg" target="_base">
   <rect id="button" ry="5" rx="5" y="6" x="6" height="38" width="38"
        fill="#f2f5e9" fill-opacity="0.5" stroke="#606060" stroke-width="1.0"/>
   <path id="arrow"
     d="M 11.500037,31.436501 C 11.940474,20.09759 22.043105,11.32322 32.158766,21.979434 L 37.068811,17.246167 C 37.068811,17.246167 37.088388,32 37.088388,32 L 22.160133,31.978069 C 22.160133,31.978069 26.997745,27.140456 26.997745,27.140456 C 18.528582,18.264221 13.291696,25.230495 11.500037,31.436501 z"
     style="fill:#404040;"/>
  </a>
 </g>
</svg>

<style type='text/css'>
<![CDATA[
[data-mouse-over-selected='false'] { opacity: 0.7; }
[data-mouse-over-selected='true']  { opacity: 1.0; }
]]>
</style>
<script type="application/ecmascript"><![CDATA[
document.addEventListener('DOMContentLoaded', (event) => {
  highlightEdges();
  highlightAdjacentNodes();
});
]]></script>
</svg>
