<?xml version="1.0" encoding="UTF-8" standalone="no"?>
<!DOCTYPE svg PUBLIC "-//W3C//DTD SVG 1.1//EN"
 "http://www.w3.org/Graphics/SVG/1.1/DTD/svg11.dtd">
<!-- Generated by graphviz version 12.2.1 (0)
 -->
<!-- Title: Engine3D::Quad3d Pages: 1 -->
<!--zoomable 650 -->

<svg id="main" version="1.1" xmlns="http://www.w3.org/2000/svg" xmlns:xlink="http://www.w3.org/1999/xlink" xml:space="preserve" onload="init(evt)">

<style type="text/css"><![CDATA[
.node, .edge {opacity: 0.7;}
.node.selected, .edge.selected {opacity: 1;}
.edge:hover path { stroke: red; }
.edge:hover polygon { stroke: red; fill: red; }
]]></style>

<defs>
  <circle id="rim" cx="0" cy="0" r="7"/>
  <circle id="rim2" cx="0" cy="0" r="3.5"/>
  <g id="zoomPlus">
    <use xlink:href="#rim" fill="#404040"><set attributeName="fill" to="#808080" begin="zoomplus.mouseover" end="zoomplus.mouseout"/></use>
    <path d="M-4,0h8M0,-4v8" fill="none" stroke="white" stroke-width="1.5" pointer-events="none"/>
  </g>
  <g id="zoomMin">
    <use xlink:href="#rim" fill="#404040"><set attributeName="fill" to="#808080" begin="zoomminus.mouseover" end="zoomminus.mouseout"/></use>
    <path d="M-4,0h8" fill="none" stroke="white" stroke-width="1.5" pointer-events="none"/>
  </g>
  <g id="arrowUp" transform="translate(30 24)">
    <use xlink:href="#rim"/>
    <path pointer-events="none" fill="none" stroke="white" stroke-width="1.5" d="M0,-3.0v7 M-2.5,-0.5L0,-3.0L2.5,-0.5"/>
  </g>
  <g id="arrowRight" transform="rotate(90) translate(36 -43)">
    <use xlink:href="#rim"/>
    <path pointer-events="none" fill="none" stroke="white" stroke-width="1.5" d="M0,-3.0v7 M-2.5,-0.5L0,-3.0L2.5,-0.5"/>
  </g>
  <g id="arrowDown" transform="rotate(180) translate(-30 -48)">
    <use xlink:href="#rim"/>
    <path pointer-events="none" fill="none" stroke="white" stroke-width="1.5" d="M0,-3.0v7 M-2.5,-0.5L0,-3.0L2.5,-0.5"/>
  </g>
  <g id="arrowLeft" transform="rotate(270) translate(-36 17)">
    <use xlink:href="#rim"/>
    <path pointer-events="none" fill="none" stroke="white" stroke-width="1.5" d="M0,-3.0v7 M-2.5,-0.5L0,-3.0L2.5,-0.5"/>
  </g>
  <g id="resetDef">
    <use xlink:href="#rim2" fill="#404040"><set attributeName="fill" to="#808080" begin="reset.mouseover" end="reset.mouseout"/></use>
  </g>
</defs>
<script type="application/ecmascript">
var viewWidth = 110;
var viewHeight = 650;
var sectionId = 'dynsection-0';
</script>
<script type="application/ecmascript" xlink:href="svg.min.js"/>
<svg id="graph" class="graph">
<g id="viewport">
<title>Engine3D::Quad3d</title>
<!-- Node1 -->
<g id="Node000001" class="node">
<title>Node1</title>
<g id="a_Node000001"><a xlink:title="Quadrilatère composé de deux triangles.">
<polygon fill="#999999" stroke="none" points="96.12,-84 5.62,-84 5.62,0 96.12,0 96.12,-84"/>
<text text-anchor="start" x="9.62" y="-70.5" font-family="Helvetica,sans-Serif" font-size="10.00">Engine3D::Quad3d</text>
<text text-anchor="start" x="49.38" y="-54.5" font-family="Helvetica,sans-Serif" font-size="10.00"> </text>
<text text-anchor="start" x="12.94" y="-38.5" font-family="Helvetica,sans-Serif" font-size="10.00">+</text>
<text text-anchor="start" x="26.25" y="-38.5" font-family="Helvetica,sans-Serif" font-size="10.00">Quad3d()</text>
<text text-anchor="start" x="12.94" y="-22.5" font-family="Helvetica,sans-Serif" font-size="10.00">+</text>
<text text-anchor="start" x="26.25" y="-22.5" font-family="Helvetica,sans-Serif" font-size="10.00">Quad3d()</text>
<text text-anchor="start" x="12.94" y="-6.5" font-family="Helvetica,sans-Serif" font-size="10.00">+</text>
<text text-anchor="start" x="26.25" y="-6.5" font-family="Helvetica,sans-Serif" font-size="10.00">getTriangles()</text>
<polygon fill="#666666" stroke="#666666" points="5.62,-66 5.62,-66 96.12,-66 96.12,-66 5.62,-66"/>
<polygon fill="#666666" stroke="#666666" points="5.62,-50 5.62,-50 96.12,-50 96.12,-50 5.62,-50"/>
<polygon fill="none" stroke="#666666" points="5.62,0 5.62,-84 96.12,-84 96.12,0 5.62,0"/>
</a>
</g>
</g>
<!-- Node2 -->
<g id="Node000002" class="node">
<title>Node2</title>
<g id="a_Node000002"><a xlink:href="class_engine3_d_1_1_triangle3d.html" target="_top" xlink:title="Triangle dans l&#39;espace 3D.">
<polygon fill="white" stroke="none" points="101.75,-254 0,-254 0,-154 101.75,-154 101.75,-254"/>
<text text-anchor="start" x="4" y="-240.5" font-family="Helvetica,sans-Serif" font-size="10.00">Engine3D::Triangle3d</text>
<text text-anchor="start" x="49.38" y="-224.5" font-family="Helvetica,sans-Serif" font-size="10.00"> </text>
<text text-anchor="start" x="12.19" y="-208.5" font-family="Helvetica,sans-Serif" font-size="10.00">+</text>
<text text-anchor="start" x="30.38" y="-208.5" font-family="Helvetica,sans-Serif" font-size="10.00">Triangle3d()</text>
<text text-anchor="start" x="12.19" y="-192.5" font-family="Helvetica,sans-Serif" font-size="10.00">+</text>
<text text-anchor="start" x="30.38" y="-192.5" font-family="Helvetica,sans-Serif" font-size="10.00">Triangle3d()</text>
<text text-anchor="start" x="12.19" y="-176.5" font-family="Helvetica,sans-Serif" font-size="10.00">+</text>
<text text-anchor="start" x="30.38" y="-176.5" font-family="Helvetica,sans-Serif" font-size="10.00">normal()</text>
<text text-anchor="start" x="12.19" y="-160.5" font-family="Helvetica,sans-Serif" font-size="10.00">+</text>
<text text-anchor="start" x="30.38" y="-160.5" font-family="Helvetica,sans-Serif" font-size="10.00">center()</text>
<polygon fill="#666666" stroke="#666666" points="0,-236 0,-236 101.75,-236 101.75,-236 0,-236"/>
<polygon fill="#666666" stroke="#666666" points="0,-220 0,-220 101.75,-220 101.75,-220 0,-220"/>
<polygon fill="none" stroke="#666666" points="0,-154 0,-254 101.75,-254 101.75,-154 0,-154"/>
</a>
</g>
</g>
<!-- Node2&#45;&gt;Node1 -->
<g id="edge1_Node000001_Node000002" class="edge">
<title>Node2&#45;&gt;Node1</title>
<g id="a_edge1_Node000001_Node000002"><a xlink:title=" ">
<path fill="none" stroke="#63b8ff" d="M50.88,-154.13C50.88,-135.92 50.88,-115.17 50.88,-96.56"/>
<polygon fill="none" stroke="#63b8ff" points="50.88,-96.67 46.88,-90.67 50.88,-84.67 54.88,-90.67 50.88,-96.67"/>
</a>
</g>
<text text-anchor="start" x="53.88" y="-123.5" font-family="Helvetica,sans-Serif" font-size="10.00" fill="grey">+t1</text>
<text text-anchor="start" x="53.88" y="-107.5" font-family="Helvetica,sans-Serif" font-size="10.00" fill="grey">+t2</text>
</g>
<!-- Node3 -->
<g id="Node000003" class="node">
<title>Node3</title>
<g id="a_Node000003"><a xlink:href="class_engine3_d_1_1_point3d.html" target="_top" xlink:title="Représente un point dans l&#39;espace 3D.">
<polygon fill="white" stroke="none" points="95.75,-504 6,-504 6,-340 95.75,-340 95.75,-504"/>
<text text-anchor="start" x="10" y="-490.5" font-family="Helvetica,sans-Serif" font-size="10.00">Engine3D::Point3d</text>
<text text-anchor="start" x="49.38" y="-474.5" font-family="Helvetica,sans-Serif" font-size="10.00"> </text>
<text text-anchor="start" x="15.94" y="-458.5" font-family="Helvetica,sans-Serif" font-size="10.00">+</text>
<text text-anchor="start" x="31.88" y="-458.5" font-family="Helvetica,sans-Serif" font-size="10.00">Point3d()</text>
<text text-anchor="start" x="15.94" y="-442.5" font-family="Helvetica,sans-Serif" font-size="10.00">+</text>
<text text-anchor="start" x="31.88" y="-442.5" font-family="Helvetica,sans-Serif" font-size="10.00">Point3d()</text>
<text text-anchor="start" x="15.94" y="-426.5" font-family="Helvetica,sans-Serif" font-size="10.00">+</text>
<text text-anchor="start" x="31.88" y="-426.5" font-family="Helvetica,sans-Serif" font-size="10.00">operator&#45;()</text>
<text text-anchor="start" x="15.94" y="-410.5" font-family="Helvetica,sans-Serif" font-size="10.00">+</text>
<text text-anchor="start" x="31.88" y="-410.5" font-family="Helvetica,sans-Serif" font-size="10.00">operator+()</text>
<text text-anchor="start" x="15.94" y="-394.5" font-family="Helvetica,sans-Serif" font-size="10.00">+</text>
<text text-anchor="start" x="31.88" y="-394.5" font-family="Helvetica,sans-Serif" font-size="10.00">operator*()</text>
<text text-anchor="start" x="15.94" y="-378.5" font-family="Helvetica,sans-Serif" font-size="10.00">+</text>
<text text-anchor="start" x="31.88" y="-378.5" font-family="Helvetica,sans-Serif" font-size="10.00">cross()</text>
<text text-anchor="start" x="15.94" y="-362.5" font-family="Helvetica,sans-Serif" font-size="10.00">+</text>
<text text-anchor="start" x="31.88" y="-362.5" font-family="Helvetica,sans-Serif" font-size="10.00">dot()</text>
<text text-anchor="start" x="15.94" y="-346.5" font-family="Helvetica,sans-Serif" font-size="10.00">+</text>
<text text-anchor="start" x="31.88" y="-346.5" font-family="Helvetica,sans-Serif" font-size="10.00">normalize()</text>
<polygon fill="#666666" stroke="#666666" points="6,-486 6,-486 95.75,-486 95.75,-486 6,-486"/>
<polygon fill="#666666" stroke="#666666" points="6,-470 6,-470 95.75,-470 95.75,-470 6,-470"/>
<polygon fill="none" stroke="#666666" points="6,-340 6,-504 95.75,-504 95.75,-340 6,-340"/>
</a>
</g>
</g>
<!-- Node3&#45;&gt;Node2 -->
<g id="edge2_Node000002_Node000003" class="edge">
<title>Node3&#45;&gt;Node2</title>
<g id="a_edge2_Node000002_Node000003"><a xlink:title=" ">
<path fill="none" stroke="#63b8ff" d="M50.88,-340.26C50.88,-316.02 50.88,-289.82 50.88,-266.99"/>
<polygon fill="none" stroke="#63b8ff" points="50.88,-266.88 46.88,-260.88 50.88,-254.88 54.88,-260.88 50.88,-266.88"/>
</a>
</g>
<text text-anchor="start" x="53.88" y="-309.5" font-family="Helvetica,sans-Serif" font-size="10.00" fill="grey">+p1</text>
<text text-anchor="start" x="53.88" y="-293.5" font-family="Helvetica,sans-Serif" font-size="10.00" fill="grey">+p2</text>
<text text-anchor="start" x="53.88" y="-277.5" font-family="Helvetica,sans-Serif" font-size="10.00" fill="grey">+p3</text>
</g>
<!-- Node4 -->
<g id="Node000004" class="node">
<title>Node4</title>
<g id="a_Node000004"><a xlink:title=" ">
<polygon fill="white" stroke="none" points="64.25,-642 37.5,-642 37.5,-590 64.25,-590 64.25,-642"/>
<text text-anchor="start" x="41.5" y="-628.5" font-family="Helvetica,sans-Serif" font-size="10.00">float</text>
<text text-anchor="start" x="49.38" y="-612.5" font-family="Helvetica,sans-Serif" font-size="10.00"> </text>
<text text-anchor="start" x="49.38" y="-596.5" font-family="Helvetica,sans-Serif" font-size="10.00"> </text>
<polygon fill="#666666" stroke="#666666" points="37.5,-624 37.5,-624 64.25,-624 64.25,-624 37.5,-624"/>
<polygon fill="#666666" stroke="#666666" points="37.5,-608 37.5,-608 64.25,-608 64.25,-608 37.5,-608"/>
<polygon fill="none" stroke="#666666" points="37.5,-590 37.5,-642 64.25,-642 64.25,-590 37.5,-590"/>
</a>
</g>
</g>
<!-- Node4&#45;&gt;Node3 -->
<g id="edge3_Node000003_Node000004" class="edge">
<title>Node4&#45;&gt;Node3</title>
<g id="a_edge3_Node000003_Node000004"><a xlink:title=" ">
<path fill="none" stroke="#63b8ff" d="M50.88,-590.29C50.88,-571.32 50.88,-543.83 50.88,-516.61"/>
<polygon fill="none" stroke="#63b8ff" points="50.88,-516.63 46.88,-510.63 50.88,-504.63 54.88,-510.63 50.88,-516.63"/>
</a>
</g>
<text text-anchor="start" x="53.88" y="-559.5" font-family="Helvetica,sans-Serif" font-size="10.00" fill="grey">+x</text>
<text text-anchor="start" x="53.88" y="-543.5" font-family="Helvetica,sans-Serif" font-size="10.00" fill="grey">+y</text>
<text text-anchor="start" x="53.88" y="-527.5" font-family="Helvetica,sans-Serif" font-size="10.00" fill="grey">+z</text>
</g>
</g>
</svg>

<g id="navigator" transform="translate(0 0)" fill="#404254">
  <rect fill="#f2f5e9" fill-opacity="0.5" stroke="#606060" stroke-width=".5" x="0" y="0" width="60" height="60"/>
  <use id="zoomplus" xlink:href="#zoomPlus" x="17" y="9" onmousedown="handleZoom(evt,'in')"/>
  <use id="zoomminus" xlink:href="#zoomMin" x="42" y="9" onmousedown="handleZoom(evt,'out')"/>
  <use id="reset" xlink:href="#resetDef" x="30" y="36" onmousedown="handleReset()"/>
   <use id="arrowup" xlink:href="#arrowUp" x="0" y="0" onmousedown="handlePan(0,-1)"/>
  <use id="arrowright" xlink:href="#arrowRight" x="0" y="0" onmousedown="handlePan(1,0)"/>
  <use id="arrowdown" xlink:href="#arrowDown" x="0" y="0" onmousedown="handlePan(0,1)"/>
  <use id="arrowleft" xlink:href="#arrowLeft" x="0" y="0" onmousedown="handlePan(-1,0)"/>
</g>
<svg viewBox="0 0 15 15" width="100%" height="30px" preserveAspectRatio="xMaxYMin meet">
 <g id="arrow_out" transform="scale(0.3 0.3)">
  <a xlink:href="class_engine3_d_1_1_quad3d__coll__graph_org.svg" target="_base">
   <rect id="button" ry="5" rx="5" y="6" x="6" height="38" width="38"
        fill="#f2f5e9" fill-opacity="0.5" stroke="#606060" stroke-width="1.0"/>
   <path id="arrow"
     d="M 11.500037,31.436501 C 11.940474,20.09759 22.043105,11.32322 32.158766,21.979434 L 37.068811,17.246167 C 37.068811,17.246167 37.088388,32 37.088388,32 L 22.160133,31.978069 C 22.160133,31.978069 26.997745,27.140456 26.997745,27.140456 C 18.528582,18.264221 13.291696,25.230495 11.500037,31.436501 z"
     style="fill:#404040;"/>
  </a>
 </g>
</svg>

<style type='text/css'>
<![CDATA[
[data-mouse-over-selected='false'] { opacity: 0.7; }
[data-mouse-over-selected='true']  { opacity: 1.0; }
]]>
</style>
<script type="application/ecmascript"><![CDATA[
document.addEventListener('DOMContentLoaded', (event) => {
  highlightEdges();
  highlightAdjacentNodes();
});
]]></script>
</svg>
