<?xml version="1.0" encoding="UTF-8" standalone="no"?>
<!DOCTYPE svg PUBLIC "-//W3C//DTD SVG 1.1//EN"
 "http://www.w3.org/Graphics/SVG/1.1/DTD/svg11.dtd">
<!-- Generated by graphviz version 12.2.1 (0)
 -->
<!-- Title: Engine3D::Sphere3d::spherePoint Pages: 1 -->
<svg width="522pt" height="40pt"
 viewBox="0.00 0.00 521.50 40.00" xmlns="http://www.w3.org/2000/svg" xmlns:xlink="http://www.w3.org/1999/xlink">
<g id="graph0" class="graph" transform="scale(1 1) rotate(0) translate(4 36)">
<title>Engine3D::Sphere3d::spherePoint</title>
<!-- Node1 -->
<g id="Node000001" class="node">
<title>Node1</title>
<g id="a_Node000001"><a xlink:title="Calcule un point sur la sphère.">
<polygon fill="#999999" stroke="#666666" points="513.5,-32 407.5,-32 407.5,0 513.5,0 513.5,-32"/>
<text text-anchor="start" x="415.5" y="-18.5" font-family="Helvetica,sans-Serif" font-size="10.00">Engine3D::Sphere3d</text>
<text text-anchor="middle" x="460.5" y="-6.5" font-family="Helvetica,sans-Serif" font-size="10.00">::spherePoint</text>
</a>
</g>
</g>
<!-- Node2 -->
<g id="Node000002" class="node">
<title>Node2</title>
<g id="a_Node000002"><a xlink:href="class_engine3_d_1_1_sphere3d.html#a2021bf0962839e427e464bb61e8702e0" target="_top" xlink:title="Retourne tous les triangles de la sphère.">
<polygon fill="white" stroke="#666666" points="371.5,-32 265.5,-32 265.5,0 371.5,0 371.5,-32"/>
<text text-anchor="start" x="273.5" y="-18.5" font-family="Helvetica,sans-Serif" font-size="10.00">Engine3D::Sphere3d</text>
<text text-anchor="middle" x="318.5" y="-6.5" font-family="Helvetica,sans-Serif" font-size="10.00">::getTriangles</text>
</a>
</g>
</g>
<!-- Node1&#45;&gt;Node2 -->
<g id="edge1_Node000001_Node000002" class="edge">
<title>Node1&#45;&gt;Node2</title>
<g id="a_edge1_Node000001_Node000002"><a xlink:title=" ">
<path fill="none" stroke="#63b8ff" d="M395.99,-16C387.86,-16 379.6,-16 371.67,-16"/>
<polygon fill="#63b8ff" stroke="#63b8ff" points="395.86,-19.5 405.86,-16 395.86,-12.5 395.86,-19.5"/>
</a>
</g>
</g>
<!-- Node3 -->
<g id="Node000003" class="node">
<title>Node3</title>
<g id="a_Node000003"><a xlink:href="main_8cpp.html#a413ed82437706932602a46bf716063ca" target="_top" xlink:title="Crée et ajoute la sphère à la scène.">
<polygon fill="white" stroke="#666666" points="229.5,-26 167,-26 167,-6 229.5,-6 229.5,-26"/>
<text text-anchor="middle" x="198.25" y="-12.5" font-family="Helvetica,sans-Serif" font-size="10.00">addSphere</text>
</a>
</g>
</g>
<!-- Node2&#45;&gt;Node3 -->
<g id="edge2_Node000002_Node000003" class="edge">
<title>Node2&#45;&gt;Node3</title>
<g id="a_edge2_Node000002_Node000003"><a xlink:title=" ">
<path fill="none" stroke="#63b8ff" d="M253.87,-16C245.5,-16 237.26,-16 229.81,-16"/>
<polygon fill="#63b8ff" stroke="#63b8ff" points="253.78,-19.5 263.78,-16 253.78,-12.5 253.78,-19.5"/>
</a>
</g>
</g>
<!-- Node4 -->
<g id="Node000004" class="node">
<title>Node4</title>
<g id="a_Node000004"><a xlink:href="main_8cpp.html#a43c63981d2c39c1e3e08614ee3f83b4f" target="_top" xlink:title="Boucle principale du programme.">
<polygon fill="white" stroke="#666666" points="131,-26 73,-26 73,-6 131,-6 131,-26"/>
<text text-anchor="middle" x="102" y="-12.5" font-family="Helvetica,sans-Serif" font-size="10.00">mainLoop</text>
</a>
</g>
</g>
<!-- Node3&#45;&gt;Node4 -->
<g id="edge3_Node000003_Node000004" class="edge">
<title>Node3&#45;&gt;Node4</title>
<g id="a_edge3_Node000003_Node000004"><a xlink:title=" ">
<path fill="none" stroke="#63b8ff" d="M155.35,-16C147.18,-16 138.81,-16 131.21,-16"/>
<polygon fill="#63b8ff" stroke="#63b8ff" points="155.14,-19.5 165.14,-16 155.14,-12.5 155.14,-19.5"/>
</a>
</g>
</g>
<!-- Node5 -->
<g id="Node000005" class="node">
<title>Node5</title>
<g id="a_Node000005"><a xlink:href="main_8cpp.html#a0ddf1224851353fc92bfbff6f499fa97" target="_top" xlink:title="main">
<polygon fill="white" stroke="#666666" points="37,-26 0,-26 0,-6 37,-6 37,-26"/>
<text text-anchor="middle" x="18.5" y="-12.5" font-family="Helvetica,sans-Serif" font-size="10.00">main</text>
</a>
</g>
</g>
<!-- Node4&#45;&gt;Node5 -->
<g id="edge4_Node000004_Node000005" class="edge">
<title>Node4&#45;&gt;Node5</title>
<g id="a_edge4_Node000004_Node000005"><a xlink:title=" ">
<path fill="none" stroke="#63b8ff" d="M61.58,-16C53.1,-16 44.55,-16 37.39,-16"/>
<polygon fill="#63b8ff" stroke="#63b8ff" points="61.44,-19.5 71.44,-16 61.44,-12.5 61.44,-19.5"/>
</a>
</g>
</g>
</g>
</svg>
