<?xml version="1.0" encoding="UTF-8" standalone="no"?>
<!DOCTYPE svg PUBLIC "-//W3C//DTD SVG 1.1//EN"
 "http://www.w3.org/Graphics/SVG/1.1/DTD/svg11.dtd">
<!-- Generated by graphviz version 12.2.1 (0)
 -->
<!-- Title: Engine3D::Triangle3d::normal Pages: 1 -->
<svg width="397pt" height="90pt"
 viewBox="0.00 0.00 397.25 90.00" xmlns="http://www.w3.org/2000/svg" xmlns:xlink="http://www.w3.org/1999/xlink">
<g id="graph0" class="graph" transform="scale(1 1) rotate(0) translate(4 86)">
<title>Engine3D::Triangle3d::normal</title>
<!-- Node1 -->
<g id="Node000001" class="node">
<title>Node1</title>
<g id="a_Node000001"><a xlink:title="Calcule la normale du triangle.">
<polygon fill="#999999" stroke="#666666" points="109.75,-57 0,-57 0,-25 109.75,-25 109.75,-57"/>
<text text-anchor="start" x="8" y="-43.5" font-family="Helvetica,sans-Serif" font-size="10.00">Engine3D::Triangle3d</text>
<text text-anchor="middle" x="54.88" y="-31.5" font-family="Helvetica,sans-Serif" font-size="10.00">::normal</text>
</a>
</g>
</g>
<!-- Node2 -->
<g id="Node000002" class="node">
<title>Node2</title>
<g id="a_Node000002"><a xlink:href="class_engine3_d_1_1_point3d.html#a5bda2a757a3d5c95fa931087c7b21ae6" target="_top" xlink:title="Produit vectoriel.">
<polygon fill="white" stroke="#666666" points="249.5,-82 145.75,-82 145.75,-50 249.5,-50 249.5,-82"/>
<text text-anchor="start" x="153.75" y="-68.5" font-family="Helvetica,sans-Serif" font-size="10.00">Engine3D::Point3d::</text>
<text text-anchor="middle" x="197.62" y="-56.5" font-family="Helvetica,sans-Serif" font-size="10.00">cross</text>
</a>
</g>
</g>
<!-- Node1&#45;&gt;Node2 -->
<g id="edge1_Node000001_Node000002" class="edge">
<title>Node1&#45;&gt;Node2</title>
<g id="a_edge1_Node000001_Node000002"><a xlink:title=" ">
<path fill="none" stroke="#63b8ff" d="M109.89,-50.59C117.79,-52 125.99,-53.45 134.05,-54.88"/>
<polygon fill="#63b8ff" stroke="#63b8ff" points="133.35,-58.32 143.81,-56.62 134.58,-51.42 133.35,-58.32"/>
</a>
</g>
</g>
<!-- Node4 -->
<g id="Node000004" class="node">
<title>Node4</title>
<g id="a_Node000004"><a xlink:href="class_engine3_d_1_1_point3d.html#a47b11f8208e5c25f2d5f04c49cd10bd4" target="_top" xlink:title="Normalise le vecteur.">
<polygon fill="white" stroke="#666666" points="249.5,-32 145.75,-32 145.75,0 249.5,0 249.5,-32"/>
<text text-anchor="start" x="153.75" y="-18.5" font-family="Helvetica,sans-Serif" font-size="10.00">Engine3D::Point3d::</text>
<text text-anchor="middle" x="197.62" y="-6.5" font-family="Helvetica,sans-Serif" font-size="10.00">normalize</text>
</a>
</g>
</g>
<!-- Node1&#45;&gt;Node4 -->
<g id="edge3_Node000001_Node000004" class="edge">
<title>Node1&#45;&gt;Node4</title>
<g id="a_edge3_Node000001_Node000004"><a xlink:title=" ">
<path fill="none" stroke="#63b8ff" d="M109.89,-31.41C117.79,-30 125.99,-28.55 134.05,-27.12"/>
<polygon fill="#63b8ff" stroke="#63b8ff" points="134.58,-30.58 143.81,-25.38 133.35,-23.68 134.58,-30.58"/>
</a>
</g>
</g>
<!-- Node3 -->
<g id="Node000003" class="node">
<title>Node3</title>
<g id="a_Node000003"><a xlink:href="class_engine3_d_1_1_point3d.html#a0fe8b9187cff415e2e11cc0043bbedb6" target="_top" xlink:title="Constructeur par défaut.">
<polygon fill="white" stroke="#666666" points="389.25,-57 285.5,-57 285.5,-25 389.25,-25 389.25,-57"/>
<text text-anchor="start" x="293.5" y="-43.5" font-family="Helvetica,sans-Serif" font-size="10.00">Engine3D::Point3d::</text>
<text text-anchor="middle" x="337.38" y="-31.5" font-family="Helvetica,sans-Serif" font-size="10.00">Point3d</text>
</a>
</g>
</g>
<!-- Node2&#45;&gt;Node3 -->
<g id="edge2_Node000002_Node000003" class="edge">
<title>Node2&#45;&gt;Node3</title>
<g id="a_edge2_Node000002_Node000003"><a xlink:title=" ">
<path fill="none" stroke="#63b8ff" d="M249.92,-56.69C257.72,-55.28 265.84,-53.8 273.84,-52.35"/>
<polygon fill="#63b8ff" stroke="#63b8ff" points="274.34,-55.82 283.55,-50.59 273.09,-48.93 274.34,-55.82"/>
</a>
</g>
</g>
<!-- Node4&#45;&gt;Node3 -->
<g id="edge4_Node000004_Node000003" class="edge">
<title>Node4&#45;&gt;Node3</title>
<g id="a_edge4_Node000004_Node000003"><a xlink:title=" ">
<path fill="none" stroke="#63b8ff" d="M249.92,-25.31C257.72,-26.72 265.84,-28.2 273.84,-29.65"/>
<polygon fill="#63b8ff" stroke="#63b8ff" points="273.09,-33.07 283.55,-31.41 274.34,-26.18 273.09,-33.07"/>
</a>
</g>
</g>
</g>
</svg>
