<?xml version="1.0" encoding="UTF-8" standalone="no"?>
<!DOCTYPE svg PUBLIC "-//W3C//DTD SVG 1.1//EN"
 "http://www.w3.org/Graphics/SVG/1.1/DTD/svg11.dtd">
<!-- Generated by graphviz version 12.2.1 (0)
 -->
<!-- Title: Engine3D::Sphere3d Pages: 1 -->
<svg width="217pt" height="464pt"
 viewBox="0.00 0.00 216.95 464.00" xmlns="http://www.w3.org/2000/svg" xmlns:xlink="http://www.w3.org/1999/xlink">
<g id="graph0" class="graph" transform="scale(1 1) rotate(0) translate(4 460)">
<title>Engine3D::Sphere3d</title>
<!-- Node1 -->
<g id="Node000001" class="node">
<title>Node1</title>
<g id="a_Node000001"><a xlink:title="Sphère composée d&#39;un maillage de Quad3d.">
<polygon fill="#999999" stroke="none" points="155.02,-84 57.02,-84 57.02,0 155.02,0 155.02,-84"/>
<text text-anchor="start" x="61.02" y="-70.5" font-family="Helvetica,sans-Serif" font-size="10.00">Engine3D::Sphere3d</text>
<text text-anchor="start" x="104.52" y="-54.5" font-family="Helvetica,sans-Serif" font-size="10.00"> </text>
<text text-anchor="start" x="66.21" y="-38.5" font-family="Helvetica,sans-Serif" font-size="10.00">+</text>
<text text-anchor="start" x="81.4" y="-38.5" font-family="Helvetica,sans-Serif" font-size="10.00">Sphere3d()</text>
<text text-anchor="start" x="66.21" y="-22.5" font-family="Helvetica,sans-Serif" font-size="10.00">+</text>
<text text-anchor="start" x="81.4" y="-22.5" font-family="Helvetica,sans-Serif" font-size="10.00">getTriangles()</text>
<text text-anchor="start" x="67.71" y="-6.5" font-family="Helvetica,sans-Serif" font-size="10.00">&#45;</text>
<text text-anchor="start" x="81.4" y="-6.5" font-family="Helvetica,sans-Serif" font-size="10.00">spherePoint()</text>
<polygon fill="#666666" stroke="#666666" points="57.02,-66 57.02,-66 155.02,-66 155.02,-66 57.02,-66"/>
<polygon fill="#666666" stroke="#666666" points="57.02,-50 57.02,-50 155.02,-50 155.02,-50 57.02,-50"/>
<polygon fill="none" stroke="#666666" points="57.02,0 57.02,-84 155.02,-84 155.02,0 57.02,0"/>
</a>
</g>
</g>
<!-- Node2 -->
<g id="Node000002" class="node">
<title>Node2</title>
<g id="a_Node000002"><a xlink:href="class_engine3_d_1_1_point3d.html" target="_top" xlink:title="Représente un point dans l&#39;espace 3D.">
<polygon fill="white" stroke="none" points="150.9,-318 61.15,-318 61.15,-154 150.9,-154 150.9,-318"/>
<text text-anchor="start" x="65.15" y="-304.5" font-family="Helvetica,sans-Serif" font-size="10.00">Engine3D::Point3d</text>
<text text-anchor="start" x="104.52" y="-288.5" font-family="Helvetica,sans-Serif" font-size="10.00"> </text>
<text text-anchor="start" x="71.08" y="-272.5" font-family="Helvetica,sans-Serif" font-size="10.00">+</text>
<text text-anchor="start" x="87.02" y="-272.5" font-family="Helvetica,sans-Serif" font-size="10.00">Point3d()</text>
<text text-anchor="start" x="71.08" y="-256.5" font-family="Helvetica,sans-Serif" font-size="10.00">+</text>
<text text-anchor="start" x="87.02" y="-256.5" font-family="Helvetica,sans-Serif" font-size="10.00">Point3d()</text>
<text text-anchor="start" x="71.08" y="-240.5" font-family="Helvetica,sans-Serif" font-size="10.00">+</text>
<text text-anchor="start" x="87.02" y="-240.5" font-family="Helvetica,sans-Serif" font-size="10.00">operator&#45;()</text>
<text text-anchor="start" x="71.08" y="-224.5" font-family="Helvetica,sans-Serif" font-size="10.00">+</text>
<text text-anchor="start" x="87.02" y="-224.5" font-family="Helvetica,sans-Serif" font-size="10.00">operator+()</text>
<text text-anchor="start" x="71.08" y="-208.5" font-family="Helvetica,sans-Serif" font-size="10.00">+</text>
<text text-anchor="start" x="87.02" y="-208.5" font-family="Helvetica,sans-Serif" font-size="10.00">operator*()</text>
<text text-anchor="start" x="71.08" y="-192.5" font-family="Helvetica,sans-Serif" font-size="10.00">+</text>
<text text-anchor="start" x="87.02" y="-192.5" font-family="Helvetica,sans-Serif" font-size="10.00">cross()</text>
<text text-anchor="start" x="71.08" y="-176.5" font-family="Helvetica,sans-Serif" font-size="10.00">+</text>
<text text-anchor="start" x="87.02" y="-176.5" font-family="Helvetica,sans-Serif" font-size="10.00">dot()</text>
<text text-anchor="start" x="71.08" y="-160.5" font-family="Helvetica,sans-Serif" font-size="10.00">+</text>
<text text-anchor="start" x="87.02" y="-160.5" font-family="Helvetica,sans-Serif" font-size="10.00">normalize()</text>
<polygon fill="#666666" stroke="#666666" points="61.15,-300 61.15,-300 150.9,-300 150.9,-300 61.15,-300"/>
<polygon fill="#666666" stroke="#666666" points="61.15,-284 61.15,-284 150.9,-284 150.9,-284 61.15,-284"/>
<polygon fill="none" stroke="#666666" points="61.15,-154 61.15,-318 150.9,-318 150.9,-154 61.15,-154"/>
</a>
</g>
</g>
<!-- Node2&#45;&gt;Node1 -->
<g id="edge1_Node000001_Node000002" class="edge">
<title>Node2&#45;&gt;Node1</title>
<g id="a_edge1_Node000001_Node000002"><a xlink:title=" ">
<path fill="none" stroke="#63b8ff" d="M106.02,-154.13C106.02,-134.86 106.02,-114.75 106.02,-97.02"/>
<polygon fill="none" stroke="#63b8ff" points="106.02,-96.88 102.02,-90.88 106.02,-84.88 110.02,-90.88 106.02,-96.88"/>
</a>
</g>
<text text-anchor="start" x="109.02" y="-115.5" font-family="Helvetica,sans-Serif" font-size="10.00" fill="grey">&#45;center</text>
</g>
<!-- Node3 -->
<g id="Node000003" class="node">
<title>Node3</title>
<g id="a_Node000003"><a xlink:title=" ">
<polygon fill="white" stroke="none" points="37.4,-456 10.65,-456 10.65,-404 37.4,-404 37.4,-456"/>
<text text-anchor="start" x="14.65" y="-442.5" font-family="Helvetica,sans-Serif" font-size="10.00">float</text>
<text text-anchor="start" x="22.52" y="-426.5" font-family="Helvetica,sans-Serif" font-size="10.00"> </text>
<text text-anchor="start" x="22.52" y="-410.5" font-family="Helvetica,sans-Serif" font-size="10.00"> </text>
<polygon fill="#666666" stroke="#666666" points="10.65,-438 10.65,-438 37.4,-438 37.4,-438 10.65,-438"/>
<polygon fill="#666666" stroke="#666666" points="10.65,-422 10.65,-422 37.4,-422 37.4,-422 10.65,-422"/>
<polygon fill="none" stroke="#666666" points="10.65,-404 10.65,-456 37.4,-456 37.4,-404 10.65,-404"/>
</a>
</g>
</g>
<!-- Node3&#45;&gt;Node1 -->
<g id="edge3_Node000001_Node000003" class="edge">
<title>Node3&#45;&gt;Node1</title>
<g id="a_edge3_Node000001_Node000003"><a xlink:title=" ">
<path fill="none" stroke="#63b8ff" d="M17.62,-404.18C6.13,-354.84 -14.08,-241.62 16.77,-154 24.57,-131.86 38.85,-110.88 53.74,-93.24"/>
<polygon fill="none" stroke="#63b8ff" points="53.52,-93.49 54.48,-86.34 61.45,-84.48 60.49,-91.62 53.52,-93.49"/>
</a>
</g>
<text text-anchor="start" x="19.77" y="-232.5" font-family="Helvetica,sans-Serif" font-size="10.00" fill="grey">&#45;radius</text>
</g>
<!-- Node3&#45;&gt;Node2 -->
<g id="edge2_Node000002_Node000003" class="edge">
<title>Node3&#45;&gt;Node2</title>
<g id="a_edge2_Node000002_Node000003"><a xlink:title=" ">
<path fill="none" stroke="#63b8ff" d="M34.57,-404.29C42.79,-385.06 54.73,-357.09 66.52,-329.5"/>
<polygon fill="none" stroke="#63b8ff" points="66.48,-329.59 65.16,-322.5 71.19,-318.55 72.51,-325.64 66.48,-329.59"/>
</a>
</g>
<text text-anchor="start" x="65.56" y="-373.5" font-family="Helvetica,sans-Serif" font-size="10.00" fill="grey">+x</text>
<text text-anchor="start" x="65.56" y="-357.5" font-family="Helvetica,sans-Serif" font-size="10.00" fill="grey">+y</text>
<text text-anchor="start" x="65.56" y="-341.5" font-family="Helvetica,sans-Serif" font-size="10.00" fill="grey">+z</text>
</g>
<!-- Node4 -->
<g id="Node000004" class="node">
<title>Node4</title>
<g id="a_Node000004"><a xlink:title=" ">
<polygon fill="white" stroke="none" points="187.27,-262 168.77,-262 168.77,-210 187.27,-210 187.27,-262"/>
<text text-anchor="start" x="172.77" y="-248.5" font-family="Helvetica,sans-Serif" font-size="10.00">int</text>
<text text-anchor="start" x="176.52" y="-232.5" font-family="Helvetica,sans-Serif" font-size="10.00"> </text>
<text text-anchor="start" x="176.52" y="-216.5" font-family="Helvetica,sans-Serif" font-size="10.00"> </text>
<polygon fill="#666666" stroke="#666666" points="168.77,-244 168.77,-244 187.27,-244 187.27,-244 168.77,-244"/>
<polygon fill="#666666" stroke="#666666" points="168.77,-228 168.77,-228 187.27,-228 187.27,-228 168.77,-228"/>
<polygon fill="none" stroke="#666666" points="168.77,-210 168.77,-262 187.27,-262 187.27,-210 168.77,-210"/>
</a>
</g>
</g>
<!-- Node4&#45;&gt;Node1 -->
<g id="edge4_Node000001_Node000004" class="edge">
<title>Node4&#45;&gt;Node1</title>
<g id="a_edge4_Node000001_Node000004"><a xlink:title=" ">
<path fill="none" stroke="#63b8ff" d="M174.95,-210.04C170.91,-182.58 162.34,-137.63 146.02,-102 144.98,-99.72 143.85,-97.43 142.66,-95.15"/>
<polygon fill="none" stroke="#63b8ff" points="142.62,-95.09 136.18,-91.86 136.68,-84.67 143.13,-87.9 142.62,-95.09"/>
</a>
</g>
<text text-anchor="start" x="160.95" y="-123.5" font-family="Helvetica,sans-Serif" font-size="10.00" fill="grey">&#45;meridians</text>
<text text-anchor="start" x="160.95" y="-107.5" font-family="Helvetica,sans-Serif" font-size="10.00" fill="grey">&#45;parallels</text>
</g>
</g>
</svg>
