<?xml version="1.0" encoding="UTF-8" standalone="no"?>
<!DOCTYPE svg PUBLIC "-//W3C//DTD SVG 1.1//EN"
 "http://www.w3.org/Graphics/SVG/1.1/DTD/svg11.dtd">
<!-- Generated by graphviz version 12.2.1 (0)
 -->
<!-- Title: Engine3D::Point3d Pages: 1 -->
<svg width="98pt" height="310pt"
 viewBox="0.00 0.00 97.75 310.00" xmlns="http://www.w3.org/2000/svg" xmlns:xlink="http://www.w3.org/1999/xlink">
<g id="graph0" class="graph" transform="scale(1 1) rotate(0) translate(4 306)">
<title>Engine3D::Point3d</title>
<!-- Node1 -->
<g id="Node000001" class="node">
<title>Node1</title>
<g id="a_Node000001"><a xlink:title="Représente un point dans l&#39;espace 3D.">
<polygon fill="#999999" stroke="none" points="89.75,-164 0,-164 0,0 89.75,0 89.75,-164"/>
<text text-anchor="start" x="4" y="-150.5" font-family="Helvetica,sans-Serif" font-size="10.00">Engine3D::Point3d</text>
<text text-anchor="start" x="43.38" y="-134.5" font-family="Helvetica,sans-Serif" font-size="10.00"> </text>
<text text-anchor="start" x="9.94" y="-118.5" font-family="Helvetica,sans-Serif" font-size="10.00">+</text>
<text text-anchor="start" x="25.88" y="-118.5" font-family="Helvetica,sans-Serif" font-size="10.00">Point3d()</text>
<text text-anchor="start" x="9.94" y="-102.5" font-family="Helvetica,sans-Serif" font-size="10.00">+</text>
<text text-anchor="start" x="25.88" y="-102.5" font-family="Helvetica,sans-Serif" font-size="10.00">Point3d()</text>
<text text-anchor="start" x="9.94" y="-86.5" font-family="Helvetica,sans-Serif" font-size="10.00">+</text>
<text text-anchor="start" x="25.88" y="-86.5" font-family="Helvetica,sans-Serif" font-size="10.00">operator&#45;()</text>
<text text-anchor="start" x="9.94" y="-70.5" font-family="Helvetica,sans-Serif" font-size="10.00">+</text>
<text text-anchor="start" x="25.88" y="-70.5" font-family="Helvetica,sans-Serif" font-size="10.00">operator+()</text>
<text text-anchor="start" x="9.94" y="-54.5" font-family="Helvetica,sans-Serif" font-size="10.00">+</text>
<text text-anchor="start" x="25.88" y="-54.5" font-family="Helvetica,sans-Serif" font-size="10.00">operator*()</text>
<text text-anchor="start" x="9.94" y="-38.5" font-family="Helvetica,sans-Serif" font-size="10.00">+</text>
<text text-anchor="start" x="25.88" y="-38.5" font-family="Helvetica,sans-Serif" font-size="10.00">cross()</text>
<text text-anchor="start" x="9.94" y="-22.5" font-family="Helvetica,sans-Serif" font-size="10.00">+</text>
<text text-anchor="start" x="25.88" y="-22.5" font-family="Helvetica,sans-Serif" font-size="10.00">dot()</text>
<text text-anchor="start" x="9.94" y="-6.5" font-family="Helvetica,sans-Serif" font-size="10.00">+</text>
<text text-anchor="start" x="25.88" y="-6.5" font-family="Helvetica,sans-Serif" font-size="10.00">normalize()</text>
<polygon fill="#666666" stroke="#666666" points="0,-146 0,-146 89.75,-146 89.75,-146 0,-146"/>
<polygon fill="#666666" stroke="#666666" points="0,-130 0,-130 89.75,-130 89.75,-130 0,-130"/>
<polygon fill="none" stroke="#666666" points="0,0 0,-164 89.75,-164 89.75,0 0,0"/>
</a>
</g>
</g>
<!-- Node2 -->
<g id="Node000002" class="node">
<title>Node2</title>
<g id="a_Node000002"><a xlink:title=" ">
<polygon fill="white" stroke="none" points="58.25,-302 31.5,-302 31.5,-250 58.25,-250 58.25,-302"/>
<text text-anchor="start" x="35.5" y="-288.5" font-family="Helvetica,sans-Serif" font-size="10.00">float</text>
<text text-anchor="start" x="43.38" y="-272.5" font-family="Helvetica,sans-Serif" font-size="10.00"> </text>
<text text-anchor="start" x="43.38" y="-256.5" font-family="Helvetica,sans-Serif" font-size="10.00"> </text>
<polygon fill="#666666" stroke="#666666" points="31.5,-284 31.5,-284 58.25,-284 58.25,-284 31.5,-284"/>
<polygon fill="#666666" stroke="#666666" points="31.5,-268 31.5,-268 58.25,-268 58.25,-268 31.5,-268"/>
<polygon fill="none" stroke="#666666" points="31.5,-250 31.5,-302 58.25,-302 58.25,-250 31.5,-250"/>
</a>
</g>
</g>
<!-- Node2&#45;&gt;Node1 -->
<g id="edge1_Node000001_Node000002" class="edge">
<title>Node2&#45;&gt;Node1</title>
<g id="a_edge1_Node000001_Node000002"><a xlink:title=" ">
<path fill="none" stroke="#63b8ff" d="M44.88,-250.29C44.88,-231.32 44.88,-203.83 44.88,-176.61"/>
<polygon fill="none" stroke="#63b8ff" points="44.88,-176.63 40.88,-170.63 44.88,-164.63 48.88,-170.63 44.88,-176.63"/>
</a>
</g>
<text text-anchor="start" x="47.88" y="-219.5" font-family="Helvetica,sans-Serif" font-size="10.00" fill="grey">+x</text>
<text text-anchor="start" x="47.88" y="-203.5" font-family="Helvetica,sans-Serif" font-size="10.00" fill="grey">+y</text>
<text text-anchor="start" x="47.88" y="-187.5" font-family="Helvetica,sans-Serif" font-size="10.00" fill="grey">+z</text>
</g>
</g>
</svg>
