<?xml version="1.0" encoding="UTF-8" standalone="no"?>
<!DOCTYPE svg PUBLIC "-//W3C//DTD SVG 1.1//EN"
 "http://www.w3.org/Graphics/SVG/1.1/DTD/svg11.dtd">
<!-- Generated by graphviz version 12.2.1 (0)
 -->
<!-- Title: Engine3D::Triangle3d Pages: 1 -->
<svg width="110pt" height="496pt"
 viewBox="0.00 0.00 109.75 496.00" xmlns="http://www.w3.org/2000/svg" xmlns:xlink="http://www.w3.org/1999/xlink">
<g id="graph0" class="graph" transform="scale(1 1) rotate(0) translate(4 492)">
<title>Engine3D::Triangle3d</title>
<!-- Node1 -->
<g id="Node000001" class="node">
<title>Node1</title>
<g id="a_Node000001"><a xlink:title="Triangle dans l&#39;espace 3D.">
<polygon fill="#999999" stroke="none" points="101.75,-100 0,-100 0,0 101.75,0 101.75,-100"/>
<text text-anchor="start" x="4" y="-86.5" font-family="Helvetica,sans-Serif" font-size="10.00">Engine3D::Triangle3d</text>
<text text-anchor="start" x="49.38" y="-70.5" font-family="Helvetica,sans-Serif" font-size="10.00"> </text>
<text text-anchor="start" x="12.19" y="-54.5" font-family="Helvetica,sans-Serif" font-size="10.00">+</text>
<text text-anchor="start" x="30.38" y="-54.5" font-family="Helvetica,sans-Serif" font-size="10.00">Triangle3d()</text>
<text text-anchor="start" x="12.19" y="-38.5" font-family="Helvetica,sans-Serif" font-size="10.00">+</text>
<text text-anchor="start" x="30.38" y="-38.5" font-family="Helvetica,sans-Serif" font-size="10.00">Triangle3d()</text>
<text text-anchor="start" x="12.19" y="-22.5" font-family="Helvetica,sans-Serif" font-size="10.00">+</text>
<text text-anchor="start" x="30.38" y="-22.5" font-family="Helvetica,sans-Serif" font-size="10.00">normal()</text>
<text text-anchor="start" x="12.19" y="-6.5" font-family="Helvetica,sans-Serif" font-size="10.00">+</text>
<text text-anchor="start" x="30.38" y="-6.5" font-family="Helvetica,sans-Serif" font-size="10.00">center()</text>
<polygon fill="#666666" stroke="#666666" points="0,-82 0,-82 101.75,-82 101.75,-82 0,-82"/>
<polygon fill="#666666" stroke="#666666" points="0,-66 0,-66 101.75,-66 101.75,-66 0,-66"/>
<polygon fill="none" stroke="#666666" points="0,0 0,-100 101.75,-100 101.75,0 0,0"/>
</a>
</g>
</g>
<!-- Node2 -->
<g id="Node000002" class="node">
<title>Node2</title>
<g id="a_Node000002"><a xlink:href="class_engine3_d_1_1_point3d.html" target="_top" xlink:title="Représente un point dans l&#39;espace 3D.">
<polygon fill="white" stroke="none" points="95.75,-350 6,-350 6,-186 95.75,-186 95.75,-350"/>
<text text-anchor="start" x="10" y="-336.5" font-family="Helvetica,sans-Serif" font-size="10.00">Engine3D::Point3d</text>
<text text-anchor="start" x="49.38" y="-320.5" font-family="Helvetica,sans-Serif" font-size="10.00"> </text>
<text text-anchor="start" x="15.94" y="-304.5" font-family="Helvetica,sans-Serif" font-size="10.00">+</text>
<text text-anchor="start" x="31.88" y="-304.5" font-family="Helvetica,sans-Serif" font-size="10.00">Point3d()</text>
<text text-anchor="start" x="15.94" y="-288.5" font-family="Helvetica,sans-Serif" font-size="10.00">+</text>
<text text-anchor="start" x="31.88" y="-288.5" font-family="Helvetica,sans-Serif" font-size="10.00">Point3d()</text>
<text text-anchor="start" x="15.94" y="-272.5" font-family="Helvetica,sans-Serif" font-size="10.00">+</text>
<text text-anchor="start" x="31.88" y="-272.5" font-family="Helvetica,sans-Serif" font-size="10.00">operator&#45;()</text>
<text text-anchor="start" x="15.94" y="-256.5" font-family="Helvetica,sans-Serif" font-size="10.00">+</text>
<text text-anchor="start" x="31.88" y="-256.5" font-family="Helvetica,sans-Serif" font-size="10.00">operator+()</text>
<text text-anchor="start" x="15.94" y="-240.5" font-family="Helvetica,sans-Serif" font-size="10.00">+</text>
<text text-anchor="start" x="31.88" y="-240.5" font-family="Helvetica,sans-Serif" font-size="10.00">operator*()</text>
<text text-anchor="start" x="15.94" y="-224.5" font-family="Helvetica,sans-Serif" font-size="10.00">+</text>
<text text-anchor="start" x="31.88" y="-224.5" font-family="Helvetica,sans-Serif" font-size="10.00">cross()</text>
<text text-anchor="start" x="15.94" y="-208.5" font-family="Helvetica,sans-Serif" font-size="10.00">+</text>
<text text-anchor="start" x="31.88" y="-208.5" font-family="Helvetica,sans-Serif" font-size="10.00">dot()</text>
<text text-anchor="start" x="15.94" y="-192.5" font-family="Helvetica,sans-Serif" font-size="10.00">+</text>
<text text-anchor="start" x="31.88" y="-192.5" font-family="Helvetica,sans-Serif" font-size="10.00">normalize()</text>
<polygon fill="#666666" stroke="#666666" points="6,-332 6,-332 95.75,-332 95.75,-332 6,-332"/>
<polygon fill="#666666" stroke="#666666" points="6,-316 6,-316 95.75,-316 95.75,-316 6,-316"/>
<polygon fill="none" stroke="#666666" points="6,-186 6,-350 95.75,-350 95.75,-186 6,-186"/>
</a>
</g>
</g>
<!-- Node2&#45;&gt;Node1 -->
<g id="edge1_Node000001_Node000002" class="edge">
<title>Node2&#45;&gt;Node1</title>
<g id="a_edge1_Node000001_Node000002"><a xlink:title=" ">
<path fill="none" stroke="#63b8ff" d="M50.88,-186.26C50.88,-162.02 50.88,-135.82 50.88,-112.99"/>
<polygon fill="none" stroke="#63b8ff" points="50.88,-112.88 46.88,-106.88 50.88,-100.88 54.88,-106.88 50.88,-112.88"/>
</a>
</g>
<text text-anchor="start" x="53.88" y="-155.5" font-family="Helvetica,sans-Serif" font-size="10.00" fill="grey">+p1</text>
<text text-anchor="start" x="53.88" y="-139.5" font-family="Helvetica,sans-Serif" font-size="10.00" fill="grey">+p2</text>
<text text-anchor="start" x="53.88" y="-123.5" font-family="Helvetica,sans-Serif" font-size="10.00" fill="grey">+p3</text>
</g>
<!-- Node3 -->
<g id="Node000003" class="node">
<title>Node3</title>
<g id="a_Node000003"><a xlink:title=" ">
<polygon fill="white" stroke="none" points="64.25,-488 37.5,-488 37.5,-436 64.25,-436 64.25,-488"/>
<text text-anchor="start" x="41.5" y="-474.5" font-family="Helvetica,sans-Serif" font-size="10.00">float</text>
<text text-anchor="start" x="49.38" y="-458.5" font-family="Helvetica,sans-Serif" font-size="10.00"> </text>
<text text-anchor="start" x="49.38" y="-442.5" font-family="Helvetica,sans-Serif" font-size="10.00"> </text>
<polygon fill="#666666" stroke="#666666" points="37.5,-470 37.5,-470 64.25,-470 64.25,-470 37.5,-470"/>
<polygon fill="#666666" stroke="#666666" points="37.5,-454 37.5,-454 64.25,-454 64.25,-454 37.5,-454"/>
<polygon fill="none" stroke="#666666" points="37.5,-436 37.5,-488 64.25,-488 64.25,-436 37.5,-436"/>
</a>
</g>
</g>
<!-- Node3&#45;&gt;Node2 -->
<g id="edge2_Node000002_Node000003" class="edge">
<title>Node3&#45;&gt;Node2</title>
<g id="a_edge2_Node000002_Node000003"><a xlink:title=" ">
<path fill="none" stroke="#63b8ff" d="M50.88,-436.29C50.88,-417.32 50.88,-389.83 50.88,-362.61"/>
<polygon fill="none" stroke="#63b8ff" points="50.88,-362.63 46.88,-356.63 50.88,-350.63 54.88,-356.63 50.88,-362.63"/>
</a>
</g>
<text text-anchor="start" x="53.88" y="-405.5" font-family="Helvetica,sans-Serif" font-size="10.00" fill="grey">+x</text>
<text text-anchor="start" x="53.88" y="-389.5" font-family="Helvetica,sans-Serif" font-size="10.00" fill="grey">+y</text>
<text text-anchor="start" x="53.88" y="-373.5" font-family="Helvetica,sans-Serif" font-size="10.00" fill="grey">+z</text>
</g>
</g>
</svg>
