<?xml version="1.0" encoding="UTF-8" standalone="no"?>
<!DOCTYPE svg PUBLIC "-//W3C//DTD SVG 1.1//EN"
 "http://www.w3.org/Graphics/SVG/1.1/DTD/svg11.dtd">
<!-- Generated by graphviz version 12.2.1 (0)
 -->
<!-- Title: Engine3D::Pave3d Pages: 1 -->
<svg width="167pt" height="464pt"
 viewBox="0.00 0.00 166.75 464.00" xmlns="http://www.w3.org/2000/svg" xmlns:xlink="http://www.w3.org/1999/xlink">
<g id="graph0" class="graph" transform="scale(1 1) rotate(0) translate(4 460)">
<title>Engine3D::Pave3d</title>
<!-- Node1 -->
<g id="Node000001" class="node">
<title>Node1</title>
<g id="a_Node000001"><a xlink:title="Pavé composé de 6 faces (Quad3d).">
<polygon fill="#999999" stroke="none" points="89.75,-100 0,-100 0,0 89.75,0 89.75,-100"/>
<text text-anchor="start" x="4" y="-86.5" font-family="Helvetica,sans-Serif" font-size="10.00">Engine3D::Pave3d</text>
<text text-anchor="start" x="43.38" y="-70.5" font-family="Helvetica,sans-Serif" font-size="10.00"> </text>
<text text-anchor="start" x="7.12" y="-54.5" font-family="Helvetica,sans-Serif" font-size="10.00">+</text>
<text text-anchor="start" x="20.25" y="-54.5" font-family="Helvetica,sans-Serif" font-size="10.00">Pave3d()</text>
<text text-anchor="start" x="7.12" y="-38.5" font-family="Helvetica,sans-Serif" font-size="10.00">+</text>
<text text-anchor="start" x="20.25" y="-38.5" font-family="Helvetica,sans-Serif" font-size="10.00">setRotation()</text>
<text text-anchor="start" x="7.12" y="-22.5" font-family="Helvetica,sans-Serif" font-size="10.00">+</text>
<text text-anchor="start" x="20.25" y="-22.5" font-family="Helvetica,sans-Serif" font-size="10.00">getTriangles()</text>
<text text-anchor="start" x="8.62" y="-6.5" font-family="Helvetica,sans-Serif" font-size="10.00">&#45;</text>
<text text-anchor="start" x="20.25" y="-6.5" font-family="Helvetica,sans-Serif" font-size="10.00">rotatePoint()</text>
<polygon fill="#666666" stroke="#666666" points="0,-82 0,-82 89.75,-82 89.75,-82 0,-82"/>
<polygon fill="#666666" stroke="#666666" points="0,-66 0,-66 89.75,-66 89.75,-66 0,-66"/>
<polygon fill="none" stroke="#666666" points="0,0 0,-100 89.75,-100 89.75,0 0,0"/>
</a>
</g>
</g>
<!-- Node2 -->
<g id="Node000002" class="node">
<title>Node2</title>
<g id="a_Node000002"><a xlink:href="class_engine3_d_1_1_point3d.html" target="_top" xlink:title="Représente un point dans l&#39;espace 3D.">
<polygon fill="white" stroke="none" points="158.75,-318 69,-318 69,-154 158.75,-154 158.75,-318"/>
<text text-anchor="start" x="73" y="-304.5" font-family="Helvetica,sans-Serif" font-size="10.00">Engine3D::Point3d</text>
<text text-anchor="start" x="112.38" y="-288.5" font-family="Helvetica,sans-Serif" font-size="10.00"> </text>
<text text-anchor="start" x="78.94" y="-272.5" font-family="Helvetica,sans-Serif" font-size="10.00">+</text>
<text text-anchor="start" x="94.88" y="-272.5" font-family="Helvetica,sans-Serif" font-size="10.00">Point3d()</text>
<text text-anchor="start" x="78.94" y="-256.5" font-family="Helvetica,sans-Serif" font-size="10.00">+</text>
<text text-anchor="start" x="94.88" y="-256.5" font-family="Helvetica,sans-Serif" font-size="10.00">Point3d()</text>
<text text-anchor="start" x="78.94" y="-240.5" font-family="Helvetica,sans-Serif" font-size="10.00">+</text>
<text text-anchor="start" x="94.88" y="-240.5" font-family="Helvetica,sans-Serif" font-size="10.00">operator&#45;()</text>
<text text-anchor="start" x="78.94" y="-224.5" font-family="Helvetica,sans-Serif" font-size="10.00">+</text>
<text text-anchor="start" x="94.88" y="-224.5" font-family="Helvetica,sans-Serif" font-size="10.00">operator+()</text>
<text text-anchor="start" x="78.94" y="-208.5" font-family="Helvetica,sans-Serif" font-size="10.00">+</text>
<text text-anchor="start" x="94.88" y="-208.5" font-family="Helvetica,sans-Serif" font-size="10.00">operator*()</text>
<text text-anchor="start" x="78.94" y="-192.5" font-family="Helvetica,sans-Serif" font-size="10.00">+</text>
<text text-anchor="start" x="94.88" y="-192.5" font-family="Helvetica,sans-Serif" font-size="10.00">cross()</text>
<text text-anchor="start" x="78.94" y="-176.5" font-family="Helvetica,sans-Serif" font-size="10.00">+</text>
<text text-anchor="start" x="94.88" y="-176.5" font-family="Helvetica,sans-Serif" font-size="10.00">dot()</text>
<text text-anchor="start" x="78.94" y="-160.5" font-family="Helvetica,sans-Serif" font-size="10.00">+</text>
<text text-anchor="start" x="94.88" y="-160.5" font-family="Helvetica,sans-Serif" font-size="10.00">normalize()</text>
<polygon fill="#666666" stroke="#666666" points="69,-300 69,-300 158.75,-300 158.75,-300 69,-300"/>
<polygon fill="#666666" stroke="#666666" points="69,-284 69,-284 158.75,-284 158.75,-284 69,-284"/>
<polygon fill="none" stroke="#666666" points="69,-154 69,-318 158.75,-318 158.75,-154 69,-154"/>
</a>
</g>
</g>
<!-- Node2&#45;&gt;Node1 -->
<g id="edge1_Node000001_Node000002" class="edge">
<title>Node2&#45;&gt;Node1</title>
<g id="a_edge1_Node000001_Node000002"><a xlink:title=" ">
<path fill="none" stroke="#63b8ff" d="M83.51,-154.03C78.22,-139.93 72.8,-125.48 67.76,-112.03"/>
<polygon fill="none" stroke="#63b8ff" points="67.78,-112.08 61.93,-107.86 63.56,-100.84 69.42,-105.05 67.78,-112.08"/>
</a>
</g>
<text text-anchor="start" x="78.24" y="-123.5" font-family="Helvetica,sans-Serif" font-size="10.00" fill="grey">&#45;center</text>
</g>
<!-- Node3 -->
<g id="Node000003" class="node">
<title>Node3</title>
<g id="a_Node000003"><a xlink:title=" ">
<polygon fill="white" stroke="none" points="41.25,-456 14.5,-456 14.5,-404 41.25,-404 41.25,-456"/>
<text text-anchor="start" x="18.5" y="-442.5" font-family="Helvetica,sans-Serif" font-size="10.00">float</text>
<text text-anchor="start" x="26.38" y="-426.5" font-family="Helvetica,sans-Serif" font-size="10.00"> </text>
<text text-anchor="start" x="26.38" y="-410.5" font-family="Helvetica,sans-Serif" font-size="10.00"> </text>
<polygon fill="#666666" stroke="#666666" points="14.5,-438 14.5,-438 41.25,-438 41.25,-438 14.5,-438"/>
<polygon fill="#666666" stroke="#666666" points="14.5,-422 14.5,-422 41.25,-422 41.25,-422 14.5,-422"/>
<polygon fill="none" stroke="#666666" points="14.5,-404 14.5,-456 41.25,-456 41.25,-404 14.5,-404"/>
</a>
</g>
</g>
<!-- Node3&#45;&gt;Node1 -->
<g id="edge3_Node000001_Node000003" class="edge">
<title>Node3&#45;&gt;Node1</title>
<g id="a_edge3_Node000001_Node000003"><a xlink:title=" ">
<path fill="none" stroke="#63b8ff" d="M24.94,-404.25C19.72,-355.94 10.32,-245.81 20.88,-154 22.43,-140.45 25.11,-126.1 28.12,-112.54"/>
<polygon fill="none" stroke="#63b8ff" points="28.15,-112.41 25.62,-105.66 30.88,-100.72 33.41,-107.48 28.15,-112.41"/>
</a>
</g>
<text text-anchor="start" x="23.88" y="-272.5" font-family="Helvetica,sans-Serif" font-size="10.00" fill="grey">&#45;angleX</text>
<text text-anchor="start" x="23.88" y="-256.5" font-family="Helvetica,sans-Serif" font-size="10.00" fill="grey">&#45;angleY</text>
<text text-anchor="start" x="23.88" y="-240.5" font-family="Helvetica,sans-Serif" font-size="10.00" fill="grey">&#45;angleZ</text>
<text text-anchor="start" x="23.88" y="-224.5" font-family="Helvetica,sans-Serif" font-size="10.00" fill="grey">&#45;sizeX</text>
<text text-anchor="start" x="23.88" y="-208.5" font-family="Helvetica,sans-Serif" font-size="10.00" fill="grey">&#45;sizeY</text>
<text text-anchor="start" x="23.88" y="-192.5" font-family="Helvetica,sans-Serif" font-size="10.00" fill="grey">&#45;sizeZ</text>
</g>
<!-- Node3&#45;&gt;Node2 -->
<g id="edge2_Node000002_Node000003" class="edge">
<title>Node3&#45;&gt;Node2</title>
<g id="a_edge2_Node000002_Node000003"><a xlink:title=" ">
<path fill="none" stroke="#63b8ff" d="M38.94,-404.29C47.56,-385.06 60.09,-357.09 72.44,-329.5"/>
<polygon fill="none" stroke="#63b8ff" points="72.44,-329.5 71.25,-322.39 77.35,-318.55 78.55,-325.66 72.44,-329.5"/>
</a>
</g>
<text text-anchor="start" x="71.3" y="-373.5" font-family="Helvetica,sans-Serif" font-size="10.00" fill="grey">+x</text>
<text text-anchor="start" x="71.3" y="-357.5" font-family="Helvetica,sans-Serif" font-size="10.00" fill="grey">+y</text>
<text text-anchor="start" x="71.3" y="-341.5" font-family="Helvetica,sans-Serif" font-size="10.00" fill="grey">+z</text>
</g>
</g>
</svg>
