<?xml version="1.0" encoding="UTF-8" standalone="no"?>
<!DOCTYPE svg PUBLIC "-//W3C//DTD SVG 1.1//EN"
 "http://www.w3.org/Graphics/SVG/1.1/DTD/svg11.dtd">
<!-- Generated by graphviz version 12.2.1 (0)
 -->
<!-- Title: Engine3D::Sphere3d Pages: 1 -->
<!--zoomable 464 -->

<svg id="main" version="1.1" xmlns="http://www.w3.org/2000/svg" xmlns:xlink="http://www.w3.org/1999/xlink" xml:space="preserve" onload="init(evt)">

<style type="text/css"><![CDATA[
.node, .edge {opacity: 0.7;}
.node.selected, .edge.selected {opacity: 1;}
.edge:hover path { stroke: red; }
.edge:hover polygon { stroke: red; fill: red; }
]]></style>

<defs>
  <circle id="rim" cx="0" cy="0" r="7"/>
  <circle id="rim2" cx="0" cy="0" r="3.5"/>
  <g id="zoomPlus">
    <use xlink:href="#rim" fill="#404040"><set attributeName="fill" to="#808080" begin="zoomplus.mouseover" end="zoomplus.mouseout"/></use>
    <path d="M-4,0h8M0,-4v8" fill="none" stroke="white" stroke-width="1.5" pointer-events="none"/>
  </g>
  <g id="zoomMin">
    <use xlink:href="#rim" fill="#404040"><set attributeName="fill" to="#808080" begin="zoomminus.mouseover" end="zoomminus.mouseout"/></use>
    <path d="M-4,0h8" fill="none" stroke="white" stroke-width="1.5" pointer-events="none"/>
  </g>
  <g id="arrowUp" transform="translate(30 24)">
    <use xlink:href="#rim"/>
    <path pointer-events="none" fill="none" stroke="white" stroke-width="1.5" d="M0,-3.0v7 M-2.5,-0.5L0,-3.0L2.5,-0.5"/>
  </g>
  <g id="arrowRight" transform="rotate(90) translate(36 -43)">
    <use xlink:href="#rim"/>
    <path pointer-events="none" fill="none" stroke="white" stroke-width="1.5" d="M0,-3.0v7 M-2.5,-0.5L0,-3.0L2.5,-0.5"/>
  </g>
  <g id="arrowDown" transform="rotate(180) translate(-30 -48)">
    <use xlink:href="#rim"/>
    <path pointer-events="none" fill="none" stroke="white" stroke-width="1.5" d="M0,-3.0v7 M-2.5,-0.5L0,-3.0L2.5,-0.5"/>
  </g>
  <g id="arrowLeft" transform="rotate(270) translate(-36 17)">
    <use xlink:href="#rim"/>
    <path pointer-events="none" fill="none" stroke="white" stroke-width="1.5" d="M0,-3.0v7 M-2.5,-0.5L0,-3.0L2.5,-0.5"/>
  </g>
  <g id="resetDef">
    <use xlink:href="#rim2" fill="#404040"><set attributeName="fill" to="#808080" begin="reset.mouseover" end="reset.mouseout"/></use>
  </g>
</defs>
<script type="application/ecmascript">
var viewWidth = 217;
var viewHeight = 464;
var sectionId = 'dynsection-0';
</script>
<script type="application/ecmascript" xlink:href="svg.min.js"/>
<svg id="graph" class="graph">
<g id="viewport">
<title>Engine3D::Sphere3d</title>
<!-- Node1 -->
<g id="Node000001" class="node">
<title>Node1</title>
<g id="a_Node000001"><a xlink:title="Sphère composée d&#39;un maillage de Quad3d.">
<polygon fill="#999999" stroke="none" points="155.02,-84 57.02,-84 57.02,0 155.02,0 155.02,-84"/>
<text text-anchor="start" x="61.02" y="-70.5" font-family="Helvetica,sans-Serif" font-size="10.00">Engine3D::Sphere3d</text>
<text text-anchor="start" x="104.52" y="-54.5" font-family="Helvetica,sans-Serif" font-size="10.00"> </text>
<text text-anchor="start" x="66.21" y="-38.5" font-family="Helvetica,sans-Serif" font-size="10.00">+</text>
<text text-anchor="start" x="81.4" y="-38.5" font-family="Helvetica,sans-Serif" font-size="10.00">Sphere3d()</text>
<text text-anchor="start" x="66.21" y="-22.5" font-family="Helvetica,sans-Serif" font-size="10.00">+</text>
<text text-anchor="start" x="81.4" y="-22.5" font-family="Helvetica,sans-Serif" font-size="10.00">getTriangles()</text>
<text text-anchor="start" x="67.71" y="-6.5" font-family="Helvetica,sans-Serif" font-size="10.00">&#45;</text>
<text text-anchor="start" x="81.4" y="-6.5" font-family="Helvetica,sans-Serif" font-size="10.00">spherePoint()</text>
<polygon fill="#666666" stroke="#666666" points="57.02,-66 57.02,-66 155.02,-66 155.02,-66 57.02,-66"/>
<polygon fill="#666666" stroke="#666666" points="57.02,-50 57.02,-50 155.02,-50 155.02,-50 57.02,-50"/>
<polygon fill="none" stroke="#666666" points="57.02,0 57.02,-84 155.02,-84 155.02,0 57.02,0"/>
</a>
</g>
</g>
<!-- Node2 -->
<g id="Node000002" class="node">
<title>Node2</title>
<g id="a_Node000002"><a xlink:href="class_engine3_d_1_1_point3d.html" target="_top" xlink:title="Représente un point dans l&#39;espace 3D.">
<polygon fill="white" stroke="none" points="150.9,-318 61.15,-318 61.15,-154 150.9,-154 150.9,-318"/>
<text text-anchor="start" x="65.15" y="-304.5" font-family="Helvetica,sans-Serif" font-size="10.00">Engine3D::Point3d</text>
<text text-anchor="start" x="104.52" y="-288.5" font-family="Helvetica,sans-Serif" font-size="10.00"> </text>
<text text-anchor="start" x="71.08" y="-272.5" font-family="Helvetica,sans-Serif" font-size="10.00">+</text>
<text text-anchor="start" x="87.02" y="-272.5" font-family="Helvetica,sans-Serif" font-size="10.00">Point3d()</text>
<text text-anchor="start" x="71.08" y="-256.5" font-family="Helvetica,sans-Serif" font-size="10.00">+</text>
<text text-anchor="start" x="87.02" y="-256.5" font-family="Helvetica,sans-Serif" font-size="10.00">Point3d()</text>
<text text-anchor="start" x="71.08" y="-240.5" font-family="Helvetica,sans-Serif" font-size="10.00">+</text>
<text text-anchor="start" x="87.02" y="-240.5" font-family="Helvetica,sans-Serif" font-size="10.00">operator&#45;()</text>
<text text-anchor="start" x="71.08" y="-224.5" font-family="Helvetica,sans-Serif" font-size="10.00">+</text>
<text text-anchor="start" x="87.02" y="-224.5" font-family="Helvetica,sans-Serif" font-size="10.00">operator+()</text>
<text text-anchor="start" x="71.08" y="-208.5" font-family="Helvetica,sans-Serif" font-size="10.00">+</text>
<text text-anchor="start" x="87.02" y="-208.5" font-family="Helvetica,sans-Serif" font-size="10.00">operator*()</text>
<text text-anchor="start" x="71.08" y="-192.5" font-family="Helvetica,sans-Serif" font-size="10.00">+</text>
<text text-anchor="start" x="87.02" y="-192.5" font-family="Helvetica,sans-Serif" font-size="10.00">cross()</text>
<text text-anchor="start" x="71.08" y="-176.5" font-family="Helvetica,sans-Serif" font-size="10.00">+</text>
<text text-anchor="start" x="87.02" y="-176.5" font-family="Helvetica,sans-Serif" font-size="10.00">dot()</text>
<text text-anchor="start" x="71.08" y="-160.5" font-family="Helvetica,sans-Serif" font-size="10.00">+</text>
<text text-anchor="start" x="87.02" y="-160.5" font-family="Helvetica,sans-Serif" font-size="10.00">normalize()</text>
<polygon fill="#666666" stroke="#666666" points="61.15,-300 61.15,-300 150.9,-300 150.9,-300 61.15,-300"/>
<polygon fill="#666666" stroke="#666666" points="61.15,-284 61.15,-284 150.9,-284 150.9,-284 61.15,-284"/>
<polygon fill="none" stroke="#666666" points="61.15,-154 61.15,-318 150.9,-318 150.9,-154 61.15,-154"/>
</a>
</g>
</g>
<!-- Node2&#45;&gt;Node1 -->
<g id="edge1_Node000001_Node000002" class="edge">
<title>Node2&#45;&gt;Node1</title>
<g id="a_edge1_Node000001_Node000002"><a xlink:title=" ">
<path fill="none" stroke="#63b8ff" d="M106.02,-154.13C106.02,-134.86 106.02,-114.75 106.02,-97.02"/>
<polygon fill="none" stroke="#63b8ff" points="106.02,-96.88 102.02,-90.88 106.02,-84.88 110.02,-90.88 106.02,-96.88"/>
</a>
</g>
<text text-anchor="start" x="109.02" y="-115.5" font-family="Helvetica,sans-Serif" font-size="10.00" fill="grey">&#45;center</text>
</g>
<!-- Node3 -->
<g id="Node000003" class="node">
<title>Node3</title>
<g id="a_Node000003"><a xlink:title=" ">
<polygon fill="white" stroke="none" points="37.4,-456 10.65,-456 10.65,-404 37.4,-404 37.4,-456"/>
<text text-anchor="start" x="14.65" y="-442.5" font-family="Helvetica,sans-Serif" font-size="10.00">float</text>
<text text-anchor="start" x="22.52" y="-426.5" font-family="Helvetica,sans-Serif" font-size="10.00"> </text>
<text text-anchor="start" x="22.52" y="-410.5" font-family="Helvetica,sans-Serif" font-size="10.00"> </text>
<polygon fill="#666666" stroke="#666666" points="10.65,-438 10.65,-438 37.4,-438 37.4,-438 10.65,-438"/>
<polygon fill="#666666" stroke="#666666" points="10.65,-422 10.65,-422 37.4,-422 37.4,-422 10.65,-422"/>
<polygon fill="none" stroke="#666666" points="10.65,-404 10.65,-456 37.4,-456 37.4,-404 10.65,-404"/>
</a>
</g>
</g>
<!-- Node3&#45;&gt;Node1 -->
<g id="edge3_Node000001_Node000003" class="edge">
<title>Node3&#45;&gt;Node1</title>
<g id="a_edge3_Node000001_Node000003"><a xlink:title=" ">
<path fill="none" stroke="#63b8ff" d="M17.62,-404.18C6.13,-354.84 -14.08,-241.62 16.77,-154 24.57,-131.86 38.85,-110.88 53.74,-93.24"/>
<polygon fill="none" stroke="#63b8ff" points="53.52,-93.49 54.48,-86.34 61.45,-84.48 60.49,-91.62 53.52,-93.49"/>
</a>
</g>
<text text-anchor="start" x="19.77" y="-232.5" font-family="Helvetica,sans-Serif" font-size="10.00" fill="grey">&#45;radius</text>
</g>
<!-- Node3&#45;&gt;Node2 -->
<g id="edge2_Node000002_Node000003" class="edge">
<title>Node3&#45;&gt;Node2</title>
<g id="a_edge2_Node000002_Node000003"><a xlink:title=" ">
<path fill="none" stroke="#63b8ff" d="M34.57,-404.29C42.79,-385.06 54.73,-357.09 66.52,-329.5"/>
<polygon fill="none" stroke="#63b8ff" points="66.48,-329.59 65.16,-322.5 71.19,-318.55 72.51,-325.64 66.48,-329.59"/>
</a>
</g>
<text text-anchor="start" x="65.56" y="-373.5" font-family="Helvetica,sans-Serif" font-size="10.00" fill="grey">+x</text>
<text text-anchor="start" x="65.56" y="-357.5" font-family="Helvetica,sans-Serif" font-size="10.00" fill="grey">+y</text>
<text text-anchor="start" x="65.56" y="-341.5" font-family="Helvetica,sans-Serif" font-size="10.00" fill="grey">+z</text>
</g>
<!-- Node4 -->
<g id="Node000004" class="node">
<title>Node4</title>
<g id="a_Node000004"><a xlink:title=" ">
<polygon fill="white" stroke="none" points="187.27,-262 168.77,-262 168.77,-210 187.27,-210 187.27,-262"/>
<text text-anchor="start" x="172.77" y="-248.5" font-family="Helvetica,sans-Serif" font-size="10.00">int</text>
<text text-anchor="start" x="176.52" y="-232.5" font-family="Helvetica,sans-Serif" font-size="10.00"> </text>
<text text-anchor="start" x="176.52" y="-216.5" font-family="Helvetica,sans-Serif" font-size="10.00"> </text>
<polygon fill="#666666" stroke="#666666" points="168.77,-244 168.77,-244 187.27,-244 187.27,-244 168.77,-244"/>
<polygon fill="#666666" stroke="#666666" points="168.77,-228 168.77,-228 187.27,-228 187.27,-228 168.77,-228"/>
<polygon fill="none" stroke="#666666" points="168.77,-210 168.77,-262 187.27,-262 187.27,-210 168.77,-210"/>
</a>
</g>
</g>
<!-- Node4&#45;&gt;Node1 -->
<g id="edge4_Node000001_Node000004" class="edge">
<title>Node4&#45;&gt;Node1</title>
<g id="a_edge4_Node000001_Node000004"><a xlink:title=" ">
<path fill="none" stroke="#63b8ff" d="M174.95,-210.04C170.91,-182.58 162.34,-137.63 146.02,-102 144.98,-99.72 143.85,-97.43 142.66,-95.15"/>
<polygon fill="none" stroke="#63b8ff" points="142.62,-95.09 136.18,-91.86 136.68,-84.67 143.13,-87.9 142.62,-95.09"/>
</a>
</g>
<text text-anchor="start" x="160.95" y="-123.5" font-family="Helvetica,sans-Serif" font-size="10.00" fill="grey">&#45;meridians</text>
<text text-anchor="start" x="160.95" y="-107.5" font-family="Helvetica,sans-Serif" font-size="10.00" fill="grey">&#45;parallels</text>
</g>
</g>
</svg>

<g id="navigator" transform="translate(0 0)" fill="#404254">
  <rect fill="#f2f5e9" fill-opacity="0.5" stroke="#606060" stroke-width=".5" x="0" y="0" width="60" height="60"/>
  <use id="zoomplus" xlink:href="#zoomPlus" x="17" y="9" onmousedown="handleZoom(evt,'in')"/>
  <use id="zoomminus" xlink:href="#zoomMin" x="42" y="9" onmousedown="handleZoom(evt,'out')"/>
  <use id="reset" xlink:href="#resetDef" x="30" y="36" onmousedown="handleReset()"/>
   <use id="arrowup" xlink:href="#arrowUp" x="0" y="0" onmousedown="handlePan(0,-1)"/>
  <use id="arrowright" xlink:href="#arrowRight" x="0" y="0" onmousedown="handlePan(1,0)"/>
  <use id="arrowdown" xlink:href="#arrowDown" x="0" y="0" onmousedown="handlePan(0,1)"/>
  <use id="arrowleft" xlink:href="#arrowLeft" x="0" y="0" onmousedown="handlePan(-1,0)"/>
</g>
<svg viewBox="0 0 15 15" width="100%" height="30px" preserveAspectRatio="xMaxYMin meet">
 <g id="arrow_out" transform="scale(0.3 0.3)">
  <a xlink:href="class_engine3_d_1_1_sphere3d__coll__graph_org.svg" target="_base">
   <rect id="button" ry="5" rx="5" y="6" x="6" height="38" width="38"
        fill="#f2f5e9" fill-opacity="0.5" stroke="#606060" stroke-width="1.0"/>
   <path id="arrow"
     d="M 11.500037,31.436501 C 11.940474,20.09759 22.043105,11.32322 32.158766,21.979434 L 37.068811,17.246167 C 37.068811,17.246167 37.088388,32 37.088388,32 L 22.160133,31.978069 C 22.160133,31.978069 26.997745,27.140456 26.997745,27.140456 C 18.528582,18.264221 13.291696,25.230495 11.500037,31.436501 z"
     style="fill:#404040;"/>
  </a>
 </g>
</svg>

<style type='text/css'>
<![CDATA[
[data-mouse-over-selected='false'] { opacity: 0.7; }
[data-mouse-over-selected='true']  { opacity: 1.0; }
]]>
</style>
<script type="application/ecmascript"><![CDATA[
document.addEventListener('DOMContentLoaded', (event) => {
  highlightEdges();
  highlightAdjacentNodes();
});
]]></script>
</svg>
