<?xml version="1.0" encoding="UTF-8" standalone="no"?>
<!DOCTYPE svg PUBLIC "-//W3C//DTD SVG 1.1//EN"
 "http://www.w3.org/Graphics/SVG/1.1/DTD/svg11.dtd">
<!-- Generated by graphviz version 12.2.1 (0)
 -->
<!-- Title: Engine3D::Quad3d::getTriangles Pages: 1 -->
<svg width="624pt" height="78pt"
 viewBox="0.00 0.00 624.25 78.00" xmlns="http://www.w3.org/2000/svg" xmlns:xlink="http://www.w3.org/1999/xlink">
<g id="graph0" class="graph" transform="scale(1 1) rotate(0) translate(4 74)">
<title>Engine3D::Quad3d::getTriangles</title>
<!-- Node1 -->
<g id="Node000001" class="node">
<title>Node1</title>
<g id="a_Node000001"><a xlink:title="Retourne les triangles du quad.">
<polygon fill="#999999" stroke="#666666" points="616.25,-48 458.5,-48 458.5,-28 616.25,-28 616.25,-48"/>
<text text-anchor="middle" x="537.38" y="-34.5" font-family="Helvetica,sans-Serif" font-size="10.00">Engine3D::Quad3d::getTriangles</text>
</a>
</g>
</g>
<!-- Node2 -->
<g id="Node000002" class="node">
<title>Node2</title>
<g id="a_Node000002"><a xlink:href="class_engine3_d_1_1_pave3d.html#a4119fbf8bcb7a8e53bf791e07dad4a36" target="_top" xlink:title="Retourne tous les triangles du pavé">
<polygon fill="white" stroke="#666666" points="422.5,-70 265.5,-70 265.5,-50 422.5,-50 422.5,-70"/>
<text text-anchor="middle" x="344" y="-56.5" font-family="Helvetica,sans-Serif" font-size="10.00">Engine3D::Pave3d::getTriangles</text>
</a>
</g>
</g>
<!-- Node1&#45;&gt;Node2 -->
<g id="edge1_Node000001_Node000002" class="edge">
<title>Node1&#45;&gt;Node2</title>
<g id="a_edge1_Node000001_Node000002"><a xlink:title=" ">
<path fill="none" stroke="#63b8ff" d="M446.95,-48.28C438.9,-49.2 430.8,-50.14 422.87,-51.05"/>
<polygon fill="#63b8ff" stroke="#63b8ff" points="447.22,-51.77 456.76,-47.15 446.42,-44.82 447.22,-51.77"/>
</a>
</g>
</g>
<!-- Node6 -->
<g id="Node000006" class="node">
<title>Node6</title>
<g id="a_Node000006"><a xlink:href="class_engine3_d_1_1_sphere3d.html#a2021bf0962839e427e464bb61e8702e0" target="_top" xlink:title="Retourne tous les triangles de la sphère.">
<polygon fill="white" stroke="#666666" points="397,-32 291,-32 291,0 397,0 397,-32"/>
<text text-anchor="start" x="299" y="-18.5" font-family="Helvetica,sans-Serif" font-size="10.00">Engine3D::Sphere3d</text>
<text text-anchor="middle" x="344" y="-6.5" font-family="Helvetica,sans-Serif" font-size="10.00">::getTriangles</text>
</a>
</g>
</g>
<!-- Node1&#45;&gt;Node6 -->
<g id="edge5_Node000001_Node000006" class="edge">
<title>Node1&#45;&gt;Node6</title>
<g id="a_edge5_Node000001_Node000006"><a xlink:title=" ">
<path fill="none" stroke="#63b8ff" d="M447.14,-27.74C430.13,-25.79 412.85,-23.8 397.46,-22.03"/>
<polygon fill="#63b8ff" stroke="#63b8ff" points="446.42,-31.18 456.76,-28.85 447.22,-24.23 446.42,-31.18"/>
</a>
</g>
</g>
<!-- Node3 -->
<g id="Node000003" class="node">
<title>Node3</title>
<g id="a_Node000003"><a xlink:href="main_8cpp.html#a3f8bbedc9cc7a81915ae12b5d66c00cd" target="_top" xlink:title="Crée et ajoute le cube à la scène.">
<polygon fill="white" stroke="#666666" points="225.75,-68 170.75,-68 170.75,-48 225.75,-48 225.75,-68"/>
<text text-anchor="middle" x="198.25" y="-54.5" font-family="Helvetica,sans-Serif" font-size="10.00">addCube</text>
</a>
</g>
</g>
<!-- Node2&#45;&gt;Node3 -->
<g id="edge2_Node000002_Node000003" class="edge">
<title>Node2&#45;&gt;Node3</title>
<g id="a_edge2_Node000002_Node000003"><a xlink:title=" ">
<path fill="none" stroke="#63b8ff" d="M253.84,-58.76C243.89,-58.62 234.41,-58.49 226.22,-58.38"/>
<polygon fill="#63b8ff" stroke="#63b8ff" points="253.67,-62.26 263.72,-58.9 253.77,-55.26 253.67,-62.26"/>
</a>
</g>
</g>
<!-- Node4 -->
<g id="Node000004" class="node">
<title>Node4</title>
<g id="a_Node000004"><a xlink:href="main_8cpp.html#a43c63981d2c39c1e3e08614ee3f83b4f" target="_top" xlink:title="Boucle principale du programme.">
<polygon fill="white" stroke="#666666" points="131,-48 73,-48 73,-28 131,-28 131,-48"/>
<text text-anchor="middle" x="102" y="-34.5" font-family="Helvetica,sans-Serif" font-size="10.00">mainLoop</text>
</a>
</g>
</g>
<!-- Node3&#45;&gt;Node4 -->
<g id="edge3_Node000003_Node000004" class="edge">
<title>Node3&#45;&gt;Node4</title>
<g id="a_edge3_Node000003_Node000004"><a xlink:title=" ">
<path fill="none" stroke="#63b8ff" d="M159.46,-49.98C150.12,-48 140.28,-45.91 131.47,-44.04"/>
<polygon fill="#63b8ff" stroke="#63b8ff" points="158.5,-53.36 169.01,-52.01 159.96,-46.51 158.5,-53.36"/>
</a>
</g>
</g>
<!-- Node5 -->
<g id="Node000005" class="node">
<title>Node5</title>
<g id="a_Node000005"><a xlink:href="main_8cpp.html#a0ddf1224851353fc92bfbff6f499fa97" target="_top" xlink:title="main">
<polygon fill="white" stroke="#666666" points="37,-48 0,-48 0,-28 37,-28 37,-48"/>
<text text-anchor="middle" x="18.5" y="-34.5" font-family="Helvetica,sans-Serif" font-size="10.00">main</text>
</a>
</g>
</g>
<!-- Node4&#45;&gt;Node5 -->
<g id="edge4_Node000004_Node000005" class="edge">
<title>Node4&#45;&gt;Node5</title>
<g id="a_edge4_Node000004_Node000005"><a xlink:title=" ">
<path fill="none" stroke="#63b8ff" d="M61.58,-38C53.1,-38 44.55,-38 37.39,-38"/>
<polygon fill="#63b8ff" stroke="#63b8ff" points="61.44,-41.5 71.44,-38 61.44,-34.5 61.44,-41.5"/>
</a>
</g>
</g>
<!-- Node7 -->
<g id="Node000007" class="node">
<title>Node7</title>
<g id="a_Node000007"><a xlink:href="main_8cpp.html#a413ed82437706932602a46bf716063ca" target="_top" xlink:title="Crée et ajoute la sphère à la scène.">
<polygon fill="white" stroke="#666666" points="229.5,-29 167,-29 167,-9 229.5,-9 229.5,-29"/>
<text text-anchor="middle" x="198.25" y="-15.5" font-family="Helvetica,sans-Serif" font-size="10.00">addSphere</text>
</a>
</g>
</g>
<!-- Node6&#45;&gt;Node7 -->
<g id="edge6_Node000006_Node000007" class="edge">
<title>Node6&#45;&gt;Node7</title>
<g id="a_edge6_Node000006_Node000007"><a xlink:title=" ">
<path fill="none" stroke="#63b8ff" d="M279.53,-17.32C262.32,-17.68 244.47,-18.06 229.98,-18.36"/>
<polygon fill="#63b8ff" stroke="#63b8ff" points="279.26,-20.83 289.18,-17.12 279.11,-13.83 279.26,-20.83"/>
</a>
</g>
</g>
<!-- Node7&#45;&gt;Node4 -->
<g id="edge7_Node000007_Node000004" class="edge">
<title>Node7&#45;&gt;Node4</title>
<g id="a_edge7_Node000007_Node000004"><a xlink:title=" ">
<path fill="none" stroke="#63b8ff" d="M155.63,-27.39C147.38,-29.05 138.89,-30.76 131.21,-32.31"/>
<polygon fill="#63b8ff" stroke="#63b8ff" points="156.05,-30.88 165.17,-25.47 154.67,-24.01 156.05,-30.88"/>
</a>
</g>
</g>
</g>
</svg>
