<?xml version="1.0" encoding="UTF-8" standalone="no"?>
<!DOCTYPE svg PUBLIC "-//W3C//DTD SVG 1.1//EN"
 "http://www.w3.org/Graphics/SVG/1.1/DTD/svg11.dtd">
<!-- Generated by graphviz version 12.2.1 (0)
 -->
<!-- Title: Engine3D::Scene::getCamera Pages: 1 -->
<svg width="322pt" height="47pt"
 viewBox="0.00 0.00 321.50 47.00" xmlns="http://www.w3.org/2000/svg" xmlns:xlink="http://www.w3.org/1999/xlink">
<g id="graph0" class="graph" transform="scale(1 1) rotate(0) translate(4 43)">
<title>Engine3D::Scene::getCamera</title>
<!-- Node1 -->
<g id="Node000001" class="node">
<title>Node1</title>
<g id="a_Node000001"><a xlink:title="Retourne une référence vers la caméra.">
<polygon fill="#999999" stroke="#666666" points="313.5,-39 167,-39 167,-19 313.5,-19 313.5,-39"/>
<text text-anchor="middle" x="240.25" y="-25.5" font-family="Helvetica,sans-Serif" font-size="10.00">Engine3D::Scene::getCamera</text>
</a>
</g>
</g>
<!-- Node2 -->
<g id="Node000002" class="node">
<title>Node2</title>
<g id="a_Node000002"><a xlink:href="main_8cpp.html#a0ddf1224851353fc92bfbff6f499fa97" target="_top" xlink:title="main">
<polygon fill="white" stroke="#666666" points="37,-39 0,-39 0,-19 37,-19 37,-39"/>
<text text-anchor="middle" x="18.5" y="-25.5" font-family="Helvetica,sans-Serif" font-size="10.00">main</text>
</a>
</g>
</g>
<!-- Node1&#45;&gt;Node2 -->
<g id="edge1_Node000001_Node000002" class="edge">
<title>Node1&#45;&gt;Node2</title>
<g id="a_edge1_Node000001_Node000002"><a xlink:title=" ">
<path fill="none" stroke="#63b8ff" d="M155.25,-29C112,-29 63.09,-29 37.42,-29"/>
<polygon fill="#63b8ff" stroke="#63b8ff" points="155.17,-32.5 165.17,-29 155.17,-25.5 155.17,-32.5"/>
</a>
</g>
</g>
<!-- Node3 -->
<g id="Node000003" class="node">
<title>Node3</title>
<g id="a_Node000003"><a xlink:href="main_8cpp.html#a43c63981d2c39c1e3e08614ee3f83b4f" target="_top" xlink:title="Boucle principale du programme.">
<polygon fill="white" stroke="#666666" points="131,-20 73,-20 73,0 131,0 131,-20"/>
<text text-anchor="middle" x="102" y="-6.5" font-family="Helvetica,sans-Serif" font-size="10.00">mainLoop</text>
</a>
</g>
</g>
<!-- Node1&#45;&gt;Node3 -->
<g id="edge2_Node000001_Node000003" class="edge">
<title>Node1&#45;&gt;Node3</title>
<g id="a_edge2_Node000001_Node000003"><a xlink:title=" ">
<path fill="none" stroke="#63b8ff" d="M155.34,-17.3C146.79,-16.11 138.58,-14.96 131.32,-13.95"/>
<polygon fill="#63b8ff" stroke="#63b8ff" points="154.85,-20.76 165.24,-18.68 155.82,-13.83 154.85,-20.76"/>
</a>
</g>
</g>
<!-- Node3&#45;&gt;Node2 -->
<g id="edge3_Node000003_Node000002" class="edge">
<title>Node3&#45;&gt;Node2</title>
<g id="a_edge3_Node000003_Node000002"><a xlink:title=" ">
<path fill="none" stroke="#63b8ff" d="M61.87,-19.12C53.3,-21.12 44.63,-23.14 37.39,-24.83"/>
<polygon fill="#63b8ff" stroke="#63b8ff" points="62.53,-22.56 71.48,-16.88 60.94,-15.74 62.53,-22.56"/>
</a>
</g>
</g>
</g>
</svg>
