<?xml version="1.0" encoding="UTF-8" standalone="no"?>
<!DOCTYPE svg PUBLIC "-//W3C//DTD SVG 1.1//EN"
 "http://www.w3.org/Graphics/SVG/1.1/DTD/svg11.dtd">
<!-- Generated by graphviz version 12.2.1 (0)
 -->
<!-- Title: Engine3D::Camera::moveLeft Pages: 1 -->
<svg width="443pt" height="28pt"
 viewBox="0.00 0.00 442.50 28.00" xmlns="http://www.w3.org/2000/svg" xmlns:xlink="http://www.w3.org/1999/xlink">
<g id="graph0" class="graph" transform="scale(1 1) rotate(0) translate(4 24)">
<title>Engine3D::Camera::moveLeft</title>
<!-- Node1 -->
<g id="Node000001" class="node">
<title>Node1</title>
<g id="a_Node000001"><a xlink:title="Déplace la caméra vers la gauche.">
<polygon fill="#999999" stroke="#666666" points="434.5,-20 288.75,-20 288.75,0 434.5,0 434.5,-20"/>
<text text-anchor="middle" x="361.62" y="-6.5" font-family="Helvetica,sans-Serif" font-size="10.00">Engine3D::Camera::moveLeft</text>
</a>
</g>
</g>
<!-- Node2 -->
<g id="Node000002" class="node">
<title>Node2</title>
<g id="a_Node000002"><a xlink:href="main_8cpp.html#a6ca502f882ebcc537dec54df94f57059" target="_top" xlink:title="Gère les événements clavier.">
<polygon fill="white" stroke="#666666" points="252.75,-20 167,-20 167,0 252.75,0 252.75,-20"/>
<text text-anchor="middle" x="209.88" y="-6.5" font-family="Helvetica,sans-Serif" font-size="10.00">handleKeyboard</text>
</a>
</g>
</g>
<!-- Node1&#45;&gt;Node2 -->
<g id="edge1_Node000001_Node000002" class="edge">
<title>Node1&#45;&gt;Node2</title>
<g id="a_edge1_Node000001_Node000002"><a xlink:title=" ">
<path fill="none" stroke="#63b8ff" d="M277.03,-10C268.75,-10 260.61,-10 253.03,-10"/>
<polygon fill="#63b8ff" stroke="#63b8ff" points="276.87,-13.5 286.87,-10 276.87,-6.5 276.87,-13.5"/>
</a>
</g>
</g>
<!-- Node3 -->
<g id="Node000003" class="node">
<title>Node3</title>
<g id="a_Node000003"><a xlink:href="main_8cpp.html#a43c63981d2c39c1e3e08614ee3f83b4f" target="_top" xlink:title="Boucle principale du programme.">
<polygon fill="white" stroke="#666666" points="131,-20 73,-20 73,0 131,0 131,-20"/>
<text text-anchor="middle" x="102" y="-6.5" font-family="Helvetica,sans-Serif" font-size="10.00">mainLoop</text>
</a>
</g>
</g>
<!-- Node2&#45;&gt;Node3 -->
<g id="edge2_Node000002_Node000003" class="edge">
<title>Node2&#45;&gt;Node3</title>
<g id="a_edge2_Node000002_Node000003"><a xlink:title=" ">
<path fill="none" stroke="#63b8ff" d="M155.44,-10C147.12,-10 138.82,-10 131.35,-10"/>
<polygon fill="#63b8ff" stroke="#63b8ff" points="155.21,-13.5 165.21,-10 155.21,-6.5 155.21,-13.5"/>
</a>
</g>
</g>
<!-- Node4 -->
<g id="Node000004" class="node">
<title>Node4</title>
<g id="a_Node000004"><a xlink:href="main_8cpp.html#a0ddf1224851353fc92bfbff6f499fa97" target="_top" xlink:title="main">
<polygon fill="white" stroke="#666666" points="37,-20 0,-20 0,0 37,0 37,-20"/>
<text text-anchor="middle" x="18.5" y="-6.5" font-family="Helvetica,sans-Serif" font-size="10.00">main</text>
</a>
</g>
</g>
<!-- Node3&#45;&gt;Node4 -->
<g id="edge3_Node000003_Node000004" class="edge">
<title>Node3&#45;&gt;Node4</title>
<g id="a_edge3_Node000003_Node000004"><a xlink:title=" ">
<path fill="none" stroke="#63b8ff" d="M61.58,-10C53.1,-10 44.55,-10 37.39,-10"/>
<polygon fill="#63b8ff" stroke="#63b8ff" points="61.44,-13.5 71.44,-10 61.44,-6.5 61.44,-13.5"/>
</a>
</g>
</g>
</g>
</svg>
