<?xml version="1.0" encoding="UTF-8" standalone="no"?>
<!DOCTYPE svg PUBLIC "-//W3C//DTD SVG 1.1//EN"
 "http://www.w3.org/Graphics/SVG/1.1/DTD/svg11.dtd">
<!-- Generated by graphviz version 12.2.1 (0)
 -->
<!-- Title: Engine3D::Scene::rasterizeTriangle Pages: 1 -->
<svg width="514pt" height="78pt"
 viewBox="0.00 0.00 513.50 78.00" xmlns="http://www.w3.org/2000/svg" xmlns:xlink="http://www.w3.org/1999/xlink">
<g id="graph0" class="graph" transform="scale(1 1) rotate(0) translate(4 74)">
<title>Engine3D::Scene::rasterizeTriangle</title>
<!-- Node1 -->
<g id="Node000001" class="node">
<title>Node1</title>
<g id="a_Node000001"><a xlink:title="Rasterise un triangle 2D.">
<polygon fill="#999999" stroke="#666666" points="136,-48 0,-48 0,-16 136,-16 136,-48"/>
<text text-anchor="start" x="8" y="-34.5" font-family="Helvetica,sans-Serif" font-size="10.00">Engine3D::Scene::rasterize</text>
<text text-anchor="middle" x="68" y="-22.5" font-family="Helvetica,sans-Serif" font-size="10.00">Triangle</text>
</a>
</g>
</g>
<!-- Node2 -->
<g id="Node000002" class="node">
<title>Node2</title>
<g id="a_Node000002"><a xlink:href="class_engine3_d_1_1_scene.html#a8837c73c8733a95bc50118d1aded5155" target="_top" xlink:title="Rasterise la partie plate du triangle (haut ou bas).">
<polygon fill="white" stroke="#666666" points="304.62,-70 179.88,-70 179.88,-38 304.62,-38 304.62,-70"/>
<text text-anchor="start" x="187.88" y="-56.5" font-family="Helvetica,sans-Serif" font-size="10.00">Engine3D::Scene::fillFlat</text>
<text text-anchor="middle" x="242.25" y="-44.5" font-family="Helvetica,sans-Serif" font-size="10.00">Bottom</text>
</a>
</g>
</g>
<!-- Node1&#45;&gt;Node2 -->
<g id="edge1_Node000001_Node000002" class="edge">
<title>Node1&#45;&gt;Node2</title>
<g id="a_edge1_Node000001_Node000002"><a xlink:title=" ">
<path fill="none" stroke="#63b8ff" d="M136.09,-40.57C146.56,-41.91 157.44,-43.3 168.04,-44.65"/>
<polygon fill="#63b8ff" stroke="#63b8ff" points="167.54,-48.11 177.91,-45.91 168.43,-41.17 167.54,-48.11"/>
</a>
</g>
</g>
<!-- Node4 -->
<g id="Node000004" class="node">
<title>Node4</title>
<g id="a_Node000004"><a xlink:href="class_engine3_d_1_1_scene.html#a817b9c0fd5988cb4867e3c73773b2584" target="_top" xlink:title="Rasterise la partie plate supérieure du triangle.">
<polygon fill="white" stroke="#666666" points="312.5,-20 172,-20 172,0 312.5,0 312.5,-20"/>
<text text-anchor="middle" x="242.25" y="-6.5" font-family="Helvetica,sans-Serif" font-size="10.00">Engine3D::Scene::fillFlatTop</text>
</a>
</g>
</g>
<!-- Node1&#45;&gt;Node4 -->
<g id="edge3_Node000001_Node000004" class="edge">
<title>Node1&#45;&gt;Node4</title>
<g id="a_edge3_Node000001_Node000004"><a xlink:title=" ">
<path fill="none" stroke="#63b8ff" d="M136.09,-23.43C143.99,-22.42 152.11,-21.39 160.17,-20.36"/>
<polygon fill="#63b8ff" stroke="#63b8ff" points="160.52,-23.84 170,-19.1 159.64,-16.9 160.52,-23.84"/>
</a>
</g>
</g>
<!-- Node3 -->
<g id="Node000003" class="node">
<title>Node3</title>
<g id="a_Node000003"><a xlink:href="class_engine3_d_1_1_scene.html#a68735735b2e868f144acdb359c153025" target="_top" xlink:title="Dessine une ligne horizontale du triangle via technique scanline.">
<polygon fill="white" stroke="#666666" points="505.5,-42 348.5,-42 348.5,-22 505.5,-22 505.5,-42"/>
<text text-anchor="middle" x="427" y="-28.5" font-family="Helvetica,sans-Serif" font-size="10.00">Engine3D::Scene::drawScanline</text>
</a>
</g>
</g>
<!-- Node2&#45;&gt;Node3 -->
<g id="edge2_Node000002_Node000003" class="edge">
<title>Node2&#45;&gt;Node3</title>
<g id="a_edge2_Node000002_Node000003"><a xlink:title=" ">
<path fill="none" stroke="#63b8ff" d="M305.12,-46.55C315.42,-45.31 326.28,-44 337.09,-42.7"/>
<polygon fill="#63b8ff" stroke="#63b8ff" points="337.3,-46.2 346.81,-41.53 336.47,-39.25 337.3,-46.2"/>
</a>
</g>
</g>
<!-- Node4&#45;&gt;Node3 -->
<g id="edge4_Node000004_Node000003" class="edge">
<title>Node4&#45;&gt;Node3</title>
<g id="a_edge4_Node000004_Node000003"><a xlink:title=" ">
<path fill="none" stroke="#63b8ff" d="M312.86,-18.38C320.68,-19.32 328.72,-20.29 336.74,-21.25"/>
<polygon fill="#63b8ff" stroke="#63b8ff" points="336.19,-24.71 346.53,-22.43 337.02,-17.76 336.19,-24.71"/>
</a>
</g>
</g>
</g>
</svg>
