<?xml version="1.0" encoding="UTF-8" standalone="no"?>
<!DOCTYPE svg PUBLIC "-//W3C//DTD SVG 1.1//EN"
 "http://www.w3.org/Graphics/SVG/1.1/DTD/svg11.dtd">
<!-- Generated by graphviz version 12.2.1 (0)
 -->
<!-- Title: Engine3D::Scene::render Pages: 1 -->
<svg width="819pt" height="216pt"
 viewBox="0.00 0.00 819.25 216.00" xmlns="http://www.w3.org/2000/svg" xmlns:xlink="http://www.w3.org/1999/xlink">
<g id="graph0" class="graph" transform="scale(1 1) rotate(0) translate(4 212)">
<title>Engine3D::Scene::render</title>
<!-- Node1 -->
<g id="Node000001" class="node">
<title>Node1</title>
<g id="a_Node000001"><a xlink:title="Effectue le rendu de la scène.">
<polygon fill="#999999" stroke="#666666" points="125.5,-111 0,-111 0,-91 125.5,-91 125.5,-111"/>
<text text-anchor="middle" x="62.75" y="-97.5" font-family="Helvetica,sans-Serif" font-size="10.00">Engine3D::Scene::render</text>
</a>
</g>
</g>
<!-- Node2 -->
<g id="Node000002" class="node">
<title>Node2</title>
<g id="a_Node000002"><a xlink:href="class_engine3_d_1_1_scene.html#a572a13e5c6c08eced30fc482cc9fdeee" target="_top" xlink:title="Vérifie si un triangle est visible.">
<polygon fill="white" stroke="#666666" points="302,-162 161.5,-162 161.5,-130 302,-130 302,-162"/>
<text text-anchor="start" x="169.5" y="-148.5" font-family="Helvetica,sans-Serif" font-size="10.00">Engine3D::Scene::isTriangle</text>
<text text-anchor="middle" x="231.75" y="-136.5" font-family="Helvetica,sans-Serif" font-size="10.00">Visible</text>
</a>
</g>
</g>
<!-- Node1&#45;&gt;Node2 -->
<g id="edge1_Node000001_Node000002" class="edge">
<title>Node1&#45;&gt;Node2</title>
<g id="a_edge1_Node000001_Node000002"><a xlink:title=" ">
<path fill="none" stroke="#63b8ff" d="M102.48,-111.44C119.23,-115.95 139.4,-121.38 158.73,-126.59"/>
<polygon fill="#63b8ff" stroke="#63b8ff" points="157.63,-129.92 168.2,-129.15 159.46,-123.16 157.63,-129.92"/>
</a>
</g>
</g>
<!-- Node9 -->
<g id="Node000009" class="node">
<title>Node9</title>
<g id="a_Node000009"><a xlink:href="class_engine3_d_1_1_scene.html#ac59015c65f655e7843507970be7178a4" target="_top" xlink:title="Projette un point 3D en point 2D.">
<polygon fill="white" stroke="#666666" points="295.62,-111 167.88,-111 167.88,-91 295.62,-91 295.62,-111"/>
<text text-anchor="middle" x="231.75" y="-97.5" font-family="Helvetica,sans-Serif" font-size="10.00">Engine3D::Scene::project</text>
</a>
</g>
</g>
<!-- Node1&#45;&gt;Node9 -->
<g id="edge10_Node000001_Node000009" class="edge">
<title>Node1&#45;&gt;Node9</title>
<g id="a_edge10_Node000001_Node000009"><a xlink:title=" ">
<path fill="none" stroke="#63b8ff" d="M125.93,-101C135.77,-101 146.03,-101 156.12,-101"/>
<polygon fill="#63b8ff" stroke="#63b8ff" points="155.89,-104.5 165.89,-101 155.89,-97.5 155.89,-104.5"/>
</a>
</g>
</g>
<!-- Node10 -->
<g id="Node000010" class="node">
<title>Node10</title>
<g id="a_Node000010"><a xlink:href="class_engine3_d_1_1_scene.html#ae4f80fe1878d214d93eddd483c7c9e9b" target="_top" xlink:title="Rasterise un triangle 2D.">
<polygon fill="white" stroke="#666666" points="299.75,-70 163.75,-70 163.75,-38 299.75,-38 299.75,-70"/>
<text text-anchor="start" x="171.75" y="-56.5" font-family="Helvetica,sans-Serif" font-size="10.00">Engine3D::Scene::rasterize</text>
<text text-anchor="middle" x="231.75" y="-44.5" font-family="Helvetica,sans-Serif" font-size="10.00">Triangle</text>
</a>
</g>
</g>
<!-- Node1&#45;&gt;Node10 -->
<g id="edge11_Node000001_Node000010" class="edge">
<title>Node1&#45;&gt;Node10</title>
<g id="a_edge11_Node000001_Node000010"><a xlink:title=" ">
<path fill="none" stroke="#63b8ff" d="M100.81,-90.57C118.57,-85.57 140.43,-79.42 161.13,-73.59"/>
<polygon fill="#63b8ff" stroke="#63b8ff" points="162.01,-76.98 170.69,-70.9 160.11,-70.24 162.01,-76.98"/>
</a>
</g>
</g>
<!-- Node3 -->
<g id="Node000003" class="node">
<title>Node3</title>
<g id="a_Node000003"><a xlink:href="class_engine3_d_1_1_triangle3d.html#ac8467f3fbeb5ebd572c5b86dc8e5efba" target="_top" xlink:title="Calcule le centre du triangle.">
<polygon fill="white" stroke="#666666" points="463.12,-208 353.38,-208 353.38,-176 463.12,-176 463.12,-208"/>
<text text-anchor="start" x="361.38" y="-194.5" font-family="Helvetica,sans-Serif" font-size="10.00">Engine3D::Triangle3d</text>
<text text-anchor="middle" x="408.25" y="-182.5" font-family="Helvetica,sans-Serif" font-size="10.00">::center</text>
</a>
</g>
</g>
<!-- Node2&#45;&gt;Node3 -->
<g id="edge2_Node000002_Node000003" class="edge">
<title>Node2&#45;&gt;Node3</title>
<g id="a_edge2_Node000002_Node000003"><a xlink:title=" ">
<path fill="none" stroke="#63b8ff" d="M295.26,-162.48C310.44,-166.48 326.72,-170.77 342.03,-174.81"/>
<polygon fill="#63b8ff" stroke="#63b8ff" points="340.95,-178.14 351.52,-177.31 342.74,-171.37 340.95,-178.14"/>
</a>
</g>
</g>
<!-- Node4 -->
<g id="Node000004" class="node">
<title>Node4</title>
<g id="a_Node000004"><a xlink:href="class_engine3_d_1_1_point3d.html#ae2fe7656b9388965fb9e890a89b28dcb" target="_top" xlink:title="Produit scalaire.">
<polygon fill="white" stroke="#666666" points="651.62,-158 534.38,-158 534.38,-138 651.62,-138 651.62,-158"/>
<text text-anchor="middle" x="593" y="-144.5" font-family="Helvetica,sans-Serif" font-size="10.00">Engine3D::Point3d::dot</text>
</a>
</g>
</g>
<!-- Node2&#45;&gt;Node4 -->
<g id="edge3_Node000002_Node000004" class="edge">
<title>Node2&#45;&gt;Node4</title>
<g id="a_edge3_Node000002_Node000004"><a xlink:title=" ">
<path fill="none" stroke="#63b8ff" d="M302.44,-146.39C365.93,-146.74 459.18,-147.26 522.58,-147.61"/>
<polygon fill="#63b8ff" stroke="#63b8ff" points="522.53,-151.11 532.55,-147.67 522.57,-144.11 522.53,-151.11"/>
</a>
</g>
</g>
<!-- Node6 -->
<g id="Node000006" class="node">
<title>Node6</title>
<g id="a_Node000006"><a xlink:href="class_engine3_d_1_1_triangle3d.html#a36a10c8fdb5ead425abf77d7bd3ec6d4" target="_top" xlink:title="Calcule la normale du triangle.">
<polygon fill="white" stroke="#666666" points="463.12,-120 353.38,-120 353.38,-88 463.12,-88 463.12,-120"/>
<text text-anchor="start" x="361.38" y="-106.5" font-family="Helvetica,sans-Serif" font-size="10.00">Engine3D::Triangle3d</text>
<text text-anchor="middle" x="408.25" y="-94.5" font-family="Helvetica,sans-Serif" font-size="10.00">::normal</text>
</a>
</g>
</g>
<!-- Node2&#45;&gt;Node6 -->
<g id="edge5_Node000002_Node000006" class="edge">
<title>Node2&#45;&gt;Node6</title>
<g id="a_edge5_Node000002_Node000006"><a xlink:title=" ">
<path fill="none" stroke="#63b8ff" d="M301.22,-129.52C314.64,-126.29 328.69,-122.91 342.01,-119.7"/>
<polygon fill="#63b8ff" stroke="#63b8ff" points="342.62,-123.16 351.53,-117.41 340.98,-116.35 342.62,-123.16"/>
</a>
</g>
</g>
<!-- Node5 -->
<g id="Node000005" class="node">
<title>Node5</title>
<g id="a_Node000005"><a xlink:href="class_engine3_d_1_1_point3d.html#a0fe8b9187cff415e2e11cc0043bbedb6" target="_top" xlink:title="Constructeur par défaut.">
<polygon fill="white" stroke="#666666" points="811.25,-120 707.5,-120 707.5,-88 811.25,-88 811.25,-120"/>
<text text-anchor="start" x="715.5" y="-106.5" font-family="Helvetica,sans-Serif" font-size="10.00">Engine3D::Point3d::</text>
<text text-anchor="middle" x="759.38" y="-94.5" font-family="Helvetica,sans-Serif" font-size="10.00">Point3d</text>
</a>
</g>
</g>
<!-- Node4&#45;&gt;Node5 -->
<g id="edge4_Node000004_Node000005" class="edge">
<title>Node4&#45;&gt;Node5</title>
<g id="a_edge4_Node000004_Node000005"><a xlink:title=" ">
<path fill="none" stroke="#63b8ff" d="M637.93,-137.55C648.92,-134.85 660.66,-131.89 671.5,-129 679.51,-126.87 687.92,-124.55 696.22,-122.21"/>
<polygon fill="#63b8ff" stroke="#63b8ff" points="696.9,-125.66 705.56,-119.56 694.99,-118.92 696.9,-125.66"/>
</a>
</g>
</g>
<!-- Node7 -->
<g id="Node000007" class="node">
<title>Node7</title>
<g id="a_Node000007"><a xlink:href="class_engine3_d_1_1_point3d.html#a5bda2a757a3d5c95fa931087c7b21ae6" target="_top" xlink:title="Produit vectoriel.">
<polygon fill="white" stroke="#666666" points="644.88,-120 541.12,-120 541.12,-88 644.88,-88 644.88,-120"/>
<text text-anchor="start" x="549.12" y="-106.5" font-family="Helvetica,sans-Serif" font-size="10.00">Engine3D::Point3d::</text>
<text text-anchor="middle" x="593" y="-94.5" font-family="Helvetica,sans-Serif" font-size="10.00">cross</text>
</a>
</g>
</g>
<!-- Node6&#45;&gt;Node7 -->
<g id="edge6_Node000006_Node000007" class="edge">
<title>Node6&#45;&gt;Node7</title>
<g id="a_edge6_Node000006_Node000007"><a xlink:title=" ">
<path fill="none" stroke="#63b8ff" d="M463.59,-104C484.28,-104 508.02,-104 529.41,-104"/>
<polygon fill="#63b8ff" stroke="#63b8ff" points="529.18,-107.5 539.18,-104 529.18,-100.5 529.18,-107.5"/>
</a>
</g>
</g>
<!-- Node8 -->
<g id="Node000008" class="node">
<title>Node8</title>
<g id="a_Node000008"><a xlink:href="class_engine3_d_1_1_point3d.html#a47b11f8208e5c25f2d5f04c49cd10bd4" target="_top" xlink:title="Normalise le vecteur.">
<polygon fill="white" stroke="#666666" points="644.88,-70 541.12,-70 541.12,-38 644.88,-38 644.88,-70"/>
<text text-anchor="start" x="549.12" y="-56.5" font-family="Helvetica,sans-Serif" font-size="10.00">Engine3D::Point3d::</text>
<text text-anchor="middle" x="593" y="-44.5" font-family="Helvetica,sans-Serif" font-size="10.00">normalize</text>
</a>
</g>
</g>
<!-- Node6&#45;&gt;Node8 -->
<g id="edge8_Node000006_Node000008" class="edge">
<title>Node6&#45;&gt;Node8</title>
<g id="a_edge8_Node000006_Node000008"><a xlink:title=" ">
<path fill="none" stroke="#63b8ff" d="M463.59,-89.13C484.37,-83.45 508.24,-76.92 529.71,-71.04"/>
<polygon fill="#63b8ff" stroke="#63b8ff" points="530.51,-74.45 539.23,-68.44 528.66,-67.7 530.51,-74.45"/>
</a>
</g>
</g>
<!-- Node7&#45;&gt;Node5 -->
<g id="edge7_Node000007_Node000005" class="edge">
<title>Node7&#45;&gt;Node5</title>
<g id="a_edge7_Node000007_Node000005"><a xlink:title=" ">
<path fill="none" stroke="#63b8ff" d="M645.11,-104C661.11,-104 678.96,-104 695.67,-104"/>
<polygon fill="#63b8ff" stroke="#63b8ff" points="695.5,-107.5 705.5,-104 695.5,-100.5 695.5,-107.5"/>
</a>
</g>
</g>
<!-- Node8&#45;&gt;Node5 -->
<g id="edge9_Node000008_Node000005" class="edge">
<title>Node8&#45;&gt;Node5</title>
<g id="a_edge9_Node000008_Node000005"><a xlink:title=" ">
<path fill="none" stroke="#63b8ff" d="M645.11,-69.55C661.27,-74.46 679.3,-79.95 696.15,-85.07"/>
<polygon fill="#63b8ff" stroke="#63b8ff" points="694.98,-88.38 705.57,-87.94 697.02,-81.68 694.98,-88.38"/>
</a>
</g>
</g>
<!-- Node11 -->
<g id="Node000011" class="node">
<title>Node11</title>
<g id="a_Node000011"><a xlink:href="class_engine3_d_1_1_scene.html#a8837c73c8733a95bc50118d1aded5155" target="_top" xlink:title="Rasterise la partie plate du triangle (haut ou bas).">
<polygon fill="white" stroke="#666666" points="470.62,-70 345.88,-70 345.88,-38 470.62,-38 470.62,-70"/>
<text text-anchor="start" x="353.88" y="-56.5" font-family="Helvetica,sans-Serif" font-size="10.00">Engine3D::Scene::fillFlat</text>
<text text-anchor="middle" x="408.25" y="-44.5" font-family="Helvetica,sans-Serif" font-size="10.00">Bottom</text>
</a>
</g>
</g>
<!-- Node10&#45;&gt;Node11 -->
<g id="edge12_Node000010_Node000011" class="edge">
<title>Node10&#45;&gt;Node11</title>
<g id="a_edge12_Node000010_Node000011"><a xlink:title=" ">
<path fill="none" stroke="#63b8ff" d="M300.22,-54C311.25,-54 322.73,-54 333.89,-54"/>
<polygon fill="#63b8ff" stroke="#63b8ff" points="333.87,-57.5 343.87,-54 333.87,-50.5 333.87,-57.5"/>
</a>
</g>
</g>
<!-- Node13 -->
<g id="Node000013" class="node">
<title>Node13</title>
<g id="a_Node000013"><a xlink:href="class_engine3_d_1_1_scene.html#a817b9c0fd5988cb4867e3c73773b2584" target="_top" xlink:title="Rasterise la partie plate supérieure du triangle.">
<polygon fill="white" stroke="#666666" points="478.5,-20 338,-20 338,0 478.5,0 478.5,-20"/>
<text text-anchor="middle" x="408.25" y="-6.5" font-family="Helvetica,sans-Serif" font-size="10.00">Engine3D::Scene::fillFlatTop</text>
</a>
</g>
</g>
<!-- Node10&#45;&gt;Node13 -->
<g id="edge14_Node000010_Node000013" class="edge">
<title>Node10&#45;&gt;Node13</title>
<g id="a_edge14_Node000010_Node000013"><a xlink:title=" ">
<path fill="none" stroke="#63b8ff" d="M297.73,-37.62C316.5,-32.88 336.74,-27.78 354.65,-23.26"/>
<polygon fill="#63b8ff" stroke="#63b8ff" points="355.45,-26.67 364.29,-20.83 353.74,-19.88 355.45,-26.67"/>
</a>
</g>
</g>
<!-- Node12 -->
<g id="Node000012" class="node">
<title>Node12</title>
<g id="a_Node000012"><a xlink:href="class_engine3_d_1_1_scene.html#a68735735b2e868f144acdb359c153025" target="_top" xlink:title="Dessine une ligne horizontale du triangle via technique scanline.">
<polygon fill="white" stroke="#666666" points="671.5,-20 514.5,-20 514.5,0 671.5,0 671.5,-20"/>
<text text-anchor="middle" x="593" y="-6.5" font-family="Helvetica,sans-Serif" font-size="10.00">Engine3D::Scene::drawScanline</text>
</a>
</g>
</g>
<!-- Node11&#45;&gt;Node12 -->
<g id="edge13_Node000011_Node000012" class="edge">
<title>Node11&#45;&gt;Node12</title>
<g id="a_edge13_Node000011_Node000012"><a xlink:title=" ">
<path fill="none" stroke="#63b8ff" d="M471.12,-39.1C492.71,-33.9 516.77,-28.11 537.7,-23.07"/>
<polygon fill="#63b8ff" stroke="#63b8ff" points="538.27,-26.54 547.18,-20.79 536.63,-19.73 538.27,-26.54"/>
</a>
</g>
</g>
<!-- Node13&#45;&gt;Node12 -->
<g id="edge15_Node000013_Node000012" class="edge">
<title>Node13&#45;&gt;Node12</title>
<g id="a_edge15_Node000013_Node000012"><a xlink:title=" ">
<path fill="none" stroke="#63b8ff" d="M478.86,-10C486.68,-10 494.72,-10 502.74,-10"/>
<polygon fill="#63b8ff" stroke="#63b8ff" points="502.52,-13.5 512.52,-10 502.52,-6.5 502.52,-13.5"/>
</a>
</g>
</g>
</g>
</svg>
