<?xml version="1.0" encoding="UTF-8" standalone="no"?>
<!DOCTYPE svg PUBLIC "-//W3C//DTD SVG 1.1//EN"
 "http://www.w3.org/Graphics/SVG/1.1/DTD/svg11.dtd">
<!-- Generated by graphviz version 12.2.1 (0)
 -->
<!-- Title: Engine3D::Camera Pages: 1 -->
<svg width="180pt" height="512pt"
 viewBox="0.00 0.00 179.50 512.00" xmlns="http://www.w3.org/2000/svg" xmlns:xlink="http://www.w3.org/1999/xlink">
<g id="graph0" class="graph" transform="scale(1 1) rotate(0) translate(4 508)">
<title>Engine3D::Camera</title>
<!-- Node1 -->
<g id="Node000001" class="node">
<title>Node1</title>
<g id="a_Node000001"><a xlink:title="Représente la caméra (œil) dans la scène.">
<polygon fill="#999999" stroke="none" points="91.25,-116 0,-116 0,0 91.25,0 91.25,-116"/>
<text text-anchor="start" x="4" y="-102.5" font-family="Helvetica,sans-Serif" font-size="10.00">Engine3D::Camera</text>
<text text-anchor="start" x="44.12" y="-86.5" font-family="Helvetica,sans-Serif" font-size="10.00"> </text>
<text text-anchor="start" x="6" y="-70.5" font-family="Helvetica,sans-Serif" font-size="10.00">+</text>
<text text-anchor="start" x="18" y="-70.5" font-family="Helvetica,sans-Serif" font-size="10.00">Camera()</text>
<text text-anchor="start" x="6" y="-54.5" font-family="Helvetica,sans-Serif" font-size="10.00">+</text>
<text text-anchor="start" x="18" y="-54.5" font-family="Helvetica,sans-Serif" font-size="10.00">moveForward()</text>
<text text-anchor="start" x="6" y="-38.5" font-family="Helvetica,sans-Serif" font-size="10.00">+</text>
<text text-anchor="start" x="18" y="-38.5" font-family="Helvetica,sans-Serif" font-size="10.00">moveRight()</text>
<text text-anchor="start" x="6" y="-22.5" font-family="Helvetica,sans-Serif" font-size="10.00">+</text>
<text text-anchor="start" x="18" y="-22.5" font-family="Helvetica,sans-Serif" font-size="10.00">moveLeft()</text>
<text text-anchor="start" x="6" y="-6.5" font-family="Helvetica,sans-Serif" font-size="10.00">+</text>
<text text-anchor="start" x="18" y="-6.5" font-family="Helvetica,sans-Serif" font-size="10.00">moveUp()</text>
<polygon fill="#666666" stroke="#666666" points="0,-98 0,-98 91.25,-98 91.25,-98 0,-98"/>
<polygon fill="#666666" stroke="#666666" points="0,-82 0,-82 91.25,-82 91.25,-82 0,-82"/>
<polygon fill="none" stroke="#666666" points="0,0 0,-116 91.25,-116 91.25,0 0,0"/>
</a>
</g>
</g>
<!-- Node2 -->
<g id="Node000002" class="node">
<title>Node2</title>
<g id="a_Node000002"><a xlink:href="class_engine3_d_1_1_point3d.html" target="_top" xlink:title="Représente un point dans l&#39;espace 3D.">
<polygon fill="white" stroke="none" points="171.5,-366 81.75,-366 81.75,-202 171.5,-202 171.5,-366"/>
<text text-anchor="start" x="85.75" y="-352.5" font-family="Helvetica,sans-Serif" font-size="10.00">Engine3D::Point3d</text>
<text text-anchor="start" x="125.12" y="-336.5" font-family="Helvetica,sans-Serif" font-size="10.00"> </text>
<text text-anchor="start" x="91.69" y="-320.5" font-family="Helvetica,sans-Serif" font-size="10.00">+</text>
<text text-anchor="start" x="107.62" y="-320.5" font-family="Helvetica,sans-Serif" font-size="10.00">Point3d()</text>
<text text-anchor="start" x="91.69" y="-304.5" font-family="Helvetica,sans-Serif" font-size="10.00">+</text>
<text text-anchor="start" x="107.62" y="-304.5" font-family="Helvetica,sans-Serif" font-size="10.00">Point3d()</text>
<text text-anchor="start" x="91.69" y="-288.5" font-family="Helvetica,sans-Serif" font-size="10.00">+</text>
<text text-anchor="start" x="107.62" y="-288.5" font-family="Helvetica,sans-Serif" font-size="10.00">operator&#45;()</text>
<text text-anchor="start" x="91.69" y="-272.5" font-family="Helvetica,sans-Serif" font-size="10.00">+</text>
<text text-anchor="start" x="107.62" y="-272.5" font-family="Helvetica,sans-Serif" font-size="10.00">operator+()</text>
<text text-anchor="start" x="91.69" y="-256.5" font-family="Helvetica,sans-Serif" font-size="10.00">+</text>
<text text-anchor="start" x="107.62" y="-256.5" font-family="Helvetica,sans-Serif" font-size="10.00">operator*()</text>
<text text-anchor="start" x="91.69" y="-240.5" font-family="Helvetica,sans-Serif" font-size="10.00">+</text>
<text text-anchor="start" x="107.62" y="-240.5" font-family="Helvetica,sans-Serif" font-size="10.00">cross()</text>
<text text-anchor="start" x="91.69" y="-224.5" font-family="Helvetica,sans-Serif" font-size="10.00">+</text>
<text text-anchor="start" x="107.62" y="-224.5" font-family="Helvetica,sans-Serif" font-size="10.00">dot()</text>
<text text-anchor="start" x="91.69" y="-208.5" font-family="Helvetica,sans-Serif" font-size="10.00">+</text>
<text text-anchor="start" x="107.62" y="-208.5" font-family="Helvetica,sans-Serif" font-size="10.00">normalize()</text>
<polygon fill="#666666" stroke="#666666" points="81.75,-348 81.75,-348 171.5,-348 171.5,-348 81.75,-348"/>
<polygon fill="#666666" stroke="#666666" points="81.75,-332 81.75,-332 171.5,-332 171.5,-332 81.75,-332"/>
<polygon fill="none" stroke="#666666" points="81.75,-202 81.75,-366 171.5,-366 171.5,-202 81.75,-202"/>
</a>
</g>
</g>
<!-- Node2&#45;&gt;Node1 -->
<g id="edge1_Node000001_Node000002" class="edge">
<title>Node2&#45;&gt;Node1</title>
<g id="a_edge1_Node000001_Node000002"><a xlink:title=" ">
<path fill="none" stroke="#63b8ff" d="M97.38,-202.13C88.58,-177.8 79.02,-151.34 70.53,-127.86"/>
<polygon fill="none" stroke="#63b8ff" points="70.58,-128.02 64.78,-123.74 66.5,-116.73 72.3,-121.02 70.58,-128.02"/>
</a>
</g>
<text text-anchor="start" x="91.55" y="-171.5" font-family="Helvetica,sans-Serif" font-size="10.00" fill="grey">+direction</text>
<text text-anchor="start" x="91.55" y="-155.5" font-family="Helvetica,sans-Serif" font-size="10.00" fill="grey">+position</text>
<text text-anchor="start" x="91.55" y="-139.5" font-family="Helvetica,sans-Serif" font-size="10.00" fill="grey">+up</text>
</g>
<!-- Node3 -->
<g id="Node000003" class="node">
<title>Node3</title>
<g id="a_Node000003"><a xlink:title=" ">
<polygon fill="white" stroke="none" points="38,-504 11.25,-504 11.25,-452 38,-452 38,-504"/>
<text text-anchor="start" x="15.25" y="-490.5" font-family="Helvetica,sans-Serif" font-size="10.00">float</text>
<text text-anchor="start" x="23.12" y="-474.5" font-family="Helvetica,sans-Serif" font-size="10.00"> </text>
<text text-anchor="start" x="23.12" y="-458.5" font-family="Helvetica,sans-Serif" font-size="10.00"> </text>
<polygon fill="#666666" stroke="#666666" points="11.25,-486 11.25,-486 38,-486 38,-486 11.25,-486"/>
<polygon fill="#666666" stroke="#666666" points="11.25,-470 11.25,-470 38,-470 38,-470 11.25,-470"/>
<polygon fill="none" stroke="#666666" points="11.25,-452 11.25,-504 38,-504 38,-452 11.25,-452"/>
</a>
</g>
</g>
<!-- Node3&#45;&gt;Node1 -->
<g id="edge3_Node000001_Node000003" class="edge">
<title>Node3&#45;&gt;Node1</title>
<g id="a_edge3_Node000001_Node000003"><a xlink:title=" ">
<path fill="none" stroke="#63b8ff" d="M22.48,-452.34C20.64,-429.86 18.13,-395.73 17.12,-366 14.67,-293.15 9.97,-274.54 17.12,-202 19.52,-177.77 24.13,-151.56 28.97,-128.28"/>
<polygon fill="none" stroke="#63b8ff" points="28.96,-128.29 26.31,-121.59 31.47,-116.56 34.13,-123.26 28.96,-128.29"/>
</a>
</g>
<text text-anchor="start" x="20.12" y="-288.5" font-family="Helvetica,sans-Serif" font-size="10.00" fill="grey">+fov</text>
<text text-anchor="start" x="20.12" y="-272.5" font-family="Helvetica,sans-Serif" font-size="10.00" fill="grey">+nearPlane</text>
</g>
<!-- Node3&#45;&gt;Node2 -->
<g id="edge2_Node000002_Node000003" class="edge">
<title>Node3&#45;&gt;Node2</title>
<g id="a_edge2_Node000002_Node000003"><a xlink:title=" ">
<path fill="none" stroke="#63b8ff" d="M37.75,-452.29C48.01,-432.98 62.96,-404.84 77.68,-377.13"/>
<polygon fill="none" stroke="#63b8ff" points="77.69,-377.12 76.97,-369.94 83.32,-366.52 84.03,-373.7 77.69,-377.12"/>
</a>
</g>
<text text-anchor="start" x="75.57" y="-421.5" font-family="Helvetica,sans-Serif" font-size="10.00" fill="grey">+x</text>
<text text-anchor="start" x="75.57" y="-405.5" font-family="Helvetica,sans-Serif" font-size="10.00" fill="grey">+y</text>
<text text-anchor="start" x="75.57" y="-389.5" font-family="Helvetica,sans-Serif" font-size="10.00" fill="grey">+z</text>
</g>
</g>
</svg>
