<?xml version="1.0" encoding="UTF-8" standalone="no"?>
<!DOCTYPE svg PUBLIC "-//W3C//DTD SVG 1.1//EN"
 "http://www.w3.org/Graphics/SVG/1.1/DTD/svg11.dtd">
<!-- Generated by graphviz version 12.2.1 (0)
 -->
<!-- Title: Engine3D::Triangle2d Pages: 1 -->
<svg width="110pt" height="352pt"
 viewBox="0.00 0.00 109.75 352.00" xmlns="http://www.w3.org/2000/svg" xmlns:xlink="http://www.w3.org/1999/xlink">
<g id="graph0" class="graph" transform="scale(1 1) rotate(0) translate(4 348)">
<title>Engine3D::Triangle2d</title>
<!-- Node1 -->
<g id="Node000001" class="node">
<title>Node1</title>
<g id="a_Node000001"><a xlink:title="Triangle projeté sur l&#39;écran 2D.">
<polygon fill="#999999" stroke="none" points="101.75,-68 0,-68 0,0 101.75,0 101.75,-68"/>
<text text-anchor="start" x="4" y="-54.5" font-family="Helvetica,sans-Serif" font-size="10.00">Engine3D::Triangle2d</text>
<text text-anchor="start" x="49.38" y="-38.5" font-family="Helvetica,sans-Serif" font-size="10.00"> </text>
<text text-anchor="start" x="12.19" y="-22.5" font-family="Helvetica,sans-Serif" font-size="10.00">+</text>
<text text-anchor="start" x="30.38" y="-22.5" font-family="Helvetica,sans-Serif" font-size="10.00">Triangle2d()</text>
<text text-anchor="start" x="12.19" y="-6.5" font-family="Helvetica,sans-Serif" font-size="10.00">+</text>
<text text-anchor="start" x="30.38" y="-6.5" font-family="Helvetica,sans-Serif" font-size="10.00">Triangle2d()</text>
<polygon fill="#666666" stroke="#666666" points="0,-50 0,-50 101.75,-50 101.75,-50 0,-50"/>
<polygon fill="#666666" stroke="#666666" points="0,-34 0,-34 101.75,-34 101.75,-34 0,-34"/>
<polygon fill="none" stroke="#666666" points="0,0 0,-68 101.75,-68 101.75,0 0,0"/>
</a>
</g>
</g>
<!-- Node2 -->
<g id="Node000002" class="node">
<title>Node2</title>
<g id="a_Node000002"><a xlink:href="class_engine3_d_1_1_point2d.html" target="_top" xlink:title="Représente un point sur l&#39;écran 2D.">
<polygon fill="white" stroke="none" points="95.75,-222 6,-222 6,-154 95.75,-154 95.75,-222"/>
<text text-anchor="start" x="10" y="-208.5" font-family="Helvetica,sans-Serif" font-size="10.00">Engine3D::Point2d</text>
<text text-anchor="start" x="49.38" y="-192.5" font-family="Helvetica,sans-Serif" font-size="10.00"> </text>
<text text-anchor="start" x="18.19" y="-176.5" font-family="Helvetica,sans-Serif" font-size="10.00">+</text>
<text text-anchor="start" x="36.38" y="-176.5" font-family="Helvetica,sans-Serif" font-size="10.00">Point2d()</text>
<text text-anchor="start" x="18.19" y="-160.5" font-family="Helvetica,sans-Serif" font-size="10.00">+</text>
<text text-anchor="start" x="36.38" y="-160.5" font-family="Helvetica,sans-Serif" font-size="10.00">Point2d()</text>
<polygon fill="#666666" stroke="#666666" points="6,-204 6,-204 95.75,-204 95.75,-204 6,-204"/>
<polygon fill="#666666" stroke="#666666" points="6,-188 6,-188 95.75,-188 95.75,-188 6,-188"/>
<polygon fill="none" stroke="#666666" points="6,-154 6,-222 95.75,-222 95.75,-154 6,-154"/>
</a>
</g>
</g>
<!-- Node2&#45;&gt;Node1 -->
<g id="edge1_Node000001_Node000002" class="edge">
<title>Node2&#45;&gt;Node1</title>
<g id="a_edge1_Node000001_Node000002"><a xlink:title=" ">
<path fill="none" stroke="#63b8ff" d="M50.88,-154.02C50.88,-132.61 50.88,-104.4 50.88,-80.82"/>
<polygon fill="none" stroke="#63b8ff" points="50.88,-80.82 46.88,-74.82 50.88,-68.82 54.88,-74.82 50.88,-80.82"/>
</a>
</g>
<text text-anchor="start" x="53.88" y="-123.5" font-family="Helvetica,sans-Serif" font-size="10.00" fill="grey">+p1</text>
<text text-anchor="start" x="53.88" y="-107.5" font-family="Helvetica,sans-Serif" font-size="10.00" fill="grey">+p2</text>
<text text-anchor="start" x="53.88" y="-91.5" font-family="Helvetica,sans-Serif" font-size="10.00" fill="grey">+p3</text>
</g>
<!-- Node3 -->
<g id="Node000003" class="node">
<title>Node3</title>
<g id="a_Node000003"><a xlink:title=" ">
<polygon fill="white" stroke="none" points="40.12,-344 21.62,-344 21.62,-292 40.12,-292 40.12,-344"/>
<text text-anchor="start" x="25.62" y="-330.5" font-family="Helvetica,sans-Serif" font-size="10.00">int</text>
<text text-anchor="start" x="29.38" y="-314.5" font-family="Helvetica,sans-Serif" font-size="10.00"> </text>
<text text-anchor="start" x="29.38" y="-298.5" font-family="Helvetica,sans-Serif" font-size="10.00"> </text>
<polygon fill="#666666" stroke="#666666" points="21.62,-326 21.62,-326 40.12,-326 40.12,-326 21.62,-326"/>
<polygon fill="#666666" stroke="#666666" points="21.62,-310 21.62,-310 40.12,-310 40.12,-310 21.62,-310"/>
<polygon fill="none" stroke="#666666" points="21.62,-292 21.62,-344 40.12,-344 40.12,-292 21.62,-292"/>
</a>
</g>
</g>
<!-- Node3&#45;&gt;Node2 -->
<g id="edge2_Node000002_Node000003" class="edge">
<title>Node3&#45;&gt;Node2</title>
<g id="a_edge2_Node000002_Node000003"><a xlink:title=" ">
<path fill="none" stroke="#63b8ff" d="M29.44,-292.17C29.05,-276.98 29.43,-257.22 32.62,-240 32.97,-238.12 33.38,-236.22 33.84,-234.31"/>
<polygon fill="none" stroke="#63b8ff" points="33.88,-234.17 31.68,-227.31 37.17,-222.64 39.37,-229.5 33.88,-234.17"/>
</a>
</g>
<text text-anchor="start" x="35.62" y="-261.5" font-family="Helvetica,sans-Serif" font-size="10.00" fill="grey">+x</text>
<text text-anchor="start" x="35.62" y="-245.5" font-family="Helvetica,sans-Serif" font-size="10.00" fill="grey">+y</text>
</g>
<!-- Node4 -->
<g id="Node000004" class="node">
<title>Node4</title>
<g id="a_Node000004"><a xlink:title=" ">
<polygon fill="white" stroke="none" points="85.25,-344 58.5,-344 58.5,-292 85.25,-292 85.25,-344"/>
<text text-anchor="start" x="62.5" y="-330.5" font-family="Helvetica,sans-Serif" font-size="10.00">float</text>
<text text-anchor="start" x="70.38" y="-314.5" font-family="Helvetica,sans-Serif" font-size="10.00"> </text>
<text text-anchor="start" x="70.38" y="-298.5" font-family="Helvetica,sans-Serif" font-size="10.00"> </text>
<polygon fill="#666666" stroke="#666666" points="58.5,-326 58.5,-326 85.25,-326 85.25,-326 58.5,-326"/>
<polygon fill="#666666" stroke="#666666" points="58.5,-310 58.5,-310 85.25,-310 85.25,-310 58.5,-310"/>
<polygon fill="none" stroke="#666666" points="58.5,-292 58.5,-344 85.25,-344 85.25,-292 58.5,-292"/>
</a>
</g>
</g>
<!-- Node4&#45;&gt;Node2 -->
<g id="edge3_Node000002_Node000004" class="edge">
<title>Node4&#45;&gt;Node2</title>
<g id="a_edge3_Node000002_Node000004"><a xlink:title=" ">
<path fill="none" stroke="#63b8ff" d="M67.78,-292.02C65.09,-275.62 61.49,-253.71 58.31,-234.3"/>
<polygon fill="none" stroke="#63b8ff" points="58.33,-234.42 53.41,-229.14 56.38,-222.57 61.3,-227.85 58.33,-234.42"/>
</a>
</g>
<text text-anchor="start" x="67.48" y="-253.5" font-family="Helvetica,sans-Serif" font-size="10.00" fill="grey">+z</text>
</g>
</g>
</svg>
