<?xml version="1.0" encoding="UTF-8" standalone="no"?>
<!DOCTYPE svg PUBLIC "-//W3C//DTD SVG 1.1//EN"
 "http://www.w3.org/Graphics/SVG/1.1/DTD/svg11.dtd">
<!-- Generated by graphviz version 12.2.1 (0)
 -->
<!-- Title: Engine3D::Sdl Pages: 1 -->
<svg width="481pt" height="294pt"
 viewBox="0.00 0.00 480.76 294.00" xmlns="http://www.w3.org/2000/svg" xmlns:xlink="http://www.w3.org/1999/xlink">
<g id="graph0" class="graph" transform="scale(1 1) rotate(0) translate(4 290)">
<title>Engine3D::Sdl</title>
<!-- Node1 -->
<g id="Node000001" class="node">
<title>Node1</title>
<g id="a_Node000001"><a xlink:title="Classe contenant les fonctionnalités SDL pour le rendu graphique.">
<polygon fill="#999999" stroke="none" points="292.88,-164 221.88,-164 221.88,0 292.88,0 292.88,-164"/>
<text text-anchor="start" x="225.88" y="-150.5" font-family="Helvetica,sans-Serif" font-size="10.00">Engine3D::Sdl</text>
<text text-anchor="start" x="255.88" y="-134.5" font-family="Helvetica,sans-Serif" font-size="10.00"> </text>
<text text-anchor="start" x="227.12" y="-118.5" font-family="Helvetica,sans-Serif" font-size="10.00">+</text>
<text text-anchor="start" x="238.38" y="-118.5" font-family="Helvetica,sans-Serif" font-size="10.00">Sdl()</text>
<text text-anchor="start" x="227.12" y="-102.5" font-family="Helvetica,sans-Serif" font-size="10.00">+</text>
<text text-anchor="start" x="238.38" y="-102.5" font-family="Helvetica,sans-Serif" font-size="10.00">~Sdl()</text>
<text text-anchor="start" x="227.12" y="-86.5" font-family="Helvetica,sans-Serif" font-size="10.00">+</text>
<text text-anchor="start" x="238.38" y="-86.5" font-family="Helvetica,sans-Serif" font-size="10.00">clear()</text>
<text text-anchor="start" x="227.12" y="-70.5" font-family="Helvetica,sans-Serif" font-size="10.00">+</text>
<text text-anchor="start" x="238.38" y="-70.5" font-family="Helvetica,sans-Serif" font-size="10.00">setPixel()</text>
<text text-anchor="start" x="227.12" y="-54.5" font-family="Helvetica,sans-Serif" font-size="10.00">+</text>
<text text-anchor="start" x="238.38" y="-54.5" font-family="Helvetica,sans-Serif" font-size="10.00">present()</text>
<text text-anchor="start" x="227.12" y="-38.5" font-family="Helvetica,sans-Serif" font-size="10.00">+</text>
<text text-anchor="start" x="238.38" y="-38.5" font-family="Helvetica,sans-Serif" font-size="10.00">getWidth()</text>
<text text-anchor="start" x="227.12" y="-22.5" font-family="Helvetica,sans-Serif" font-size="10.00">+</text>
<text text-anchor="start" x="238.38" y="-22.5" font-family="Helvetica,sans-Serif" font-size="10.00">getHeight()</text>
<text text-anchor="start" x="227.12" y="-6.5" font-family="Helvetica,sans-Serif" font-size="10.00">+</text>
<text text-anchor="start" x="238.38" y="-6.5" font-family="Helvetica,sans-Serif" font-size="10.00">isValid()</text>
<polygon fill="#666666" stroke="#666666" points="221.88,-146 221.88,-146 292.88,-146 292.88,-146 221.88,-146"/>
<polygon fill="#666666" stroke="#666666" points="221.88,-130 221.88,-130 292.88,-130 292.88,-130 221.88,-130"/>
<polygon fill="none" stroke="#666666" points="221.88,0 221.88,-164 292.88,-164 292.88,0 221.88,0"/>
</a>
</g>
</g>
<!-- Node2 -->
<g id="Node000002" class="node">
<title>Node2</title>
<g id="a_Node000002"><a xlink:title=" ">
<polygon fill="white" stroke="none" points="74.75,-286 0,-286 0,-234 74.75,-234 74.75,-286"/>
<text text-anchor="start" x="4" y="-272.5" font-family="Helvetica,sans-Serif" font-size="10.00">SDL_Window *</text>
<text text-anchor="start" x="35.88" y="-256.5" font-family="Helvetica,sans-Serif" font-size="10.00"> </text>
<text text-anchor="start" x="35.88" y="-240.5" font-family="Helvetica,sans-Serif" font-size="10.00"> </text>
<polygon fill="#666666" stroke="#666666" points="0,-268 0,-268 74.75,-268 74.75,-268 0,-268"/>
<polygon fill="#666666" stroke="#666666" points="0,-252 0,-252 74.75,-252 74.75,-252 0,-252"/>
<polygon fill="none" stroke="#666666" points="0,-234 0,-286 74.75,-286 74.75,-234 0,-234"/>
</a>
</g>
</g>
<!-- Node2&#45;&gt;Node1 -->
<g id="edge1_Node000001_Node000002" class="edge">
<title>Node2&#45;&gt;Node1</title>
<g id="a_edge1_Node000001_Node000002"><a xlink:title=" ">
<path fill="none" stroke="#63b8ff" d="M58.11,-234.02C71.83,-218.23 90.69,-197.88 109.38,-182 141.23,-154.93 180.73,-128.84 210.91,-110.24"/>
<polygon fill="none" stroke="#63b8ff" points="210.96,-110.21 214,-103.67 221.21,-103.96 218.17,-110.5 210.96,-110.21"/>
</a>
</g>
<text text-anchor="start" x="112.38" y="-195.5" font-family="Helvetica,sans-Serif" font-size="10.00" fill="grey">&#45;window</text>
</g>
<!-- Node3 -->
<g id="Node000003" class="node">
<title>Node3</title>
<g id="a_Node000003"><a xlink:title=" ">
<polygon fill="white" stroke="none" points="172,-286 92.75,-286 92.75,-234 172,-234 172,-286"/>
<text text-anchor="start" x="96.75" y="-272.5" font-family="Helvetica,sans-Serif" font-size="10.00">SDL_Renderer *</text>
<text text-anchor="start" x="130.88" y="-256.5" font-family="Helvetica,sans-Serif" font-size="10.00"> </text>
<text text-anchor="start" x="130.88" y="-240.5" font-family="Helvetica,sans-Serif" font-size="10.00"> </text>
<polygon fill="#666666" stroke="#666666" points="92.75,-268 92.75,-268 172,-268 172,-268 92.75,-268"/>
<polygon fill="#666666" stroke="#666666" points="92.75,-252 92.75,-252 172,-252 172,-252 92.75,-252"/>
<polygon fill="none" stroke="#666666" points="92.75,-234 92.75,-286 172,-286 172,-234 92.75,-234"/>
</a>
</g>
</g>
<!-- Node3&#45;&gt;Node1 -->
<g id="edge2_Node000001_Node000003" class="edge">
<title>Node3&#45;&gt;Node1</title>
<g id="a_edge2_Node000001_Node000003"><a xlink:title=" ">
<path fill="none" stroke="#63b8ff" d="M145.14,-234.08C153.36,-218.68 164.63,-198.73 176.12,-182 187.59,-165.31 201.18,-147.97 213.93,-132.55"/>
<polygon fill="none" stroke="#63b8ff" points="213.87,-132.62 214.66,-125.45 221.58,-123.42 220.79,-130.58 213.87,-132.62"/>
</a>
</g>
<text text-anchor="start" x="179.12" y="-195.5" font-family="Helvetica,sans-Serif" font-size="10.00" fill="grey">&#45;renderer</text>
</g>
<!-- Node4 -->
<g id="Node000004" class="node">
<title>Node4</title>
<g id="a_Node000004"><a xlink:title=" ">
<polygon fill="white" stroke="none" points="262.25,-286 190.5,-286 190.5,-234 262.25,-234 262.25,-286"/>
<text text-anchor="start" x="194.5" y="-272.5" font-family="Helvetica,sans-Serif" font-size="10.00">SDL_Texture *</text>
<text text-anchor="start" x="224.88" y="-256.5" font-family="Helvetica,sans-Serif" font-size="10.00"> </text>
<text text-anchor="start" x="224.88" y="-240.5" font-family="Helvetica,sans-Serif" font-size="10.00"> </text>
<polygon fill="#666666" stroke="#666666" points="190.5,-268 190.5,-268 262.25,-268 262.25,-268 190.5,-268"/>
<polygon fill="#666666" stroke="#666666" points="190.5,-252 190.5,-252 262.25,-252 262.25,-252 190.5,-252"/>
<polygon fill="none" stroke="#666666" points="190.5,-234 190.5,-286 262.25,-286 262.25,-234 190.5,-234"/>
</a>
</g>
</g>
<!-- Node4&#45;&gt;Node1 -->
<g id="edge3_Node000001_Node000004" class="edge">
<title>Node4&#45;&gt;Node1</title>
<g id="a_edge3_Node000001_Node000004"><a xlink:title=" ">
<path fill="none" stroke="#63b8ff" d="M224.94,-234.23C224.5,-219.06 224.7,-199.31 227.38,-182 227.65,-180.23 227.95,-178.46 228.26,-176.67"/>
<polygon fill="none" stroke="#63b8ff" points="228.29,-176.53 225.57,-169.85 230.69,-164.77 233.41,-171.44 228.29,-176.53"/>
</a>
</g>
<text text-anchor="start" x="230.38" y="-195.5" font-family="Helvetica,sans-Serif" font-size="10.00" fill="grey">&#45;texture</text>
</g>
<!-- Node5 -->
<g id="Node000005" class="node">
<title>Node5</title>
<g id="a_Node000005"><a xlink:title=" ">
<polygon fill="white" stroke="none" points="330,-286 280.75,-286 280.75,-234 330,-234 330,-286"/>
<text text-anchor="start" x="284.75" y="-272.5" font-family="Helvetica,sans-Serif" font-size="10.00">uint32_t *</text>
<text text-anchor="start" x="303.88" y="-256.5" font-family="Helvetica,sans-Serif" font-size="10.00"> </text>
<text text-anchor="start" x="303.88" y="-240.5" font-family="Helvetica,sans-Serif" font-size="10.00"> </text>
<polygon fill="#666666" stroke="#666666" points="280.75,-268 280.75,-268 330,-268 330,-268 280.75,-268"/>
<polygon fill="#666666" stroke="#666666" points="280.75,-252 280.75,-252 330,-252 330,-252 280.75,-252"/>
<polygon fill="none" stroke="#666666" points="280.75,-234 280.75,-286 330,-286 330,-234 280.75,-234"/>
</a>
</g>
</g>
<!-- Node5&#45;&gt;Node1 -->
<g id="edge4_Node000001_Node000005" class="edge">
<title>Node5&#45;&gt;Node1</title>
<g id="a_edge4_Node000001_Node000005"><a xlink:title=" ">
<path fill="none" stroke="#63b8ff" d="M295.73,-234.15C293.59,-228.24 291.42,-221.93 289.62,-216 285.74,-203.21 282.01,-189.61 278.55,-176.18"/>
<polygon fill="none" stroke="#63b8ff" points="278.61,-176.43 273.26,-171.6 275.67,-164.8 281.02,-169.64 278.61,-176.43"/>
</a>
</g>
<text text-anchor="start" x="292.62" y="-195.5" font-family="Helvetica,sans-Serif" font-size="10.00" fill="grey">&#45;pixelBuffer</text>
</g>
<!-- Node6 -->
<g id="Node000006" class="node">
<title>Node6</title>
<g id="a_Node000006"><a xlink:title=" ">
<polygon fill="white" stroke="none" points="379.75,-286 353,-286 353,-234 379.75,-234 379.75,-286"/>
<text text-anchor="start" x="357" y="-272.5" font-family="Helvetica,sans-Serif" font-size="10.00">float</text>
<text text-anchor="start" x="364.88" y="-256.5" font-family="Helvetica,sans-Serif" font-size="10.00"> </text>
<text text-anchor="start" x="364.88" y="-240.5" font-family="Helvetica,sans-Serif" font-size="10.00"> </text>
<polygon fill="#666666" stroke="#666666" points="353,-268 353,-268 379.75,-268 379.75,-268 353,-268"/>
<polygon fill="#666666" stroke="#666666" points="353,-252 353,-252 379.75,-252 379.75,-252 353,-252"/>
<polygon fill="none" stroke="#666666" points="353,-234 353,-286 379.75,-286 379.75,-234 353,-234"/>
</a>
</g>
</g>
<!-- Node6&#45;&gt;Node1 -->
<g id="edge5_Node000001_Node000006" class="edge">
<title>Node6&#45;&gt;Node1</title>
<g id="a_edge5_Node000001_Node000006"><a xlink:title=" ">
<path fill="none" stroke="#63b8ff" d="M362.23,-234.35C358.91,-218.68 353.3,-198.35 344.38,-182 333.1,-161.35 316.85,-141.32 301.44,-124.74"/>
<polygon fill="none" stroke="#63b8ff" points="301.42,-124.72 294.38,-123.15 293.13,-116.05 300.16,-117.62 301.42,-124.72"/>
</a>
</g>
<text text-anchor="start" x="360.26" y="-195.5" font-family="Helvetica,sans-Serif" font-size="10.00" fill="grey">&#45;depthBuffer</text>
</g>
<!-- Node7 -->
<g id="Node000007" class="node">
<title>Node7</title>
<g id="a_Node000007"><a xlink:title=" ">
<polygon fill="white" stroke="none" points="457.62,-286 439.12,-286 439.12,-234 457.62,-234 457.62,-286"/>
<text text-anchor="start" x="443.12" y="-272.5" font-family="Helvetica,sans-Serif" font-size="10.00">int</text>
<text text-anchor="start" x="446.88" y="-256.5" font-family="Helvetica,sans-Serif" font-size="10.00"> </text>
<text text-anchor="start" x="446.88" y="-240.5" font-family="Helvetica,sans-Serif" font-size="10.00"> </text>
<polygon fill="#666666" stroke="#666666" points="439.12,-268 439.12,-268 457.62,-268 457.62,-268 439.12,-268"/>
<polygon fill="#666666" stroke="#666666" points="439.12,-252 439.12,-252 457.62,-252 457.62,-252 439.12,-252"/>
<polygon fill="none" stroke="#666666" points="439.12,-234 439.12,-286 457.62,-286 457.62,-234 439.12,-234"/>
</a>
</g>
</g>
<!-- Node7&#45;&gt;Node1 -->
<g id="edge6_Node000001_Node000007" class="edge">
<title>Node7&#45;&gt;Node1</title>
<g id="a_edge6_Node000001_Node000007"><a xlink:title=" ">
<path fill="none" stroke="#63b8ff" d="M443.49,-234.33C439.28,-218.07 431.85,-197.08 419.38,-182 388.7,-144.92 340.32,-117.94 304.41,-101.59"/>
<polygon fill="none" stroke="#63b8ff" points="304.56,-101.66 297.46,-102.9 293.58,-96.82 300.68,-95.58 304.56,-101.66"/>
</a>
</g>
<text text-anchor="start" x="440.51" y="-203.5" font-family="Helvetica,sans-Serif" font-size="10.00" fill="grey">&#45;height</text>
<text text-anchor="start" x="440.51" y="-187.5" font-family="Helvetica,sans-Serif" font-size="10.00" fill="grey">&#45;width</text>
</g>
</g>
</svg>
