<?xml version="1.0" encoding="UTF-8" standalone="no"?>
<!DOCTYPE svg PUBLIC "-//W3C//DTD SVG 1.1//EN"
 "http://www.w3.org/Graphics/SVG/1.1/DTD/svg11.dtd">
<!-- Generated by graphviz version 12.2.1 (0)
 -->
<!-- Title: Engine3D::Scene Pages: 1 -->
<!--zoomable 778 -->

<svg id="main" version="1.1" xmlns="http://www.w3.org/2000/svg" xmlns:xlink="http://www.w3.org/1999/xlink" xml:space="preserve" onload="init(evt)">

<style type="text/css"><![CDATA[
.node, .edge {opacity: 0.7;}
.node.selected, .edge.selected {opacity: 1;}
.edge:hover path { stroke: red; }
.edge:hover polygon { stroke: red; fill: red; }
]]></style>

<defs>
  <circle id="rim" cx="0" cy="0" r="7"/>
  <circle id="rim2" cx="0" cy="0" r="3.5"/>
  <g id="zoomPlus">
    <use xlink:href="#rim" fill="#404040"><set attributeName="fill" to="#808080" begin="zoomplus.mouseover" end="zoomplus.mouseout"/></use>
    <path d="M-4,0h8M0,-4v8" fill="none" stroke="white" stroke-width="1.5" pointer-events="none"/>
  </g>
  <g id="zoomMin">
    <use xlink:href="#rim" fill="#404040"><set attributeName="fill" to="#808080" begin="zoomminus.mouseover" end="zoomminus.mouseout"/></use>
    <path d="M-4,0h8" fill="none" stroke="white" stroke-width="1.5" pointer-events="none"/>
  </g>
  <g id="arrowUp" transform="translate(30 24)">
    <use xlink:href="#rim"/>
    <path pointer-events="none" fill="none" stroke="white" stroke-width="1.5" d="M0,-3.0v7 M-2.5,-0.5L0,-3.0L2.5,-0.5"/>
  </g>
  <g id="arrowRight" transform="rotate(90) translate(36 -43)">
    <use xlink:href="#rim"/>
    <path pointer-events="none" fill="none" stroke="white" stroke-width="1.5" d="M0,-3.0v7 M-2.5,-0.5L0,-3.0L2.5,-0.5"/>
  </g>
  <g id="arrowDown" transform="rotate(180) translate(-30 -48)">
    <use xlink:href="#rim"/>
    <path pointer-events="none" fill="none" stroke="white" stroke-width="1.5" d="M0,-3.0v7 M-2.5,-0.5L0,-3.0L2.5,-0.5"/>
  </g>
  <g id="arrowLeft" transform="rotate(270) translate(-36 17)">
    <use xlink:href="#rim"/>
    <path pointer-events="none" fill="none" stroke="white" stroke-width="1.5" d="M0,-3.0v7 M-2.5,-0.5L0,-3.0L2.5,-0.5"/>
  </g>
  <g id="resetDef">
    <use xlink:href="#rim2" fill="#404040"><set attributeName="fill" to="#808080" begin="reset.mouseover" end="reset.mouseout"/></use>
  </g>
</defs>
<script type="application/ecmascript">
var viewWidth = 687;
var viewHeight = 778;
var sectionId = 'dynsection-0';
</script>
<script type="application/ecmascript" xlink:href="svg.min.js"/>
<svg id="graph" class="graph">
<g id="viewport">
<title>Engine3D::Scene</title>
<!-- Node1 -->
<g id="Node000001" class="node">
<title>Node1</title>
<g id="a_Node000001"><a xlink:title="Gère le rendu de la scène 3D.">
<polygon fill="#999999" stroke="none" points="536.88,-212 440.88,-212 440.88,0 536.88,0 536.88,-212"/>
<text text-anchor="start" x="450.62" y="-198.5" font-family="Helvetica,sans-Serif" font-size="10.00">Engine3D::Scene</text>
<text text-anchor="start" x="487.38" y="-182.5" font-family="Helvetica,sans-Serif" font-size="10.00"> </text>
<text text-anchor="start" x="444.88" y="-166.5" font-family="Helvetica,sans-Serif" font-size="10.00">+</text>
<text text-anchor="start" x="454.88" y="-166.5" font-family="Helvetica,sans-Serif" font-size="10.00">Scene()</text>
<text text-anchor="start" x="444.88" y="-150.5" font-family="Helvetica,sans-Serif" font-size="10.00">+</text>
<text text-anchor="start" x="454.88" y="-150.5" font-family="Helvetica,sans-Serif" font-size="10.00">addTriangles()</text>
<text text-anchor="start" x="444.88" y="-134.5" font-family="Helvetica,sans-Serif" font-size="10.00">+</text>
<text text-anchor="start" x="454.88" y="-134.5" font-family="Helvetica,sans-Serif" font-size="10.00">clearTriangles()</text>
<text text-anchor="start" x="444.88" y="-118.5" font-family="Helvetica,sans-Serif" font-size="10.00">+</text>
<text text-anchor="start" x="454.88" y="-118.5" font-family="Helvetica,sans-Serif" font-size="10.00">render()</text>
<text text-anchor="start" x="444.88" y="-102.5" font-family="Helvetica,sans-Serif" font-size="10.00">+</text>
<text text-anchor="start" x="454.88" y="-102.5" font-family="Helvetica,sans-Serif" font-size="10.00">getCamera()</text>
<text text-anchor="start" x="446.38" y="-86.5" font-family="Helvetica,sans-Serif" font-size="10.00">&#45;</text>
<text text-anchor="start" x="454.88" y="-86.5" font-family="Helvetica,sans-Serif" font-size="10.00">project()</text>
<text text-anchor="start" x="446.38" y="-70.5" font-family="Helvetica,sans-Serif" font-size="10.00">&#45;</text>
<text text-anchor="start" x="454.88" y="-70.5" font-family="Helvetica,sans-Serif" font-size="10.00">isTriangleVisible()</text>
<text text-anchor="start" x="446.38" y="-54.5" font-family="Helvetica,sans-Serif" font-size="10.00">&#45;</text>
<text text-anchor="start" x="454.88" y="-54.5" font-family="Helvetica,sans-Serif" font-size="10.00">rasterizeTriangle()</text>
<text text-anchor="start" x="446.38" y="-38.5" font-family="Helvetica,sans-Serif" font-size="10.00">&#45;</text>
<text text-anchor="start" x="454.88" y="-38.5" font-family="Helvetica,sans-Serif" font-size="10.00">drawScanline()</text>
<text text-anchor="start" x="446.38" y="-22.5" font-family="Helvetica,sans-Serif" font-size="10.00">&#45;</text>
<text text-anchor="start" x="454.88" y="-22.5" font-family="Helvetica,sans-Serif" font-size="10.00">fillFlatBottom()</text>
<text text-anchor="start" x="446.38" y="-6.5" font-family="Helvetica,sans-Serif" font-size="10.00">&#45;</text>
<text text-anchor="start" x="454.88" y="-6.5" font-family="Helvetica,sans-Serif" font-size="10.00">fillFlatTop()</text>
<polygon fill="#666666" stroke="#666666" points="440.88,-194 440.88,-194 536.88,-194 536.88,-194 440.88,-194"/>
<polygon fill="#666666" stroke="#666666" points="440.88,-178 440.88,-178 536.88,-178 536.88,-178 440.88,-178"/>
<polygon fill="none" stroke="#666666" points="440.88,0 440.88,-212 536.88,-212 536.88,0 440.88,0"/>
</a>
</g>
</g>
<!-- Node2 -->
<g id="Node000002" class="node">
<title>Node2</title>
<g id="a_Node000002"><a xlink:href="class_engine3_d_1_1_sdl.html" target="_top" xlink:title="Classe contenant les fonctionnalités SDL pour le rendu graphique.">
<polygon fill="white" stroke="none" points="325.38,-632 254.38,-632 254.38,-468 325.38,-468 325.38,-632"/>
<text text-anchor="start" x="258.38" y="-618.5" font-family="Helvetica,sans-Serif" font-size="10.00">Engine3D::Sdl</text>
<text text-anchor="start" x="288.38" y="-602.5" font-family="Helvetica,sans-Serif" font-size="10.00"> </text>
<text text-anchor="start" x="259.62" y="-586.5" font-family="Helvetica,sans-Serif" font-size="10.00">+</text>
<text text-anchor="start" x="270.88" y="-586.5" font-family="Helvetica,sans-Serif" font-size="10.00">Sdl()</text>
<text text-anchor="start" x="259.62" y="-570.5" font-family="Helvetica,sans-Serif" font-size="10.00">+</text>
<text text-anchor="start" x="270.88" y="-570.5" font-family="Helvetica,sans-Serif" font-size="10.00">~Sdl()</text>
<text text-anchor="start" x="259.62" y="-554.5" font-family="Helvetica,sans-Serif" font-size="10.00">+</text>
<text text-anchor="start" x="270.88" y="-554.5" font-family="Helvetica,sans-Serif" font-size="10.00">clear()</text>
<text text-anchor="start" x="259.62" y="-538.5" font-family="Helvetica,sans-Serif" font-size="10.00">+</text>
<text text-anchor="start" x="270.88" y="-538.5" font-family="Helvetica,sans-Serif" font-size="10.00">setPixel()</text>
<text text-anchor="start" x="259.62" y="-522.5" font-family="Helvetica,sans-Serif" font-size="10.00">+</text>
<text text-anchor="start" x="270.88" y="-522.5" font-family="Helvetica,sans-Serif" font-size="10.00">present()</text>
<text text-anchor="start" x="259.62" y="-506.5" font-family="Helvetica,sans-Serif" font-size="10.00">+</text>
<text text-anchor="start" x="270.88" y="-506.5" font-family="Helvetica,sans-Serif" font-size="10.00">getWidth()</text>
<text text-anchor="start" x="259.62" y="-490.5" font-family="Helvetica,sans-Serif" font-size="10.00">+</text>
<text text-anchor="start" x="270.88" y="-490.5" font-family="Helvetica,sans-Serif" font-size="10.00">getHeight()</text>
<text text-anchor="start" x="259.62" y="-474.5" font-family="Helvetica,sans-Serif" font-size="10.00">+</text>
<text text-anchor="start" x="270.88" y="-474.5" font-family="Helvetica,sans-Serif" font-size="10.00">isValid()</text>
<polygon fill="#666666" stroke="#666666" points="254.38,-614 254.38,-614 325.38,-614 325.38,-614 254.38,-614"/>
<polygon fill="#666666" stroke="#666666" points="254.38,-598 254.38,-598 325.38,-598 325.38,-598 254.38,-598"/>
<polygon fill="none" stroke="#666666" points="254.38,-468 254.38,-632 325.38,-632 325.38,-468 254.38,-468"/>
</a>
</g>
</g>
<!-- Node2&#45;&gt;Node1 -->
<g id="edge1_Node000001_Node000002" class="edge">
<title>Node2&#45;&gt;Node1</title>
<g id="a_edge1_Node000001_Node000002"><a xlink:title=" ">
<path fill="none" stroke="#63b8ff" d="M323.76,-468.09C347.81,-411.28 381.2,-333.66 412.12,-266 419.53,-249.8 427.52,-232.77 435.46,-216.12"/>
<polygon fill="none" stroke="#63b8ff" points="435.37,-216.3 434.35,-209.16 440.55,-205.47 441.57,-212.61 435.37,-216.3"/>
</a>
</g>
<text text-anchor="start" x="415.12" y="-320.5" font-family="Helvetica,sans-Serif" font-size="10.00" fill="grey">&#45;sdl</text>
</g>
<!-- Node3 -->
<g id="Node000003" class="node">
<title>Node3</title>
<g id="a_Node000003"><a xlink:title=" ">
<polygon fill="white" stroke="none" points="232.25,-770 157.5,-770 157.5,-718 232.25,-718 232.25,-770"/>
<text text-anchor="start" x="161.5" y="-756.5" font-family="Helvetica,sans-Serif" font-size="10.00">SDL_Window *</text>
<text text-anchor="start" x="193.38" y="-740.5" font-family="Helvetica,sans-Serif" font-size="10.00"> </text>
<text text-anchor="start" x="193.38" y="-724.5" font-family="Helvetica,sans-Serif" font-size="10.00"> </text>
<polygon fill="#666666" stroke="#666666" points="157.5,-752 157.5,-752 232.25,-752 232.25,-752 157.5,-752"/>
<polygon fill="#666666" stroke="#666666" points="157.5,-736 157.5,-736 232.25,-736 232.25,-736 157.5,-736"/>
<polygon fill="none" stroke="#666666" points="157.5,-718 157.5,-770 232.25,-770 232.25,-718 157.5,-718"/>
</a>
</g>
</g>
<!-- Node3&#45;&gt;Node2 -->
<g id="edge2_Node000002_Node000003" class="edge">
<title>Node3&#45;&gt;Node2</title>
<g id="a_edge2_Node000002_Node000003"><a xlink:title=" ">
<path fill="none" stroke="#63b8ff" d="M207.1,-718.29C217.68,-696.92 233.6,-664.74 248.66,-634.3"/>
<polygon fill="none" stroke="#63b8ff" points="248.66,-634.31 247.73,-627.15 253.98,-623.55 254.9,-630.7 248.66,-634.31"/>
</a>
</g>
<text text-anchor="start" x="242.53" y="-671.5" font-family="Helvetica,sans-Serif" font-size="10.00" fill="grey">&#45;window</text>
</g>
<!-- Node4 -->
<g id="Node000004" class="node">
<title>Node4</title>
<g id="a_Node000004"><a xlink:title=" ">
<polygon fill="white" stroke="none" points="329.5,-770 250.25,-770 250.25,-718 329.5,-718 329.5,-770"/>
<text text-anchor="start" x="254.25" y="-756.5" font-family="Helvetica,sans-Serif" font-size="10.00">SDL_Renderer *</text>
<text text-anchor="start" x="288.38" y="-740.5" font-family="Helvetica,sans-Serif" font-size="10.00"> </text>
<text text-anchor="start" x="288.38" y="-724.5" font-family="Helvetica,sans-Serif" font-size="10.00"> </text>
<polygon fill="#666666" stroke="#666666" points="250.25,-752 250.25,-752 329.5,-752 329.5,-752 250.25,-752"/>
<polygon fill="#666666" stroke="#666666" points="250.25,-736 250.25,-736 329.5,-736 329.5,-736 250.25,-736"/>
<polygon fill="none" stroke="#666666" points="250.25,-718 250.25,-770 329.5,-770 329.5,-718 250.25,-718"/>
</a>
</g>
</g>
<!-- Node4&#45;&gt;Node2 -->
<g id="edge3_Node000002_Node000004" class="edge">
<title>Node4&#45;&gt;Node2</title>
<g id="a_edge3_Node000002_Node000004"><a xlink:title=" ">
<path fill="none" stroke="#63b8ff" d="M289.88,-718.29C289.88,-699.32 289.88,-671.83 289.88,-644.61"/>
<polygon fill="none" stroke="#63b8ff" points="289.88,-644.63 285.88,-638.63 289.88,-632.63 293.88,-638.63 289.88,-644.63"/>
</a>
</g>
<text text-anchor="start" x="292.88" y="-671.5" font-family="Helvetica,sans-Serif" font-size="10.00" fill="grey">&#45;renderer</text>
</g>
<!-- Node5 -->
<g id="Node000005" class="node">
<title>Node5</title>
<g id="a_Node000005"><a xlink:title=" ">
<polygon fill="white" stroke="none" points="71.75,-770 0,-770 0,-718 71.75,-718 71.75,-770"/>
<text text-anchor="start" x="4" y="-756.5" font-family="Helvetica,sans-Serif" font-size="10.00">SDL_Texture *</text>
<text text-anchor="start" x="34.38" y="-740.5" font-family="Helvetica,sans-Serif" font-size="10.00"> </text>
<text text-anchor="start" x="34.38" y="-724.5" font-family="Helvetica,sans-Serif" font-size="10.00"> </text>
<polygon fill="#666666" stroke="#666666" points="0,-752 0,-752 71.75,-752 71.75,-752 0,-752"/>
<polygon fill="#666666" stroke="#666666" points="0,-736 0,-736 71.75,-736 71.75,-736 0,-736"/>
<polygon fill="none" stroke="#666666" points="0,-718 0,-770 71.75,-770 71.75,-718 0,-718"/>
</a>
</g>
</g>
<!-- Node5&#45;&gt;Node2 -->
<g id="edge4_Node000002_Node000005" class="edge">
<title>Node5&#45;&gt;Node2</title>
<g id="a_edge4_Node000002_Node000005"><a xlink:title=" ">
<path fill="none" stroke="#63b8ff" d="M44.88,-718.19C53.34,-697.73 67.73,-669.08 87.88,-650 132.36,-607.86 198.18,-580.19 242.48,-565.08"/>
<polygon fill="none" stroke="#63b8ff" points="242.4,-565.11 246.85,-559.43 253.8,-561.34 249.36,-567.02 242.4,-565.11"/>
</a>
</g>
<text text-anchor="start" x="90.88" y="-671.5" font-family="Helvetica,sans-Serif" font-size="10.00" fill="grey">&#45;texture</text>
</g>
<!-- Node6 -->
<g id="Node000006" class="node">
<title>Node6</title>
<g id="a_Node000006"><a xlink:title=" ">
<polygon fill="white" stroke="none" points="139.5,-770 90.25,-770 90.25,-718 139.5,-718 139.5,-770"/>
<text text-anchor="start" x="94.25" y="-756.5" font-family="Helvetica,sans-Serif" font-size="10.00">uint32_t *</text>
<text text-anchor="start" x="113.38" y="-740.5" font-family="Helvetica,sans-Serif" font-size="10.00"> </text>
<text text-anchor="start" x="113.38" y="-724.5" font-family="Helvetica,sans-Serif" font-size="10.00"> </text>
<polygon fill="#666666" stroke="#666666" points="90.25,-752 90.25,-752 139.5,-752 139.5,-752 90.25,-752"/>
<polygon fill="#666666" stroke="#666666" points="90.25,-736 90.25,-736 139.5,-736 139.5,-736 90.25,-736"/>
<polygon fill="none" stroke="#666666" points="90.25,-718 90.25,-770 139.5,-770 139.5,-718 90.25,-718"/>
</a>
</g>
</g>
<!-- Node6&#45;&gt;Node2 -->
<g id="edge5_Node000002_Node000006" class="edge">
<title>Node6&#45;&gt;Node2</title>
<g id="a_edge5_Node000002_Node000006"><a xlink:title=" ">
<path fill="none" stroke="#63b8ff" d="M122.93,-718.27C130.24,-698.4 142.42,-670.52 159.12,-650 182.67,-621.09 216.34,-595.85 243.62,-578.09"/>
<polygon fill="none" stroke="#63b8ff" points="243.59,-578.11 246.51,-571.51 253.72,-571.67 250.8,-578.26 243.59,-578.11"/>
</a>
</g>
<text text-anchor="start" x="162.12" y="-671.5" font-family="Helvetica,sans-Serif" font-size="10.00" fill="grey">&#45;pixelBuffer</text>
</g>
<!-- Node7 -->
<g id="Node000007" class="node">
<title>Node7</title>
<g id="a_Node000007"><a xlink:title=" ">
<polygon fill="white" stroke="none" points="502.25,-770 475.5,-770 475.5,-718 502.25,-718 502.25,-770"/>
<text text-anchor="start" x="479.5" y="-756.5" font-family="Helvetica,sans-Serif" font-size="10.00">float</text>
<text text-anchor="start" x="487.38" y="-740.5" font-family="Helvetica,sans-Serif" font-size="10.00"> </text>
<text text-anchor="start" x="487.38" y="-724.5" font-family="Helvetica,sans-Serif" font-size="10.00"> </text>
<polygon fill="#666666" stroke="#666666" points="475.5,-752 475.5,-752 502.25,-752 502.25,-752 475.5,-752"/>
<polygon fill="#666666" stroke="#666666" points="475.5,-736 475.5,-736 502.25,-736 502.25,-736 475.5,-736"/>
<polygon fill="none" stroke="#666666" points="475.5,-718 475.5,-770 502.25,-770 502.25,-718 475.5,-718"/>
</a>
</g>
</g>
<!-- Node7&#45;&gt;Node2 -->
<g id="edge6_Node000002_Node000007" class="edge">
<title>Node7&#45;&gt;Node2</title>
<g id="a_edge6_Node000002_Node000007"><a xlink:title=" ">
<path fill="none" stroke="#63b8ff" d="M475.78,-737.66C460.15,-730.79 433.95,-717.61 416.38,-700 398.15,-681.73 402.57,-670.48 386.88,-650 371.17,-629.51 351.58,-608.81 334.14,-591.66"/>
<polygon fill="none" stroke="#63b8ff" points="334.51,-592.02 327.41,-590.72 325.89,-583.67 332.98,-584.97 334.51,-592.02"/>
</a>
</g>
<text text-anchor="start" x="419.38" y="-671.5" font-family="Helvetica,sans-Serif" font-size="10.00" fill="grey">&#45;depthBuffer</text>
</g>
<!-- Node9 -->
<g id="Node000009" class="node">
<title>Node9</title>
<g id="a_Node000009"><a xlink:href="class_engine3_d_1_1_camera.html" target="_top" xlink:title="Représente la caméra (œil) dans la scène.">
<polygon fill="white" stroke="none" points="534.5,-382 443.25,-382 443.25,-266 534.5,-266 534.5,-382"/>
<text text-anchor="start" x="447.25" y="-368.5" font-family="Helvetica,sans-Serif" font-size="10.00">Engine3D::Camera</text>
<text text-anchor="start" x="487.38" y="-352.5" font-family="Helvetica,sans-Serif" font-size="10.00"> </text>
<text text-anchor="start" x="449.25" y="-336.5" font-family="Helvetica,sans-Serif" font-size="10.00">+</text>
<text text-anchor="start" x="461.25" y="-336.5" font-family="Helvetica,sans-Serif" font-size="10.00">Camera()</text>
<text text-anchor="start" x="449.25" y="-320.5" font-family="Helvetica,sans-Serif" font-size="10.00">+</text>
<text text-anchor="start" x="461.25" y="-320.5" font-family="Helvetica,sans-Serif" font-size="10.00">moveForward()</text>
<text text-anchor="start" x="449.25" y="-304.5" font-family="Helvetica,sans-Serif" font-size="10.00">+</text>
<text text-anchor="start" x="461.25" y="-304.5" font-family="Helvetica,sans-Serif" font-size="10.00">moveRight()</text>
<text text-anchor="start" x="449.25" y="-288.5" font-family="Helvetica,sans-Serif" font-size="10.00">+</text>
<text text-anchor="start" x="461.25" y="-288.5" font-family="Helvetica,sans-Serif" font-size="10.00">moveLeft()</text>
<text text-anchor="start" x="449.25" y="-272.5" font-family="Helvetica,sans-Serif" font-size="10.00">+</text>
<text text-anchor="start" x="461.25" y="-272.5" font-family="Helvetica,sans-Serif" font-size="10.00">moveUp()</text>
<polygon fill="#666666" stroke="#666666" points="443.25,-364 443.25,-364 534.5,-364 534.5,-364 443.25,-364"/>
<polygon fill="#666666" stroke="#666666" points="443.25,-348 443.25,-348 534.5,-348 534.5,-348 443.25,-348"/>
<polygon fill="none" stroke="#666666" points="443.25,-266 443.25,-382 534.5,-382 534.5,-266 443.25,-266"/>
</a>
</g>
</g>
<!-- Node7&#45;&gt;Node9 -->
<g id="edge11_Node000009_Node000007" class="edge">
<title>Node7&#45;&gt;Node9</title>
<g id="a_edge11_Node000009_Node000007"><a xlink:title=" ">
<path fill="none" stroke="#63b8ff" d="M488.88,-718.1C488.88,-655.49 488.88,-489.7 488.88,-394.62"/>
<polygon fill="none" stroke="#63b8ff" points="488.88,-394.59 484.88,-388.59 488.88,-382.59 492.88,-388.59 488.88,-394.59"/>
</a>
</g>
<text text-anchor="start" x="491.88" y="-554.5" font-family="Helvetica,sans-Serif" font-size="10.00" fill="grey">+fov</text>
<text text-anchor="start" x="491.88" y="-538.5" font-family="Helvetica,sans-Serif" font-size="10.00" fill="grey">+nearPlane</text>
</g>
<!-- Node10 -->
<g id="Node000010" class="node">
<title>Node10</title>
<g id="a_Node000010"><a xlink:href="class_engine3_d_1_1_point3d.html" target="_top" xlink:title="Représente un point dans l&#39;espace 3D.">
<polygon fill="white" stroke="none" points="651.75,-632 562,-632 562,-468 651.75,-468 651.75,-632"/>
<text text-anchor="start" x="566" y="-618.5" font-family="Helvetica,sans-Serif" font-size="10.00">Engine3D::Point3d</text>
<text text-anchor="start" x="605.38" y="-602.5" font-family="Helvetica,sans-Serif" font-size="10.00"> </text>
<text text-anchor="start" x="571.94" y="-586.5" font-family="Helvetica,sans-Serif" font-size="10.00">+</text>
<text text-anchor="start" x="587.88" y="-586.5" font-family="Helvetica,sans-Serif" font-size="10.00">Point3d()</text>
<text text-anchor="start" x="571.94" y="-570.5" font-family="Helvetica,sans-Serif" font-size="10.00">+</text>
<text text-anchor="start" x="587.88" y="-570.5" font-family="Helvetica,sans-Serif" font-size="10.00">Point3d()</text>
<text text-anchor="start" x="571.94" y="-554.5" font-family="Helvetica,sans-Serif" font-size="10.00">+</text>
<text text-anchor="start" x="587.88" y="-554.5" font-family="Helvetica,sans-Serif" font-size="10.00">operator&#45;()</text>
<text text-anchor="start" x="571.94" y="-538.5" font-family="Helvetica,sans-Serif" font-size="10.00">+</text>
<text text-anchor="start" x="587.88" y="-538.5" font-family="Helvetica,sans-Serif" font-size="10.00">operator+()</text>
<text text-anchor="start" x="571.94" y="-522.5" font-family="Helvetica,sans-Serif" font-size="10.00">+</text>
<text text-anchor="start" x="587.88" y="-522.5" font-family="Helvetica,sans-Serif" font-size="10.00">operator*()</text>
<text text-anchor="start" x="571.94" y="-506.5" font-family="Helvetica,sans-Serif" font-size="10.00">+</text>
<text text-anchor="start" x="587.88" y="-506.5" font-family="Helvetica,sans-Serif" font-size="10.00">cross()</text>
<text text-anchor="start" x="571.94" y="-490.5" font-family="Helvetica,sans-Serif" font-size="10.00">+</text>
<text text-anchor="start" x="587.88" y="-490.5" font-family="Helvetica,sans-Serif" font-size="10.00">dot()</text>
<text text-anchor="start" x="571.94" y="-474.5" font-family="Helvetica,sans-Serif" font-size="10.00">+</text>
<text text-anchor="start" x="587.88" y="-474.5" font-family="Helvetica,sans-Serif" font-size="10.00">normalize()</text>
<polygon fill="#666666" stroke="#666666" points="562,-614 562,-614 651.75,-614 651.75,-614 562,-614"/>
<polygon fill="#666666" stroke="#666666" points="562,-598 562,-598 651.75,-598 651.75,-598 562,-598"/>
<polygon fill="none" stroke="#666666" points="562,-468 562,-632 651.75,-632 651.75,-468 562,-468"/>
</a>
</g>
</g>
<!-- Node7&#45;&gt;Node10 -->
<g id="edge10_Node000010_Node000007" class="edge">
<title>Node7&#45;&gt;Node10</title>
<g id="a_edge10_Node000010_Node000007"><a xlink:title=" ">
<path fill="none" stroke="#63b8ff" d="M502.18,-721.35C515.23,-700.11 535.97,-666.37 555.56,-634.5"/>
<polygon fill="none" stroke="#63b8ff" points="555.39,-634.78 555.12,-627.57 561.67,-624.55 561.94,-631.76 555.39,-634.78"/>
</a>
</g>
<text text-anchor="start" x="547.34" y="-687.5" font-family="Helvetica,sans-Serif" font-size="10.00" fill="grey">+x</text>
<text text-anchor="start" x="547.34" y="-671.5" font-family="Helvetica,sans-Serif" font-size="10.00" fill="grey">+y</text>
<text text-anchor="start" x="547.34" y="-655.5" font-family="Helvetica,sans-Serif" font-size="10.00" fill="grey">+z</text>
</g>
<!-- Node8 -->
<g id="Node000008" class="node">
<title>Node8</title>
<g id="a_Node000008"><a xlink:title=" ">
<polygon fill="white" stroke="none" points="366.12,-770 347.62,-770 347.62,-718 366.12,-718 366.12,-770"/>
<text text-anchor="start" x="351.62" y="-756.5" font-family="Helvetica,sans-Serif" font-size="10.00">int</text>
<text text-anchor="start" x="355.38" y="-740.5" font-family="Helvetica,sans-Serif" font-size="10.00"> </text>
<text text-anchor="start" x="355.38" y="-724.5" font-family="Helvetica,sans-Serif" font-size="10.00"> </text>
<polygon fill="#666666" stroke="#666666" points="347.62,-752 347.62,-752 366.12,-752 366.12,-752 347.62,-752"/>
<polygon fill="#666666" stroke="#666666" points="347.62,-736 347.62,-736 366.12,-736 366.12,-736 347.62,-736"/>
<polygon fill="none" stroke="#666666" points="347.62,-718 347.62,-770 366.12,-770 366.12,-718 347.62,-718"/>
</a>
</g>
</g>
<!-- Node8&#45;&gt;Node2 -->
<g id="edge7_Node000002_Node000008" class="edge">
<title>Node8&#45;&gt;Node2</title>
<g id="a_edge7_Node000002_Node000008"><a xlink:title=" ">
<path fill="none" stroke="#63b8ff" d="M352.37,-718.15C348.6,-699.21 342.6,-672.61 334.88,-650 333.38,-645.63 331.76,-641.2 330.06,-636.75"/>
<polygon fill="none" stroke="#63b8ff" points="330.14,-636.96 324.2,-632.86 325.7,-625.81 331.64,-629.9 330.14,-636.96"/>
</a>
</g>
<text text-anchor="start" x="351.01" y="-679.5" font-family="Helvetica,sans-Serif" font-size="10.00" fill="grey">&#45;height</text>
<text text-anchor="start" x="351.01" y="-663.5" font-family="Helvetica,sans-Serif" font-size="10.00" fill="grey">&#45;width</text>
</g>
<!-- Node9&#45;&gt;Node1 -->
<g id="edge8_Node000001_Node000009" class="edge">
<title>Node9&#45;&gt;Node1</title>
<g id="a_edge8_Node000001_Node000009"><a xlink:title=" ">
<path fill="none" stroke="#63b8ff" d="M488.88,-266.25C488.88,-253.29 488.88,-239.06 488.88,-224.59"/>
<polygon fill="none" stroke="#63b8ff" points="488.88,-224.75 484.88,-218.75 488.88,-212.75 492.88,-218.75 488.88,-224.75"/>
</a>
</g>
<text text-anchor="start" x="491.88" y="-235.5" font-family="Helvetica,sans-Serif" font-size="10.00" fill="grey">&#45;camera</text>
</g>
<!-- Node10&#45;&gt;Node9 -->
<g id="edge9_Node000009_Node000010" class="edge">
<title>Node10&#45;&gt;Node9</title>
<g id="a_edge9_Node000009_Node000010"><a xlink:title=" ">
<path fill="none" stroke="#63b8ff" d="M564.27,-468.13C551.34,-443.58 537.26,-416.85 524.81,-393.22"/>
<polygon fill="none" stroke="#63b8ff" points="524.86,-393.3 518.52,-389.86 519.26,-382.68 525.6,-386.13 524.86,-393.3"/>
</a>
</g>
<text text-anchor="start" x="554.41" y="-437.5" font-family="Helvetica,sans-Serif" font-size="10.00" fill="grey">+direction</text>
<text text-anchor="start" x="554.41" y="-421.5" font-family="Helvetica,sans-Serif" font-size="10.00" fill="grey">+position</text>
<text text-anchor="start" x="554.41" y="-405.5" font-family="Helvetica,sans-Serif" font-size="10.00" fill="grey">+up</text>
</g>
<!-- Node11 -->
<g id="Node000011" class="node">
<title>Node11</title>
<g id="a_Node000011"><a xlink:title=" ">
<polygon fill="white" stroke="none" points="679.12,-356 552.62,-356 552.62,-292 679.12,-292 679.12,-356"/>
<text text-anchor="start" x="556.62" y="-342.5" font-family="Helvetica,sans-Serif" font-size="10.00">vector&lt; Engine3D::Colored</text>
<text text-anchor="start" x="594.12" y="-330.5" font-family="Helvetica,sans-Serif" font-size="10.00">Triangle &gt;</text>
<text text-anchor="start" x="614.38" y="-314.5" font-family="Helvetica,sans-Serif" font-size="10.00"> </text>
<text text-anchor="start" x="614.38" y="-298.5" font-family="Helvetica,sans-Serif" font-size="10.00"> </text>
<polygon fill="#666666" stroke="#666666" points="552.62,-326 552.62,-326 679.12,-326 679.12,-326 552.62,-326"/>
<polygon fill="#666666" stroke="#666666" points="552.62,-310 552.62,-310 679.12,-310 679.12,-310 552.62,-310"/>
<polygon fill="none" stroke="#666666" points="552.62,-292 552.62,-356 679.12,-356 679.12,-292 552.62,-292"/>
</a>
</g>
</g>
<!-- Node11&#45;&gt;Node1 -->
<g id="edge12_Node000001_Node000011" class="edge">
<title>Node11&#45;&gt;Node1</title>
<g id="a_edge12_Node000001_Node000011"><a xlink:title=" ">
<path fill="none" stroke="#63b8ff" d="M597.68,-292.05C583.38,-267.74 562.69,-232.55 543.19,-199.37"/>
<polygon fill="none" stroke="#63b8ff" points="543.17,-199.34 536.68,-196.19 537.09,-188.99 543.57,-192.14 543.17,-199.34"/>
</a>
</g>
<text text-anchor="start" x="574.17" y="-235.5" font-family="Helvetica,sans-Serif" font-size="10.00" fill="grey">&#45;triangles</text>
</g>
</g>
</svg>

<g id="navigator" transform="translate(0 0)" fill="#404254">
  <rect fill="#f2f5e9" fill-opacity="0.5" stroke="#606060" stroke-width=".5" x="0" y="0" width="60" height="60"/>
  <use id="zoomplus" xlink:href="#zoomPlus" x="17" y="9" onmousedown="handleZoom(evt,'in')"/>
  <use id="zoomminus" xlink:href="#zoomMin" x="42" y="9" onmousedown="handleZoom(evt,'out')"/>
  <use id="reset" xlink:href="#resetDef" x="30" y="36" onmousedown="handleReset()"/>
   <use id="arrowup" xlink:href="#arrowUp" x="0" y="0" onmousedown="handlePan(0,-1)"/>
  <use id="arrowright" xlink:href="#arrowRight" x="0" y="0" onmousedown="handlePan(1,0)"/>
  <use id="arrowdown" xlink:href="#arrowDown" x="0" y="0" onmousedown="handlePan(0,1)"/>
  <use id="arrowleft" xlink:href="#arrowLeft" x="0" y="0" onmousedown="handlePan(-1,0)"/>
</g>
<svg viewBox="0 0 15 15" width="100%" height="30px" preserveAspectRatio="xMaxYMin meet">
 <g id="arrow_out" transform="scale(0.3 0.3)">
  <a xlink:href="class_engine3_d_1_1_scene__coll__graph_org.svg" target="_base">
   <rect id="button" ry="5" rx="5" y="6" x="6" height="38" width="38"
        fill="#f2f5e9" fill-opacity="0.5" stroke="#606060" stroke-width="1.0"/>
   <path id="arrow"
     d="M 11.500037,31.436501 C 11.940474,20.09759 22.043105,11.32322 32.158766,21.979434 L 37.068811,17.246167 C 37.068811,17.246167 37.088388,32 37.088388,32 L 22.160133,31.978069 C 22.160133,31.978069 26.997745,27.140456 26.997745,27.140456 C 18.528582,18.264221 13.291696,25.230495 11.500037,31.436501 z"
     style="fill:#404040;"/>
  </a>
 </g>
</svg>

<style type='text/css'>
<![CDATA[
[data-mouse-over-selected='false'] { opacity: 0.7; }
[data-mouse-over-selected='true']  { opacity: 1.0; }
]]>
</style>
<script type="application/ecmascript"><![CDATA[
document.addEventListener('DOMContentLoaded', (event) => {
  highlightEdges();
  highlightAdjacentNodes();
});
]]></script>
</svg>
