<?xml version="1.0" encoding="UTF-8" standalone="no"?>
<!DOCTYPE svg PUBLIC "-//W3C//DTD SVG 1.1//EN"
 "http://www.w3.org/Graphics/SVG/1.1/DTD/svg11.dtd">
<!-- Generated by graphviz version 12.2.1 (0)
 -->
<!-- Title: main Pages: 1 -->
<svg width="1117pt" height="491pt"
 viewBox="0.00 0.00 1116.75 491.00" xmlns="http://www.w3.org/2000/svg" xmlns:xlink="http://www.w3.org/1999/xlink">
<g id="graph0" class="graph" transform="scale(1 1) rotate(0) translate(4 487)">
<title>main</title>
<!-- Node1 -->
<g id="Node000001" class="node">
<title>Node1</title>
<g id="a_Node000001"><a xlink:title="main">
<polygon fill="#999999" stroke="#666666" points="37,-401 0,-401 0,-381 37,-381 37,-401"/>
<text text-anchor="middle" x="18.5" y="-387.5" font-family="Helvetica,sans-Serif" font-size="10.00">main</text>
</a>
</g>
</g>
<!-- Node2 -->
<g id="Node000002" class="node">
<title>Node2</title>
<g id="a_Node000002"><a xlink:href="class_engine3_d_1_1_scene.html#a1f8a56782e30aafa6f74158f8b36b0e8" target="_top" xlink:title="Retourne une référence vers la caméra.">
<polygon fill="white" stroke="#666666" points="375.38,-439 228.88,-439 228.88,-419 375.38,-419 375.38,-439"/>
<text text-anchor="middle" x="302.12" y="-425.5" font-family="Helvetica,sans-Serif" font-size="10.00">Engine3D::Scene::getCamera</text>
</a>
</g>
</g>
<!-- Node1&#45;&gt;Node2 -->
<g id="edge1_Node000001_Node000002" class="edge">
<title>Node1&#45;&gt;Node2</title>
<g id="a_edge1_Node000001_Node000002"><a xlink:title=" ">
<path fill="none" stroke="#63b8ff" d="M37.48,-398.7C47.71,-402.74 60.86,-407.38 73,-410 120.08,-420.14 173.7,-424.94 217.12,-427.18"/>
<polygon fill="#63b8ff" stroke="#63b8ff" points="216.84,-430.67 226.99,-427.65 217.17,-423.68 216.84,-430.67"/>
</a>
</g>
</g>
<!-- Node3 -->
<g id="Node000003" class="node">
<title>Node3</title>
<g id="a_Node000003"><a xlink:href="class_engine3_d_1_1_sdl.html#a7be926387d8afcd6ddf762472d9407ca" target="_top" xlink:title="Vérifie si SDL a été initialisé correctement.">
<polygon fill="white" stroke="#666666" points="186.5,-401 73,-401 73,-381 186.5,-381 186.5,-401"/>
<text text-anchor="middle" x="129.75" y="-387.5" font-family="Helvetica,sans-Serif" font-size="10.00">Engine3D::Sdl::isValid</text>
</a>
</g>
</g>
<!-- Node1&#45;&gt;Node3 -->
<g id="edge2_Node000001_Node000003" class="edge">
<title>Node1&#45;&gt;Node3</title>
<g id="a_edge2_Node000001_Node000003"><a xlink:title=" ">
<path fill="none" stroke="#63b8ff" d="M37.05,-391C44.09,-391 52.67,-391 61.74,-391"/>
<polygon fill="#63b8ff" stroke="#63b8ff" points="61.45,-394.5 71.45,-391 61.45,-387.5 61.45,-394.5"/>
</a>
</g>
</g>
<!-- Node4 -->
<g id="Node000004" class="node">
<title>Node4</title>
<g id="a_Node000004"><a xlink:href="main_8cpp.html#a43c63981d2c39c1e3e08614ee3f83b4f" target="_top" xlink:title="Boucle principale du programme.">
<polygon fill="white" stroke="#666666" points="158.75,-363 100.75,-363 100.75,-343 158.75,-343 158.75,-363"/>
<text text-anchor="middle" x="129.75" y="-349.5" font-family="Helvetica,sans-Serif" font-size="10.00">mainLoop</text>
</a>
</g>
</g>
<!-- Node1&#45;&gt;Node4 -->
<g id="edge3_Node000001_Node000004" class="edge">
<title>Node1&#45;&gt;Node4</title>
<g id="a_edge3_Node000001_Node000004"><a xlink:title=" ">
<path fill="none" stroke="#63b8ff" d="M37.31,-384.61C47.71,-380.9 61.08,-376.15 73,-372 78.41,-370.12 84.13,-368.15 89.76,-366.22"/>
<polygon fill="#63b8ff" stroke="#63b8ff" points="90.6,-369.63 98.93,-363.08 88.34,-363 90.6,-369.63"/>
</a>
</g>
</g>
<!-- Node4&#45;&gt;Node2 -->
<g id="edge16_Node000004_Node000002" class="edge">
<title>Node4&#45;&gt;Node2</title>
<g id="a_edge16_Node000004_Node000002"><a xlink:title=" ">
<path fill="none" stroke="#63b8ff" d="M159.18,-359.78C168.33,-362.7 178.24,-366.7 186.5,-372 206.08,-384.56 202.37,-398.34 222.5,-410 225.29,-411.62 228.22,-413.09 231.22,-414.45"/>
<polygon fill="#63b8ff" stroke="#63b8ff" points="229.72,-417.62 240.31,-418.03 232.29,-411.11 229.72,-417.62"/>
</a>
</g>
</g>
<!-- Node5 -->
<g id="Node000005" class="node">
<title>Node5</title>
<g id="a_Node000005"><a xlink:href="main_8cpp.html#a3f8bbedc9cc7a81915ae12b5d66c00cd" target="_top" xlink:title="Crée et ajoute le cube à la scène.">
<polygon fill="white" stroke="#666666" points="329.62,-401 274.62,-401 274.62,-381 329.62,-381 329.62,-401"/>
<text text-anchor="middle" x="302.12" y="-387.5" font-family="Helvetica,sans-Serif" font-size="10.00">addCube</text>
</a>
</g>
</g>
<!-- Node4&#45;&gt;Node5 -->
<g id="edge4_Node000004_Node000005" class="edge">
<title>Node4&#45;&gt;Node5</title>
<g id="a_edge4_Node000004_Node000005"><a xlink:title=" ">
<path fill="none" stroke="#63b8ff" d="M158.88,-359.27C187.42,-365.64 231.76,-375.53 263.35,-382.57"/>
<polygon fill="#63b8ff" stroke="#63b8ff" points="262.36,-385.94 272.88,-384.7 263.88,-379.11 262.36,-385.94"/>
</a>
</g>
</g>
<!-- Node11 -->
<g id="Node000011" class="node">
<title>Node11</title>
<g id="a_Node000011"><a xlink:href="main_8cpp.html#a413ed82437706932602a46bf716063ca" target="_top" xlink:title="Crée et ajoute la sphère à la scène.">
<polygon fill="white" stroke="#666666" points="333.38,-363 270.88,-363 270.88,-343 333.38,-343 333.38,-363"/>
<text text-anchor="middle" x="302.12" y="-349.5" font-family="Helvetica,sans-Serif" font-size="10.00">addSphere</text>
</a>
</g>
</g>
<!-- Node4&#45;&gt;Node11 -->
<g id="edge10_Node000004_Node000011" class="edge">
<title>Node4&#45;&gt;Node11</title>
<g id="a_edge10_Node000004_Node000011"><a xlink:title=" ">
<path fill="none" stroke="#63b8ff" d="M158.88,-353C186.21,-353 228.02,-353 259.25,-353"/>
<polygon fill="#63b8ff" stroke="#63b8ff" points="259.13,-356.5 269.13,-353 259.13,-349.5 259.13,-356.5"/>
</a>
</g>
</g>
<!-- Node14 -->
<g id="Node000014" class="node">
<title>Node14</title>
<g id="a_Node000014"><a xlink:href="class_engine3_d_1_1_scene.html#a6f62266c5c737fc1b52920370cd063ee" target="_top" xlink:title="Efface les triangles de la scène.">
<polygon fill="white" stroke="#666666" points="381.75,-325 222.5,-325 222.5,-305 381.75,-305 381.75,-325"/>
<text text-anchor="middle" x="302.12" y="-311.5" font-family="Helvetica,sans-Serif" font-size="10.00">Engine3D::Scene::clearTriangles</text>
</a>
</g>
</g>
<!-- Node4&#45;&gt;Node14 -->
<g id="edge15_Node000004_Node000014" class="edge">
<title>Node4&#45;&gt;Node14</title>
<g id="a_edge15_Node000004_Node000014"><a xlink:title=" ">
<path fill="none" stroke="#63b8ff" d="M158.88,-346.73C181.75,-341.63 214.75,-334.26 243.22,-327.92"/>
<polygon fill="#63b8ff" stroke="#63b8ff" points="243.8,-331.37 252.8,-325.78 242.28,-324.54 243.8,-331.37"/>
</a>
</g>
</g>
<!-- Node15 -->
<g id="Node000015" class="node">
<title>Node15</title>
<g id="a_Node000015"><a xlink:href="main_8cpp.html#a6ca502f882ebcc537dec54df94f57059" target="_top" xlink:title="Gère les événements clavier.">
<polygon fill="white" stroke="#666666" points="345,-275 259.25,-275 259.25,-255 345,-255 345,-275"/>
<text text-anchor="middle" x="302.12" y="-261.5" font-family="Helvetica,sans-Serif" font-size="10.00">handleKeyboard</text>
</a>
</g>
</g>
<!-- Node4&#45;&gt;Node15 -->
<g id="edge17_Node000004_Node000015" class="edge">
<title>Node4&#45;&gt;Node15</title>
<g id="a_edge17_Node000004_Node000015"><a xlink:title=" ">
<path fill="none" stroke="#63b8ff" d="M145.53,-342.66C163.27,-330.51 194.18,-310.23 222.5,-296 234.57,-289.94 248.12,-284.22 260.53,-279.4"/>
<polygon fill="#63b8ff" stroke="#63b8ff" points="261.55,-282.75 269.66,-275.93 259.07,-276.21 261.55,-282.75"/>
</a>
</g>
</g>
<!-- Node20 -->
<g id="Node000020" class="node">
<title>Node20</title>
<g id="a_Node000020"><a xlink:href="class_engine3_d_1_1_scene.html#a31514c322149277ab158e3ebe4e4627b" target="_top" xlink:title="Effectue le rendu de la scène.">
<polygon fill="white" stroke="#666666" points="364.88,-133 239.38,-133 239.38,-113 364.88,-113 364.88,-133"/>
<text text-anchor="middle" x="302.12" y="-119.5" font-family="Helvetica,sans-Serif" font-size="10.00">Engine3D::Scene::render</text>
</a>
</g>
</g>
<!-- Node4&#45;&gt;Node20 -->
<g id="edge22_Node000004_Node000020" class="edge">
<title>Node4&#45;&gt;Node20</title>
<g id="a_edge22_Node000004_Node000020"><a xlink:title=" ">
<path fill="none" stroke="#63b8ff" d="M138.51,-342.52C165.02,-306.74 252.19,-189.06 286.79,-142.35"/>
<polygon fill="#63b8ff" stroke="#63b8ff" points="289.47,-144.61 292.61,-134.5 283.84,-140.45 289.47,-144.61"/>
</a>
</g>
</g>
<!-- Node6 -->
<g id="Node000006" class="node">
<title>Node6</title>
<g id="a_Node000006"><a xlink:href="class_engine3_d_1_1_scene.html#a00742547f5704154300b459fdf626afc" target="_top" xlink:title="Ajoute des triangles à la scène.">
<polygon fill="white" stroke="#666666" points="577,-401 423,-401 423,-381 577,-381 577,-401"/>
<text text-anchor="middle" x="500" y="-387.5" font-family="Helvetica,sans-Serif" font-size="10.00">Engine3D::Scene::addTriangles</text>
</a>
</g>
</g>
<!-- Node5&#45;&gt;Node6 -->
<g id="edge5_Node000005_Node000006" class="edge">
<title>Node5&#45;&gt;Node6</title>
<g id="a_edge5_Node000005_Node000006"><a xlink:title=" ">
<path fill="none" stroke="#63b8ff" d="M329.95,-391C351.13,-391 381.94,-391 411.48,-391"/>
<polygon fill="#63b8ff" stroke="#63b8ff" points="411.2,-394.5 421.2,-391 411.2,-387.5 411.2,-394.5"/>
</a>
</g>
</g>
<!-- Node7 -->
<g id="Node000007" class="node">
<title>Node7</title>
<g id="a_Node000007"><a xlink:href="class_engine3_d_1_1_pave3d.html#a4119fbf8bcb7a8e53bf791e07dad4a36" target="_top" xlink:title="Retourne tous les triangles du pavé">
<polygon fill="white" stroke="#666666" points="578.5,-477 421.5,-477 421.5,-457 578.5,-457 578.5,-477"/>
<text text-anchor="middle" x="500" y="-463.5" font-family="Helvetica,sans-Serif" font-size="10.00">Engine3D::Pave3d::getTriangles</text>
</a>
</g>
</g>
<!-- Node5&#45;&gt;Node7 -->
<g id="edge6_Node000005_Node000007" class="edge">
<title>Node5&#45;&gt;Node7</title>
<g id="a_edge6_Node000005_Node000007"><a xlink:title=" ">
<path fill="none" stroke="#63b8ff" d="M330.03,-393.63C345.92,-396.1 365.95,-400.85 381.75,-410 401.88,-421.66 397.57,-436.42 417.75,-448 420.58,-449.62 423.53,-451.11 426.58,-452.46"/>
<polygon fill="#63b8ff" stroke="#63b8ff" points="425.19,-455.68 435.78,-456.06 427.74,-449.16 425.19,-455.68"/>
</a>
</g>
</g>
<!-- Node10 -->
<g id="Node000010" class="node">
<title>Node10</title>
<g id="a_Node000010"><a xlink:href="class_engine3_d_1_1_pave3d.html#a17d8fdec0f274f775de834fe0b1a6366" target="_top" xlink:title="Définit les angles de rotation.">
<polygon fill="white" stroke="#666666" points="577,-439 423,-439 423,-419 577,-419 577,-439"/>
<text text-anchor="middle" x="500" y="-425.5" font-family="Helvetica,sans-Serif" font-size="10.00">Engine3D::Pave3d::setRotation</text>
</a>
</g>
</g>
<!-- Node5&#45;&gt;Node10 -->
<g id="edge9_Node000005_Node000010" class="edge">
<title>Node5&#45;&gt;Node10</title>
<g id="a_edge9_Node000005_Node000010"><a xlink:title=" ">
<path fill="none" stroke="#63b8ff" d="M329.95,-396.2C356.61,-401.38 398.53,-409.51 433.95,-416.38"/>
<polygon fill="#63b8ff" stroke="#63b8ff" points="433.23,-419.8 443.71,-418.27 434.56,-412.93 433.23,-419.8"/>
</a>
</g>
</g>
<!-- Node8 -->
<g id="Node000008" class="node">
<title>Node8</title>
<g id="a_Node000008"><a xlink:href="class_engine3_d_1_1_quad3d.html#aaa0bdee0dc9d2376064665d7caf6b0f5" target="_top" xlink:title="Retourne les triangles du quad.">
<polygon fill="white" stroke="#666666" points="776,-417 618.25,-417 618.25,-397 776,-397 776,-417"/>
<text text-anchor="middle" x="697.12" y="-403.5" font-family="Helvetica,sans-Serif" font-size="10.00">Engine3D::Quad3d::getTriangles</text>
</a>
</g>
</g>
<!-- Node7&#45;&gt;Node8 -->
<g id="edge7_Node000007_Node000008" class="edge">
<title>Node7&#45;&gt;Node8</title>
<g id="a_edge7_Node000007_Node000008"><a xlink:title=" ">
<path fill="none" stroke="#63b8ff" d="M549.79,-456.56C560.54,-453.99 571.83,-451.08 582.25,-448 608.28,-440.3 637.03,-429.93 659.14,-421.55"/>
<polygon fill="#63b8ff" stroke="#63b8ff" points="660.22,-424.88 668.31,-418.03 657.72,-418.34 660.22,-424.88"/>
</a>
</g>
</g>
<!-- Node9 -->
<g id="Node000009" class="node">
<title>Node9</title>
<g id="a_Node000009"><a xlink:href="class_engine3_d_1_1_pave3d.html#a9ac0e8d9d88b16945a180d5e86b09879" target="_top" xlink:title="Applique la rotation à un point.">
<polygon fill="white" stroke="#666666" points="761.38,-483 632.88,-483 632.88,-451 761.38,-451 761.38,-483"/>
<text text-anchor="start" x="640.88" y="-469.5" font-family="Helvetica,sans-Serif" font-size="10.00">Engine3D::Pave3d::rotate</text>
<text text-anchor="middle" x="697.12" y="-457.5" font-family="Helvetica,sans-Serif" font-size="10.00">Point</text>
</a>
</g>
</g>
<!-- Node7&#45;&gt;Node9 -->
<g id="edge8_Node000007_Node000009" class="edge">
<title>Node7&#45;&gt;Node9</title>
<g id="a_edge8_Node000007_Node000009"><a xlink:title=" ">
<path fill="none" stroke="#63b8ff" d="M578.96,-467C592.89,-467 607.38,-467 621.23,-467"/>
<polygon fill="#63b8ff" stroke="#63b8ff" points="621.16,-470.5 631.16,-467 621.16,-463.5 621.16,-470.5"/>
</a>
</g>
</g>
<!-- Node11&#45;&gt;Node6 -->
<g id="edge11_Node000011_Node000006" class="edge">
<title>Node11&#45;&gt;Node6</title>
<g id="a_edge11_Node000011_Node000006"><a xlink:title=" ">
<path fill="none" stroke="#63b8ff" d="M333.73,-358.94C360.41,-364.11 400.01,-371.8 433.76,-378.34"/>
<polygon fill="#63b8ff" stroke="#63b8ff" points="432.99,-381.76 443.47,-380.23 434.32,-374.89 432.99,-381.76"/>
</a>
</g>
</g>
<!-- Node12 -->
<g id="Node000012" class="node">
<title>Node12</title>
<g id="a_Node000012"><a xlink:href="class_engine3_d_1_1_sphere3d.html#a2021bf0962839e427e464bb61e8702e0" target="_top" xlink:title="Retourne tous les triangles de la sphère.">
<polygon fill="white" stroke="#666666" points="553,-363 447,-363 447,-331 553,-331 553,-363"/>
<text text-anchor="start" x="455" y="-349.5" font-family="Helvetica,sans-Serif" font-size="10.00">Engine3D::Sphere3d</text>
<text text-anchor="middle" x="500" y="-337.5" font-family="Helvetica,sans-Serif" font-size="10.00">::getTriangles</text>
</a>
</g>
</g>
<!-- Node11&#45;&gt;Node12 -->
<g id="edge12_Node000011_Node000012" class="edge">
<title>Node11&#45;&gt;Node12</title>
<g id="a_edge12_Node000011_Node000012"><a xlink:title=" ">
<path fill="none" stroke="#63b8ff" d="M333.73,-352.06C360.8,-351.23 401.16,-350 435.23,-348.95"/>
<polygon fill="#63b8ff" stroke="#63b8ff" points="435.11,-352.46 445,-348.65 434.89,-345.46 435.11,-352.46"/>
</a>
</g>
</g>
<!-- Node12&#45;&gt;Node8 -->
<g id="edge13_Node000012_Node000008" class="edge">
<title>Node12&#45;&gt;Node8</title>
<g id="a_edge13_Node000012_Node000008"><a xlink:title=" ">
<path fill="none" stroke="#63b8ff" d="M553.29,-363.08C583.92,-372.5 622.2,-384.27 651.42,-393.25"/>
<polygon fill="#63b8ff" stroke="#63b8ff" points="650.11,-396.51 660.69,-396.11 652.16,-389.82 650.11,-396.51"/>
</a>
</g>
</g>
<!-- Node13 -->
<g id="Node000013" class="node">
<title>Node13</title>
<g id="a_Node000013"><a xlink:href="class_engine3_d_1_1_sphere3d.html#aa65545be81f5e53f004d31e7a368879e" target="_top" xlink:title="Calcule un point sur la sphère.">
<polygon fill="white" stroke="#666666" points="750.12,-363 644.12,-363 644.12,-331 750.12,-331 750.12,-363"/>
<text text-anchor="start" x="652.12" y="-349.5" font-family="Helvetica,sans-Serif" font-size="10.00">Engine3D::Sphere3d</text>
<text text-anchor="middle" x="697.12" y="-337.5" font-family="Helvetica,sans-Serif" font-size="10.00">::spherePoint</text>
</a>
</g>
</g>
<!-- Node12&#45;&gt;Node13 -->
<g id="edge14_Node000012_Node000013" class="edge">
<title>Node12&#45;&gt;Node13</title>
<g id="a_edge14_Node000012_Node000013"><a xlink:title=" ">
<path fill="none" stroke="#63b8ff" d="M553.29,-347C577.57,-347 606.65,-347 632.22,-347"/>
<polygon fill="#63b8ff" stroke="#63b8ff" points="632.18,-350.5 642.18,-347 632.18,-343.5 632.18,-350.5"/>
</a>
</g>
</g>
<!-- Node16 -->
<g id="Node000016" class="node">
<title>Node16</title>
<g id="a_Node000016"><a xlink:href="class_engine3_d_1_1_camera.html#ac18b61991512f3ebf3ef1debbd696826" target="_top" xlink:title="Déplace la caméra vers l&#39;avant/arrière.">
<polygon fill="white" stroke="#666666" points="582.25,-313 417.75,-313 417.75,-293 582.25,-293 582.25,-313"/>
<text text-anchor="middle" x="500" y="-299.5" font-family="Helvetica,sans-Serif" font-size="10.00">Engine3D::Camera::moveForward</text>
</a>
</g>
</g>
<!-- Node15&#45;&gt;Node16 -->
<g id="edge18_Node000015_Node000016" class="edge">
<title>Node15&#45;&gt;Node16</title>
<g id="a_edge18_Node000015_Node000016"><a xlink:title=" ">
<path fill="none" stroke="#63b8ff" d="M345.15,-273.15C371.06,-278.18 404.83,-284.73 434.13,-290.42"/>
<polygon fill="#63b8ff" stroke="#63b8ff" points="433.15,-293.79 443.63,-292.26 434.48,-286.92 433.15,-293.79"/>
</a>
</g>
</g>
<!-- Node17 -->
<g id="Node000017" class="node">
<title>Node17</title>
<g id="a_Node000017"><a xlink:href="class_engine3_d_1_1_camera.html#abb855c0ef667db6bc7af192bd84dd4a2" target="_top" xlink:title="Déplace la caméra vers la gauche.">
<polygon fill="white" stroke="#666666" points="572.88,-275 427.12,-275 427.12,-255 572.88,-255 572.88,-275"/>
<text text-anchor="middle" x="500" y="-261.5" font-family="Helvetica,sans-Serif" font-size="10.00">Engine3D::Camera::moveLeft</text>
</a>
</g>
</g>
<!-- Node15&#45;&gt;Node17 -->
<g id="edge19_Node000015_Node000017" class="edge">
<title>Node15&#45;&gt;Node17</title>
<g id="a_edge19_Node000015_Node000017"><a xlink:title=" ">
<path fill="none" stroke="#63b8ff" d="M345.15,-265C365.72,-265 391.24,-265 415.55,-265"/>
<polygon fill="#63b8ff" stroke="#63b8ff" points="415.47,-268.5 425.47,-265 415.47,-261.5 415.47,-268.5"/>
</a>
</g>
</g>
<!-- Node18 -->
<g id="Node000018" class="node">
<title>Node18</title>
<g id="a_Node000018"><a xlink:href="class_engine3_d_1_1_camera.html#a202134048c2aebba77b966d09c1bbbaa" target="_top" xlink:title="Déplace la caméra vers la droite.">
<polygon fill="white" stroke="#666666" points="576.25,-237 423.75,-237 423.75,-217 576.25,-217 576.25,-237"/>
<text text-anchor="middle" x="500" y="-223.5" font-family="Helvetica,sans-Serif" font-size="10.00">Engine3D::Camera::moveRight</text>
</a>
</g>
</g>
<!-- Node15&#45;&gt;Node18 -->
<g id="edge20_Node000015_Node000018" class="edge">
<title>Node15&#45;&gt;Node18</title>
<g id="a_edge20_Node000015_Node000018"><a xlink:title=" ">
<path fill="none" stroke="#63b8ff" d="M345.15,-256.85C371.06,-251.82 404.83,-245.27 434.13,-239.58"/>
<polygon fill="#63b8ff" stroke="#63b8ff" points="434.48,-243.08 443.63,-237.74 433.15,-236.21 434.48,-243.08"/>
</a>
</g>
</g>
<!-- Node19 -->
<g id="Node000019" class="node">
<title>Node19</title>
<g id="a_Node000019"><a xlink:href="class_engine3_d_1_1_camera.html#a74a770aa2d2934ca4728fddb668f67e6" target="_top" xlink:title="Déplace la caméra vers le haut/bas.">
<polygon fill="white" stroke="#666666" points="571,-199 429,-199 429,-179 571,-179 571,-199"/>
<text text-anchor="middle" x="500" y="-185.5" font-family="Helvetica,sans-Serif" font-size="10.00">Engine3D::Camera::moveUp</text>
</a>
</g>
</g>
<!-- Node15&#45;&gt;Node19 -->
<g id="edge21_Node000015_Node000019" class="edge">
<title>Node15&#45;&gt;Node19</title>
<g id="a_edge21_Node000015_Node000019"><a xlink:title=" ">
<path fill="none" stroke="#63b8ff" d="M320.82,-254.58C342.86,-241.98 381.99,-220.87 417.75,-208 423.46,-205.95 429.47,-204.05 435.54,-202.33"/>
<polygon fill="#63b8ff" stroke="#63b8ff" points="436.25,-205.76 445,-199.79 434.44,-199 436.25,-205.76"/>
</a>
</g>
</g>
<!-- Node21 -->
<g id="Node000021" class="node">
<title>Node21</title>
<g id="a_Node000021"><a xlink:href="class_engine3_d_1_1_scene.html#a572a13e5c6c08eced30fc482cc9fdeee" target="_top" xlink:title="Vérifie si un triangle est visible.">
<polygon fill="white" stroke="#666666" points="570.25,-161 429.75,-161 429.75,-129 570.25,-129 570.25,-161"/>
<text text-anchor="start" x="437.75" y="-147.5" font-family="Helvetica,sans-Serif" font-size="10.00">Engine3D::Scene::isTriangle</text>
<text text-anchor="middle" x="500" y="-135.5" font-family="Helvetica,sans-Serif" font-size="10.00">Visible</text>
</a>
</g>
</g>
<!-- Node20&#45;&gt;Node21 -->
<g id="edge23_Node000020_Node000021" class="edge">
<title>Node20&#45;&gt;Node21</title>
<g id="a_edge23_Node000020_Node000021"><a xlink:title=" ">
<path fill="none" stroke="#63b8ff" d="M365.37,-129.99C382.09,-131.87 400.43,-133.93 418.01,-135.9"/>
<polygon fill="#63b8ff" stroke="#63b8ff" points="417.6,-139.38 427.93,-137.02 418.38,-132.42 417.6,-139.38"/>
</a>
</g>
</g>
<!-- Node28 -->
<g id="Node000028" class="node">
<title>Node28</title>
<g id="a_Node000028"><a xlink:href="class_engine3_d_1_1_scene.html#ac59015c65f655e7843507970be7178a4" target="_top" xlink:title="Projette un point 3D en point 2D.">
<polygon fill="white" stroke="#666666" points="563.88,-111 436.12,-111 436.12,-91 563.88,-91 563.88,-111"/>
<text text-anchor="middle" x="500" y="-97.5" font-family="Helvetica,sans-Serif" font-size="10.00">Engine3D::Scene::project</text>
</a>
</g>
</g>
<!-- Node20&#45;&gt;Node28 -->
<g id="edge32_Node000020_Node000028" class="edge">
<title>Node20&#45;&gt;Node28</title>
<g id="a_edge32_Node000020_Node000028"><a xlink:title=" ">
<path fill="none" stroke="#63b8ff" d="M365.37,-116.01C384.19,-113.89 405.05,-111.55 424.59,-109.36"/>
<polygon fill="#63b8ff" stroke="#63b8ff" points="424.86,-112.85 434.4,-108.26 424.07,-105.89 424.86,-112.85"/>
</a>
</g>
</g>
<!-- Node29 -->
<g id="Node000029" class="node">
<title>Node29</title>
<g id="a_Node000029"><a xlink:href="class_engine3_d_1_1_scene.html#ae4f80fe1878d214d93eddd483c7c9e9b" target="_top" xlink:title="Rasterise un triangle 2D.">
<polygon fill="white" stroke="#666666" points="568,-70 432,-70 432,-38 568,-38 568,-70"/>
<text text-anchor="start" x="440" y="-56.5" font-family="Helvetica,sans-Serif" font-size="10.00">Engine3D::Scene::rasterize</text>
<text text-anchor="middle" x="500" y="-44.5" font-family="Helvetica,sans-Serif" font-size="10.00">Triangle</text>
</a>
</g>
</g>
<!-- Node20&#45;&gt;Node29 -->
<g id="edge33_Node000020_Node000029" class="edge">
<title>Node20&#45;&gt;Node29</title>
<g id="a_edge33_Node000020_Node000029"><a xlink:title=" ">
<path fill="none" stroke="#63b8ff" d="M331.83,-112.63C354.99,-104.28 388.44,-92.29 417.75,-82 424.94,-79.48 432.49,-76.84 439.98,-74.25"/>
<polygon fill="#63b8ff" stroke="#63b8ff" points="441.11,-77.56 449.42,-70.98 438.82,-70.95 441.11,-77.56"/>
</a>
</g>
</g>
<!-- Node22 -->
<g id="Node000022" class="node">
<title>Node22</title>
<g id="a_Node000022"><a xlink:href="class_engine3_d_1_1_triangle3d.html#ac8467f3fbeb5ebd572c5b86dc8e5efba" target="_top" xlink:title="Calcule le centre du triangle.">
<polygon fill="white" stroke="#666666" points="752,-208 642.25,-208 642.25,-176 752,-176 752,-208"/>
<text text-anchor="start" x="650.25" y="-194.5" font-family="Helvetica,sans-Serif" font-size="10.00">Engine3D::Triangle3d</text>
<text text-anchor="middle" x="697.12" y="-182.5" font-family="Helvetica,sans-Serif" font-size="10.00">::center</text>
</a>
</g>
</g>
<!-- Node21&#45;&gt;Node22 -->
<g id="edge24_Node000021_Node000022" class="edge">
<title>Node21&#45;&gt;Node22</title>
<g id="a_edge24_Node000021_Node000022"><a xlink:title=" ">
<path fill="none" stroke="#63b8ff" d="M569.25,-161.44C589.27,-166.26 611.12,-171.52 630.95,-176.3"/>
<polygon fill="#63b8ff" stroke="#63b8ff" points="630.04,-179.68 640.58,-178.62 631.68,-172.88 630.04,-179.68"/>
</a>
</g>
</g>
<!-- Node23 -->
<g id="Node000023" class="node">
<title>Node23</title>
<g id="a_Node000023"><a xlink:href="class_engine3_d_1_1_point3d.html#ae2fe7656b9388965fb9e890a89b28dcb" target="_top" xlink:title="Produit scalaire.">
<polygon fill="white" stroke="#666666" points="949.12,-158 831.88,-158 831.88,-138 949.12,-138 949.12,-158"/>
<text text-anchor="middle" x="890.5" y="-144.5" font-family="Helvetica,sans-Serif" font-size="10.00">Engine3D::Point3d::dot</text>
</a>
</g>
</g>
<!-- Node21&#45;&gt;Node23 -->
<g id="edge25_Node000021_Node000023" class="edge">
<title>Node21&#45;&gt;Node23</title>
<g id="a_edge25_Node000021_Node000023"><a xlink:title=" ">
<path fill="none" stroke="#63b8ff" d="M570.46,-145.54C640.96,-146.08 749.49,-146.92 820,-147.46"/>
<polygon fill="#63b8ff" stroke="#63b8ff" points="819.87,-150.96 829.9,-147.54 819.93,-143.96 819.87,-150.96"/>
</a>
</g>
</g>
<!-- Node25 -->
<g id="Node000025" class="node">
<title>Node25</title>
<g id="a_Node000025"><a xlink:href="class_engine3_d_1_1_triangle3d.html#a36a10c8fdb5ead425abf77d7bd3ec6d4" target="_top" xlink:title="Calcule la normale du triangle.">
<polygon fill="white" stroke="#666666" points="752,-120 642.25,-120 642.25,-88 752,-88 752,-120"/>
<text text-anchor="start" x="650.25" y="-106.5" font-family="Helvetica,sans-Serif" font-size="10.00">Engine3D::Triangle3d</text>
<text text-anchor="middle" x="697.12" y="-94.5" font-family="Helvetica,sans-Serif" font-size="10.00">::normal</text>
</a>
</g>
</g>
<!-- Node21&#45;&gt;Node25 -->
<g id="edge27_Node000021_Node000025" class="edge">
<title>Node21&#45;&gt;Node25</title>
<g id="a_edge27_Node000021_Node000025"><a xlink:title=" ">
<path fill="none" stroke="#63b8ff" d="M570.62,-130.37C590.2,-126.26 611.42,-121.8 630.74,-117.74"/>
<polygon fill="#63b8ff" stroke="#63b8ff" points="631.32,-121.19 640.39,-115.71 629.88,-114.34 631.32,-121.19"/>
</a>
</g>
</g>
<!-- Node24 -->
<g id="Node000024" class="node">
<title>Node24</title>
<g id="a_Node000024"><a xlink:href="class_engine3_d_1_1_point3d.html#a0fe8b9187cff415e2e11cc0043bbedb6" target="_top" xlink:title="Constructeur par défaut.">
<polygon fill="white" stroke="#666666" points="1108.75,-120 1005,-120 1005,-88 1108.75,-88 1108.75,-120"/>
<text text-anchor="start" x="1013" y="-106.5" font-family="Helvetica,sans-Serif" font-size="10.00">Engine3D::Point3d::</text>
<text text-anchor="middle" x="1056.88" y="-94.5" font-family="Helvetica,sans-Serif" font-size="10.00">Point3d</text>
</a>
</g>
</g>
<!-- Node23&#45;&gt;Node24 -->
<g id="edge26_Node000023_Node000024" class="edge">
<title>Node23&#45;&gt;Node24</title>
<g id="a_edge26_Node000023_Node000024"><a xlink:title=" ">
<path fill="none" stroke="#63b8ff" d="M935.43,-137.55C946.42,-134.85 958.16,-131.89 969,-129 977.01,-126.87 985.42,-124.55 993.72,-122.21"/>
<polygon fill="#63b8ff" stroke="#63b8ff" points="994.4,-125.66 1003.06,-119.56 992.49,-118.92 994.4,-125.66"/>
</a>
</g>
</g>
<!-- Node26 -->
<g id="Node000026" class="node">
<title>Node26</title>
<g id="a_Node000026"><a xlink:href="class_engine3_d_1_1_point3d.html#a5bda2a757a3d5c95fa931087c7b21ae6" target="_top" xlink:title="Produit vectoriel.">
<polygon fill="white" stroke="#666666" points="942.38,-120 838.62,-120 838.62,-88 942.38,-88 942.38,-120"/>
<text text-anchor="start" x="846.62" y="-106.5" font-family="Helvetica,sans-Serif" font-size="10.00">Engine3D::Point3d::</text>
<text text-anchor="middle" x="890.5" y="-94.5" font-family="Helvetica,sans-Serif" font-size="10.00">cross</text>
</a>
</g>
</g>
<!-- Node25&#45;&gt;Node26 -->
<g id="edge28_Node000025_Node000026" class="edge">
<title>Node25&#45;&gt;Node26</title>
<g id="a_edge28_Node000025_Node000026"><a xlink:title=" ">
<path fill="none" stroke="#63b8ff" d="M752.45,-104C775.63,-104 802.8,-104 826.82,-104"/>
<polygon fill="#63b8ff" stroke="#63b8ff" points="826.81,-107.5 836.81,-104 826.81,-100.5 826.81,-107.5"/>
</a>
</g>
</g>
<!-- Node27 -->
<g id="Node000027" class="node">
<title>Node27</title>
<g id="a_Node000027"><a xlink:href="class_engine3_d_1_1_point3d.html#a47b11f8208e5c25f2d5f04c49cd10bd4" target="_top" xlink:title="Normalise le vecteur.">
<polygon fill="white" stroke="#666666" points="942.38,-70 838.62,-70 838.62,-38 942.38,-38 942.38,-70"/>
<text text-anchor="start" x="846.62" y="-56.5" font-family="Helvetica,sans-Serif" font-size="10.00">Engine3D::Point3d::</text>
<text text-anchor="middle" x="890.5" y="-44.5" font-family="Helvetica,sans-Serif" font-size="10.00">normalize</text>
</a>
</g>
</g>
<!-- Node25&#45;&gt;Node27 -->
<g id="edge30_Node000025_Node000027" class="edge">
<title>Node25&#45;&gt;Node27</title>
<g id="a_edge30_Node000025_Node000027"><a xlink:title=" ">
<path fill="none" stroke="#63b8ff" d="M752.45,-89.81C775.84,-83.7 803.3,-76.52 827.47,-70.21"/>
<polygon fill="#63b8ff" stroke="#63b8ff" points="828.07,-73.67 836.86,-67.75 826.3,-66.89 828.07,-73.67"/>
</a>
</g>
</g>
<!-- Node26&#45;&gt;Node24 -->
<g id="edge29_Node000026_Node000024" class="edge">
<title>Node26&#45;&gt;Node24</title>
<g id="a_edge29_Node000026_Node000024"><a xlink:title=" ">
<path fill="none" stroke="#63b8ff" d="M942.61,-104C958.61,-104 976.46,-104 993.17,-104"/>
<polygon fill="#63b8ff" stroke="#63b8ff" points="993,-107.5 1003,-104 993,-100.5 993,-107.5"/>
</a>
</g>
</g>
<!-- Node27&#45;&gt;Node24 -->
<g id="edge31_Node000027_Node000024" class="edge">
<title>Node27&#45;&gt;Node24</title>
<g id="a_edge31_Node000027_Node000024"><a xlink:title=" ">
<path fill="none" stroke="#63b8ff" d="M942.61,-69.55C958.77,-74.46 976.8,-79.95 993.65,-85.07"/>
<polygon fill="#63b8ff" stroke="#63b8ff" points="992.48,-88.38 1003.07,-87.94 994.52,-81.68 992.48,-88.38"/>
</a>
</g>
</g>
<!-- Node30 -->
<g id="Node000030" class="node">
<title>Node30</title>
<g id="a_Node000030"><a xlink:href="class_engine3_d_1_1_scene.html#a8837c73c8733a95bc50118d1aded5155" target="_top" xlink:title="Rasterise la partie plate du triangle (haut ou bas).">
<polygon fill="white" stroke="#666666" points="759.5,-70 634.75,-70 634.75,-38 759.5,-38 759.5,-70"/>
<text text-anchor="start" x="642.75" y="-56.5" font-family="Helvetica,sans-Serif" font-size="10.00">Engine3D::Scene::fillFlat</text>
<text text-anchor="middle" x="697.12" y="-44.5" font-family="Helvetica,sans-Serif" font-size="10.00">Bottom</text>
</a>
</g>
</g>
<!-- Node29&#45;&gt;Node30 -->
<g id="edge34_Node000029_Node000030" class="edge">
<title>Node29&#45;&gt;Node30</title>
<g id="a_edge34_Node000029_Node000030"><a xlink:title=" ">
<path fill="none" stroke="#63b8ff" d="M568.42,-54C586.04,-54 605.11,-54 623,-54"/>
<polygon fill="#63b8ff" stroke="#63b8ff" points="622.75,-57.5 632.75,-54 622.75,-50.5 622.75,-57.5"/>
</a>
</g>
</g>
<!-- Node32 -->
<g id="Node000032" class="node">
<title>Node32</title>
<g id="a_Node000032"><a xlink:href="class_engine3_d_1_1_scene.html#a817b9c0fd5988cb4867e3c73773b2584" target="_top" xlink:title="Rasterise la partie plate supérieure du triangle.">
<polygon fill="white" stroke="#666666" points="767.38,-20 626.88,-20 626.88,0 767.38,0 767.38,-20"/>
<text text-anchor="middle" x="697.12" y="-6.5" font-family="Helvetica,sans-Serif" font-size="10.00">Engine3D::Scene::fillFlatTop</text>
</a>
</g>
</g>
<!-- Node29&#45;&gt;Node32 -->
<g id="edge36_Node000029_Node000032" class="edge">
<title>Node29&#45;&gt;Node32</title>
<g id="a_edge36_Node000029_Node000032"><a xlink:title=" ">
<path fill="none" stroke="#63b8ff" d="M568.42,-38.8C591.22,-33.66 616.45,-27.97 638.42,-23.01"/>
<polygon fill="#63b8ff" stroke="#63b8ff" points="639.12,-26.44 648.11,-20.83 637.58,-19.61 639.12,-26.44"/>
</a>
</g>
</g>
<!-- Node31 -->
<g id="Node000031" class="node">
<title>Node31</title>
<g id="a_Node000031"><a xlink:href="class_engine3_d_1_1_scene.html#a68735735b2e868f144acdb359c153025" target="_top" xlink:title="Dessine une ligne horizontale du triangle via technique scanline.">
<polygon fill="white" stroke="#666666" points="969,-20 812,-20 812,0 969,0 969,-20"/>
<text text-anchor="middle" x="890.5" y="-6.5" font-family="Helvetica,sans-Serif" font-size="10.00">Engine3D::Scene::drawScanline</text>
</a>
</g>
</g>
<!-- Node30&#45;&gt;Node31 -->
<g id="edge35_Node000030_Node000031" class="edge">
<title>Node30&#45;&gt;Node31</title>
<g id="a_edge35_Node000030_Node000031"><a xlink:title=" ">
<path fill="none" stroke="#63b8ff" d="M759.99,-39.78C783.46,-34.38 810.03,-28.27 832.98,-23"/>
<polygon fill="#63b8ff" stroke="#63b8ff" points="833.48,-26.47 842.44,-20.82 831.91,-19.65 833.48,-26.47"/>
</a>
</g>
</g>
<!-- Node32&#45;&gt;Node31 -->
<g id="edge37_Node000032_Node000031" class="edge">
<title>Node32&#45;&gt;Node31</title>
<g id="a_edge37_Node000032_Node000031"><a xlink:title=" ">
<path fill="none" stroke="#63b8ff" d="M767.76,-10C778.39,-10 789.48,-10 800.46,-10"/>
<polygon fill="#63b8ff" stroke="#63b8ff" points="800.31,-13.5 810.31,-10 800.31,-6.5 800.31,-13.5"/>
</a>
</g>
</g>
</g>
</svg>
