<?xml version="1.0" encoding="UTF-8" standalone="no"?>
<!DOCTYPE svg PUBLIC "-//W3C//DTD SVG 1.1//EN"
 "http://www.w3.org/Graphics/SVG/1.1/DTD/svg11.dtd">
<!-- Generated by graphviz version 12.2.1 (0)
 -->
<!-- Title: addSphere Pages: 1 -->
<svg width="454pt" height="100pt"
 viewBox="0.00 0.00 454.25 100.00" xmlns="http://www.w3.org/2000/svg" xmlns:xlink="http://www.w3.org/1999/xlink">

<svg id="main" version="1.1" xmlns="http://www.w3.org/2000/svg" xmlns:xlink="http://www.w3.org/1999/xlink" xml:space="preserve">

<style type="text/css"><![CDATA[
.node, .edge {opacity: 0.7;}
.node.selected, .edge.selected {opacity: 1;}
.edge:hover path { stroke: red; }
.edge:hover polygon { stroke: red; fill: red; }
]]></style>
<script type="application/ecmascript" xlink:href="svg.min.js"/>
<svg id="graph" class="graph">
<g id="graph0" class="graph" transform="scale(1 1) rotate(0) translate(4 96)">
<title>addSphere</title>
<!-- Node1 -->
<g id="Node000001" class="node">
<title>Node1</title>
<g id="a_Node000001"><a xlink:title="Crée et ajoute la sphère à la scène.">
<polygon fill="#999999" stroke="#666666" points="62.5,-70 0,-70 0,-50 62.5,-50 62.5,-70"/>
<text text-anchor="middle" x="31.25" y="-56.5" font-family="Helvetica,sans-Serif" font-size="10.00">addSphere</text>
</a>
</g>
</g>
<!-- Node2 -->
<g id="Node000002" class="node">
<title>Node2</title>
<g id="a_Node000002"><a xlink:href="class_engine3_d_1_1_scene.html#a00742547f5704154300b459fdf626afc" target="_top" xlink:title="Ajoute des triangles à la scène.">
<polygon fill="white" stroke="#666666" points="252.5,-92 98.5,-92 98.5,-72 252.5,-72 252.5,-92"/>
<text text-anchor="middle" x="175.5" y="-78.5" font-family="Helvetica,sans-Serif" font-size="10.00">Engine3D::Scene::addTriangles</text>
</a>
</g>
</g>
<!-- Node1&#45;&gt;Node2 -->
<g id="edge1_Node000001_Node000002" class="edge">
<title>Node1&#45;&gt;Node2</title>
<g id="a_edge1_Node000001_Node000002"><a xlink:title=" ">
<path fill="none" stroke="#63b8ff" d="M62.77,-64.72C72.54,-66.23 83.85,-67.98 95.45,-69.77"/>
<polygon fill="#63b8ff" stroke="#63b8ff" points="94.71,-73.2 105.12,-71.27 95.78,-66.28 94.71,-73.2"/>
</a>
</g>
</g>
<!-- Node3 -->
<g id="Node000003" class="node">
<title>Node3</title>
<g id="a_Node000003"><a xlink:href="class_engine3_d_1_1_sphere3d.html#a2021bf0962839e427e464bb61e8702e0" target="_top" xlink:title="Retourne tous les triangles de la sphère.">
<polygon fill="white" stroke="#666666" points="228.5,-54 122.5,-54 122.5,-22 228.5,-22 228.5,-54"/>
<text text-anchor="start" x="130.5" y="-40.5" font-family="Helvetica,sans-Serif" font-size="10.00">Engine3D::Sphere3d</text>
<text text-anchor="middle" x="175.5" y="-28.5" font-family="Helvetica,sans-Serif" font-size="10.00">::getTriangles</text>
</a>
</g>
</g>
<!-- Node1&#45;&gt;Node3 -->
<g id="edge2_Node000001_Node000003" class="edge">
<title>Node1&#45;&gt;Node3</title>
<g id="a_edge2_Node000001_Node000003"><a xlink:title=" ">
<path fill="none" stroke="#63b8ff" d="M62.77,-55.28C76.96,-53.08 94.41,-50.39 111.25,-47.78"/>
<polygon fill="#63b8ff" stroke="#63b8ff" points="111.35,-51.31 120.7,-46.32 110.28,-44.39 111.35,-51.31"/>
</a>
</g>
</g>
<!-- Node4 -->
<g id="Node000004" class="node">
<title>Node4</title>
<g id="a_Node000004"><a xlink:href="class_engine3_d_1_1_quad3d.html#aaa0bdee0dc9d2376064665d7caf6b0f5" target="_top" xlink:title="Retourne les triangles du quad.">
<polygon fill="white" stroke="#666666" points="446.25,-70 288.5,-70 288.5,-50 446.25,-50 446.25,-70"/>
<text text-anchor="middle" x="367.38" y="-56.5" font-family="Helvetica,sans-Serif" font-size="10.00">Engine3D::Quad3d::getTriangles</text>
</a>
</g>
</g>
<!-- Node3&#45;&gt;Node4 -->
<g id="edge3_Node000003_Node000004" class="edge">
<title>Node3&#45;&gt;Node4</title>
<g id="a_edge3_Node000003_Node000004"><a xlink:title=" ">
<path fill="none" stroke="#63b8ff" d="M228.89,-44.07C243.78,-45.8 260.44,-47.73 276.88,-49.63"/>
<polygon fill="#63b8ff" stroke="#63b8ff" points="276.36,-53.09 286.69,-50.77 277.16,-46.14 276.36,-53.09"/>
</a>
</g>
</g>
<!-- Node5 -->
<g id="Node000005" class="node">
<title>Node5</title>
<g id="a_Node000005"><a xlink:href="class_engine3_d_1_1_sphere3d.html#aa65545be81f5e53f004d31e7a368879e" target="_top" xlink:title="Calcule un point sur la sphère.">
<polygon fill="white" stroke="#666666" points="420.38,-32 314.38,-32 314.38,0 420.38,0 420.38,-32"/>
<text text-anchor="start" x="322.38" y="-18.5" font-family="Helvetica,sans-Serif" font-size="10.00">Engine3D::Sphere3d</text>
<text text-anchor="middle" x="367.38" y="-6.5" font-family="Helvetica,sans-Serif" font-size="10.00">::spherePoint</text>
</a>
</g>
</g>
<!-- Node3&#45;&gt;Node5 -->
<g id="edge4_Node000003_Node000005" class="edge">
<title>Node3&#45;&gt;Node5</title>
<g id="a_edge4_Node000003_Node000005"><a xlink:title=" ">
<path fill="none" stroke="#63b8ff" d="M228.89,-31.93C251.82,-29.27 278.93,-26.13 302.99,-23.34"/>
<polygon fill="#63b8ff" stroke="#63b8ff" points="303.12,-26.85 312.66,-22.22 302.32,-19.9 303.12,-26.85"/>
</a>
</g>
</g>
</g>
</svg>
</svg>

<style type='text/css'>
<![CDATA[
[data-mouse-over-selected='false'] { opacity: 0.7; }
[data-mouse-over-selected='true']  { opacity: 1.0; }
]]>
</style>
<script type="application/ecmascript"><![CDATA[
document.addEventListener('DOMContentLoaded', (event) => {
  highlightEdges();
  highlightAdjacentNodes();
});
]]></script>
</svg>
