<?xml version="1.0" encoding="UTF-8" standalone="no"?>
<!DOCTYPE svg PUBLIC "-//W3C//DTD SVG 1.1//EN"
 "http://www.w3.org/Graphics/SVG/1.1/DTD/svg11.dtd">
<!-- Generated by graphviz version 12.2.1 (0)
 -->
<!-- Title: handleKeyboard Pages: 1 -->
<svg width="294pt" height="142pt"
 viewBox="0.00 0.00 294.25 142.00" xmlns="http://www.w3.org/2000/svg" xmlns:xlink="http://www.w3.org/1999/xlink">
<g id="graph0" class="graph" transform="scale(1 1) rotate(0) translate(4 138)">
<title>handleKeyboard</title>
<!-- Node1 -->
<g id="Node000001" class="node">
<title>Node1</title>
<g id="a_Node000001"><a xlink:title="Gère les événements clavier.">
<polygon fill="#999999" stroke="#666666" points="85.75,-77 0,-77 0,-57 85.75,-57 85.75,-77"/>
<text text-anchor="middle" x="42.88" y="-63.5" font-family="Helvetica,sans-Serif" font-size="10.00">handleKeyboard</text>
</a>
</g>
</g>
<!-- Node2 -->
<g id="Node000002" class="node">
<title>Node2</title>
<g id="a_Node000002"><a xlink:href="class_engine3_d_1_1_camera.html#ac18b61991512f3ebf3ef1debbd696826" target="_top" xlink:title="Déplace la caméra vers l&#39;avant/arrière.">
<polygon fill="white" stroke="#666666" points="286.25,-134 121.75,-134 121.75,-114 286.25,-114 286.25,-134"/>
<text text-anchor="middle" x="204" y="-120.5" font-family="Helvetica,sans-Serif" font-size="10.00">Engine3D::Camera::moveForward</text>
</a>
</g>
</g>
<!-- Node1&#45;&gt;Node2 -->
<g id="edge1_Node000001_Node000002" class="edge">
<title>Node1&#45;&gt;Node2</title>
<g id="a_edge1_Node000001_Node000002"><a xlink:title=" ">
<path fill="none" stroke="#63b8ff" d="M62.25,-77.43C77.72,-85.85 100.63,-97.49 121.75,-105 127.47,-107.03 133.48,-108.91 139.56,-110.63"/>
<polygon fill="#63b8ff" stroke="#63b8ff" points="138.46,-113.96 149.02,-113.15 140.26,-107.19 138.46,-113.96"/>
</a>
</g>
</g>
<!-- Node3 -->
<g id="Node000003" class="node">
<title>Node3</title>
<g id="a_Node000003"><a xlink:href="class_engine3_d_1_1_camera.html#abb855c0ef667db6bc7af192bd84dd4a2" target="_top" xlink:title="Déplace la caméra vers la gauche.">
<polygon fill="white" stroke="#666666" points="276.88,-96 131.12,-96 131.12,-76 276.88,-76 276.88,-96"/>
<text text-anchor="middle" x="204" y="-82.5" font-family="Helvetica,sans-Serif" font-size="10.00">Engine3D::Camera::moveLeft</text>
</a>
</g>
</g>
<!-- Node1&#45;&gt;Node3 -->
<g id="edge2_Node000001_Node000003" class="edge">
<title>Node1&#45;&gt;Node3</title>
<g id="a_edge2_Node000001_Node000003"><a xlink:title=" ">
<path fill="none" stroke="#63b8ff" d="M86.1,-72.04C96.5,-73.28 107.99,-74.66 119.6,-76.04"/>
<polygon fill="#63b8ff" stroke="#63b8ff" points="118.88,-79.48 129.22,-77.19 119.71,-72.53 118.88,-79.48"/>
</a>
</g>
</g>
<!-- Node4 -->
<g id="Node000004" class="node">
<title>Node4</title>
<g id="a_Node000004"><a xlink:href="class_engine3_d_1_1_camera.html#a202134048c2aebba77b966d09c1bbbaa" target="_top" xlink:title="Déplace la caméra vers la droite.">
<polygon fill="white" stroke="#666666" points="280.25,-58 127.75,-58 127.75,-38 280.25,-38 280.25,-58"/>
<text text-anchor="middle" x="204" y="-44.5" font-family="Helvetica,sans-Serif" font-size="10.00">Engine3D::Camera::moveRight</text>
</a>
</g>
</g>
<!-- Node1&#45;&gt;Node4 -->
<g id="edge3_Node000001_Node000004" class="edge">
<title>Node1&#45;&gt;Node4</title>
<g id="a_edge3_Node000001_Node000004"><a xlink:title=" ">
<path fill="none" stroke="#63b8ff" d="M86.1,-61.96C95.43,-60.84 105.65,-59.62 116.03,-58.38"/>
<polygon fill="#63b8ff" stroke="#63b8ff" points="116.32,-61.87 125.84,-57.21 115.49,-54.92 116.32,-61.87"/>
</a>
</g>
</g>
<!-- Node5 -->
<g id="Node000005" class="node">
<title>Node5</title>
<g id="a_Node000005"><a xlink:href="class_engine3_d_1_1_camera.html#a74a770aa2d2934ca4728fddb668f67e6" target="_top" xlink:title="Déplace la caméra vers le haut/bas.">
<polygon fill="white" stroke="#666666" points="275,-20 133,-20 133,0 275,0 275,-20"/>
<text text-anchor="middle" x="204" y="-6.5" font-family="Helvetica,sans-Serif" font-size="10.00">Engine3D::Camera::moveUp</text>
</a>
</g>
</g>
<!-- Node1&#45;&gt;Node5 -->
<g id="edge4_Node000001_Node000005" class="edge">
<title>Node1&#45;&gt;Node5</title>
<g id="a_edge4_Node000001_Node000005"><a xlink:title=" ">
<path fill="none" stroke="#63b8ff" d="M62.25,-56.57C77.72,-48.15 100.63,-36.51 121.75,-29 127.47,-26.97 133.48,-25.09 139.56,-23.37"/>
<polygon fill="#63b8ff" stroke="#63b8ff" points="140.26,-26.81 149.02,-20.85 138.46,-20.04 140.26,-26.81"/>
</a>
</g>
</g>
</g>
</svg>
