<?xml version="1.0" encoding="UTF-8" standalone="no"?>
<!DOCTYPE svg PUBLIC "-//W3C//DTD SVG 1.1//EN"
 "http://www.w3.org/Graphics/SVG/1.1/DTD/svg11.dtd">
<!-- Generated by graphviz version 12.2.1 (0)
 -->
<!-- Title: main.cpp Pages: 1 -->
<svg width="361pt" height="196pt"
 viewBox="0.00 0.00 361.38 196.00" xmlns="http://www.w3.org/2000/svg" xmlns:xlink="http://www.w3.org/1999/xlink">

<svg id="main" version="1.1" xmlns="http://www.w3.org/2000/svg" xmlns:xlink="http://www.w3.org/1999/xlink" xml:space="preserve">

<style type="text/css"><![CDATA[
.node, .edge {opacity: 0.7;}
.node.selected, .edge.selected {opacity: 1;}
.edge:hover path { stroke: red; }
.edge:hover polygon { stroke: red; fill: red; }
]]></style>
<script type="application/ecmascript" xlink:href="svg.min.js"/>
<svg id="graph" class="graph">
<g id="graph0" class="graph" transform="scale(1 1) rotate(0) translate(4 192)">
<title>main.cpp</title>
<!-- Node1 -->
<g id="Node000001" class="node">
<title>Node1</title>
<g id="a_Node000001"><a xlink:title="Boucle principale et gestion des événements clavier.">
<polygon fill="#999999" stroke="#666666" points="233.5,-188 177.75,-188 177.75,-168 233.5,-168 233.5,-188"/>
<text text-anchor="middle" x="205.62" y="-174.5" font-family="Helvetica,sans-Serif" font-size="10.00">main.cpp</text>
</a>
</g>
</g>
<!-- Node2 -->
<g id="Node000002" class="node">
<title>Node2</title>
<g id="a_Node000002"><a xlink:href="_sdl_8hpp.html" target="_top" xlink:title="Encapsulation de la bibliothèque SDL2.">
<polygon fill="white" stroke="#666666" points="111.12,-76 62.12,-76 62.12,-56 111.12,-56 111.12,-76"/>
<text text-anchor="middle" x="86.62" y="-62.5" font-family="Helvetica,sans-Serif" font-size="10.00">Sdl.hpp</text>
</a>
</g>
</g>
<!-- Node1&#45;&gt;Node2 -->
<g id="edge1_Node000001_Node000002" class="edge">
<title>Node1&#45;&gt;Node2</title>
<g id="a_edge1_Node000001_Node000002"><a xlink:title=" ">
<path fill="none" stroke="#63b8ff" d="M177.48,-170.93C155.28,-164.74 125.08,-152.98 106.62,-132 95.76,-119.65 90.8,-101.48 88.53,-87.49"/>
<polygon fill="#63b8ff" stroke="#63b8ff" points="92.01,-87.1 87.3,-77.61 85.06,-87.97 92.01,-87.1"/>
</a>
</g>
</g>
<!-- Node6 -->
<g id="Node000006" class="node">
<title>Node6</title>
<g id="a_Node000006"><a xlink:href="_geometry_8hpp.html" target="_top" xlink:title="Définition des classes géométriques.">
<polygon fill="white" stroke="#666666" points="244,-76 167.25,-76 167.25,-56 244,-56 244,-76"/>
<text text-anchor="middle" x="205.62" y="-62.5" font-family="Helvetica,sans-Serif" font-size="10.00">Geometry.hpp</text>
</a>
</g>
</g>
<!-- Node1&#45;&gt;Node6 -->
<g id="edge5_Node000001_Node000006" class="edge">
<title>Node1&#45;&gt;Node6</title>
<g id="a_edge5_Node000001_Node000006"><a xlink:title=" ">
<path fill="none" stroke="#63b8ff" d="M205.62,-167.62C205.62,-150.01 205.62,-111.59 205.62,-87.65"/>
<polygon fill="#63b8ff" stroke="#63b8ff" points="209.13,-87.87 205.63,-77.87 202.13,-87.87 209.13,-87.87"/>
</a>
</g>
</g>
<!-- Node8 -->
<g id="Node000008" class="node">
<title>Node8</title>
<g id="a_Node000008"><a xlink:title=" ">
<polygon fill="#e0e0e0" stroke="#999999" points="291.12,-20 248.12,-20 248.12,0 291.12,0 291.12,-20"/>
<text text-anchor="middle" x="269.62" y="-6.5" font-family="Helvetica,sans-Serif" font-size="10.00">cmath</text>
</a>
</g>
</g>
<!-- Node1&#45;&gt;Node8 -->
<g id="edge12_Node000001_Node000008" class="edge">
<title>Node1&#45;&gt;Node8</title>
<g id="a_edge12_Node000001_Node000008"><a xlink:title=" ">
<path fill="none" stroke="#63b8ff" d="M210.61,-167.77C219.9,-150.28 240.04,-110.94 252.62,-76 257.9,-61.36 262.29,-44.33 265.29,-31.38"/>
<polygon fill="#63b8ff" stroke="#63b8ff" points="268.64,-32.42 267.39,-21.89 261.81,-30.9 268.64,-32.42"/>
</a>
</g>
</g>
<!-- Node9 -->
<g id="Node000009" class="node">
<title>Node9</title>
<g id="a_Node000009"><a xlink:href="_scene_8hpp.html" target="_top" xlink:title="Gestion de la scène, caméra et rasterisation.">
<polygon fill="white" stroke="#666666" points="177.88,-132 115.38,-132 115.38,-112 177.88,-112 177.88,-132"/>
<text text-anchor="middle" x="146.62" y="-118.5" font-family="Helvetica,sans-Serif" font-size="10.00">Scene.hpp</text>
</a>
</g>
</g>
<!-- Node1&#45;&gt;Node9 -->
<g id="edge8_Node000001_Node000009" class="edge">
<title>Node1&#45;&gt;Node9</title>
<g id="a_edge8_Node000001_Node000009"><a xlink:title=" ">
<path fill="none" stroke="#63b8ff" d="M195.35,-167.59C187.06,-160.01 175.18,-149.13 165.22,-140.02"/>
<polygon fill="#63b8ff" stroke="#63b8ff" points="167.64,-137.49 157.9,-133.32 162.91,-142.65 167.64,-137.49"/>
</a>
</g>
</g>
<!-- Node10 -->
<g id="Node000010" class="node">
<title>Node10</title>
<g id="a_Node000010"><a xlink:title=" ">
<polygon fill="#e0e0e0" stroke="#999999" points="353.38,-132 299.88,-132 299.88,-112 353.38,-112 353.38,-132"/>
<text text-anchor="middle" x="326.62" y="-118.5" font-family="Helvetica,sans-Serif" font-size="10.00">iostream</text>
</a>
</g>
</g>
<!-- Node1&#45;&gt;Node10 -->
<g id="edge13_Node000001_Node000010" class="edge">
<title>Node1&#45;&gt;Node10</title>
<g id="a_edge13_Node000001_Node000010"><a xlink:title=" ">
<path fill="none" stroke="#63b8ff" d="M226.7,-167.59C245.58,-159.17 273.54,-146.69 295.09,-137.07"/>
<polygon fill="#63b8ff" stroke="#63b8ff" points="296.3,-140.37 304,-133.1 293.44,-133.98 296.3,-140.37"/>
</a>
</g>
</g>
<!-- Node3 -->
<g id="Node000003" class="node">
<title>Node3</title>
<g id="a_Node000003"><a xlink:title=" ">
<polygon fill="#e0e0e0" stroke="#999999" points="107.5,-20 63.75,-20 63.75,0 107.5,0 107.5,-20"/>
<text text-anchor="middle" x="85.62" y="-6.5" font-family="Helvetica,sans-Serif" font-size="10.00">SDL.h</text>
</a>
</g>
</g>
<!-- Node2&#45;&gt;Node3 -->
<g id="edge2_Node000002_Node000003" class="edge">
<title>Node2&#45;&gt;Node3</title>
<g id="a_edge2_Node000002_Node000003"><a xlink:title=" ">
<path fill="none" stroke="#63b8ff" d="M86.45,-55.59C86.33,-49.01 86.16,-39.96 86.01,-31.73"/>
<polygon fill="#63b8ff" stroke="#63b8ff" points="89.51,-31.75 85.83,-21.81 82.51,-31.87 89.51,-31.75"/>
</a>
</g>
</g>
<!-- Node4 -->
<g id="Node000004" class="node">
<title>Node4</title>
<g id="a_Node000004"><a xlink:title=" ">
<polygon fill="#e0e0e0" stroke="#999999" points="165.62,-20 125.62,-20 125.62,0 165.62,0 165.62,-20"/>
<text text-anchor="middle" x="145.62" y="-6.5" font-family="Helvetica,sans-Serif" font-size="10.00">string</text>
</a>
</g>
</g>
<!-- Node2&#45;&gt;Node4 -->
<g id="edge3_Node000002_Node000004" class="edge">
<title>Node2&#45;&gt;Node4</title>
<g id="a_edge3_Node000002_Node000004"><a xlink:title=" ">
<path fill="none" stroke="#63b8ff" d="M96.9,-55.59C105.19,-48.01 117.07,-37.13 127.03,-28.02"/>
<polygon fill="#63b8ff" stroke="#63b8ff" points="129.34,-30.65 134.35,-21.32 124.61,-25.49 129.34,-30.65"/>
</a>
</g>
</g>
<!-- Node5 -->
<g id="Node000005" class="node">
<title>Node5</title>
<g id="a_Node000005"><a xlink:title=" ">
<polygon fill="#e0e0e0" stroke="#999999" points="45.25,-20 0,-20 0,0 45.25,0 45.25,-20"/>
<text text-anchor="middle" x="22.62" y="-6.5" font-family="Helvetica,sans-Serif" font-size="10.00">cstdint</text>
</a>
</g>
</g>
<!-- Node2&#45;&gt;Node5 -->
<g id="edge4_Node000002_Node000005" class="edge">
<title>Node2&#45;&gt;Node5</title>
<g id="a_edge4_Node000002_Node000005"><a xlink:title=" ">
<path fill="none" stroke="#63b8ff" d="M75.48,-55.59C66.3,-47.85 53.07,-36.69 42.14,-27.47"/>
<polygon fill="#63b8ff" stroke="#63b8ff" points="44.7,-25.05 34.8,-21.27 40.19,-30.4 44.7,-25.05"/>
</a>
</g>
</g>
<!-- Node7 -->
<g id="Node000007" class="node">
<title>Node7</title>
<g id="a_Node000007"><a xlink:title=" ">
<polygon fill="#e0e0e0" stroke="#999999" points="227.12,-20 184.12,-20 184.12,0 227.12,0 227.12,-20"/>
<text text-anchor="middle" x="205.62" y="-6.5" font-family="Helvetica,sans-Serif" font-size="10.00">vector</text>
</a>
</g>
</g>
<!-- Node6&#45;&gt;Node7 -->
<g id="edge6_Node000006_Node000007" class="edge">
<title>Node6&#45;&gt;Node7</title>
<g id="a_edge6_Node000006_Node000007"><a xlink:title=" ">
<path fill="none" stroke="#63b8ff" d="M205.62,-55.59C205.62,-49.01 205.62,-39.96 205.62,-31.73"/>
<polygon fill="#63b8ff" stroke="#63b8ff" points="209.13,-31.81 205.63,-21.81 202.13,-31.81 209.13,-31.81"/>
</a>
</g>
</g>
<!-- Node6&#45;&gt;Node8 -->
<g id="edge7_Node000006_Node000008" class="edge">
<title>Node6&#45;&gt;Node8</title>
<g id="a_edge7_Node000006_Node000008"><a xlink:title=" ">
<path fill="none" stroke="#63b8ff" d="M216.77,-55.59C225.95,-47.85 239.18,-36.69 250.11,-27.47"/>
<polygon fill="#63b8ff" stroke="#63b8ff" points="252.06,-30.4 257.45,-21.27 247.55,-25.05 252.06,-30.4"/>
</a>
</g>
</g>
<!-- Node9&#45;&gt;Node2 -->
<g id="edge10_Node000009_Node000002" class="edge">
<title>Node9&#45;&gt;Node2</title>
<g id="a_edge10_Node000009_Node000002"><a xlink:title=" ">
<path fill="none" stroke="#63b8ff" d="M136.17,-111.59C127.66,-103.93 115.41,-92.91 105.23,-83.75"/>
<polygon fill="#63b8ff" stroke="#63b8ff" points="107.86,-81.4 98.08,-77.31 103.17,-86.6 107.86,-81.4"/>
</a>
</g>
</g>
<!-- Node9&#45;&gt;Node6 -->
<g id="edge9_Node000009_Node000006" class="edge">
<title>Node9&#45;&gt;Node6</title>
<g id="a_edge9_Node000009_Node000006"><a xlink:title=" ">
<path fill="none" stroke="#63b8ff" d="M156.9,-111.59C165.19,-104.01 177.07,-93.13 187.03,-84.02"/>
<polygon fill="#63b8ff" stroke="#63b8ff" points="189.34,-86.65 194.35,-77.32 184.61,-81.49 189.34,-86.65"/>
</a>
</g>
</g>
<!-- Node9&#45;&gt;Node7 -->
<g id="edge11_Node000009_Node000007" class="edge">
<title>Node9&#45;&gt;Node7</title>
<g id="a_edge11_Node000009_Node000007"><a xlink:title=" ">
<path fill="none" stroke="#63b8ff" d="M146.59,-111.58C146.91,-98.38 148.92,-73.98 158.62,-56 164.52,-45.08 174.01,-35.25 182.92,-27.58"/>
<polygon fill="#63b8ff" stroke="#63b8ff" points="185.05,-30.36 190.65,-21.36 180.66,-24.9 185.05,-30.36"/>
</a>
</g>
</g>
</g>
</svg>
</svg>

<style type='text/css'>
<![CDATA[
[data-mouse-over-selected='false'] { opacity: 0.7; }
[data-mouse-over-selected='true']  { opacity: 1.0; }
]]>
</style>
<script type="application/ecmascript"><![CDATA[
document.addEventListener('DOMContentLoaded', (event) => {
  highlightEdges();
  highlightAdjacentNodes();
});
]]></script>
</svg>
