<?xml version="1.0" encoding="UTF-8" standalone="no"?>
<!DOCTYPE svg PUBLIC "-//W3C//DTD SVG 1.1//EN"
 "http://www.w3.org/Graphics/SVG/1.1/DTD/svg11.dtd">
<!-- Generated by graphviz version 12.2.1 (0)
 -->
<!-- Title: mainLoop Pages: 1 -->
<!--zoomable 491 -->

<svg id="main" version="1.1" xmlns="http://www.w3.org/2000/svg" xmlns:xlink="http://www.w3.org/1999/xlink" xml:space="preserve" onload="init(evt)">

<style type="text/css"><![CDATA[
.node, .edge {opacity: 0.7;}
.node.selected, .edge.selected {opacity: 1;}
.edge:hover path { stroke: red; }
.edge:hover polygon { stroke: red; fill: red; }
]]></style>

<defs>
  <circle id="rim" cx="0" cy="0" r="7"/>
  <circle id="rim2" cx="0" cy="0" r="3.5"/>
  <g id="zoomPlus">
    <use xlink:href="#rim" fill="#404040"><set attributeName="fill" to="#808080" begin="zoomplus.mouseover" end="zoomplus.mouseout"/></use>
    <path d="M-4,0h8M0,-4v8" fill="none" stroke="white" stroke-width="1.5" pointer-events="none"/>
  </g>
  <g id="zoomMin">
    <use xlink:href="#rim" fill="#404040"><set attributeName="fill" to="#808080" begin="zoomminus.mouseover" end="zoomminus.mouseout"/></use>
    <path d="M-4,0h8" fill="none" stroke="white" stroke-width="1.5" pointer-events="none"/>
  </g>
  <g id="arrowUp" transform="translate(30 24)">
    <use xlink:href="#rim"/>
    <path pointer-events="none" fill="none" stroke="white" stroke-width="1.5" d="M0,-3.0v7 M-2.5,-0.5L0,-3.0L2.5,-0.5"/>
  </g>
  <g id="arrowRight" transform="rotate(90) translate(36 -43)">
    <use xlink:href="#rim"/>
    <path pointer-events="none" fill="none" stroke="white" stroke-width="1.5" d="M0,-3.0v7 M-2.5,-0.5L0,-3.0L2.5,-0.5"/>
  </g>
  <g id="arrowDown" transform="rotate(180) translate(-30 -48)">
    <use xlink:href="#rim"/>
    <path pointer-events="none" fill="none" stroke="white" stroke-width="1.5" d="M0,-3.0v7 M-2.5,-0.5L0,-3.0L2.5,-0.5"/>
  </g>
  <g id="arrowLeft" transform="rotate(270) translate(-36 17)">
    <use xlink:href="#rim"/>
    <path pointer-events="none" fill="none" stroke="white" stroke-width="1.5" d="M0,-3.0v7 M-2.5,-0.5L0,-3.0L2.5,-0.5"/>
  </g>
  <g id="resetDef">
    <use xlink:href="#rim2" fill="#404040"><set attributeName="fill" to="#808080" begin="reset.mouseover" end="reset.mouseout"/></use>
  </g>
</defs>
<script type="application/ecmascript">
var viewWidth = 988;
var viewHeight = 491;
var sectionId = 'dynsection-8';
</script>
<script type="application/ecmascript" xlink:href="svg.min.js"/>
<svg id="graph" class="graph">
<g id="viewport">
<title>mainLoop</title>
<!-- Node1 -->
<g id="Node000001" class="node">
<title>Node1</title>
<g id="a_Node000001"><a xlink:title="Boucle principale du programme.">
<polygon fill="#999999" stroke="#666666" points="58,-303 0,-303 0,-283 58,-283 58,-303"/>
<text text-anchor="middle" x="29" y="-289.5" font-family="Helvetica,sans-Serif" font-size="10.00">mainLoop</text>
</a>
</g>
</g>
<!-- Node2 -->
<g id="Node000002" class="node">
<title>Node2</title>
<g id="a_Node000002"><a xlink:href="main_8cpp.html#a3f8bbedc9cc7a81915ae12b5d66c00cd" target="_top" xlink:title="Crée et ajoute le cube à la scène.">
<polygon fill="white" stroke="#666666" points="201.12,-420 146.12,-420 146.12,-400 201.12,-400 201.12,-420"/>
<text text-anchor="middle" x="173.62" y="-406.5" font-family="Helvetica,sans-Serif" font-size="10.00">addCube</text>
</a>
</g>
</g>
<!-- Node1&#45;&gt;Node2 -->
<g id="edge1_Node000001_Node000002" class="edge">
<title>Node1&#45;&gt;Node2</title>
<g id="a_edge1_Node000001_Node000002"><a xlink:title=" ">
<path fill="none" stroke="#63b8ff" d="M36.81,-303.46C47.49,-319.23 69.51,-349.36 94,-369 106.73,-379.21 122.4,-387.99 136.38,-394.78"/>
<polygon fill="#63b8ff" stroke="#63b8ff" points="134.76,-397.88 145.31,-398.93 137.72,-391.54 134.76,-397.88"/>
</a>
</g>
</g>
<!-- Node8 -->
<g id="Node000008" class="node">
<title>Node8</title>
<g id="a_Node000008"><a xlink:href="main_8cpp.html#a413ed82437706932602a46bf716063ca" target="_top" xlink:title="Crée et ajoute la sphère à la scène.">
<polygon fill="white" stroke="#666666" points="204.88,-360 142.38,-360 142.38,-340 204.88,-340 204.88,-360"/>
<text text-anchor="middle" x="173.62" y="-346.5" font-family="Helvetica,sans-Serif" font-size="10.00">addSphere</text>
</a>
</g>
</g>
<!-- Node1&#45;&gt;Node8 -->
<g id="edge7_Node000001_Node000008" class="edge">
<title>Node1&#45;&gt;Node8</title>
<g id="a_edge7_Node000001_Node000008"><a xlink:title=" ">
<path fill="none" stroke="#63b8ff" d="M44.6,-303.39C57.16,-311.9 76.05,-323.69 94,-331 105.75,-335.78 119,-339.55 131.23,-342.44"/>
<polygon fill="#63b8ff" stroke="#63b8ff" points="130.1,-345.77 140.62,-344.51 131.61,-338.94 130.1,-345.77"/>
</a>
</g>
</g>
<!-- Node11 -->
<g id="Node000011" class="node">
<title>Node11</title>
<g id="a_Node000011"><a xlink:href="class_engine3_d_1_1_scene.html#a6f62266c5c737fc1b52920370cd063ee" target="_top" xlink:title="Efface les triangles de la scène.">
<polygon fill="white" stroke="#666666" points="253.25,-322 94,-322 94,-302 253.25,-302 253.25,-322"/>
<text text-anchor="middle" x="173.62" y="-308.5" font-family="Helvetica,sans-Serif" font-size="10.00">Engine3D::Scene::clearTriangles</text>
</a>
</g>
</g>
<!-- Node1&#45;&gt;Node11 -->
<g id="edge12_Node000001_Node000011" class="edge">
<title>Node1&#45;&gt;Node11</title>
<g id="a_edge12_Node000001_Node000011"><a xlink:title=" ">
<path fill="none" stroke="#63b8ff" d="M58.18,-296.75C65.54,-297.73 73.89,-298.85 82.64,-300.01"/>
<polygon fill="#63b8ff" stroke="#63b8ff" points="82.02,-303.46 92.39,-301.31 82.94,-296.52 82.02,-303.46"/>
</a>
</g>
</g>
<!-- Node12 -->
<g id="Node000012" class="node">
<title>Node12</title>
<g id="a_Node000012"><a xlink:href="class_engine3_d_1_1_scene.html#a1f8a56782e30aafa6f74158f8b36b0e8" target="_top" xlink:title="Retourne une référence vers la caméra.">
<polygon fill="white" stroke="#666666" points="246.88,-284 100.38,-284 100.38,-264 246.88,-264 246.88,-284"/>
<text text-anchor="middle" x="173.62" y="-270.5" font-family="Helvetica,sans-Serif" font-size="10.00">Engine3D::Scene::getCamera</text>
</a>
</g>
</g>
<!-- Node1&#45;&gt;Node12 -->
<g id="edge13_Node000001_Node000012" class="edge">
<title>Node1&#45;&gt;Node12</title>
<g id="a_edge13_Node000001_Node000012"><a xlink:title=" ">
<path fill="none" stroke="#63b8ff" d="M58.18,-289.25C67.31,-288.03 77.96,-286.61 89.01,-285.14"/>
<polygon fill="#63b8ff" stroke="#63b8ff" points="89.2,-288.64 98.65,-283.85 88.28,-281.71 89.2,-288.64"/>
</a>
</g>
</g>
<!-- Node13 -->
<g id="Node000013" class="node">
<title>Node13</title>
<g id="a_Node000013"><a xlink:href="main_8cpp.html#a6ca502f882ebcc537dec54df94f57059" target="_top" xlink:title="Gère les événements clavier.">
<polygon fill="white" stroke="#666666" points="216.5,-246 130.75,-246 130.75,-226 216.5,-226 216.5,-246"/>
<text text-anchor="middle" x="173.62" y="-232.5" font-family="Helvetica,sans-Serif" font-size="10.00">handleKeyboard</text>
</a>
</g>
</g>
<!-- Node1&#45;&gt;Node13 -->
<g id="edge14_Node000001_Node000013" class="edge">
<title>Node1&#45;&gt;Node13</title>
<g id="a_edge14_Node000001_Node000013"><a xlink:title=" ">
<path fill="none" stroke="#63b8ff" d="M44.6,-282.61C57.16,-274.1 76.05,-262.31 94,-255 101.96,-251.76 110.6,-248.99 119.15,-246.64"/>
<polygon fill="#63b8ff" stroke="#63b8ff" points="119.99,-250.04 128.81,-244.17 118.25,-243.25 119.99,-250.04"/>
</a>
</g>
</g>
<!-- Node18 -->
<g id="Node000018" class="node">
<title>Node18</title>
<g id="a_Node000018"><a xlink:href="class_engine3_d_1_1_scene.html#a31514c322149277ab158e3ebe4e4627b" target="_top" xlink:title="Effectue le rendu de la scène.">
<polygon fill="white" stroke="#666666" points="236.38,-133 110.88,-133 110.88,-113 236.38,-113 236.38,-133"/>
<text text-anchor="middle" x="173.62" y="-119.5" font-family="Helvetica,sans-Serif" font-size="10.00">Engine3D::Scene::render</text>
</a>
</g>
</g>
<!-- Node1&#45;&gt;Node18 -->
<g id="edge19_Node000001_Node000018" class="edge">
<title>Node1&#45;&gt;Node18</title>
<g id="a_edge19_Node000001_Node000018"><a xlink:title=" ">
<path fill="none" stroke="#63b8ff" d="M38.71,-282.62C62.14,-254.7 126.77,-177.65 156.85,-141.8"/>
<polygon fill="#63b8ff" stroke="#63b8ff" points="159.31,-144.31 163.06,-134.4 153.95,-139.81 159.31,-144.31"/>
</a>
</g>
</g>
<!-- Node3 -->
<g id="Node000003" class="node">
<title>Node3</title>
<g id="a_Node000003"><a xlink:href="class_engine3_d_1_1_scene.html#a00742547f5704154300b459fdf626afc" target="_top" xlink:title="Ajoute des triangles à la scène.">
<polygon fill="white" stroke="#666666" points="448.5,-401 294.5,-401 294.5,-381 448.5,-381 448.5,-401"/>
<text text-anchor="middle" x="371.5" y="-387.5" font-family="Helvetica,sans-Serif" font-size="10.00">Engine3D::Scene::addTriangles</text>
</a>
</g>
</g>
<!-- Node2&#45;&gt;Node3 -->
<g id="edge2_Node000002_Node000003" class="edge">
<title>Node2&#45;&gt;Node3</title>
<g id="a_edge2_Node000002_Node000003"><a xlink:title=" ">
<path fill="none" stroke="#63b8ff" d="M201.45,-407.4C222.63,-405.34 253.44,-402.35 282.98,-399.49"/>
<polygon fill="#63b8ff" stroke="#63b8ff" points="283.09,-403 292.71,-398.55 282.42,-396.03 283.09,-403"/>
</a>
</g>
</g>
<!-- Node4 -->
<g id="Node000004" class="node">
<title>Node4</title>
<g id="a_Node000004"><a xlink:href="class_engine3_d_1_1_pave3d.html#a4119fbf8bcb7a8e53bf791e07dad4a36" target="_top" xlink:title="Retourne tous les triangles du pavé">
<polygon fill="white" stroke="#666666" points="450,-477 293,-477 293,-457 450,-457 450,-477"/>
<text text-anchor="middle" x="371.5" y="-463.5" font-family="Helvetica,sans-Serif" font-size="10.00">Engine3D::Pave3d::getTriangles</text>
</a>
</g>
</g>
<!-- Node2&#45;&gt;Node4 -->
<g id="edge3_Node000002_Node000004" class="edge">
<title>Node2&#45;&gt;Node4</title>
<g id="a_edge3_Node000002_Node000004"><a xlink:title=" ">
<path fill="none" stroke="#63b8ff" d="M201.28,-419.6C224.38,-427.73 258.78,-439.41 289.25,-448 296.46,-450.03 304.08,-452.02 311.64,-453.9"/>
<polygon fill="#63b8ff" stroke="#63b8ff" points="310.61,-457.25 321.16,-456.21 312.26,-450.45 310.61,-457.25"/>
</a>
</g>
</g>
<!-- Node7 -->
<g id="Node000007" class="node">
<title>Node7</title>
<g id="a_Node000007"><a xlink:href="class_engine3_d_1_1_pave3d.html#a17d8fdec0f274f775de834fe0b1a6366" target="_top" xlink:title="Définit les angles de rotation.">
<polygon fill="white" stroke="#666666" points="448.5,-439 294.5,-439 294.5,-419 448.5,-419 448.5,-439"/>
<text text-anchor="middle" x="371.5" y="-425.5" font-family="Helvetica,sans-Serif" font-size="10.00">Engine3D::Pave3d::setRotation</text>
</a>
</g>
</g>
<!-- Node2&#45;&gt;Node7 -->
<g id="edge6_Node000002_Node000007" class="edge">
<title>Node2&#45;&gt;Node7</title>
<g id="a_edge6_Node000002_Node000007"><a xlink:title=" ">
<path fill="none" stroke="#63b8ff" d="M201.45,-412.6C222.63,-414.66 253.44,-417.65 282.98,-420.51"/>
<polygon fill="#63b8ff" stroke="#63b8ff" points="282.42,-423.97 292.71,-421.45 283.09,-417 282.42,-423.97"/>
</a>
</g>
</g>
<!-- Node5 -->
<g id="Node000005" class="node">
<title>Node5</title>
<g id="a_Node000005"><a xlink:href="class_engine3_d_1_1_quad3d.html#aaa0bdee0dc9d2376064665d7caf6b0f5" target="_top" xlink:title="Retourne les triangles du quad.">
<polygon fill="white" stroke="#666666" points="647.5,-417 489.75,-417 489.75,-397 647.5,-397 647.5,-417"/>
<text text-anchor="middle" x="568.62" y="-403.5" font-family="Helvetica,sans-Serif" font-size="10.00">Engine3D::Quad3d::getTriangles</text>
</a>
</g>
</g>
<!-- Node4&#45;&gt;Node5 -->
<g id="edge4_Node000004_Node000005" class="edge">
<title>Node4&#45;&gt;Node5</title>
<g id="a_edge4_Node000004_Node000005"><a xlink:title=" ">
<path fill="none" stroke="#63b8ff" d="M421.29,-456.56C432.04,-453.99 443.33,-451.08 453.75,-448 479.78,-440.3 508.53,-429.93 530.64,-421.55"/>
<polygon fill="#63b8ff" stroke="#63b8ff" points="531.72,-424.88 539.81,-418.03 529.22,-418.34 531.72,-424.88"/>
</a>
</g>
</g>
<!-- Node6 -->
<g id="Node000006" class="node">
<title>Node6</title>
<g id="a_Node000006"><a xlink:href="class_engine3_d_1_1_pave3d.html#a9ac0e8d9d88b16945a180d5e86b09879" target="_top" xlink:title="Applique la rotation à un point.">
<polygon fill="white" stroke="#666666" points="632.88,-483 504.38,-483 504.38,-451 632.88,-451 632.88,-483"/>
<text text-anchor="start" x="512.38" y="-469.5" font-family="Helvetica,sans-Serif" font-size="10.00">Engine3D::Pave3d::rotate</text>
<text text-anchor="middle" x="568.62" y="-457.5" font-family="Helvetica,sans-Serif" font-size="10.00">Point</text>
</a>
</g>
</g>
<!-- Node4&#45;&gt;Node6 -->
<g id="edge5_Node000004_Node000006" class="edge">
<title>Node4&#45;&gt;Node6</title>
<g id="a_edge5_Node000004_Node000006"><a xlink:title=" ">
<path fill="none" stroke="#63b8ff" d="M450.46,-467C464.39,-467 478.88,-467 492.73,-467"/>
<polygon fill="#63b8ff" stroke="#63b8ff" points="492.66,-470.5 502.66,-467 492.66,-463.5 492.66,-470.5"/>
</a>
</g>
</g>
<!-- Node8&#45;&gt;Node3 -->
<g id="edge8_Node000008_Node000003" class="edge">
<title>Node8&#45;&gt;Node3</title>
<g id="a_edge8_Node000008_Node000003"><a xlink:title=" ">
<path fill="none" stroke="#63b8ff" d="M205.23,-356.41C233.1,-362.24 275.05,-371.02 309.72,-378.28"/>
<polygon fill="#63b8ff" stroke="#63b8ff" points="308.71,-381.64 319.21,-380.26 310.14,-374.79 308.71,-381.64"/>
</a>
</g>
</g>
<!-- Node9 -->
<g id="Node000009" class="node">
<title>Node9</title>
<g id="a_Node000009"><a xlink:href="class_engine3_d_1_1_sphere3d.html#a2021bf0962839e427e464bb61e8702e0" target="_top" xlink:title="Retourne tous les triangles de la sphère.">
<polygon fill="white" stroke="#666666" points="424.5,-363 318.5,-363 318.5,-331 424.5,-331 424.5,-363"/>
<text text-anchor="start" x="326.5" y="-349.5" font-family="Helvetica,sans-Serif" font-size="10.00">Engine3D::Sphere3d</text>
<text text-anchor="middle" x="371.5" y="-337.5" font-family="Helvetica,sans-Serif" font-size="10.00">::getTriangles</text>
</a>
</g>
</g>
<!-- Node8&#45;&gt;Node9 -->
<g id="edge9_Node000008_Node000009" class="edge">
<title>Node8&#45;&gt;Node9</title>
<g id="a_edge9_Node000008_Node000009"><a xlink:title=" ">
<path fill="none" stroke="#63b8ff" d="M205.23,-349.53C232.3,-349.12 272.66,-348.5 306.73,-347.98"/>
<polygon fill="#63b8ff" stroke="#63b8ff" points="306.55,-351.48 316.5,-347.83 306.44,-344.48 306.55,-351.48"/>
</a>
</g>
</g>
<!-- Node9&#45;&gt;Node5 -->
<g id="edge10_Node000009_Node000005" class="edge">
<title>Node9&#45;&gt;Node5</title>
<g id="a_edge10_Node000009_Node000005"><a xlink:title=" ">
<path fill="none" stroke="#63b8ff" d="M424.79,-363.08C455.42,-372.5 493.7,-384.27 522.92,-393.25"/>
<polygon fill="#63b8ff" stroke="#63b8ff" points="521.61,-396.51 532.19,-396.11 523.66,-389.82 521.61,-396.51"/>
</a>
</g>
</g>
<!-- Node10 -->
<g id="Node000010" class="node">
<title>Node10</title>
<g id="a_Node000010"><a xlink:href="class_engine3_d_1_1_sphere3d.html#aa65545be81f5e53f004d31e7a368879e" target="_top" xlink:title="Calcule un point sur la sphère.">
<polygon fill="white" stroke="#666666" points="621.62,-363 515.62,-363 515.62,-331 621.62,-331 621.62,-363"/>
<text text-anchor="start" x="523.62" y="-349.5" font-family="Helvetica,sans-Serif" font-size="10.00">Engine3D::Sphere3d</text>
<text text-anchor="middle" x="568.62" y="-337.5" font-family="Helvetica,sans-Serif" font-size="10.00">::spherePoint</text>
</a>
</g>
</g>
<!-- Node9&#45;&gt;Node10 -->
<g id="edge11_Node000009_Node000010" class="edge">
<title>Node9&#45;&gt;Node10</title>
<g id="a_edge11_Node000009_Node000010"><a xlink:title=" ">
<path fill="none" stroke="#63b8ff" d="M424.79,-347C449.07,-347 478.15,-347 503.72,-347"/>
<polygon fill="#63b8ff" stroke="#63b8ff" points="503.68,-350.5 513.68,-347 503.68,-343.5 503.68,-350.5"/>
</a>
</g>
</g>
<!-- Node14 -->
<g id="Node000014" class="node">
<title>Node14</title>
<g id="a_Node000014"><a xlink:href="class_engine3_d_1_1_camera.html#ac18b61991512f3ebf3ef1debbd696826" target="_top" xlink:title="Déplace la caméra vers l&#39;avant/arrière.">
<polygon fill="white" stroke="#666666" points="453.75,-313 289.25,-313 289.25,-293 453.75,-293 453.75,-313"/>
<text text-anchor="middle" x="371.5" y="-299.5" font-family="Helvetica,sans-Serif" font-size="10.00">Engine3D::Camera::moveForward</text>
</a>
</g>
</g>
<!-- Node13&#45;&gt;Node14 -->
<g id="edge15_Node000013_Node000014" class="edge">
<title>Node13&#45;&gt;Node14</title>
<g id="a_edge15_Node000013_Node000014"><a xlink:title=" ">
<path fill="none" stroke="#63b8ff" d="M216.63,-242.56C228.83,-245.41 241.91,-249.42 253.25,-255 271.68,-264.08 270.78,-274.99 289.25,-284 292.98,-285.82 296.9,-287.47 300.92,-288.97"/>
<polygon fill="#63b8ff" stroke="#63b8ff" points="299.67,-292.25 310.27,-292.11 301.9,-285.61 299.67,-292.25"/>
</a>
</g>
</g>
<!-- Node15 -->
<g id="Node000015" class="node">
<title>Node15</title>
<g id="a_Node000015"><a xlink:href="class_engine3_d_1_1_camera.html#abb855c0ef667db6bc7af192bd84dd4a2" target="_top" xlink:title="Déplace la caméra vers la gauche.">
<polygon fill="white" stroke="#666666" points="444.38,-275 298.62,-275 298.62,-255 444.38,-255 444.38,-275"/>
<text text-anchor="middle" x="371.5" y="-261.5" font-family="Helvetica,sans-Serif" font-size="10.00">Engine3D::Camera::moveLeft</text>
</a>
</g>
</g>
<!-- Node13&#45;&gt;Node15 -->
<g id="edge16_Node000013_Node000015" class="edge">
<title>Node13&#45;&gt;Node15</title>
<g id="a_edge16_Node000013_Node000015"><a xlink:title=" ">
<path fill="none" stroke="#63b8ff" d="M216.65,-242.22C237.6,-245.32 263.7,-249.19 288.41,-252.85"/>
<polygon fill="#63b8ff" stroke="#63b8ff" points="287.75,-256.29 298.15,-254.29 288.77,-249.36 287.75,-256.29"/>
</a>
</g>
</g>
<!-- Node16 -->
<g id="Node000016" class="node">
<title>Node16</title>
<g id="a_Node000016"><a xlink:href="class_engine3_d_1_1_camera.html#a202134048c2aebba77b966d09c1bbbaa" target="_top" xlink:title="Déplace la caméra vers la droite.">
<polygon fill="white" stroke="#666666" points="447.75,-237 295.25,-237 295.25,-217 447.75,-217 447.75,-237"/>
<text text-anchor="middle" x="371.5" y="-223.5" font-family="Helvetica,sans-Serif" font-size="10.00">Engine3D::Camera::moveRight</text>
</a>
</g>
</g>
<!-- Node13&#45;&gt;Node16 -->
<g id="edge17_Node000013_Node000016" class="edge">
<title>Node13&#45;&gt;Node16</title>
<g id="a_edge17_Node000013_Node000016"><a xlink:title=" ">
<path fill="none" stroke="#63b8ff" d="M216.65,-234.07C236.26,-233.17 260.36,-232.06 283.63,-230.99"/>
<polygon fill="#63b8ff" stroke="#63b8ff" points="283.62,-234.5 293.45,-230.54 283.3,-227.5 283.62,-234.5"/>
</a>
</g>
</g>
<!-- Node17 -->
<g id="Node000017" class="node">
<title>Node17</title>
<g id="a_Node000017"><a xlink:href="class_engine3_d_1_1_camera.html#a74a770aa2d2934ca4728fddb668f67e6" target="_top" xlink:title="Déplace la caméra vers le haut/bas.">
<polygon fill="white" stroke="#666666" points="442.5,-199 300.5,-199 300.5,-179 442.5,-179 442.5,-199"/>
<text text-anchor="middle" x="371.5" y="-185.5" font-family="Helvetica,sans-Serif" font-size="10.00">Engine3D::Camera::moveUp</text>
</a>
</g>
</g>
<!-- Node13&#45;&gt;Node17 -->
<g id="edge18_Node000013_Node000017" class="edge">
<title>Node13&#45;&gt;Node17</title>
<g id="a_edge18_Node000013_Node000017"><a xlink:title=" ">
<path fill="none" stroke="#63b8ff" d="M216.79,-225.59C238.44,-220.28 265.24,-213.74 289.25,-208 297.38,-206.06 305.98,-204.02 314.41,-202.04"/>
<polygon fill="#63b8ff" stroke="#63b8ff" points="314.95,-205.51 323.88,-199.82 313.35,-198.69 314.95,-205.51"/>
</a>
</g>
</g>
<!-- Node19 -->
<g id="Node000019" class="node">
<title>Node19</title>
<g id="a_Node000019"><a xlink:href="class_engine3_d_1_1_scene.html#a572a13e5c6c08eced30fc482cc9fdeee" target="_top" xlink:title="Vérifie si un triangle est visible.">
<polygon fill="white" stroke="#666666" points="441.75,-161 301.25,-161 301.25,-129 441.75,-129 441.75,-161"/>
<text text-anchor="start" x="309.25" y="-147.5" font-family="Helvetica,sans-Serif" font-size="10.00">Engine3D::Scene::isTriangle</text>
<text text-anchor="middle" x="371.5" y="-135.5" font-family="Helvetica,sans-Serif" font-size="10.00">Visible</text>
</a>
</g>
</g>
<!-- Node18&#45;&gt;Node19 -->
<g id="edge20_Node000018_Node000019" class="edge">
<title>Node18&#45;&gt;Node19</title>
<g id="a_edge20_Node000018_Node000019"><a xlink:title=" ">
<path fill="none" stroke="#63b8ff" d="M236.87,-129.99C253.59,-131.87 271.93,-133.93 289.51,-135.9"/>
<polygon fill="#63b8ff" stroke="#63b8ff" points="289.1,-139.38 299.43,-137.02 289.88,-132.42 289.1,-139.38"/>
</a>
</g>
</g>
<!-- Node26 -->
<g id="Node000026" class="node">
<title>Node26</title>
<g id="a_Node000026"><a xlink:href="class_engine3_d_1_1_scene.html#ac59015c65f655e7843507970be7178a4" target="_top" xlink:title="Projette un point 3D en point 2D.">
<polygon fill="white" stroke="#666666" points="435.38,-111 307.62,-111 307.62,-91 435.38,-91 435.38,-111"/>
<text text-anchor="middle" x="371.5" y="-97.5" font-family="Helvetica,sans-Serif" font-size="10.00">Engine3D::Scene::project</text>
</a>
</g>
</g>
<!-- Node18&#45;&gt;Node26 -->
<g id="edge29_Node000018_Node000026" class="edge">
<title>Node18&#45;&gt;Node26</title>
<g id="a_edge29_Node000018_Node000026"><a xlink:title=" ">
<path fill="none" stroke="#63b8ff" d="M236.87,-116.01C255.69,-113.89 276.55,-111.55 296.09,-109.36"/>
<polygon fill="#63b8ff" stroke="#63b8ff" points="296.36,-112.85 305.9,-108.26 295.57,-105.89 296.36,-112.85"/>
</a>
</g>
</g>
<!-- Node27 -->
<g id="Node000027" class="node">
<title>Node27</title>
<g id="a_Node000027"><a xlink:href="class_engine3_d_1_1_scene.html#ae4f80fe1878d214d93eddd483c7c9e9b" target="_top" xlink:title="Rasterise un triangle 2D.">
<polygon fill="white" stroke="#666666" points="439.5,-70 303.5,-70 303.5,-38 439.5,-38 439.5,-70"/>
<text text-anchor="start" x="311.5" y="-56.5" font-family="Helvetica,sans-Serif" font-size="10.00">Engine3D::Scene::rasterize</text>
<text text-anchor="middle" x="371.5" y="-44.5" font-family="Helvetica,sans-Serif" font-size="10.00">Triangle</text>
</a>
</g>
</g>
<!-- Node18&#45;&gt;Node27 -->
<g id="edge30_Node000018_Node000027" class="edge">
<title>Node18&#45;&gt;Node27</title>
<g id="a_edge30_Node000018_Node000027"><a xlink:title=" ">
<path fill="none" stroke="#63b8ff" d="M203.33,-112.63C226.49,-104.28 259.94,-92.29 289.25,-82 296.44,-79.48 303.99,-76.84 311.48,-74.25"/>
<polygon fill="#63b8ff" stroke="#63b8ff" points="312.61,-77.56 320.92,-70.98 310.32,-70.95 312.61,-77.56"/>
</a>
</g>
</g>
<!-- Node20 -->
<g id="Node000020" class="node">
<title>Node20</title>
<g id="a_Node000020"><a xlink:href="class_engine3_d_1_1_triangle3d.html#ac8467f3fbeb5ebd572c5b86dc8e5efba" target="_top" xlink:title="Calcule le centre du triangle.">
<polygon fill="white" stroke="#666666" points="623.5,-208 513.75,-208 513.75,-176 623.5,-176 623.5,-208"/>
<text text-anchor="start" x="521.75" y="-194.5" font-family="Helvetica,sans-Serif" font-size="10.00">Engine3D::Triangle3d</text>
<text text-anchor="middle" x="568.62" y="-182.5" font-family="Helvetica,sans-Serif" font-size="10.00">::center</text>
</a>
</g>
</g>
<!-- Node19&#45;&gt;Node20 -->
<g id="edge21_Node000019_Node000020" class="edge">
<title>Node19&#45;&gt;Node20</title>
<g id="a_edge21_Node000019_Node000020"><a xlink:title=" ">
<path fill="none" stroke="#63b8ff" d="M440.75,-161.44C460.77,-166.26 482.62,-171.52 502.45,-176.3"/>
<polygon fill="#63b8ff" stroke="#63b8ff" points="501.54,-179.68 512.08,-178.62 503.18,-172.88 501.54,-179.68"/>
</a>
</g>
</g>
<!-- Node21 -->
<g id="Node000021" class="node">
<title>Node21</title>
<g id="a_Node000021"><a xlink:href="class_engine3_d_1_1_point3d.html#ae2fe7656b9388965fb9e890a89b28dcb" target="_top" xlink:title="Produit scalaire.">
<polygon fill="white" stroke="#666666" points="820.62,-158 703.38,-158 703.38,-138 820.62,-138 820.62,-158"/>
<text text-anchor="middle" x="762" y="-144.5" font-family="Helvetica,sans-Serif" font-size="10.00">Engine3D::Point3d::dot</text>
</a>
</g>
</g>
<!-- Node19&#45;&gt;Node21 -->
<g id="edge22_Node000019_Node000021" class="edge">
<title>Node19&#45;&gt;Node21</title>
<g id="a_edge22_Node000019_Node000021"><a xlink:title=" ">
<path fill="none" stroke="#63b8ff" d="M441.96,-145.54C512.46,-146.08 620.99,-146.92 691.5,-147.46"/>
<polygon fill="#63b8ff" stroke="#63b8ff" points="691.37,-150.96 701.4,-147.54 691.43,-143.96 691.37,-150.96"/>
</a>
</g>
</g>
<!-- Node23 -->
<g id="Node000023" class="node">
<title>Node23</title>
<g id="a_Node000023"><a xlink:href="class_engine3_d_1_1_triangle3d.html#a36a10c8fdb5ead425abf77d7bd3ec6d4" target="_top" xlink:title="Calcule la normale du triangle.">
<polygon fill="white" stroke="#666666" points="623.5,-120 513.75,-120 513.75,-88 623.5,-88 623.5,-120"/>
<text text-anchor="start" x="521.75" y="-106.5" font-family="Helvetica,sans-Serif" font-size="10.00">Engine3D::Triangle3d</text>
<text text-anchor="middle" x="568.62" y="-94.5" font-family="Helvetica,sans-Serif" font-size="10.00">::normal</text>
</a>
</g>
</g>
<!-- Node19&#45;&gt;Node23 -->
<g id="edge24_Node000019_Node000023" class="edge">
<title>Node19&#45;&gt;Node23</title>
<g id="a_edge24_Node000019_Node000023"><a xlink:title=" ">
<path fill="none" stroke="#63b8ff" d="M442.12,-130.37C461.7,-126.26 482.92,-121.8 502.24,-117.74"/>
<polygon fill="#63b8ff" stroke="#63b8ff" points="502.82,-121.19 511.89,-115.71 501.38,-114.34 502.82,-121.19"/>
</a>
</g>
</g>
<!-- Node22 -->
<g id="Node000022" class="node">
<title>Node22</title>
<g id="a_Node000022"><a xlink:href="class_engine3_d_1_1_point3d.html#a0fe8b9187cff415e2e11cc0043bbedb6" target="_top" xlink:title="Constructeur par défaut.">
<polygon fill="white" stroke="#666666" points="980.25,-120 876.5,-120 876.5,-88 980.25,-88 980.25,-120"/>
<text text-anchor="start" x="884.5" y="-106.5" font-family="Helvetica,sans-Serif" font-size="10.00">Engine3D::Point3d::</text>
<text text-anchor="middle" x="928.38" y="-94.5" font-family="Helvetica,sans-Serif" font-size="10.00">Point3d</text>
</a>
</g>
</g>
<!-- Node21&#45;&gt;Node22 -->
<g id="edge23_Node000021_Node000022" class="edge">
<title>Node21&#45;&gt;Node22</title>
<g id="a_edge23_Node000021_Node000022"><a xlink:title=" ">
<path fill="none" stroke="#63b8ff" d="M806.93,-137.55C817.92,-134.85 829.66,-131.89 840.5,-129 848.51,-126.87 856.92,-124.55 865.22,-122.21"/>
<polygon fill="#63b8ff" stroke="#63b8ff" points="865.9,-125.66 874.56,-119.56 863.99,-118.92 865.9,-125.66"/>
</a>
</g>
</g>
<!-- Node24 -->
<g id="Node000024" class="node">
<title>Node24</title>
<g id="a_Node000024"><a xlink:href="class_engine3_d_1_1_point3d.html#a5bda2a757a3d5c95fa931087c7b21ae6" target="_top" xlink:title="Produit vectoriel.">
<polygon fill="white" stroke="#666666" points="813.88,-120 710.12,-120 710.12,-88 813.88,-88 813.88,-120"/>
<text text-anchor="start" x="718.12" y="-106.5" font-family="Helvetica,sans-Serif" font-size="10.00">Engine3D::Point3d::</text>
<text text-anchor="middle" x="762" y="-94.5" font-family="Helvetica,sans-Serif" font-size="10.00">cross</text>
</a>
</g>
</g>
<!-- Node23&#45;&gt;Node24 -->
<g id="edge25_Node000023_Node000024" class="edge">
<title>Node23&#45;&gt;Node24</title>
<g id="a_edge25_Node000023_Node000024"><a xlink:title=" ">
<path fill="none" stroke="#63b8ff" d="M623.95,-104C647.13,-104 674.3,-104 698.32,-104"/>
<polygon fill="#63b8ff" stroke="#63b8ff" points="698.31,-107.5 708.31,-104 698.31,-100.5 698.31,-107.5"/>
</a>
</g>
</g>
<!-- Node25 -->
<g id="Node000025" class="node">
<title>Node25</title>
<g id="a_Node000025"><a xlink:href="class_engine3_d_1_1_point3d.html#a47b11f8208e5c25f2d5f04c49cd10bd4" target="_top" xlink:title="Normalise le vecteur.">
<polygon fill="white" stroke="#666666" points="813.88,-70 710.12,-70 710.12,-38 813.88,-38 813.88,-70"/>
<text text-anchor="start" x="718.12" y="-56.5" font-family="Helvetica,sans-Serif" font-size="10.00">Engine3D::Point3d::</text>
<text text-anchor="middle" x="762" y="-44.5" font-family="Helvetica,sans-Serif" font-size="10.00">normalize</text>
</a>
</g>
</g>
<!-- Node23&#45;&gt;Node25 -->
<g id="edge27_Node000023_Node000025" class="edge">
<title>Node23&#45;&gt;Node25</title>
<g id="a_edge27_Node000023_Node000025"><a xlink:title=" ">
<path fill="none" stroke="#63b8ff" d="M623.95,-89.81C647.34,-83.7 674.8,-76.52 698.97,-70.21"/>
<polygon fill="#63b8ff" stroke="#63b8ff" points="699.57,-73.67 708.36,-67.75 697.8,-66.89 699.57,-73.67"/>
</a>
</g>
</g>
<!-- Node24&#45;&gt;Node22 -->
<g id="edge26_Node000024_Node000022" class="edge">
<title>Node24&#45;&gt;Node22</title>
<g id="a_edge26_Node000024_Node000022"><a xlink:title=" ">
<path fill="none" stroke="#63b8ff" d="M814.11,-104C830.11,-104 847.96,-104 864.67,-104"/>
<polygon fill="#63b8ff" stroke="#63b8ff" points="864.5,-107.5 874.5,-104 864.5,-100.5 864.5,-107.5"/>
</a>
</g>
</g>
<!-- Node25&#45;&gt;Node22 -->
<g id="edge28_Node000025_Node000022" class="edge">
<title>Node25&#45;&gt;Node22</title>
<g id="a_edge28_Node000025_Node000022"><a xlink:title=" ">
<path fill="none" stroke="#63b8ff" d="M814.11,-69.55C830.27,-74.46 848.3,-79.95 865.15,-85.07"/>
<polygon fill="#63b8ff" stroke="#63b8ff" points="863.98,-88.38 874.57,-87.94 866.02,-81.68 863.98,-88.38"/>
</a>
</g>
</g>
<!-- Node28 -->
<g id="Node000028" class="node">
<title>Node28</title>
<g id="a_Node000028"><a xlink:href="class_engine3_d_1_1_scene.html#a8837c73c8733a95bc50118d1aded5155" target="_top" xlink:title="Rasterise la partie plate du triangle (haut ou bas).">
<polygon fill="white" stroke="#666666" points="631,-70 506.25,-70 506.25,-38 631,-38 631,-70"/>
<text text-anchor="start" x="514.25" y="-56.5" font-family="Helvetica,sans-Serif" font-size="10.00">Engine3D::Scene::fillFlat</text>
<text text-anchor="middle" x="568.62" y="-44.5" font-family="Helvetica,sans-Serif" font-size="10.00">Bottom</text>
</a>
</g>
</g>
<!-- Node27&#45;&gt;Node28 -->
<g id="edge31_Node000027_Node000028" class="edge">
<title>Node27&#45;&gt;Node28</title>
<g id="a_edge31_Node000027_Node000028"><a xlink:title=" ">
<path fill="none" stroke="#63b8ff" d="M439.92,-54C457.54,-54 476.61,-54 494.5,-54"/>
<polygon fill="#63b8ff" stroke="#63b8ff" points="494.25,-57.5 504.25,-54 494.25,-50.5 494.25,-57.5"/>
</a>
</g>
</g>
<!-- Node30 -->
<g id="Node000030" class="node">
<title>Node30</title>
<g id="a_Node000030"><a xlink:href="class_engine3_d_1_1_scene.html#a817b9c0fd5988cb4867e3c73773b2584" target="_top" xlink:title="Rasterise la partie plate supérieure du triangle.">
<polygon fill="white" stroke="#666666" points="638.88,-20 498.38,-20 498.38,0 638.88,0 638.88,-20"/>
<text text-anchor="middle" x="568.62" y="-6.5" font-family="Helvetica,sans-Serif" font-size="10.00">Engine3D::Scene::fillFlatTop</text>
</a>
</g>
</g>
<!-- Node27&#45;&gt;Node30 -->
<g id="edge33_Node000027_Node000030" class="edge">
<title>Node27&#45;&gt;Node30</title>
<g id="a_edge33_Node000027_Node000030"><a xlink:title=" ">
<path fill="none" stroke="#63b8ff" d="M439.92,-38.8C462.72,-33.66 487.95,-27.97 509.92,-23.01"/>
<polygon fill="#63b8ff" stroke="#63b8ff" points="510.62,-26.44 519.61,-20.83 509.08,-19.61 510.62,-26.44"/>
</a>
</g>
</g>
<!-- Node29 -->
<g id="Node000029" class="node">
<title>Node29</title>
<g id="a_Node000029"><a xlink:href="class_engine3_d_1_1_scene.html#a68735735b2e868f144acdb359c153025" target="_top" xlink:title="Dessine une ligne horizontale du triangle via technique scanline.">
<polygon fill="white" stroke="#666666" points="840.5,-20 683.5,-20 683.5,0 840.5,0 840.5,-20"/>
<text text-anchor="middle" x="762" y="-6.5" font-family="Helvetica,sans-Serif" font-size="10.00">Engine3D::Scene::drawScanline</text>
</a>
</g>
</g>
<!-- Node28&#45;&gt;Node29 -->
<g id="edge32_Node000028_Node000029" class="edge">
<title>Node28&#45;&gt;Node29</title>
<g id="a_edge32_Node000028_Node000029"><a xlink:title=" ">
<path fill="none" stroke="#63b8ff" d="M631.49,-39.78C654.96,-34.38 681.53,-28.27 704.48,-23"/>
<polygon fill="#63b8ff" stroke="#63b8ff" points="704.98,-26.47 713.94,-20.82 703.41,-19.65 704.98,-26.47"/>
</a>
</g>
</g>
<!-- Node30&#45;&gt;Node29 -->
<g id="edge34_Node000030_Node000029" class="edge">
<title>Node30&#45;&gt;Node29</title>
<g id="a_edge34_Node000030_Node000029"><a xlink:title=" ">
<path fill="none" stroke="#63b8ff" d="M639.26,-10C649.89,-10 660.98,-10 671.96,-10"/>
<polygon fill="#63b8ff" stroke="#63b8ff" points="671.81,-13.5 681.81,-10 671.81,-6.5 671.81,-13.5"/>
</a>
</g>
</g>
</g>
</svg>

<g id="navigator" transform="translate(0 0)" fill="#404254">
  <rect fill="#f2f5e9" fill-opacity="0.5" stroke="#606060" stroke-width=".5" x="0" y="0" width="60" height="60"/>
  <use id="zoomplus" xlink:href="#zoomPlus" x="17" y="9" onmousedown="handleZoom(evt,'in')"/>
  <use id="zoomminus" xlink:href="#zoomMin" x="42" y="9" onmousedown="handleZoom(evt,'out')"/>
  <use id="reset" xlink:href="#resetDef" x="30" y="36" onmousedown="handleReset()"/>
   <use id="arrowup" xlink:href="#arrowUp" x="0" y="0" onmousedown="handlePan(0,-1)"/>
  <use id="arrowright" xlink:href="#arrowRight" x="0" y="0" onmousedown="handlePan(1,0)"/>
  <use id="arrowdown" xlink:href="#arrowDown" x="0" y="0" onmousedown="handlePan(0,1)"/>
  <use id="arrowleft" xlink:href="#arrowLeft" x="0" y="0" onmousedown="handlePan(-1,0)"/>
</g>
<svg viewBox="0 0 15 15" width="100%" height="30px" preserveAspectRatio="xMaxYMin meet">
 <g id="arrow_out" transform="scale(0.3 0.3)">
  <a xlink:href="main_8cpp_a43c63981d2c39c1e3e08614ee3f83b4f_cgraph_org.svg" target="_base">
   <rect id="button" ry="5" rx="5" y="6" x="6" height="38" width="38"
        fill="#f2f5e9" fill-opacity="0.5" stroke="#606060" stroke-width="1.0"/>
   <path id="arrow"
     d="M 11.500037,31.436501 C 11.940474,20.09759 22.043105,11.32322 32.158766,21.979434 L 37.068811,17.246167 C 37.068811,17.246167 37.088388,32 37.088388,32 L 22.160133,31.978069 C 22.160133,31.978069 26.997745,27.140456 26.997745,27.140456 C 18.528582,18.264221 13.291696,25.230495 11.500037,31.436501 z"
     style="fill:#404040;"/>
  </a>
 </g>
</svg>

<style type='text/css'>
<![CDATA[
[data-mouse-over-selected='false'] { opacity: 0.7; }
[data-mouse-over-selected='true']  { opacity: 1.0; }
]]>
</style>
<script type="application/ecmascript"><![CDATA[
document.addEventListener('DOMContentLoaded', (event) => {
  highlightEdges();
  highlightAdjacentNodes();
});
]]></script>
</svg>
