<?xml version="1.0" encoding="UTF-8" standalone="no"?>
<!DOCTYPE svg PUBLIC "-//W3C//DTD SVG 1.1//EN"
 "http://www.w3.org/Graphics/SVG/1.1/DTD/svg11.dtd">
<!-- Generated by graphviz version 12.2.1 (0)
 -->
<!-- Title: addCube Pages: 1 -->
<svg width="450pt" height="104pt"
 viewBox="0.00 0.00 449.75 104.00" xmlns="http://www.w3.org/2000/svg" xmlns:xlink="http://www.w3.org/1999/xlink">
<g id="graph0" class="graph" transform="scale(1 1) rotate(0) translate(4 100)">
<title>addCube</title>
<!-- Node1 -->
<g id="Node000001" class="node">
<title>Node1</title>
<g id="a_Node000001"><a xlink:title="Crée et ajoute le cube à la scène.">
<polygon fill="#999999" stroke="#666666" points="55,-58 0,-58 0,-38 55,-38 55,-58"/>
<text text-anchor="middle" x="27.5" y="-44.5" font-family="Helvetica,sans-Serif" font-size="10.00">addCube</text>
</a>
</g>
</g>
<!-- Node2 -->
<g id="Node000002" class="node">
<title>Node2</title>
<g id="a_Node000002"><a xlink:href="class_engine3_d_1_1_scene.html#a00742547f5704154300b459fdf626afc" target="_top" xlink:title="Ajoute des triangles à la scène.">
<polygon fill="white" stroke="#666666" points="246.5,-96 92.5,-96 92.5,-76 246.5,-76 246.5,-96"/>
<text text-anchor="middle" x="169.5" y="-82.5" font-family="Helvetica,sans-Serif" font-size="10.00">Engine3D::Scene::addTriangles</text>
</a>
</g>
</g>
<!-- Node1&#45;&gt;Node2 -->
<g id="edge1_Node000001_Node000002" class="edge">
<title>Node1&#45;&gt;Node2</title>
<g id="a_edge1_Node000001_Node000002"><a xlink:title=" ">
<path fill="none" stroke="#63b8ff" d="M55.48,-56.55C66.46,-59.94 79.3,-63.79 91,-67 98.1,-68.95 105.59,-70.9 113,-72.78"/>
<polygon fill="#63b8ff" stroke="#63b8ff" points="112.11,-76.17 122.66,-75.2 113.81,-69.38 112.11,-76.17"/>
</a>
</g>
</g>
<!-- Node3 -->
<g id="Node000003" class="node">
<title>Node3</title>
<g id="a_Node000003"><a xlink:href="class_engine3_d_1_1_pave3d.html#a4119fbf8bcb7a8e53bf791e07dad4a36" target="_top" xlink:title="Retourne tous les triangles du pavé">
<polygon fill="white" stroke="#666666" points="248,-58 91,-58 91,-38 248,-38 248,-58"/>
<text text-anchor="middle" x="169.5" y="-44.5" font-family="Helvetica,sans-Serif" font-size="10.00">Engine3D::Pave3d::getTriangles</text>
</a>
</g>
</g>
<!-- Node1&#45;&gt;Node3 -->
<g id="edge2_Node000001_Node000003" class="edge">
<title>Node1&#45;&gt;Node3</title>
<g id="a_edge2_Node000001_Node000003"><a xlink:title=" ">
<path fill="none" stroke="#63b8ff" d="M55.49,-48C62.62,-48 70.72,-48 79.23,-48"/>
<polygon fill="#63b8ff" stroke="#63b8ff" points="79.09,-51.5 89.09,-48 79.09,-44.5 79.09,-51.5"/>
</a>
</g>
</g>
<!-- Node6 -->
<g id="Node000006" class="node">
<title>Node6</title>
<g id="a_Node000006"><a xlink:href="class_engine3_d_1_1_pave3d.html#a17d8fdec0f274f775de834fe0b1a6366" target="_top" xlink:title="Définit les angles de rotation.">
<polygon fill="white" stroke="#666666" points="246.5,-20 92.5,-20 92.5,0 246.5,0 246.5,-20"/>
<text text-anchor="middle" x="169.5" y="-6.5" font-family="Helvetica,sans-Serif" font-size="10.00">Engine3D::Pave3d::setRotation</text>
</a>
</g>
</g>
<!-- Node1&#45;&gt;Node6 -->
<g id="edge5_Node000001_Node000006" class="edge">
<title>Node1&#45;&gt;Node6</title>
<g id="a_edge5_Node000001_Node000006"><a xlink:title=" ">
<path fill="none" stroke="#63b8ff" d="M55.48,-39.45C66.46,-36.06 79.3,-32.21 91,-29 98.1,-27.05 105.59,-25.1 113,-23.22"/>
<polygon fill="#63b8ff" stroke="#63b8ff" points="113.81,-26.62 122.66,-20.8 112.11,-19.83 113.81,-26.62"/>
</a>
</g>
</g>
<!-- Node4 -->
<g id="Node000004" class="node">
<title>Node4</title>
<g id="a_Node000004"><a xlink:href="class_engine3_d_1_1_quad3d.html#aaa0bdee0dc9d2376064665d7caf6b0f5" target="_top" xlink:title="Retourne les triangles du quad.">
<polygon fill="white" stroke="#666666" points="441.75,-80 284,-80 284,-60 441.75,-60 441.75,-80"/>
<text text-anchor="middle" x="362.88" y="-66.5" font-family="Helvetica,sans-Serif" font-size="10.00">Engine3D::Quad3d::getTriangles</text>
</a>
</g>
</g>
<!-- Node3&#45;&gt;Node4 -->
<g id="edge3_Node000003_Node000004" class="edge">
<title>Node3&#45;&gt;Node4</title>
<g id="a_edge3_Node000003_Node000004"><a xlink:title=" ">
<path fill="none" stroke="#63b8ff" d="M248.34,-56.95C256.29,-57.86 264.41,-58.8 272.46,-59.72"/>
<polygon fill="#63b8ff" stroke="#63b8ff" points="271.96,-63.19 282.29,-60.85 272.76,-56.23 271.96,-63.19"/>
</a>
</g>
</g>
<!-- Node5 -->
<g id="Node000005" class="node">
<title>Node5</title>
<g id="a_Node000005"><a xlink:href="class_engine3_d_1_1_pave3d.html#a9ac0e8d9d88b16945a180d5e86b09879" target="_top" xlink:title="Applique la rotation à un point.">
<polygon fill="white" stroke="#666666" points="427.12,-42 298.62,-42 298.62,-10 427.12,-10 427.12,-42"/>
<text text-anchor="start" x="306.62" y="-28.5" font-family="Helvetica,sans-Serif" font-size="10.00">Engine3D::Pave3d::rotate</text>
<text text-anchor="middle" x="362.88" y="-16.5" font-family="Helvetica,sans-Serif" font-size="10.00">Point</text>
</a>
</g>
</g>
<!-- Node3&#45;&gt;Node5 -->
<g id="edge4_Node000003_Node000005" class="edge">
<title>Node3&#45;&gt;Node5</title>
<g id="a_edge4_Node000003_Node000005"><a xlink:title=" ">
<path fill="none" stroke="#63b8ff" d="M248.34,-39.05C261.02,-37.59 274.13,-36.09 286.74,-34.64"/>
<polygon fill="#63b8ff" stroke="#63b8ff" points="287.11,-38.12 296.65,-33.5 286.31,-31.16 287.11,-38.12"/>
</a>
</g>
</g>
</g>
</svg>
