<?xml version="1.0" encoding="UTF-8" standalone="no"?>
<!DOCTYPE svg PUBLIC "-//W3C//DTD SVG 1.1//EN"
 "http://www.w3.org/Graphics/SVG/1.1/DTD/svg11.dtd">
<!-- Generated by graphviz version 12.2.1 (0)
 -->
<!-- Title: Engine3D::ColoredTriangle Pages: 1 -->
<svg width="166pt" height="634pt"
 viewBox="0.00 0.00 165.50 634.00" xmlns="http://www.w3.org/2000/svg" xmlns:xlink="http://www.w3.org/1999/xlink">
<g id="graph0" class="graph" transform="scale(1 1) rotate(0) translate(4 630)">
<title>Engine3D::ColoredTriangle</title>
<!-- Node1 -->
<g id="Node000001" class="node">
<title>Node1</title>
<g id="a_Node000001"><a xlink:title="Triangle avec sa couleur associée.">
<polygon fill="#999999" stroke="none" points="157.38,-52 32.38,-52 32.38,0 157.38,0 157.38,-52"/>
<text text-anchor="start" x="36.38" y="-38.5" font-family="Helvetica,sans-Serif" font-size="10.00">Engine3D::ColoredTriangle</text>
<text text-anchor="start" x="93.38" y="-22.5" font-family="Helvetica,sans-Serif" font-size="10.00"> </text>
<text text-anchor="start" x="93.38" y="-6.5" font-family="Helvetica,sans-Serif" font-size="10.00"> </text>
<polygon fill="#666666" stroke="#666666" points="32.38,-34 32.38,-34 157.38,-34 157.38,-34 32.38,-34"/>
<polygon fill="#666666" stroke="#666666" points="32.38,-18 32.38,-18 157.38,-18 157.38,-18 32.38,-18"/>
<polygon fill="none" stroke="#666666" points="32.38,0 32.38,-52 157.38,-52 157.38,0 32.38,0"/>
</a>
</g>
</g>
<!-- Node2 -->
<g id="Node000002" class="node">
<title>Node2</title>
<g id="a_Node000002"><a xlink:href="class_engine3_d_1_1_triangle3d.html" target="_top" xlink:title="Triangle dans l&#39;espace 3D.">
<polygon fill="white" stroke="none" points="101.75,-238 0,-238 0,-138 101.75,-138 101.75,-238"/>
<text text-anchor="start" x="4" y="-224.5" font-family="Helvetica,sans-Serif" font-size="10.00">Engine3D::Triangle3d</text>
<text text-anchor="start" x="49.38" y="-208.5" font-family="Helvetica,sans-Serif" font-size="10.00"> </text>
<text text-anchor="start" x="12.19" y="-192.5" font-family="Helvetica,sans-Serif" font-size="10.00">+</text>
<text text-anchor="start" x="30.38" y="-192.5" font-family="Helvetica,sans-Serif" font-size="10.00">Triangle3d()</text>
<text text-anchor="start" x="12.19" y="-176.5" font-family="Helvetica,sans-Serif" font-size="10.00">+</text>
<text text-anchor="start" x="30.38" y="-176.5" font-family="Helvetica,sans-Serif" font-size="10.00">Triangle3d()</text>
<text text-anchor="start" x="12.19" y="-160.5" font-family="Helvetica,sans-Serif" font-size="10.00">+</text>
<text text-anchor="start" x="30.38" y="-160.5" font-family="Helvetica,sans-Serif" font-size="10.00">normal()</text>
<text text-anchor="start" x="12.19" y="-144.5" font-family="Helvetica,sans-Serif" font-size="10.00">+</text>
<text text-anchor="start" x="30.38" y="-144.5" font-family="Helvetica,sans-Serif" font-size="10.00">center()</text>
<polygon fill="#666666" stroke="#666666" points="0,-220 0,-220 101.75,-220 101.75,-220 0,-220"/>
<polygon fill="#666666" stroke="#666666" points="0,-204 0,-204 101.75,-204 101.75,-204 0,-204"/>
<polygon fill="none" stroke="#666666" points="0,-138 0,-238 101.75,-238 101.75,-138 0,-138"/>
</a>
</g>
</g>
<!-- Node2&#45;&gt;Node1 -->
<g id="edge1_Node000001_Node000002" class="edge">
<title>Node2&#45;&gt;Node1</title>
<g id="a_edge1_Node000001_Node000002"><a xlink:title=" ">
<path fill="none" stroke="#63b8ff" d="M57.21,-138.13C60.75,-116.85 65.97,-91.84 73.38,-70 74.08,-67.93 74.86,-65.84 75.69,-63.75"/>
<polygon fill="none" stroke="#63b8ff" points="75.69,-63.75 74.49,-56.64 80.59,-52.79 81.79,-59.9 75.69,-63.75"/>
</a>
</g>
<text text-anchor="start" x="76.38" y="-91.5" font-family="Helvetica,sans-Serif" font-size="10.00" fill="grey">+triangle</text>
</g>
<!-- Node3 -->
<g id="Node000003" class="node">
<title>Node3</title>
<g id="a_Node000003"><a xlink:href="class_engine3_d_1_1_point3d.html" target="_top" xlink:title="Représente un point dans l&#39;espace 3D.">
<polygon fill="white" stroke="none" points="95.75,-488 6,-488 6,-324 95.75,-324 95.75,-488"/>
<text text-anchor="start" x="10" y="-474.5" font-family="Helvetica,sans-Serif" font-size="10.00">Engine3D::Point3d</text>
<text text-anchor="start" x="49.38" y="-458.5" font-family="Helvetica,sans-Serif" font-size="10.00"> </text>
<text text-anchor="start" x="15.94" y="-442.5" font-family="Helvetica,sans-Serif" font-size="10.00">+</text>
<text text-anchor="start" x="31.88" y="-442.5" font-family="Helvetica,sans-Serif" font-size="10.00">Point3d()</text>
<text text-anchor="start" x="15.94" y="-426.5" font-family="Helvetica,sans-Serif" font-size="10.00">+</text>
<text text-anchor="start" x="31.88" y="-426.5" font-family="Helvetica,sans-Serif" font-size="10.00">Point3d()</text>
<text text-anchor="start" x="15.94" y="-410.5" font-family="Helvetica,sans-Serif" font-size="10.00">+</text>
<text text-anchor="start" x="31.88" y="-410.5" font-family="Helvetica,sans-Serif" font-size="10.00">operator&#45;()</text>
<text text-anchor="start" x="15.94" y="-394.5" font-family="Helvetica,sans-Serif" font-size="10.00">+</text>
<text text-anchor="start" x="31.88" y="-394.5" font-family="Helvetica,sans-Serif" font-size="10.00">operator+()</text>
<text text-anchor="start" x="15.94" y="-378.5" font-family="Helvetica,sans-Serif" font-size="10.00">+</text>
<text text-anchor="start" x="31.88" y="-378.5" font-family="Helvetica,sans-Serif" font-size="10.00">operator*()</text>
<text text-anchor="start" x="15.94" y="-362.5" font-family="Helvetica,sans-Serif" font-size="10.00">+</text>
<text text-anchor="start" x="31.88" y="-362.5" font-family="Helvetica,sans-Serif" font-size="10.00">cross()</text>
<text text-anchor="start" x="15.94" y="-346.5" font-family="Helvetica,sans-Serif" font-size="10.00">+</text>
<text text-anchor="start" x="31.88" y="-346.5" font-family="Helvetica,sans-Serif" font-size="10.00">dot()</text>
<text text-anchor="start" x="15.94" y="-330.5" font-family="Helvetica,sans-Serif" font-size="10.00">+</text>
<text text-anchor="start" x="31.88" y="-330.5" font-family="Helvetica,sans-Serif" font-size="10.00">normalize()</text>
<polygon fill="#666666" stroke="#666666" points="6,-470 6,-470 95.75,-470 95.75,-470 6,-470"/>
<polygon fill="#666666" stroke="#666666" points="6,-454 6,-454 95.75,-454 95.75,-454 6,-454"/>
<polygon fill="none" stroke="#666666" points="6,-324 6,-488 95.75,-488 95.75,-324 6,-324"/>
</a>
</g>
</g>
<!-- Node3&#45;&gt;Node2 -->
<g id="edge2_Node000002_Node000003" class="edge">
<title>Node3&#45;&gt;Node2</title>
<g id="a_edge2_Node000002_Node000003"><a xlink:title=" ">
<path fill="none" stroke="#63b8ff" d="M50.88,-324.26C50.88,-300.02 50.88,-273.82 50.88,-250.99"/>
<polygon fill="none" stroke="#63b8ff" points="50.88,-250.88 46.88,-244.88 50.88,-238.88 54.88,-244.88 50.88,-250.88"/>
</a>
</g>
<text text-anchor="start" x="53.88" y="-293.5" font-family="Helvetica,sans-Serif" font-size="10.00" fill="grey">+p1</text>
<text text-anchor="start" x="53.88" y="-277.5" font-family="Helvetica,sans-Serif" font-size="10.00" fill="grey">+p2</text>
<text text-anchor="start" x="53.88" y="-261.5" font-family="Helvetica,sans-Serif" font-size="10.00" fill="grey">+p3</text>
</g>
<!-- Node4 -->
<g id="Node000004" class="node">
<title>Node4</title>
<g id="a_Node000004"><a xlink:title=" ">
<polygon fill="white" stroke="none" points="64.25,-626 37.5,-626 37.5,-574 64.25,-574 64.25,-626"/>
<text text-anchor="start" x="41.5" y="-612.5" font-family="Helvetica,sans-Serif" font-size="10.00">float</text>
<text text-anchor="start" x="49.38" y="-596.5" font-family="Helvetica,sans-Serif" font-size="10.00"> </text>
<text text-anchor="start" x="49.38" y="-580.5" font-family="Helvetica,sans-Serif" font-size="10.00"> </text>
<polygon fill="#666666" stroke="#666666" points="37.5,-608 37.5,-608 64.25,-608 64.25,-608 37.5,-608"/>
<polygon fill="#666666" stroke="#666666" points="37.5,-592 37.5,-592 64.25,-592 64.25,-592 37.5,-592"/>
<polygon fill="none" stroke="#666666" points="37.5,-574 37.5,-626 64.25,-626 64.25,-574 37.5,-574"/>
</a>
</g>
</g>
<!-- Node4&#45;&gt;Node3 -->
<g id="edge3_Node000003_Node000004" class="edge">
<title>Node4&#45;&gt;Node3</title>
<g id="a_edge3_Node000003_Node000004"><a xlink:title=" ">
<path fill="none" stroke="#63b8ff" d="M50.88,-574.29C50.88,-555.32 50.88,-527.83 50.88,-500.61"/>
<polygon fill="none" stroke="#63b8ff" points="50.88,-500.63 46.88,-494.63 50.88,-488.63 54.88,-494.63 50.88,-500.63"/>
</a>
</g>
<text text-anchor="start" x="53.88" y="-543.5" font-family="Helvetica,sans-Serif" font-size="10.00" fill="grey">+x</text>
<text text-anchor="start" x="53.88" y="-527.5" font-family="Helvetica,sans-Serif" font-size="10.00" fill="grey">+y</text>
<text text-anchor="start" x="53.88" y="-511.5" font-family="Helvetica,sans-Serif" font-size="10.00" fill="grey">+z</text>
</g>
<!-- Node5 -->
<g id="Node000005" class="node">
<title>Node5</title>
<g id="a_Node000005"><a xlink:title=" ">
<polygon fill="white" stroke="none" points="157.5,-214 120.25,-214 120.25,-162 157.5,-162 157.5,-214"/>
<text text-anchor="start" x="124.25" y="-200.5" font-family="Helvetica,sans-Serif" font-size="10.00">uint8_t</text>
<text text-anchor="start" x="137.38" y="-184.5" font-family="Helvetica,sans-Serif" font-size="10.00"> </text>
<text text-anchor="start" x="137.38" y="-168.5" font-family="Helvetica,sans-Serif" font-size="10.00"> </text>
<polygon fill="#666666" stroke="#666666" points="120.25,-196 120.25,-196 157.5,-196 157.5,-196 120.25,-196"/>
<polygon fill="#666666" stroke="#666666" points="120.25,-180 120.25,-180 157.5,-180 157.5,-180 120.25,-180"/>
<polygon fill="none" stroke="#666666" points="120.25,-162 120.25,-214 157.5,-214 157.5,-162 120.25,-162"/>
</a>
</g>
</g>
<!-- Node5&#45;&gt;Node1 -->
<g id="edge4_Node000001_Node000005" class="edge">
<title>Node5&#45;&gt;Node1</title>
<g id="a_edge4_Node000001_Node000005"><a xlink:title=" ">
<path fill="none" stroke="#63b8ff" d="M136.32,-162.27C133.34,-138.23 127.44,-100.9 116.88,-70 116.17,-67.93 115.37,-65.83 114.52,-63.73"/>
<polygon fill="none" stroke="#63b8ff" points="114.5,-63.68 108.37,-59.88 109.53,-52.76 115.65,-56.56 114.5,-63.68"/>
</a>
</g>
<text text-anchor="start" x="132.17" y="-107.5" font-family="Helvetica,sans-Serif" font-size="10.00" fill="grey">+b</text>
<text text-anchor="start" x="132.17" y="-91.5" font-family="Helvetica,sans-Serif" font-size="10.00" fill="grey">+g</text>
<text text-anchor="start" x="132.17" y="-75.5" font-family="Helvetica,sans-Serif" font-size="10.00" fill="grey">+r</text>
</g>
</g>
</svg>
